<?xml version="1.0" encoding="UTF-8" standalone="no"?>
<!-- Created with Inkscape (http://www.inkscape.org/) -->

<svg
   width="1024mm"
   height="600mm"
   viewBox="0 0 1024 600"
   version="1.1"
   id="svg84706"
   sodipodi:docname="eagle.svg"
   inkscape:version="1.1.1 (3bf5ae0d25, 2021-09-20)"
   xmlns:inkscape="http://www.inkscape.org/namespaces/inkscape"
   xmlns:sodipodi="http://sodipodi.sourceforge.net/DTD/sodipodi-0.dtd"
   xmlns="http://www.w3.org/2000/svg"
   xmlns:svg="http://www.w3.org/2000/svg">
  <sodipodi:namedview
     id="namedview84708"
     pagecolor="#505050"
     bordercolor="#ffffff"
     borderopacity="1"
     inkscape:pageshadow="0"
     inkscape:pageopacity="0"
     inkscape:pagecheckerboard="1"
     inkscape:document-units="mm"
     showgrid="false"
     units="px"
     inkscape:zoom="0.18529742"
     inkscape:cx="1666.4387"
     inkscape:cy="455.79881"
     inkscape:window-width="1920"
     inkscape:window-height="1017"
     inkscape:window-x="1912"
     inkscape:window-y="-8"
     inkscape:window-maximized="1"
     inkscape:current-layer="layer2" />
  <defs
     id="defs84703" />
  <g
     inkscape:label="Layer 1"
     inkscape:groupmode="layer"
     id="layer1"
     style="display:inline"
     sodipodi:insensitive="true">
    <path
       style="fill:none;stroke:#000000;stroke-width:0.555486px;stroke-linecap:butt;stroke-linejoin:miter;stroke-opacity:1"
       d="m 363.58493,39.813126 c 0,0 -28.10447,16.48794 -97.05403,10.86709 -68.94959,-5.62093 -84.31335,25.48136 -84.31335,25.48136"
       id="path89880"
       inkscape:export-filename="D:\Art\kajamGame\eagle.png"
       inkscape:export-xdpi="52.399212"
       inkscape:export-ydpi="52.399212" />
    <path
       style="fill:none;stroke:#000000;stroke-width:0.555486px;stroke-linecap:butt;stroke-linejoin:miter;stroke-opacity:1"
       d="m 234.30445,100.8935 c 0,0 -4.12201,4.49672 -20.60994,-11.991244 -16.48794,-16.48793 -40.37673,-11.89755 -40.37673,-11.89755 0,0 -42.43771,2.15467 -46.55968,19.39208 -4.12198,17.237384 -1.49892,25.856104 -1.49892,25.856104 0,0 16.01956,-22.764624 50.02591,-22.951974 34.00641,-0.18727 52.46168,4.871434 59.58145,1.686244 7.11983,-3.185174 -36.81685,22.57727 -70.72956,19.39207 -33.9127,-3.18515 -35.69266,-1.59258 -35.69266,-1.59258"
       id="path89882"
       inkscape:export-filename="D:\Art\kajamGame\eagle.png"
       inkscape:export-xdpi="52.399212"
       inkscape:export-ydpi="52.399212" />
    <path
       style="fill:none;stroke:#000000;stroke-width:0.555486px;stroke-linecap:butt;stroke-linejoin:miter;stroke-opacity:1"
       d="m 214.2566,110.82377 c 0,0 42.15669,0.93676 74.00844,18.92361"
       id="path89884"
       inkscape:export-filename="D:\Art\kajamGame\eagle.png"
       inkscape:export-xdpi="52.399212"
       inkscape:export-ydpi="52.399212" />
    <path
       style="fill:none;stroke:#000000;stroke-width:0.555486px;stroke-linecap:butt;stroke-linejoin:miter;stroke-opacity:1"
       d="m 288.26504,129.74738 c 0,0 10.86702,7.49453 13.11534,10.11762 2.2484,2.62307 2.2484,2.62307 2.2484,2.62307 l -4.49672,-23.04567 32.03905,6.55774 -13.86482,-15.36375 34.66216,-1.12419 -16.86267,-18.174244 37.65996,-11.05438 -13.86486,-9.36818 24.91926,-15.17637 -20.60993,-3.55995 9.93025,-15.55111 -9.55553,3.18516"
       id="path89886"
       inkscape:export-filename="D:\Art\kajamGame\eagle.png"
       inkscape:export-xdpi="52.399212"
       inkscape:export-ydpi="52.399212" />
    <path
       style="fill:none;stroke:#000000;stroke-width:0.555486px;stroke-linecap:butt;stroke-linejoin:miter;stroke-opacity:1"
       d="m 738.31097,142.48807 c 0,0 60.70563,-2.99777 99.67714,-48.714344 38.97141,-45.71664 1.49885,29.228614 1.49885,29.228614 l 34.47481,-15.73852 -44.21761,43.46822 42.71866,1.49894 -63.70332,20.98466 52.46156,9.74282 c 0,0 -36.84512,30.81205 -91.16425,28.16238 -54.31913,-2.64974 -54.31913,-2.64974 -54.31913,-2.64974"
       id="path89896"
       inkscape:export-filename="D:\Art\kajamGame\eagle.png"
       inkscape:export-xdpi="52.399212"
       inkscape:export-ydpi="52.399212" />
    <path
       style="fill:none;stroke:#000000;stroke-width:0.555486px;stroke-linecap:butt;stroke-linejoin:miter;stroke-opacity:1"
       d="m 738.31097,142.48807 v 0"
       id="path89898"
       inkscape:export-filename="D:\Art\kajamGame\eagle.png"
       inkscape:export-xdpi="52.399212"
       inkscape:export-ydpi="52.399212" />
    <path
       style="fill:none;stroke:#000000;stroke-width:0.555486px;stroke-linecap:butt;stroke-linejoin:miter;stroke-opacity:1"
       d="m 738.31097,142.48807 c 0,0 -4.75401,-0.65723 -7.00625,0.6676 -2.25219,1.32488 -2.25219,1.32488 -2.25219,1.32488"
       id="path89900"
       inkscape:export-filename="D:\Art\kajamGame\eagle.png"
       inkscape:export-xdpi="52.399212"
       inkscape:export-ydpi="52.399212" />
    <path
       style="fill:none;stroke:#000000;stroke-width:0.555486px;stroke-linecap:butt;stroke-linejoin:miter;stroke-opacity:1"
       d="m 700.24292,218.64595 c 0,0 8.48653,3.95862 20.93666,2.08045 12.45018,-1.87815 16.1553,-4.26985 33.65781,3.38148 17.50251,7.65132 19.88323,5.52708 25.97409,3.66081 6.09085,-1.86621 18.53399,-7.45395 12.18764,-0.55282 -6.34636,6.90119 -20.38731,8.25241 -20.38731,8.25241 0,0 15.36582,-1.35372 21.99455,1.01862 6.62874,2.37228 18.02748,5.00064 7.69909,7.93472 -10.32845,2.93408 -37.89779,-3.6385 -37.89779,-3.6385 0,0 35.54883,22.72083 13.27539,14.28355 -22.27345,-8.43729 -30.76993,-17.69533 -48.26546,-21.63706 -17.49553,-3.94175 -39.64719,-8.79524 -39.64719,-8.79524"
       id="path89902"
       inkscape:export-filename="D:\Art\kajamGame\eagle.png"
       inkscape:export-xdpi="52.399212"
       inkscape:export-ydpi="52.399212" />
    <path
       style="fill:none;stroke:#000000;stroke-width:0.555486px;stroke-linecap:butt;stroke-linejoin:miter;stroke-opacity:1"
       d="m 754.07927,243.71719 c 0,0 -14.29948,4.79634 -21.72119,3.48541 -7.42165,-1.31095 -6.09475,-0.25353 -6.09475,-0.25353 0,0 57.78998,13.93504 26.5179,11.07905 -31.27197,-2.856 -32.33539,-4.70879 -32.33539,-4.70879 0,0 37.67708,27.22138 10.8907,14.288 -26.78643,-12.93332 -34.49396,-25.37257 -43.24995,-31.71544 0,0 -7.29836,-6.2131 -9.81508,-5.9434"
       id="path89904"
       inkscape:export-filename="D:\Art\kajamGame\eagle.png"
       inkscape:export-xdpi="52.399212"
       inkscape:export-ydpi="52.399212" />
    <path
       style="fill:none;stroke:#000000;stroke-width:0.555486px;stroke-linecap:butt;stroke-linejoin:miter;stroke-opacity:1"
       d="m 178.79726,120.09728 -3.04134,7.0242 34.31038,-4.1357 -2.77633,7.02408 20.12815,-11.54313 14.1834,8.86474 5.95619,-6.76176 17.88955,4.75451 -0.13713,-5.43177"
       id="path89910"
       inkscape:export-filename="D:\Art\kajamGame\eagle.png"
       inkscape:export-xdpi="52.399212"
       inkscape:export-ydpi="52.399212" />
    <path
       style="fill:none;stroke:#000000;stroke-width:0.555486px;stroke-linecap:butt;stroke-linejoin:miter;stroke-opacity:1"
       d="m 331.17111,126.00014 c 0,0 65.79244,107.58748 173.91007,118.62589 108.11753,11.03844 203.76715,-49.66847 203.76715,-49.66847"
       id="path89912"
       inkscape:export-filename="D:\Art\kajamGame\eagle.png"
       inkscape:export-xdpi="52.399212"
       inkscape:export-ydpi="52.399212" />
    <path
       style="fill:#6c5353;fill-rule:evenodd;stroke:#251a0b;stroke-width:2.13312"
       d="m 500.19741,271.84341 c -37.40238,-2.72844 -64.0611,-11.83469 -87.96044,-30.04625 -7.17937,-5.47069 -15.07266,-13.38121 -29.91158,-29.97664 -17.95482,-20.08028 -37.00761,-40.93689 -50.36067,-55.12866 -10.158,-10.7961 -25.98735,-26.55713 -29.44903,-29.32201 -1.33261,-1.06436 -1.74984,-1.88709 -2.07975,-4.10115 -0.22701,-1.52331 -0.34228,-2.83909 -0.25624,-2.92403 0.29374,-0.28974 30.32732,6.06268 30.72138,6.49798 0.21597,0.23858 2.17762,3.02872 4.35912,6.20028 16.93272,24.61764 42.04626,50.83552 65.92893,68.82811 26.34509,19.84769 54.02429,33.24218 81.71042,39.54134 33.07321,7.52484 74.8149,6.55895 116.40862,-2.69355 35.44561,-7.88485 76.11247,-23.53946 104.91341,-40.38607 l 4.55128,-2.66223 13.38711,-0.0729 13.38711,-0.0729 -23.45185,14.58339 c -23.66959,14.71884 -29.36651,17.81622 -46.58828,25.32973 -41.10041,17.93125 -83.47547,30.03641 -121.61037,34.74004 -7.51993,0.9275 -37.92887,2.08664 -43.69917,1.66569 z"
       id="path90444"
       inkscape:export-filename="D:\Art\kajamGame\eagle.png"
       inkscape:export-xdpi="52.399212"
       inkscape:export-ydpi="52.399212" />
    <path
       style="fill:#c8b7b7;fill-rule:evenodd;stroke:#251a0b;stroke-width:2.13312"
       d="m 301.81788,139.50972 c -0.61037,-1.51736 -13.15751,-10.2832 -18.54502,-12.95609 -14.98572,-7.43502 -35.67831,-13.03504 -55.89445,-15.12679 -10.55884,-1.09252 -10.39315,-1.03976 -7.25143,-2.31048 4.14849,-1.67801 16.04073,-7.76658 16.03367,-8.20892 -0.006,-0.2198 -1.25763,-0.3388 -2.78683,-0.26452 -4.54491,0.22086 -7.87518,-1.787674 -17.79315,-10.731504 -6.39577,-5.76751 -11.21244,-9.02581 -15.74132,-10.64839 -3.95112,-1.4156 -10.46857,-2.96707 -12.52193,-2.98085 -3.65105,-0.0244 -3.81564,-0.49671 -1.21464,-3.48467 5.20242,-5.97637 13.70297,-11.54423 23.05153,-15.09889 2.85269,-1.08465 5.65102,-2.23027 6.2185,-2.54579 2.04162,-1.13513 14.0734,-3.32043 22.37388,-4.06371 9.21793,-0.82546 17.42569,-0.71252 32.07275,0.44115 11.77997,0.92783 44.04766,0.56788 52.72662,-0.5882 15.39698,-2.05096 27.75077,-4.92188 36.36742,-8.45155 6.71905,-2.75237 12.05771,-4.66442 12.31846,-4.41189 0.12126,0.11751 -1.67046,3.13677 -3.98185,6.70939 -2.31143,3.57264 -4.31422,6.80141 -4.45077,7.17505 -0.18193,0.49776 2.30717,1.11362 9.31267,2.30414 5.25851,0.89368 9.45636,1.80028 9.32856,2.01469 -0.1278,0.21447 -5.42738,3.53838 -11.77681,7.38653 -6.34942,3.84812 -11.538,7.11577 -11.53022,7.26142 0.007,0.14554 3.00662,2.26516 6.66412,4.71009 l 6.64994,4.44532 -17.95038,5.27612 c -9.8727,2.90187 -18.20682,5.43892 -18.52029,5.63796 -0.54177,0.34396 1.60374,2.84958 11.94446,13.949274 l 3.96701,4.25819 -13.43434,0.28473 c -7.38891,0.15664 -15.1365,0.45979 -17.21679,0.67364 l -3.78241,0.38891 6.53229,7.26786 c 5.66607,6.30399 6.32371,7.21759 4.95916,6.88902 -6.47052,-1.55807 -26.84615,-5.68689 -27.99278,-5.67228 -1.65552,0.0211 -1.67273,-0.31002 0.53571,10.32181 1.76101,8.4779 2.16506,10.83054 1.86117,10.83537 -0.14017,0 -0.3798,-0.30652 -0.53251,-0.68614 z"
       id="path90520"
       inkscape:export-filename="D:\Art\kajamGame\eagle.png"
       inkscape:export-xdpi="52.399212"
       inkscape:export-ydpi="52.399212" />
    <path
       style="fill:#c8b7b7;fill-rule:evenodd;stroke:#251a0b;stroke-width:2.13312"
       d="m 744.59081,209.39232 c -12.10757,-0.6282 -23.03418,-1.19946 -24.28148,-1.26951 l -2.26778,-0.12732 10.90187,-6.79998 10.90177,-6.79999 -14.83679,-0.0273 -14.83689,-0.0273 15.6301,-16.60702 c 8.59657,-9.13381 15.71413,-16.84556 15.81683,-17.13708 0.10322,-0.29313 -0.25375,-0.39006 -0.7985,-0.2168 -2.03783,0.64819 -28.83474,6.1651 -29.02938,5.97659 -0.11201,-0.10824 2.6886,-1.76167 6.22329,-3.67406 14.84004,-8.02904 23.47832,-14.31103 23.43451,-17.0423 -0.025,-1.56659 -1.93205,-2.36366 -5.76116,-2.4082 -1.66276,-0.0196 0.19306,-0.2568 4.12401,-0.52772 11.31838,-0.77989 24.83472,-3.74869 37.88877,-8.32201 24.12478,-8.45178 43.43395,-21.05987 59.18467,-38.645174 8.29894,-9.26561 13.11951,-14.0323 15.46183,-15.28898 1.07239,-0.57526 2.07833,-1.04803 2.23567,-1.05059 0.15699,0 0.30379,1.09287 0.32509,2.43414 0.0702,4.3655 -3.93229,15.28053 -11.97572,32.659924 -3.12267,6.74733 -4.0422,9.19518 -3.37817,8.99387 0.50169,-0.15221 7.50468,-3.28986 15.56197,-6.97268 8.05734,-3.68288 14.74089,-6.60791 14.85226,-6.50013 0.18742,0.18159 -30.69382,30.79309 -38.00666,37.67468 -1.78425,1.67895 -3.12296,3.16715 -2.97488,3.30702 0.14792,0.14001 8.85975,0.53626 19.35944,0.8809 10.49986,0.34457 19.2551,0.76473 19.45655,0.93372 0.20121,0.16892 -13.01995,4.69569 -29.38054,10.05946 -16.36059,5.36372 -29.74514,10.01086 -29.74356,10.32693 0,0.3339 9.63596,2.35665 22.99409,4.82768 12.64516,2.33911 24.13363,4.48071 25.53018,4.75918 l 2.53888,0.50622 -1.24725,1.01398 c -2.6595,2.16184 -10.34124,6.83048 -16.62138,10.10167 -14.86884,7.74504 -29.99964,12.61955 -46.55999,14.9998 -9.14422,1.31428 -25.2315,1.31046 -50.72165,-0.0126 z"
       id="path90559"
       inkscape:export-filename="D:\Art\kajamGame\eagle.png"
       inkscape:export-xdpi="52.399212"
       inkscape:export-ydpi="52.399212" />
    <path
       style="fill:none;stroke:#000000;stroke-width:0.555486px;stroke-linecap:butt;stroke-linejoin:miter;stroke-opacity:1"
       d="m 124.40618,113.93619 c 0,0 0.88344,-23.489824 28.92243,-31.007904 28.03906,-7.51812 33.83027,-5.41465 33.83027,-5.41465"
       id="path90711"
       inkscape:export-filename="D:\Art\kajamGame\eagle.png"
       inkscape:export-xdpi="52.399212"
       inkscape:export-ydpi="52.399212" />
    <path
       style="fill:#d45500;fill-rule:evenodd;stroke:#251a0b;stroke-width:0.754175"
       d="m 125.28528,120.34011 c -0.0655,-0.38539 -0.1998,-2.17721 -0.29857,-3.98171 -0.16298,-2.97897 -0.14381,-3.4618 0.20825,-5.24546 1.43394,-7.26425 5.2248,-13.823554 10.94858,-18.943974 3.1005,-2.77365 8.42672,-5.87093 12.81024,-7.44923 4.61886,-1.66301 16.38084,-4.54883 23.79818,-5.83888 5.87009,-1.02093 10.88581,-1.47375 13.09225,-1.18202 0.9435,0.12465 1.34333,0.11463 1.43315,-0.0362 0.17865,-0.29958 1.6637,-0.11213 4.76558,0.60182 9.39166,2.1614 13.49398,4.37977 22.09251,11.94678 5.2489,4.61926 7.3803,6.4087 9.36528,7.86241 1.96488,1.43909 4.41545,2.809654 5.80849,3.248584 0.68858,0.21698 0.35602,0.24092 -3.06957,0.22082 -2.65266,-0.0159 -6.45529,-0.2447 -12.28568,-0.74019 -16.26046,-1.381994 -22.90341,-1.727574 -36.10216,-1.878164 -12.72133,-0.14508 -23.57687,2.257344 -33.46891,7.407084 -6.54318,3.40641 -11.5449,7.123 -16.37719,12.1693 -1.33615,1.39534 -2.46807,2.53758 -2.5154,2.53831 -0.0472,0 -0.13952,-0.31398 -0.20503,-0.69941 z"
       id="path90783"
       inkscape:export-filename="D:\Art\kajamGame\eagle.png"
       inkscape:export-xdpi="52.399212"
       inkscape:export-ydpi="52.399212" />
    <path
       style="fill:#ff7f2a;fill-rule:evenodd;stroke:#251a0b;stroke-width:0.754175"
       d="m 125.33117,106.89436 c -0.0217,-0.65248 0.82706,-5.91532 1.35816,-8.420294 0.39001,-1.83927 0.63614,-2.57573 1.03898,-3.10855 0.29041,-0.384 0.91201,-1.30645 1.38138,-2.04979 0.95827,-1.51765 3.01224,-3.6235 4.67176,-4.78979 6.45741,-4.53811 17.5498,-7.82692 33.25177,-9.85894 5.16987,-0.66903 5.841,-0.64971 2.33476,0.0674 -6.00696,1.2284 -15.07693,3.46257 -18.72587,4.61264 -4.96876,1.56604 -9.87765,4.12243 -13.68256,7.12544 -1.67352,1.32084 -4.79034,4.50422 -6.09153,6.22162 -2.03945,2.69171 -3.73335,5.776284 -4.9237,8.965714 -0.33029,0.88505 -0.60622,1.44064 -0.61315,1.23462 z"
       id="path90859"
       inkscape:export-filename="D:\Art\kajamGame\eagle.png"
       inkscape:export-xdpi="52.399212"
       inkscape:export-ydpi="52.399212" />
    <path
       style="fill:#d45500;fill-rule:evenodd;stroke:#251a0b;stroke-width:0.754175"
       d="m 166.85281,119.99616 c -1.95909,-0.056 -6.60168,-0.35313 -10.31688,-0.66019 -10.87676,-0.89905 -15.97411,-1.18635 -21.75134,-1.2258 l -5.42959,-0.0372 1.74933,-1.59796 c 7.77999,-7.10663 17.58514,-12.3242 27.81759,-14.80249 5.94152,-1.43906 9.46759,-1.839234 17.06902,-1.937264 10.70106,-0.13794 20.25237,0.297134 36.09838,1.644634 9.95636,0.84668 12.70669,1.01175 16.13081,0.96827 l 3.18495,-0.0406 -1.85806,0.98637 c -2.77609,1.47371 -7.50316,3.74747 -9.64107,4.63753 -1.03947,0.43273 -2.02126,0.90846 -2.18172,1.05716 -0.68652,0.63608 -10.02136,4.04216 -16.04477,5.85443 -6.58585,1.98142 -12.0261,3.25298 -18.63044,4.35444 -3.26988,0.54538 -4.476,0.65817 -8.2327,0.76964 -2.42082,0.0718 -6.00436,0.0848 -7.96351,0.0288 z"
       id="path90972"
       inkscape:export-filename="D:\Art\kajamGame\eagle.png"
       inkscape:export-xdpi="52.399212"
       inkscape:export-ydpi="52.399212" />
    <path
       style="fill:#d45500;fill-rule:evenodd;stroke:#251a0b;stroke-width:2.13312"
       d="m 731.11584,266.74833 c -13.03845,-6.33348 -21.90791,-12.41024 -32.33638,-22.15457 -6.95173,-6.49574 -12.85639,-11.42002 -16.00396,-13.34666 l -2.2526,-1.3789 4.75965,-2.31631 4.75965,-2.31632 21.85857,4.86623 c 22.73021,5.06029 27.12049,6.40208 35.77716,10.9344 5.21263,2.72921 5.20431,2.74516 -2.33499,4.46532 -4.42565,1.00978 -6.26181,1.1522 -12.48021,0.96817 -7.81796,-0.23136 -9.3225,0.28529 -4.4804,1.53865 22.83751,5.91119 34.33598,9.47942 31.68073,9.83126 -3.06763,0.4065 -30.02711,-2.62838 -36.11645,-4.06571 -1.98797,-0.46921 -3.71199,-0.68941 -3.83128,-0.48932 -0.11928,0.20003 2.61098,2.48263 6.06712,5.07241 7.76536,5.81877 14.68439,12.01905 13.47264,12.0731 -0.48348,0.0217 -4.32609,-1.63524 -8.53925,-3.68175 z"
       id="path91011"
       inkscape:export-filename="D:\Art\kajamGame\eagle.png"
       inkscape:export-xdpi="52.399212"
       inkscape:export-ydpi="52.399212" />
    <path
       style="fill:#d45500;fill-rule:evenodd;stroke:#251a0b;stroke-width:2.13312"
       d="m 780.84115,255.50695 c -5.06996,-1.52659 -13.98801,-5.52709 -21.95475,-9.84849 -12.7275,-6.90386 -17.42506,-9.1698 -22.27316,-10.74393 -3.6133,-1.17321 -39.02842,-9.58969 -43.98678,-10.45358 -0.78756,-0.13716 0.0244,-0.85067 3.13524,-2.75383 2.49489,-1.52642 4.52323,-2.4351 4.99915,-2.23955 0.44053,0.18098 2.59642,0.74357 4.79083,1.25018 4.97174,1.14779 12.40963,1.08935 19.74394,-0.15522 7.21613,-1.22451 13.171,-1.2954 17.39236,-0.20714 1.87979,0.48466 7.36439,2.46919 12.18799,4.41011 10.53786,4.24025 15.76603,5.62736 19.46196,5.16363 1.45572,-0.1827 6.07555,-1.47531 10.26624,-2.87257 4.1907,-1.39723 8.07195,-2.47792 8.62496,-2.40154 0.96759,0.13351 0.96474,0.19225 -0.0747,1.55198 -2.53236,3.3129 -9.40234,6.59695 -17.02532,8.13853 -1.96131,0.39662 -3.56303,0.90645 -3.55936,1.13291 0.006,0.22648 4.35984,0.44499 9.68041,0.48566 l 9.67396,0.0739 5.6989,2.04112 c 3.13437,1.12263 6.37522,2.46902 7.20194,2.99196 l 1.50309,0.95077 -2.36641,1.09065 c -5.50765,2.53824 -15.90336,1.83976 -38.33344,-2.57573 -2.5031,-0.49278 -1.61906,0.65691 2.70651,3.51965 5.22183,3.45597 14.29617,10.12325 15.17834,11.15218 1.02648,1.19717 0.50623,1.25529 -2.67195,0.29829 z"
       id="path91050"
       inkscape:export-filename="D:\Art\kajamGame\eagle.png"
       inkscape:export-xdpi="52.399212"
       inkscape:export-ydpi="52.399212" />
    <ellipse
       style="fill:#803300;fill-rule:evenodd;stroke:#251a0b;stroke-width:2.23593"
       id="path91191"
       cx="230.22627"
       cy="69.702248"
       rx="6.5953927"
       ry="8.1392565"
       inkscape:export-filename="D:\Art\kajamGame\eagle.png"
       inkscape:export-xdpi="52.399212"
       inkscape:export-ydpi="52.399212" />
    <ellipse
       style="fill:#ffffff;fill-opacity:1;fill-rule:evenodd;stroke:#251a0b;stroke-width:0;stroke-miterlimit:4;stroke-dasharray:none"
       id="path91237"
       cx="228.03578"
       cy="67.488686"
       rx="1.154079"
       ry="1.8553619"
       inkscape:export-filename="D:\Art\kajamGame\eagle.png"
       inkscape:export-xdpi="52.399212"
       inkscape:export-ydpi="52.399212" />
    <path
       style="fill:#c8b7b7;stroke:#000000;stroke-width:0.555486px;stroke-linecap:butt;stroke-linejoin:miter;stroke-opacity:1"
       d="m 234.30445,100.8935 c 0,0 44.84733,14.78904 72.82433,2.61671 27.977,-12.172254 27.977,-12.172254 27.977,-12.172254"
       id="path91440"
       inkscape:export-filename="D:\Art\kajamGame\eagle.png"
       inkscape:export-xdpi="52.399212"
       inkscape:export-ydpi="52.399212" />
    <path
       style="fill:#afa3a3;fill-opacity:1;fill-rule:evenodd;stroke:#251a0b;stroke-width:0;stroke-miterlimit:4;stroke-dasharray:none"
       d="m 297.51831,134.2555 c -1.67607,-1.23579 -4.92433,-3.46035 -7.21838,-4.94356 -14.11257,-9.1243 -37.37654,-16.20747 -62.58273,-19.05444 -2.83676,-0.32042 -5.28333,-0.58055 -5.43687,-0.57811 -0.15364,0 1.31601,-0.77278 3.26564,-1.72277 1.9497,-0.95 5.28045,-2.65346 7.40169,-3.78548 l 3.8568,-2.05819 4.0426,1.07854 c 21.52914,5.74372 42.91974,7.03823 57.80233,3.49811 4.59216,-1.09231 6.41164,-1.80011 21.47165,-8.352464 11.26609,-4.9016 13.98531,-5.99341 14.1634,-5.68678 0.45017,0.77502 4.05976,4.85795 8.88928,10.055014 l 4.97421,5.35289 -13.52943,0.37602 c -11.0895,0.30818 -20.09503,0.84423 -20.47976,1.21902 -0.04,0.0388 2.38974,2.82492 5.39937,6.1911 3.00962,3.36624 5.65446,6.34171 5.87745,6.61223 0.47953,0.58181 1.14012,0.67808 -6.50786,-0.94821 -10.34004,-2.19879 -17.6833,-3.55495 -19.12383,-3.53185 -1.26767,0.0207 -1.5141,0.112 -1.88666,0.70088 -0.56059,0.88622 -0.4109,2.0594 1.38244,10.83497 0.7719,3.77718 1.37704,6.89514 1.34477,6.9288 -0.0322,0.0333 -1.43005,-0.94994 -3.10611,-2.18572 z"
       id="path91512"
       inkscape:export-filename="D:\Art\kajamGame\eagle.png"
       inkscape:export-xdpi="52.399212"
       inkscape:export-ydpi="52.399212" />
    <path
       style="fill:#c8b7b7;stroke:#000000;stroke-width:0.555486px;stroke-linecap:butt;stroke-linejoin:miter;stroke-opacity:1"
       d="m 739.84519,194.39558 c 0,0 44.21493,4.52855 71.41019,-5.65172 27.1952,-10.18029 26.08319,-9.41294 26.08319,-9.41294"
       id="path93514"
       inkscape:export-filename="D:\Art\kajamGame\eagle.png"
       inkscape:export-xdpi="52.399212"
       inkscape:export-ydpi="52.399212" />
    <path
       style="fill:#afa3a3;fill-opacity:1;fill-rule:evenodd;stroke:#251a0b;stroke-width:0;stroke-miterlimit:4;stroke-dasharray:none"
       d="m 763.42092,208.94905 c -3.60906,-0.11438 -14.15727,-0.59538 -23.44051,-1.06886 -9.28328,-0.47351 -17.13156,-0.85624 -17.44065,-0.85052 -0.30909,0.006 3.77931,-2.69065 9.08533,-5.99191 l 9.64725,-6.00231 6.19088,0.40417 c 7.95633,0.51939 30.73048,0.16315 37.28124,-0.58319 13.93192,-1.58736 19.44346,-3.00409 37.42898,-9.62125 l 13.89072,-5.11053 10.1494,1.8866 c 5.58218,1.03765 10.27043,1.88771 10.418,1.88898 0.38275,0.006 -4.68319,3.31787 -8.71399,5.70125 -7.93503,4.69195 -20.65136,10.44446 -28.75694,13.00874 -9.35318,2.95903 -19.46394,5.11276 -27.82328,5.92666 -5.44817,0.53048 -18.22921,0.71918 -27.91643,0.41217 z"
       id="path100223"
       inkscape:export-filename="D:\Art\kajamGame\eagle.png"
       inkscape:export-xdpi="52.399212"
       inkscape:export-ydpi="52.399212" />
    <path
       style="fill:none;stroke:#000000;stroke-width:0.555486px;stroke-linecap:butt;stroke-linejoin:miter;stroke-opacity:1"
       d="m 472.944,-298.85699 c 0,0 -28.1045,16.48794 -97.05404,10.86709 -68.94959,-5.62093 -84.31335,25.48136 -84.31335,25.48136"
       id="path89880-4"
       inkscape:export-filename="D:\Art\kajamGame\eagle.png"
       inkscape:export-xdpi="52.399212"
       inkscape:export-ydpi="52.399212" />
    <path
       style="fill:none;stroke:#000000;stroke-width:0.555486px;stroke-linecap:butt;stroke-linejoin:miter;stroke-opacity:1"
       d="m 343.66351,-237.77662 c 0,0 -4.12201,4.49672 -20.60994,-11.99124 -16.48794,-16.48793 -40.37673,-11.89755 -40.37673,-11.89755 0,0 -42.43771,2.15467 -46.55968,19.39208 -4.12198,17.23738 -1.49892,25.8561 -1.49892,25.8561 0,0 16.01956,-22.76462 50.02591,-22.95197 34.00641,-0.18727 52.46168,4.87143 59.58145,1.68624 7.11983,-3.18517 -36.81685,22.57727 -70.72956,19.39207 -33.9127,-3.18515 -35.69266,-1.59258 -35.69266,-1.59258"
       id="path89882-1"
       inkscape:export-filename="D:\Art\kajamGame\eagle.png"
       inkscape:export-xdpi="52.399212"
       inkscape:export-ydpi="52.399212" />
    <path
       style="fill:none;stroke:#000000;stroke-width:0.555486px;stroke-linecap:butt;stroke-linejoin:miter;stroke-opacity:1"
       d="m 323.61566,-227.84635 c 0,0 42.15669,0.93676 74.00844,18.92361"
       id="path89884-4"
       inkscape:export-filename="D:\Art\kajamGame\eagle.png"
       inkscape:export-xdpi="52.399212"
       inkscape:export-ydpi="52.399212" />
    <path
       style="fill:none;stroke:#000000;stroke-width:0.555486px;stroke-linecap:butt;stroke-linejoin:miter;stroke-opacity:1"
       d="m 397.6241,-208.92274 c 0,0 10.867,7.49453 13.1153,10.11762 2.2484,2.62307 2.2484,2.62307 2.2484,2.62307 l -4.4967,-23.04567 32.0391,6.55774 -13.8648,-15.36375 34.6621,-1.12419 -16.8627,-18.17424 37.66,-11.05438 -13.8649,-9.36818 24.9193,-15.17637 -20.6099,-3.55995 9.9302,-15.55111 -9.5555,3.18516"
       id="path89886-2"
       inkscape:export-filename="D:\Art\kajamGame\eagle.png"
       inkscape:export-xdpi="52.399212"
       inkscape:export-ydpi="52.399212" />
    <path
       style="fill:none;stroke:#000000;stroke-width:0.555486px;stroke-linecap:butt;stroke-linejoin:miter;stroke-opacity:1"
       d="m 486.9933,-278.58297 c 0,0 12.9836,3.70958 36.0361,-0.79491 0,0 81.0813,-156.86301 240.0641,-150.5037 158.9828,6.35931 202.4381,-7.41919 205.6178,-12.71862 3.1796,-5.29942 -41.3356,55.11404 -95.3898,52.99425"
       id="path89888-8"
       inkscape:export-filename="D:\Art\kajamGame\eagle.png"
       inkscape:export-xdpi="52.399212"
       inkscape:export-ydpi="52.399212" />
    <path
       style="fill:none;stroke:#000000;stroke-width:0.555486px;stroke-linecap:butt;stroke-linejoin:miter;stroke-opacity:1"
       d="m 873.3215,-389.60592 63.5931,10.59885 -81.6112,21.19766 47.695,22.2576 -113.4078,29.67679 62.5332,20.13784 -116.5874,36.0361 68.8926,18.01803 -116.5874,3.17967 22.2576,28.61692 -75.2519,-22.25761 c 0,0 78.4316,59.35358 171.7015,34.97623 93.2699,-24.37739 8.479,16.95817 8.479,16.95817 l 34.9763,-7.41921 -31.7966,33.91632 h 28.6169 l -47.6949,29.67681 c 0,0 -200.7775,107.3116783 -295.708,1.05986 -94.9304,-106.25183 -93.2699,-98.30438 -93.2699,-98.30438"
       id="path89890-9"
       inkscape:export-filename="D:\Art\kajamGame\eagle.png"
       inkscape:export-xdpi="52.399212"
       inkscape:export-ydpi="52.399212" />
    <path
       style="fill:none;stroke:#000000;stroke-width:0.555486px;stroke-linecap:butt;stroke-linejoin:miter;stroke-opacity:1"
       d="m 325.30195,-285.36686 c 0,0 -56.95838,-38.9715 -174.62232,-50.21327 -117.663969,-11.24177 -136.400299,-32.97586 -136.400299,-32.97586 0,0 23.23304,42.71875 92.932049,55.45944"
       id="path89892-1"
       inkscape:export-filename="D:\Art\kajamGame\eagle.png"
       inkscape:export-xdpi="52.399212"
       inkscape:export-ydpi="52.399212" />
    <path
       style="fill:none;stroke:#000000;stroke-width:0.555486px;stroke-linecap:butt;stroke-linejoin:miter;stroke-opacity:1"
       d="m 107.21138,-313.09655 -57.707799,-2.24837 77.942989,29.97806 -52.461599,6.74507 84.688079,17.98685 -42.71877,13.49014 74.19573,3.74727 -29.22864,14.23961 60.70565,1.49885 -24.73192,17.98688 69.69901,3.74726 -21.73412,17.98685 56.95839,-14.23961 -4.49673,13.49017 25.48139,-16.48796 44.9671,15.73847 -7.49451,-14.23953 45.71657,23.23297 -4.2598,-17.58813 28.617,16.69319 -0.795,-10.86382"
       id="path89894-0"
       inkscape:export-filename="D:\Art\kajamGame\eagle.png"
       inkscape:export-xdpi="52.399212"
       inkscape:export-ydpi="52.399212" />
    <path
       style="fill:none;stroke:#000000;stroke-width:0.555486px;stroke-linecap:butt;stroke-linejoin:miter;stroke-opacity:1"
       d="m 847.67,-196.18205 c 0,0 60.7057,-2.99777 99.6772,-48.71434 38.9714,-45.71664 1.4988,29.22861 1.4988,29.22861 l 34.4748,-15.73852 -44.2176,43.46822 42.7187,1.49894 -63.7033,20.98466 52.4615,9.74282 c 0,0 -36.8451,30.81205 -91.1642,28.16238 -54.3192,-2.64974 -54.3192,-2.64974 -54.3192,-2.64974"
       id="path89896-2"
       inkscape:export-filename="D:\Art\kajamGame\eagle.png"
       inkscape:export-xdpi="52.399212"
       inkscape:export-ydpi="52.399212" />
    <path
       style="fill:none;stroke:#000000;stroke-width:0.555486px;stroke-linecap:butt;stroke-linejoin:miter;stroke-opacity:1"
       d="m 847.67,-196.18205 v 0"
       id="path89898-2"
       inkscape:export-filename="D:\Art\kajamGame\eagle.png"
       inkscape:export-xdpi="52.399212"
       inkscape:export-ydpi="52.399212" />
    <path
       style="fill:none;stroke:#000000;stroke-width:0.555486px;stroke-linecap:butt;stroke-linejoin:miter;stroke-opacity:1"
       d="m 847.67,-196.18205 c 0,0 -4.754,-0.65723 -7.0062,0.6676 -2.2522,1.32488 -2.2522,1.32488 -2.2522,1.32488"
       id="path89900-5"
       inkscape:export-filename="D:\Art\kajamGame\eagle.png"
       inkscape:export-xdpi="52.399212"
       inkscape:export-ydpi="52.399212" />
    <path
       style="fill:none;stroke:#000000;stroke-width:0.555486px;stroke-linecap:butt;stroke-linejoin:miter;stroke-opacity:1"
       d="m 809.602,-120.02417 c 0,0 8.4865,3.95862 20.9366,2.08045 12.4502,-1.87815 16.1553,-4.26985 33.6579,3.38148 17.5025,7.65132 19.8832,5.52708 25.974,3.66081 6.0909,-1.86621 18.534,-7.45395 12.1877,-0.55282 -6.3464,6.90119 -20.3873,8.25241 -20.3873,8.25241 0,0 15.3658,-1.35372 21.9945,1.01862 6.6288,2.372278 18.0275,5.000638 7.6991,7.934718 -10.3284,2.93408 -37.8978,-3.6385 -37.8978,-3.6385 0,0 35.5489,22.72083 13.2754,14.28355 -22.2734,-8.43729 -30.7699,-17.695328 -48.2654,-21.637058 -17.4956,-3.94175 -39.6472,-8.79524 -39.6472,-8.79524"
       id="path89902-8"
       inkscape:export-filename="D:\Art\kajamGame\eagle.png"
       inkscape:export-xdpi="52.399212"
       inkscape:export-ydpi="52.399212" />
    <path
       style="fill:none;stroke:#000000;stroke-width:0.555486px;stroke-linecap:butt;stroke-linejoin:miter;stroke-opacity:1"
       d="m 863.4383,-94.952932 c 0,0 -14.2994,4.79634 -21.7212,3.48541 -7.4216,-1.31095 -6.0947,-0.25353 -6.0947,-0.25353 0,0 57.79,13.93504 26.5179,11.07905 -31.272,-2.856 -32.3354,-4.70879 -32.3354,-4.70879 0,0 37.6771,27.22138 10.8907,14.288 -26.7864,-12.93332 -34.494,-25.37257 -43.2499,-31.715438 0,0 -7.2984,-6.2131 -9.8151,-5.9434"
       id="path89904-8"
       inkscape:export-filename="D:\Art\kajamGame\eagle.png"
       inkscape:export-xdpi="52.399212"
       inkscape:export-ydpi="52.399212" />
    <path
       style="fill:none;stroke:#000000;stroke-width:0.555486px;stroke-linecap:butt;stroke-linejoin:miter;stroke-opacity:1"
       d="m 634.8473,-222.14407 39.3688,-0.7261 -21.2296,-38.13812 70.473,-11.1877 -39.7585,-15.33509 75.7557,-31.32995 -31.2778,-13.22241 68.8669,-30.79427 -29.1579,-13.22417 83.711,-23.91742 -44.5196,-5.26221 79.6982,-23.72762"
       id="path89906-9"
       inkscape:export-filename="D:\Art\kajamGame\eagle.png"
       inkscape:export-xdpi="52.399212"
       inkscape:export-ydpi="52.399212" />
    <path
       style="fill:none;stroke:#000000;stroke-width:0.555486px;stroke-linecap:butt;stroke-linejoin:miter;stroke-opacity:1"
       d="m 63.616281,-349.28107 83.754119,27.75198 -27.28007,14.33125 68.64177,16.90077 -40.5329,9.30789 45.31629,7.38136 -15.62266,12.73171 46.63917,4.99541 -10.85587,9.54809 22.39298,3.4259"
       id="path89908-9"
       inkscape:export-filename="D:\Art\kajamGame\eagle.png"
       inkscape:export-xdpi="52.399212"
       inkscape:export-ydpi="52.399212" />
    <path
       style="fill:none;stroke:#000000;stroke-width:0.555486px;stroke-linecap:butt;stroke-linejoin:miter;stroke-opacity:1"
       d="m 288.15632,-218.57284 -3.04134,7.0242 34.31038,-4.1357 -2.77633,7.02408 20.12815,-11.54313 14.1834,8.86474 5.95619,-6.76176 17.88955,4.75451 -0.13713,-5.43177"
       id="path89910-6"
       inkscape:export-filename="D:\Art\kajamGame\eagle.png"
       inkscape:export-xdpi="52.399212"
       inkscape:export-ydpi="52.399212" />
    <path
       style="fill:none;stroke:#000000;stroke-width:0.555486px;stroke-linecap:butt;stroke-linejoin:miter;stroke-opacity:1"
       d="m 440.5302,-212.66998 c 0,0 65.7924,107.58748 173.91,118.625888 108.1176,11.03844 203.7672,-49.668468 203.7672,-49.668468"
       id="path89912-1"
       inkscape:export-filename="D:\Art\kajamGame\eagle.png"
       inkscape:export-xdpi="52.399212"
       inkscape:export-ydpi="52.399212" />
    <path
       style="fill:#916f6f;fill-rule:evenodd;stroke:#251a0b;stroke-width:3.01668"
       d="m 233.7845,-243.91274 c -0.41233,-0.14175 -4.77018,-0.83852 -9.68406,-1.5482 l -8.93445,-1.29039 2.18674,-1.86301 c 6.32159,-5.38575 7.9445,-7.1047 7.16294,-7.58681 -0.45706,-0.28197 -10.19702,-1.46416 -21.6443,-2.62707 -11.4473,-1.16296 -21.2139,-2.32082 -21.7035,-2.57301 -0.52889,-0.27247 2.00453,-2.84163 6.24189,-6.32998 3.92267,-3.22932 6.99617,-6.00721 6.82997,-6.17306 -0.1662,-0.16594 -8.71197,-1.65653 -18.99068,-3.31236 -10.27868,-1.65592 -19.70042,-3.22272 -20.93722,-3.48179 -1.71351,-0.35901 2.08752,-1.47322 15.969,-4.68109 10.01975,-2.31543 18.28061,-4.5341 18.35743,-4.93028 0.0769,-0.39616 -14.36516,-4.28151 -32.09332,-8.63403 -17.72818,-4.35251 -32.70953,-8.08115 -33.29184,-8.28591 -0.60175,-0.21156 1.66168,-1.77749 5.24312,-3.62748 3.46606,-1.79033 9.48338,-4.95993 13.37177,-7.04351 l 7.06984,-3.78831 -32.93833,-11.01463 c -18.116059,-6.05807 -32.618749,-11.0415 -32.228189,-11.07438 0.39062,-0.0328 6.7992,0.9341 14.24138,2.14884 13.555819,2.21261 32.600599,4.61581 59.252269,7.4769 54.51375,5.85215 102.62563,18.10001 143.47123,36.5236 10.75805,4.85245 23.66055,12.0455 22.82999,12.72752 -0.34686,0.28486 -2.48502,1.14469 -4.75147,1.91076 -9.45404,3.19566 -18.04609,8.65503 -24.05949,15.28738 l -4.02849,4.44311 -11.61544,1.30427 c -23.03341,2.58641 -37.4796,8.02362 -42.08181,15.83868 -1.49592,2.54031 -1.75539,2.71651 -3.24498,2.20424 z"
       id="path90062-2"
       inkscape:export-filename="D:\Art\kajamGame\eagle.png"
       inkscape:export-xdpi="52.399212"
       inkscape:export-ydpi="52.399212" />
    <path
       style="fill:#483737;fill-rule:evenodd;stroke:#251a0b;stroke-width:1.50835"
       d="m 383.41292,-192.94335 c -12.33273,-6.28665 -22.51358,-11.33969 -22.62417,-11.22892 -0.1105,0.11087 1.35283,3.17355 3.25204,6.8061 1.89919,3.6326 3.39264,6.66527 3.3187,6.73926 -0.0739,0.074 -9.74741,-3.22998 -21.49672,-7.34231 -11.7493,-4.11225 -21.61535,-7.49218 -21.92449,-7.51088 -0.30918,-0.0189 -5.83776,3.39034 -12.28573,7.57565 -6.44798,4.18537 -11.81657,7.51685 -11.93029,7.40336 -0.11363,-0.11351 0.66926,-2.84198 1.7399,-6.0633 1.07065,-3.22131 1.88265,-5.92076 1.8045,-5.9988 -0.0782,-0.078 -12.3539,2.89609 -27.27942,6.60911 -14.92559,3.71304 -27.24288,6.70667 -27.3718,6.65246 -0.12892,-0.0543 4.27968,-3.8122 9.79687,-8.35096 5.5172,-4.53882 10.03903,-8.37884 10.04846,-8.53343 0.01,-0.15459 -0.44649,-0.27835 -1.01331,-0.27508 -1.93632,0.0113 -64.73247,-3.34436 -66.34242,-3.54518 l -1.60569,-0.20018 11.90329,-8.65649 c 13.58614,-9.88025 12.26008,-8.88178 12.05905,-9.08037 -0.0859,-0.0848 -13.36733,-0.48298 -29.5142,-0.88466 -16.14686,-0.40172 -29.41539,-0.78773 -29.48559,-0.85784 -0.0703,-0.07 5.92924,-3.06905 13.33222,-6.66438 7.40291,-3.59533 13.45965,-6.73505 13.45947,-6.97719 -4.9e-4,-0.57054 -0.39327,-0.5956 -37.66201,-2.39931 -17.10692,-0.82796 -31.57683,-1.62203 -32.15537,-1.76461 -0.8349,-0.20576 3.12484,-1.57365 19.19572,-6.63116 11.13623,-3.50463 20.1226,-6.4867 19.96985,-6.62691 -0.15285,-0.14016 -18.78394,-4.17854 -41.4025,-8.97408 -32.213979,-6.83001 -40.822179,-8.7717 -39.728499,-8.96128 0.76791,-0.13302 11.76565,-1.56175 24.439409,-3.17478 12.67375,-1.61301 23.26626,-3.10421 23.53889,-3.31379 0.39134,-0.30093 0.3124,-0.47112 -0.37546,-0.80925 -0.47904,-0.23546 -17.27878,-6.72476 -37.332719,-14.42065 -30.20651,-11.59204 -36.21926,-14.01397 -35.04867,-14.11772 0.77712,-0.0688 12.84322,0.32318 26.81353,0.87117 13.97032,0.54798 25.516639,0.88005 25.658509,0.73796 0.38734,-0.38801 -0.57387,-0.858 -2.30215,-1.12564 -4.42928,-0.68591 -16.471109,-3.88279 -23.280189,-6.1805 -19.97801,-6.74144 -38.53787,-17.69362 -52.12794,-30.76077 -5.26024,-5.05781 -12.88055,-13.95575 -12.38073,-14.45646 0.0972,-0.0973 0.98793,0.34268 1.97941,0.97776 2.99886,1.92075 11.58967,5.86388 17.15698,7.87485 7.02284,2.53674 14.54708,4.79518 23.63648,7.09466 4.13538,1.04615 11.38821,3.22983 16.11726,4.85251 32.757459,11.24026 44.929719,15.37981 55.639889,18.92175 6.70006,2.21582 12.31506,4.14904 12.47777,4.29601 0.1627,0.14699 -3.96667,2.51375 -9.1764,5.25947 -5.20969,2.74564 -10.1463,5.4708 -10.97024,6.05585 -0.82391,0.58509 -2.21434,1.43937 -3.08991,1.89848 -1.67372,0.87767 -2.03583,1.43365 -0.93559,1.43659 0.36069,0 1.15502,0.26159 1.76517,0.57911 0.61013,0.31751 11.57333,3.18387 24.36251,6.36964 26.71694,6.65511 35.87034,9.04038 36.30135,9.4597 0.16758,0.16304 -0.16949,0.39736 -0.74901,0.5206 -4.34303,0.92383 -23.7472,5.71435 -26.15519,6.45719 -1.64834,0.50856 -3.91279,1.14757 -5.03203,1.42005 -2.47264,0.60204 -2.84353,1.267 -0.89145,1.59841 0.78623,0.13351 2.44153,0.55655 3.67844,0.94017 1.23695,0.38361 10.13334,1.98981 19.76979,3.56927 9.63647,1.57947 17.52094,2.98352 17.52106,3.12018 1.4e-4,0.13651 -1.053,1.10479 -2.34023,2.15161 -1.28723,1.04676 -4.18441,3.608 -6.43818,5.69168 -2.25374,2.08367 -4.2337,3.78859 -4.39986,3.78874 -0.16619,1.1e-4 -0.302,0.1519 -0.30185,0.33725 1.1e-4,0.18536 0.71704,0.41921 1.59304,0.51965 0.87599,0.10048 2.26738,0.35874 3.09193,0.57387 0.82457,0.21515 7.14872,1.00132 14.0537,1.74717 6.90496,0.7458 15.65954,1.71862 19.45461,2.16179 l 6.90015,0.80583 -5.20947,4.47127 c -2.86519,2.4592 -5.25194,4.57029 -5.30389,4.69125 -0.0517,0.12102 3.82702,0.78219 8.61994,1.46921 4.79289,0.68709 10.20499,1.51299 12.02688,1.83527 l 3.31258,0.58599 -0.24814,1.14996 c -1.63718,7.58707 -2.27893,15.25999 -1.71023,20.44757 0.47918,4.37029 0.84323,5.12397 1.80839,3.74353 0.35034,-0.50111 1.09364,-1.42232 1.65179,-2.04714 l 1.01472,-1.13601 6.49339,0.0472 c 6.51635,0.0477 12.26237,0.39463 24.10666,1.45583 3.65045,0.32708 8.97121,0.51921 12.46056,0.45005 3.34934,-0.0664 6.09095,-0.0366 6.09241,0.0667 0,0.1031 -0.61481,1.58002 -1.36956,3.28219 -0.75473,1.70219 -1.30179,3.16523 -1.21568,3.2512 0.0861,0.0859 7.73259,-0.76078 16.9921,-1.88176 9.25951,-1.12096 16.87183,-1.99968 16.91621,-1.95275 0.0443,0.0466 -0.51266,1.56874 -1.23796,3.38185 -0.72528,1.81311 -1.23033,3.38474 -1.12241,3.49252 0.10799,0.10786 4.78229,-2.43308 10.38732,-5.64641 l 10.19101,-5.84244 7.14632,4.4604 7.14637,4.46037 1.71435,-1.9352 c 0.94289,-1.06432 2.32682,-2.60378 3.07551,-3.42106 l 1.36117,-1.48588 8.75712,2.32926 c 4.81645,1.28113 8.87622,2.32399 9.02176,2.31744 0.14556,-0.006 0.31319,-1.18392 0.37257,-2.6164 l 0.10786,-2.60452 5.43527,2.04177 c 2.9894,1.12297 7.79696,3.19364 10.68352,4.60163 7.333,3.57666 16.5289,10.25773 20.271,14.72728 0.8123,0.97026 1.5305,1.60941 1.596,1.42043 0.065,-0.18897 -0.5057,-3.56217 -1.2694,-7.49595 -0.7637,-3.93378 -1.288,-7.25304 -1.1652,-7.37602 0.375,-0.37557 4.2067,3.06613 11.7333,10.53884 8.0477,7.98999 7.3809,6.81482 7.8487,13.83351 l 0.2472,3.70808 -1.2576,-0.77129 c -5.7072,-3.50017 -27.0861,-15.78009 -27.2269,-15.63905 -0.098,0.0986 0.7456,3.97983 1.8756,8.62504 1.13,4.64521 1.9549,8.43744 1.8332,8.42712 -0.1217,-0.0113 -10.3116,-5.16237 -22.6443,-11.44903 z"
       id="path90138-6"
       inkscape:export-filename="D:\Art\kajamGame\eagle.png"
       inkscape:export-xdpi="52.399212"
       inkscape:export-ydpi="52.399212" />
    <path
       style="fill:#483737;fill-rule:evenodd;stroke:#251a0b;stroke-width:1.50835"
       d="m 673.2867,-211.25427 c -19.2153,-5.67802 -34.6486,-10.36625 -34.2961,-10.4183 0.3525,-0.0521 8.442,-0.24382 17.9767,-0.42607 9.5348,-0.1822 17.4371,-0.43273 17.5608,-0.55659 0.1236,-0.12403 -4.5009,-8.7037 -10.2768,-19.06618 -5.7759,-10.36249 -10.4817,-18.86665 -10.4573,-18.89813 0.024,-0.0317 15.8934,-2.56302 35.2642,-5.62552 19.3707,-3.06257 35.2898,-5.62164 35.3756,-5.6869 0.086,-0.0653 0.074,-0.20087 -0.027,-0.30124 -0.1005,-0.10048 -8.941,-3.56256 -19.6453,-7.69365 -10.7044,-4.1311 -19.5003,-7.54895 -19.5467,-7.59517 -0.046,-0.0461 16.8478,-7.08288 37.5426,-15.63699 20.6947,-8.5541 37.5035,-15.67187 37.3531,-15.81729 -0.1505,-0.14539 -6.9367,-3.07124 -15.0805,-6.50192 -8.1438,-3.43064 -14.9306,-6.35171 -15.0819,-6.49135 -0.1512,-0.13969 14.9847,-7.07629 33.6353,-15.41481 18.6506,-8.33856 33.9818,-15.27697 34.0692,-15.41879 0.088,-0.14174 -6.2577,-3.16938 -14.1004,-6.72798 l -14.2594,-6.47026 41.0614,-11.73115 c 22.5836,-6.45207 41.1707,-11.84079 41.3046,-11.97482 0.1338,-0.13414 0.086,-0.38469 -0.1067,-0.55693 -0.1925,-0.17226 -9.4567,-1.3679 -20.5872,-2.657 -11.1305,-1.28911 -20.3558,-2.44493 -20.5008,-2.56847 -0.1451,-0.12352 13.3416,-4.27135 29.9704,-9.21747 16.6287,-4.94603 34.0272,-10.12422 38.6633,-11.50703 l 8.4292,-2.51421 10.8665,-0.64037 c 28.8809,-1.70193 50.4261,-4.69507 62.5719,-8.69255 2.0605,-0.6782 3.7889,-1.19565 3.8406,-1.15005 0.2219,0.19533 -12.4692,12.72114 -16.3937,16.18022 -15.3186,13.50208 -30.8387,23.08433 -45.7264,28.23173 -8.6225,2.9812 -16.7409,4.5095 -24.8203,4.67243 -3.503,0.0705 -4.7331,0.21786 -4.7328,0.56659 2e-4,0.25913 0.089,0.47105 0.1966,0.47095 0.2964,-2.3e-4 58.2698,9.63296 59.6876,9.91804 0.677,0.1362 1.1831,0.2925 1.1244,0.34745 -0.059,0.055 -17.8929,4.70941 -39.6316,10.34331 -21.7388,5.63391 -39.6595,10.36193 -39.8239,10.5068 -0.1643,0.14492 7.933,4.10416 17.9942,8.79851 10.0612,4.69431 20.684,9.65679 23.6064,11.0278 l 5.3133,2.49263 -56.5257,14.7886 c -31.0892,8.13369 -56.4629,14.89024 -56.3859,15.01451 0.077,0.12427 13.9838,4.6793 30.9041,10.12229 20.7844,6.68599 30.5524,9.98964 30.111,10.18389 -0.3593,0.15808 -26.1093,8.15132 -57.2222,17.76251 -31.113,9.61123 -56.8811,17.57229 -57.2625,17.69123 -0.3812,0.11889 -0.5496,0.34751 -0.3742,0.50783 0.1755,0.16037 15.0268,4.13002 33.0031,8.82155 17.9763,4.69158 32.6398,8.57461 32.5855,8.62893 -0.054,0.0543 -25.5378,0.79979 -56.6301,1.65646 -31.0922,0.85667 -56.5784,1.60474 -56.6359,1.66241 -0.058,0.0577 4.7162,6.30209 10.6083,13.87653 5.8921,7.57445 10.6534,13.82476 10.5806,13.88965 -0.073,0.0649 -15.854,-4.52765 -35.0694,-10.20566 z"
       id="path90177-5"
       inkscape:export-filename="D:\Art\kajamGame\eagle.png"
       inkscape:export-xdpi="52.399212"
       inkscape:export-ydpi="52.399212" />
    <path
       style="fill:#916f6f;fill-rule:evenodd;stroke:#251a0b;stroke-width:1.50835"
       d="m 317.93855,-210.41038 c -1.1e-4,-0.12923 0.42049,-1.27273 0.93465,-2.54119 1.21962,-3.00867 1.20719,-3.41567 -0.0962,-3.15399 -0.56672,0.11387 -7.6905,0.97677 -15.83058,1.91777 -8.14015,0.94099 -15.26399,1.76588 -15.83069,1.83309 -0.5667,0.0673 -1.03043,0.0633 -1.03049,-0.01 -5e-5,-0.0722 0.51788,-1.368 1.15103,-2.87987 l 1.15113,-2.74876 5.22163,-0.82796 c 8.01055,-1.27018 17.94448,-3.95073 26.97357,-7.27853 l 3.59277,-1.32417 4.65036,0.33457 c 13.31283,0.95765 30.31032,4.02954 42.22272,7.63081 l 3.09229,0.93483 v 2.26156 c 0,1.98074 -0.0795,2.23667 -0.65403,2.06085 -1.5081,-0.46144 -16.31907,-4.33228 -16.57581,-4.33206 -0.15395,1.1e-4 -1.50815,1.39237 -3.00924,3.09399 -1.50108,1.70156 -2.84809,3.142 -2.99341,3.20093 -0.14523,0.059 -3.38185,-1.83809 -7.19243,-4.21568 l -6.92835,-4.32285 -8.95705,5.11824 c -9.34877,5.34216 -9.89337,5.63101 -9.89372,5.24718 z"
       id="path90253-8"
       inkscape:export-filename="D:\Art\kajamGame\eagle.png"
       inkscape:export-xdpi="52.399212"
       inkscape:export-ydpi="52.399212" />
    <path
       style="fill:#916f6f;fill-rule:evenodd;stroke:#251a0b;stroke-width:1.50835"
       d="m 624.9369,-93.612262 c -26.6522,-1.85216 -47.514,-7.129988 -70.8383,-17.921198 -35.6183,-16.47927 -71.1612,-45.95758 -100.0333,-82.96496 -3.9428,-5.05365 -12.0118,-16.35601 -12.3934,-17.35956 -0.1175,-0.30907 -3.3151,-3.97399 -7.1058,-8.14436 -3.7906,-4.17037 -6.7554,-7.58422 -6.5885,-7.58644 3.292,-0.0432 34.0028,-1.18636 34.0849,-1.26857 0.063,-0.0638 -3.6102,-4.12459 -8.164,-9.02415 -4.5538,-4.89955 -8.1374,-9.04071 -7.9634,-9.20256 0.2295,-0.2136 29.253,-8.87951 36.1875,-10.805 0.3606,-0.10009 0.6555,-0.30452 0.6554,-0.45427 -1e-4,-0.14967 -2.4888,-1.91937 -5.5305,-3.93258 -3.0416,-2.01313 -6.0889,-4.07692 -6.7717,-4.58618 l -1.2413,-0.926 8.5767,-5.21036 8.5769,-5.21039 2.9649,0.62236 c 4.7941,1.00631 20.0329,0.87655 27.1341,-0.23108 2.988,-0.46611 5.77,-0.9316 6.1821,-1.03443 0.4345,-0.10849 1.2846,-1.1638 2.0232,-2.5118 6.5729,-11.99488 19.8161,-31.19349 30.7004,-44.50598 13.0441,-15.95435 29.4234,-32.5519 44.9547,-45.5537 5.6645,-4.74191 16.3108,-12.70493 22.7911,-17.04682 34.2771,-22.96602 68.7796,-35.72055 108.5027,-40.1102 7.3478,-0.81197 32.6892,-0.93401 50.213,-0.24181 22.916,0.90521 57.6774,1.24977 79.5698,0.78873 11.4218,-0.24052 20.8243,-0.38006 20.8945,-0.31007 0.1099,0.10974 -26.1344,7.98944 -64.5659,19.38552 -6.0259,1.7869 -10.9569,3.43885 -10.9577,3.67105 2e-4,0.25257 1.391,0.58981 3.4653,0.83967 1.9065,0.22963 10.5495,1.26445 19.2065,2.29955 8.6571,1.03507 16.563,1.99829 17.5688,2.14049 1.7093,0.24171 -0.8262,1.01805 -38.8966,11.90913 -22.3988,6.40782 -40.7211,11.79681 -40.7162,11.97557 0.01,0.17882 5.6268,2.88952 12.4932,6.0239 14.4915,6.61496 15.2974,6.99869 15.2925,7.28109 0,0.11638 -0.6341,0.48423 -1.4045,0.8174 -0.7706,0.33319 -12.779,5.70879 -26.6855,11.94579 -13.9065,6.237 -28.5294,12.79335 -32.4953,14.56969 -3.966,1.77639 -7.2067,3.32724 -7.2017,3.44633 0.01,0.11926 6.7525,3.05885 14.9945,6.53269 8.242,3.47384 14.9855,6.42941 14.9856,6.5679 3e-4,0.30319 -10.4971,4.73684 -46.3925,19.59422 -14.9055,6.16956 -27.3713,11.36897 -27.7018,11.55428 -0.7312,0.40995 -2.6962,-0.40983 19.8649,8.28752 9.833,3.79063 17.7611,6.9928 17.6181,7.11588 -0.143,0.12303 -15.0029,2.55424 -33.0218,5.40255 -18.019,2.84832 -33.3199,5.26985 -34.002,5.38111 -0.682,0.11124 -1.24,0.31895 -1.2399,0.46161 10e-5,0.14269 3.7289,6.98901 8.2862,15.21416 4.5573,8.22513 9.2035,16.66163 10.325,18.74777 l 2.0389,3.79296 -13.4006,0.24843 c -19.3255,0.35821 -25.2644,0.6274 -25.1036,1.13761 0.4284,1.35939 15.7765,10.68745 26.519,16.11732 26.2465,13.26652 50.998,20.7182 80.2116,24.14843 5.4783,0.64324 26.7525,0.87149 33.2296,0.35652 11.8909,-0.94544 21.1747,-2.60107 37.2566,-6.64412 16.7149,-4.20226 27.2201,-6.19174 33.1151,-6.27122 3.5791,-0.0483 4.6843,0.24386 4.6851,1.23846 0,2.63101 -9.9949,9.41876 -27.1522,18.4357 -7.324,3.84901 -7.9753,4.24636 -7.5902,4.6308 0.124,0.1239 7.5083,-1.3205 16.4095,-3.20955 8.9012,-1.88909 16.3298,-3.38502 16.5079,-3.32436 0.1781,0.0608 -6.5379,7.42109 -14.9246,16.35642 -14.8934,15.86773 -15.3312,16.29439 -18.8009,18.32532 -18.5944,10.88359 -45.2789,22.77232 -68.5551,30.54323 -27.3451,9.12942 -52.9953,14.584678 -80.5518,17.131688 -7.655,0.70752 -32.8672,1.0552 -40.0952,0.55287 z"
       id="path90292-6"
       inkscape:export-filename="D:\Art\kajamGame\eagle.png"
       inkscape:export-xdpi="52.399212"
       inkscape:export-ydpi="52.399212" />
    <path
       style="fill:#6c5353;fill-rule:evenodd;stroke:#251a0b;stroke-width:2.13312"
       d="m 609.5565,-66.826712 c -37.4024,-2.72844 -64.0611,-11.83469 -87.9605,-30.04625 -7.1793,-5.470688 -15.0726,-13.381208 -29.9115,-29.976638 -17.9549,-20.08028 -37.0077,-40.93689 -50.3607,-55.12866 -10.158,-10.7961 -25.9874,-26.55713 -29.4491,-29.32201 -1.3326,-1.06436 -1.7498,-1.88709 -2.0797,-4.10115 -0.227,-1.52331 -0.3423,-2.83909 -0.2562,-2.92403 0.2937,-0.28974 30.3273,6.06268 30.7213,6.49798 0.216,0.23858 2.1777,3.02872 4.3592,6.20028 16.9327,24.61764 42.0462,50.83552 65.9289,68.82811 26.3451,19.84769 54.0243,33.24218 81.7104,39.541338 33.0732,7.52484 74.8149,6.55895 116.4086,-2.69355 35.4456,-7.884848 76.1125,-23.539458 104.9134,-40.386068 l 4.5513,-2.66223 13.3871,-0.0729 13.3871,-0.0729 -23.4518,14.58339 c -23.6696,14.71884 -29.3665,17.81622 -46.5883,25.32973 -41.1004,17.931248 -83.4755,30.036408 -121.6104,34.740038 -7.5199,0.9275 -37.9288,2.08664 -43.6991,1.66569 z"
       id="path90444-5"
       inkscape:export-filename="D:\Art\kajamGame\eagle.png"
       inkscape:export-xdpi="52.399212"
       inkscape:export-ydpi="52.399212" />
    <path
       style="fill:#c8b7b7;fill-rule:evenodd;stroke:#251a0b;stroke-width:2.13312"
       d="m 411.1769,-199.1604 c -0.6103,-1.51736 -13.1575,-10.2832 -18.545,-12.95609 -14.9857,-7.43502 -35.67829,-13.03504 -55.89443,-15.12679 -10.55884,-1.09252 -10.39315,-1.03976 -7.25143,-2.31048 4.14849,-1.67801 16.04073,-7.76658 16.03367,-8.20892 -0.006,-0.2198 -1.25763,-0.3388 -2.78683,-0.26452 -4.54491,0.22086 -7.87518,-1.78767 -17.79315,-10.7315 -6.39577,-5.76751 -11.21244,-9.02581 -15.74132,-10.64839 -3.95112,-1.4156 -10.46857,-2.96707 -12.52193,-2.98085 -3.65105,-0.0244 -3.81564,-0.49671 -1.21464,-3.48467 5.20242,-5.97637 13.70297,-11.54423 23.05153,-15.09889 2.85269,-1.08465 5.65102,-2.23027 6.2185,-2.54579 2.04162,-1.13513 14.0734,-3.32043 22.37388,-4.06371 9.21793,-0.82546 17.42569,-0.71252 32.07275,0.44115 11.78,0.92783 44.0477,0.56788 52.7266,-0.5882 15.397,-2.05096 27.7508,-4.92188 36.3674,-8.45155 6.7191,-2.75237 12.0578,-4.66442 12.3185,-4.41189 0.1213,0.11751 -1.6705,3.13677 -3.9819,6.70939 -2.3114,3.57264 -4.3142,6.80141 -4.4507,7.17505 -0.182,0.49776 2.3071,1.11362 9.3126,2.30414 5.2586,0.89368 9.4564,1.80028 9.3286,2.01469 -0.1278,0.21447 -5.4274,3.53838 -11.7768,7.38653 -6.3494,3.84812 -11.538,7.11577 -11.5302,7.26142 0.01,0.14554 3.0066,2.26516 6.6641,4.71009 l 6.6499,4.44532 -17.9503,5.27612 c -9.8727,2.90187 -18.2069,5.43892 -18.5203,5.63796 -0.5418,0.34396 1.6037,2.84958 11.9444,13.94927 l 3.967,4.25819 -13.4343,0.28473 c -7.3889,0.15664 -15.1365,0.45979 -17.2168,0.67364 l -3.7824,0.38891 6.5323,7.26786 c 5.6661,6.30399 6.3237,7.21759 4.9591,6.88902 -6.4705,-1.55807 -26.8461,-5.68689 -27.9927,-5.67228 -1.6556,0.0211 -1.6728,-0.31002 0.5357,10.32181 1.761,8.4779 2.165,10.83054 1.8611,10.83537 -0.1401,0 -0.3798,-0.30652 -0.5325,-0.68614 z"
       id="path90520-1"
       inkscape:export-filename="D:\Art\kajamGame\eagle.png"
       inkscape:export-xdpi="52.399212"
       inkscape:export-ydpi="52.399212" />
    <path
       style="fill:#c8b7b7;fill-rule:evenodd;stroke:#251a0b;stroke-width:2.13312"
       d="m 853.9499,-129.2778 c -12.1076,-0.6282 -23.0342,-1.19946 -24.2815,-1.26951 l -2.2678,-0.12732 10.9019,-6.79998 10.9018,-6.79999 -14.8368,-0.0273 -14.8369,-0.0273 15.6301,-16.60702 c 8.5965,-9.13381 15.7141,-16.84556 15.8168,-17.13708 0.1032,-0.29313 -0.2537,-0.39006 -0.7985,-0.2168 -2.0378,0.64819 -28.8347,6.1651 -29.0294,5.97659 -0.112,-0.10824 2.6886,-1.76167 6.2233,-3.67406 14.8401,-8.02904 23.4783,-14.31103 23.4345,-17.0423 -0.025,-1.56659 -1.932,-2.36366 -5.7611,-2.4082 -1.6628,-0.0196 0.193,-0.2568 4.124,-0.52772 11.3184,-0.77989 24.8347,-3.74869 37.8887,-8.32201 24.1248,-8.45178 43.434,-21.05987 59.1847,-38.64517 8.299,-9.26561 13.1195,-14.0323 15.4618,-15.28898 1.0724,-0.57526 2.0784,-1.04803 2.2357,-1.05059 0.157,0 0.3038,1.09287 0.3251,2.43414 0.07,4.3655 -3.9323,15.28053 -11.9757,32.65992 -3.1227,6.74733 -4.0422,9.19518 -3.3782,8.99387 0.5017,-0.15221 7.5047,-3.28986 15.562,-6.97268 8.0573,-3.68288 14.7409,-6.60791 14.8522,-6.50013 0.1875,0.18159 -30.6938,30.79309 -38.0066,37.67468 -1.7843,1.67895 -3.123,3.16715 -2.9749,3.30702 0.1479,0.14001 8.8598,0.53626 19.3594,0.8809 10.4999,0.34457 19.2551,0.76473 19.4566,0.93372 0.2012,0.16892 -13.02,4.69569 -29.3805,10.05946 -16.3606,5.36372 -29.7452,10.01086 -29.7436,10.32693 0,0.3339 9.636,2.35665 22.9941,4.82768 12.6451,2.33911 24.1336,4.48071 25.5302,4.75918 l 2.5388,0.50622 -1.2472,1.01398 c -2.6595,2.16184 -10.3412,6.83048 -16.6214,10.10167 -14.8688,7.74504 -29.9996,12.61955 -46.56,14.9998 -9.1442,1.31428 -25.2315,1.31046 -50.7216,-0.0126 z"
       id="path90559-1"
       inkscape:export-filename="D:\Art\kajamGame\eagle.png"
       inkscape:export-xdpi="52.399212"
       inkscape:export-ydpi="52.399212" />
    <path
       style="fill:none;stroke:#000000;stroke-width:0.555486px;stroke-linecap:butt;stroke-linejoin:miter;stroke-opacity:1"
       d="m 233.76524,-224.73393 c 0,0 0.88344,-23.48982 28.92243,-31.0079 28.03906,-7.51812 33.83027,-5.41465 33.83027,-5.41465"
       id="path90711-1"
       inkscape:export-filename="D:\Art\kajamGame\eagle.png"
       inkscape:export-xdpi="52.399212"
       inkscape:export-ydpi="52.399212" />
    <path
       style="fill:#d45500;fill-rule:evenodd;stroke:#251a0b;stroke-width:0.754175"
       d="m 234.64434,-218.33001 c -0.0655,-0.38539 -0.1998,-2.17721 -0.29857,-3.98171 -0.16298,-2.97897 -0.14381,-3.4618 0.20825,-5.24546 1.43394,-7.26425 5.2248,-13.82355 10.94858,-18.94397 3.1005,-2.77365 8.42672,-5.87093 12.81024,-7.44923 4.61886,-1.66301 16.38084,-4.54883 23.79818,-5.83888 5.87009,-1.02093 10.88581,-1.47375 13.09225,-1.18202 0.9435,0.12465 1.34333,0.11463 1.43315,-0.0362 0.17865,-0.29958 1.6637,-0.11213 4.76558,0.60182 9.39166,2.1614 13.49398,4.37977 22.09251,11.94678 5.2489,4.61926 7.3803,6.4087 9.36528,7.86241 1.96488,1.43909 4.41545,2.80965 5.80849,3.24858 0.68858,0.21698 0.35602,0.24092 -3.06957,0.22082 -2.65266,-0.0159 -6.45529,-0.2447 -12.28568,-0.74019 -16.26046,-1.38199 -22.90341,-1.72757 -36.10216,-1.87816 -12.72133,-0.14508 -23.57687,2.25734 -33.46891,7.40708 -6.54318,3.40641 -11.5449,7.123 -16.37719,12.1693 -1.33615,1.39534 -2.46807,2.53758 -2.5154,2.53831 -0.0472,0 -0.13952,-0.31398 -0.20503,-0.69941 z"
       id="path90783-0"
       inkscape:export-filename="D:\Art\kajamGame\eagle.png"
       inkscape:export-xdpi="52.399212"
       inkscape:export-ydpi="52.399212" />
    <path
       style="fill:#ff7f2a;fill-rule:evenodd;stroke:#251a0b;stroke-width:0.754175"
       d="m 234.69023,-231.77576 c -0.0217,-0.65248 0.82706,-5.91532 1.35816,-8.42029 0.39001,-1.83927 0.63614,-2.57573 1.03898,-3.10855 0.29041,-0.384 0.91201,-1.30645 1.38138,-2.04979 0.95827,-1.51765 3.01224,-3.6235 4.67176,-4.78979 6.45741,-4.53811 17.5498,-7.82692 33.25177,-9.85894 5.16987,-0.66903 5.841,-0.64971 2.33476,0.0674 -6.00696,1.2284 -15.07693,3.46257 -18.72587,4.61264 -4.96876,1.56604 -9.87765,4.12243 -13.68256,7.12544 -1.67352,1.32084 -4.79034,4.50422 -6.09153,6.22162 -2.03945,2.69171 -3.73335,5.77628 -4.9237,8.96571 -0.33029,0.88505 -0.60622,1.44064 -0.61315,1.23462 z"
       id="path90859-7"
       inkscape:export-filename="D:\Art\kajamGame\eagle.png"
       inkscape:export-xdpi="52.399212"
       inkscape:export-ydpi="52.399212" />
    <path
       style="fill:#d45500;fill-rule:evenodd;stroke:#251a0b;stroke-width:0.754175"
       d="m 276.21187,-218.67396 c -1.95909,-0.056 -6.60168,-0.35313 -10.31688,-0.66019 -10.87676,-0.89905 -15.97411,-1.18635 -21.75134,-1.2258 l -5.42959,-0.0372 1.74933,-1.59796 c 7.77999,-7.10663 17.58514,-12.3242 27.81759,-14.80249 5.94152,-1.43906 9.46759,-1.83923 17.06902,-1.93726 10.70106,-0.13794 20.25237,0.29713 36.09838,1.64463 9.95636,0.84668 12.70669,1.01175 16.13081,0.96827 l 3.18495,-0.0406 -1.85806,0.98637 c -2.77609,1.47371 -7.50316,3.74747 -9.64107,4.63753 -1.03947,0.43273 -2.02126,0.90846 -2.18172,1.05716 -0.68652,0.63608 -10.02136,4.04216 -16.04477,5.85443 -6.58585,1.98142 -12.0261,3.25298 -18.63044,4.35444 -3.26988,0.54538 -4.476,0.65817 -8.2327,0.76964 -2.42082,0.0718 -6.00436,0.0848 -7.96351,0.0288 z"
       id="path90972-9"
       inkscape:export-filename="D:\Art\kajamGame\eagle.png"
       inkscape:export-xdpi="52.399212"
       inkscape:export-ydpi="52.399212" />
    <path
       style="fill:#d45500;fill-rule:evenodd;stroke:#251a0b;stroke-width:2.13312"
       d="m 840.4749,-71.921792 c -13.0384,-6.33348 -21.9079,-12.41024 -32.3364,-22.15457 -6.9517,-6.495738 -12.8564,-11.420018 -16.0039,-13.346658 l -2.2526,-1.3789 4.7596,-2.31631 4.7597,-2.31632 21.8585,4.86623 c 22.7302,5.06029 27.1205,6.40208 35.7772,10.934398 5.2126,2.72921 5.2043,2.74516 -2.335,4.46532 -4.4256,1.00978 -6.2618,1.1522 -12.4802,0.96817 -7.818,-0.23136 -9.3225,0.28529 -4.4804,1.53865 22.8375,5.91119 34.336,9.47942 31.6807,9.83126 -3.0676,0.4065 -30.0271,-2.62838 -36.1164,-4.06571 -1.988,-0.46921 -3.712,-0.68941 -3.8313,-0.48932 -0.1193,0.20003 2.611,2.48263 6.0671,5.07241 7.7654,5.81877 14.6844,12.01905 13.4727,12.0731 -0.4835,0.0217 -4.3261,-1.63524 -8.5393,-3.68175 z"
       id="path91011-4"
       inkscape:export-filename="D:\Art\kajamGame\eagle.png"
       inkscape:export-xdpi="52.399212"
       inkscape:export-ydpi="52.399212" />
    <path
       style="fill:#d45500;fill-rule:evenodd;stroke:#251a0b;stroke-width:2.13312"
       d="m 890.2002,-83.163172 c -5.0699,-1.52659 -13.988,-5.52709 -21.9547,-9.84849 -12.7275,-6.90386 -17.4251,-9.169798 -22.2732,-10.743928 -3.6133,-1.17321 -39.0284,-9.58969 -43.9868,-10.45358 -0.7875,-0.13716 0.024,-0.85067 3.1353,-2.75383 2.4949,-1.52642 4.5232,-2.4351 4.9991,-2.23955 0.4405,0.18098 2.5964,0.74357 4.7908,1.25018 4.9718,1.14779 12.4097,1.08935 19.744,-0.15522 7.2161,-1.22451 13.171,-1.2954 17.3923,-0.20714 1.8798,0.48466 7.3644,2.46919 12.188,4.41011 10.5379,4.24025 15.7661,5.62736 19.462,5.16363 1.4557,-0.1827 6.0755,-1.47531 10.2662,-2.87257 4.1907,-1.39723 8.072,-2.47792 8.625,-2.40154 0.9676,0.13351 0.9647,0.19225 -0.075,1.55198 -2.5324,3.3129 -9.4023,6.59695 -17.0253,8.13853 -1.9613,0.39662 -3.5631,0.90645 -3.5594,1.13291 0.01,0.22648 4.3599,0.44499 9.6804,0.48566 l 9.674,0.0739 5.6989,2.04112 c 3.1344,1.122628 6.3752,2.469018 7.2019,2.991958 l 1.5031,0.95077 -2.3664,1.09065 c -5.5076,2.53824 -15.9034,1.83976 -38.3334,-2.57573 -2.5031,-0.49278 -1.6191,0.65691 2.7065,3.51965 5.2218,3.45597 14.2961,10.12325 15.1783,11.15218 1.0265,1.19717 0.5062,1.25529 -2.6719,0.29829 z"
       id="path91050-6"
       inkscape:export-filename="D:\Art\kajamGame\eagle.png"
       inkscape:export-xdpi="52.399212"
       inkscape:export-ydpi="52.399212" />
    <ellipse
       style="fill:#803300;fill-rule:evenodd;stroke:#251a0b;stroke-width:2.23593"
       id="path91191-7"
       cx="339.58533"
       cy="-268.9679"
       rx="6.5953927"
       ry="8.1392565"
       inkscape:export-filename="D:\Art\kajamGame\eagle.png"
       inkscape:export-xdpi="52.399212"
       inkscape:export-ydpi="52.399212" />
    <ellipse
       style="fill:#ffffff;fill-opacity:1;fill-rule:evenodd;stroke:#251a0b;stroke-width:0;stroke-miterlimit:4;stroke-dasharray:none"
       id="path91237-5"
       cx="337.39484"
       cy="-271.18146"
       rx="1.154079"
       ry="1.8553619"
       inkscape:export-filename="D:\Art\kajamGame\eagle.png"
       inkscape:export-xdpi="52.399212"
       inkscape:export-ydpi="52.399212" />
    <path
       style="fill:#c8b7b7;stroke:#000000;stroke-width:0.555486px;stroke-linecap:butt;stroke-linejoin:miter;stroke-opacity:1"
       d="m 343.66351,-237.77662 c 0,0 44.84733,14.78904 72.82429,2.61671 27.977,-12.17225 27.977,-12.17225 27.977,-12.17225"
       id="path91440-7"
       inkscape:export-filename="D:\Art\kajamGame\eagle.png"
       inkscape:export-xdpi="52.399212"
       inkscape:export-ydpi="52.399212" />
    <path
       style="fill:#afa3a3;fill-opacity:1;fill-rule:evenodd;stroke:#251a0b;stroke-width:0;stroke-miterlimit:4;stroke-dasharray:none"
       d="m 406.8774,-204.41462 c -1.6761,-1.23579 -4.9244,-3.46035 -7.2184,-4.94356 -14.11258,-9.1243 -37.37655,-16.20747 -62.58274,-19.05444 -2.83676,-0.32042 -5.28333,-0.58055 -5.43687,-0.57811 -0.15364,0 1.31601,-0.77278 3.26564,-1.72277 1.9497,-0.95 5.28045,-2.65346 7.40169,-3.78548 l 3.8568,-2.05819 4.0426,1.07854 c 21.52914,5.74372 42.91978,7.03823 57.80228,3.49811 4.5922,-1.09231 6.4117,-1.80011 21.4717,-8.35246 11.2661,-4.9016 13.9853,-5.99341 14.1634,-5.68678 0.4502,0.77502 4.0598,4.85795 8.8893,10.05501 l 4.9742,5.35289 -13.5294,0.37602 c -11.0895,0.30818 -20.0951,0.84423 -20.4798,1.21902 -0.04,0.0388 2.3897,2.82492 5.3994,6.1911 3.0096,3.36624 5.6544,6.34171 5.8774,6.61223 0.4796,0.58181 1.1401,0.67808 -6.5078,-0.94821 -10.3401,-2.19879 -17.6833,-3.55495 -19.1239,-3.53185 -1.2676,0.0207 -1.5141,0.112 -1.8866,0.70088 -0.5606,0.88622 -0.4109,2.0594 1.3824,10.83497 0.7719,3.77718 1.3771,6.89514 1.3448,6.9288 -0.032,0.0333 -1.4301,-0.94994 -3.1061,-2.18572 z"
       id="path91512-7"
       inkscape:export-filename="D:\Art\kajamGame\eagle.png"
       inkscape:export-xdpi="52.399212"
       inkscape:export-ydpi="52.399212" />
    <path
       style="fill:#c8b7b7;stroke:#000000;stroke-width:0.555486px;stroke-linecap:butt;stroke-linejoin:miter;stroke-opacity:1"
       d="m 849.2043,-144.27454 c 0,0 44.2149,4.52855 71.4101,-5.65172 27.1952,-10.18029 26.0832,-9.41294 26.0832,-9.41294"
       id="path93514-8"
       inkscape:export-filename="D:\Art\kajamGame\eagle.png"
       inkscape:export-xdpi="52.399212"
       inkscape:export-ydpi="52.399212" />
    <path
       style="fill:#afa3a3;fill-opacity:1;fill-rule:evenodd;stroke:#251a0b;stroke-width:0;stroke-miterlimit:4;stroke-dasharray:none"
       d="m 872.78,-129.72107 c -3.6091,-0.11438 -14.1573,-0.59538 -23.4405,-1.06886 -9.2833,-0.47351 -17.1316,-0.85624 -17.4407,-0.85052 -0.3091,0.006 3.7793,-2.69065 9.0854,-5.99191 l 9.6472,-6.00231 6.1909,0.40417 c 7.9563,0.51939 30.7305,0.16315 37.2812,-0.58319 13.9319,-1.58736 19.4435,-3.00409 37.429,-9.62125 l 13.8907,-5.11053 10.1494,1.8866 c 5.5822,1.03765 10.2705,1.88771 10.418,1.88898 0.3828,0.006 -4.6832,3.31787 -8.714,5.70125 -7.935,4.69195 -20.6513,10.44446 -28.7569,13.00874 -9.3532,2.95903 -19.4639,5.11276 -27.8233,5.92666 -5.4482,0.53048 -18.2292,0.71918 -27.9164,0.41217 z"
       id="path100223-6"
       inkscape:export-filename="D:\Art\kajamGame\eagle.png"
       inkscape:export-xdpi="52.399212"
       inkscape:export-ydpi="52.399212" />
    <path
       style="fill:none;stroke:#000000;stroke-width:2.02599;stroke-linecap:butt;stroke-linejoin:miter;stroke-miterlimit:4;stroke-dasharray:none;stroke-opacity:1"
       d="M 634.8473,-222.14407 588.5562,-243.9159"
       id="path100297-9"
       inkscape:export-filename="D:\Art\kajamGame\eagle.png"
       inkscape:export-xdpi="52.399212"
       inkscape:export-ydpi="52.399212" />
    <path
       style="fill:none;stroke:#000000;stroke-width:0.264583px;stroke-linecap:butt;stroke-linejoin:miter;stroke-opacity:1"
       d="m 738.31096,142.48807 c 0,0 -54.56986,21.9371 -97.98552,15.8791 C 596.90977,152.30916 545.92157,121.51433 499.47691,100.31134 453.03224,79.108316 375.79272,61.943976 375.79272,61.943976"
       id="path8359" />
    <path
       style="fill:none;stroke:#000000;stroke-width:0.264583px;stroke-linecap:butt;stroke-linejoin:miter;stroke-opacity:1"
       d="m 370.75369,200.84194 c 0,0 14.27885,52.11778 -26.41587,84.95914 -40.69468,32.84135 32.84136,78.53365 0,140.64662 -32.84132,62.113 -39.26681,60.6851 -39.26681,60.6851 l 69.25241,-52.83171 -13.56492,50.68988 53.3672,-32.1274"
       id="path8950" />
    <path
       style="fill:none;stroke:#000000;stroke-width:0.264583px;stroke-linecap:butt;stroke-linejoin:miter;stroke-opacity:1"
       d="m 350.9418,409.84856 3.92668,19.63341 25.52345,-14.27885 11.60156,30.16406 20.16887,-33.37679 8.56054,8.25913"
       id="path11793" />
  </g>
  <g
     inkscape:groupmode="layer"
     id="layer2"
     inkscape:label="wing">
    <path
       style="fill:none;stroke:#000000;stroke-width:0.264583px;stroke-linecap:butt;stroke-linejoin:miter;stroke-opacity:1"
       d="m 425.72725,150.86599 c 0,0 11.42307,59.97114 -22.13221,108.51922 -33.55527,48.54808 32.84136,123.51202 13.5649,184.19712 -19.27643,60.6851 -45.6923,81.38943 -45.6923,81.38943 l 79.24761,-53.54569 -20.70434,97.09616 59.97115,-78.53365 24.98799,61.39905 22.13221,-84.95914 39.26681,31.41345 -27.84374,-100.66586 47.1202,21.41826 -16.42068,-63.54085 55.68749,9.99519 -25.70192,-39.26684 29.98558,-11.42307 -35.69711,-47.1202 39.98076,-10.70911 -33.55528,-45.69233 31.41345,-8.56729 -45.69229,-29.98559"
       id="path8831" />
    <path
       style="fill:none;stroke:#000000;stroke-width:0.264583px;stroke-linecap:butt;stroke-linejoin:miter;stroke-opacity:1"
       d="m 595.64553,172.28425 11.42306,26.41586 -35.34013,9.28127 20.70431,32.84133 -33.91225,20.70433 36.76803,43.55049 -42.47957,11.42307 29.27165,25.70192 -49.97598,3.5697 19.63343,35.34016 -37.83896,-4.99761 2.85578,71.39424 -17.49158,-18.5625 -18.20553,32.84135 c 0,0 -13.92187,-27.48677 -15.34977,-27.12982 -1.42788,0.35698 -39.62379,28.20072 -39.62379,28.20072 l -5.73998,-36.17262"
       id="path11791" />
    <path
       style="fill:none;stroke:#000000;stroke-width:0.264583px;stroke-linecap:butt;stroke-linejoin:miter;stroke-opacity:1"
       d="m 595.64553,172.28425 c 0,0 -85.56758,16.54143 -169.91828,-21.41826"
       id="path26111" />
    <path
       style="fill:#916f6f;fill-opacity:1;fill-rule:evenodd;stroke:#2f210e;stroke-width:0;stroke-miterlimit:4;stroke-dasharray:none"
       d="m 426.13186,459.5238 c -2.441,-11.53658 -4.40214,-27.39935 -5.00523,-40.48493 -0.99886,-21.67247 -2.88703,-30.646 -14.32735,-68.09092 -9.49481,-31.07719 -12.04105,-43.15777 -12.14133,-57.60418 -0.0974,-14.03027 2.37191,-22.59817 9.91431,-34.40036 12.11662,-18.95975 18.86526,-37.58247 22.05783,-60.8679 1.23418,-9.00173 1.51268,-31.57638 0.50395,-40.84838 l -0.59391,-5.45878 6.64557,2.81673 c 14.81378,6.27885 38.2597,13.05724 57.40908,16.59736 29.84735,5.51789 70.73828,6.63774 97.48816,2.66989 3.7269,-0.55282 6.9859,-0.80328 7.24223,-0.55658 1.09982,1.05844 10.73158,24.60792 10.23914,25.03448 -0.29877,0.25879 -7.92036,2.38601 -16.93688,4.72715 -9.01655,2.34117 -16.61607,4.44966 -16.88788,4.68556 -0.27178,0.23588 4.03259,7.62352 9.56532,16.417 5.53273,8.79345 10.0606,16.15789 10.06192,16.36543 0.003,0.20754 -7.50919,4.91942 -16.69005,10.47086 -9.18083,5.55143 -16.69515,10.25419 -16.69843,10.45054 -0.003,0.19637 8.08093,9.92841 17.96497,21.62672 9.88401,11.69834 17.73229,21.48544 17.44061,21.7491 -0.29167,0.26365 -9.59098,2.89739 -20.66512,5.85271 -11.07413,2.95532 -20.13336,5.59541 -20.13161,5.86682 0.003,0.27143 6.29848,6.00366 13.99278,12.73828 7.69429,6.73465 13.9148,12.31686 13.82331,12.40494 -0.0915,0.0881 -10.92433,0.92181 -24.07301,1.85272 -13.14868,0.93091 -24.14828,1.75522 -24.44353,1.83184 -0.29525,0.0766 3.71155,7.77394 8.90397,17.10521 5.19245,9.33124 9.25222,17.15693 9.02174,17.3904 -0.23048,0.23347 -8.28784,-0.60518 -17.9052,-1.86362 -9.6174,-1.25846 -17.70473,-2.06669 -17.9719,-1.79607 -0.26715,0.27061 0.13689,15.97522 0.89796,34.89915 0.76105,18.92392 1.29951,34.49246 1.19656,34.59673 -0.10295,0.10427 -3.87782,-3.78952 -8.38859,-8.65288 -4.51078,-4.86336 -8.42079,-8.60727 -8.68892,-8.31977 -0.2681,0.28747 -4.37613,7.55835 -9.12894,16.15752 l -8.64148,15.63481 -4.31247,-8.05511 c -5.52535,-10.32062 -9.74537,-17.47221 -10.62694,-18.00926 -0.80605,-0.49106 -4.24124,1.81272 -24.38503,16.35366 -8.13006,5.86875 -14.90093,10.6712 -15.04635,10.67215 -0.14541,0 -0.45109,-0.88063 -0.67926,-1.95902 z"
       id="path37189" />
    <path
       style="fill:#483737;fill-opacity:1;fill-rule:evenodd;stroke:#2f210e;stroke-width:1.841;stroke-miterlimit:4;stroke-dasharray:none"
       d="m 431.13518,565.7149 c -0.01,-0.2776 4.49006,-21.65485 9.99998,-47.50501 5.50992,-25.85016 9.93878,-47.07853 9.84192,-47.17418 -0.0969,-0.0956 -16.64296,10.95801 -36.7691,24.56365 -20.12614,13.60565 -36.70456,24.62737 -36.84095,24.49272 -0.13637,-0.13465 0.65646,-1.21137 1.76184,-2.39271 4.6741,-4.99528 11.96175,-15.40211 17.42813,-24.88744 9.23943,-16.03248 21.27437,-46.26026 23.17911,-58.21821 l 0.6336,-3.97774 0.9602,8.14305 c 1.21502,10.30399 3.24278,21.70369 4.17086,23.44764 l 0.71395,1.3416 3.24517,-2.12654 c 1.78483,-1.16959 7.85048,-5.44372 13.4792,-9.49812 14.5166,-10.45636 21.74735,-15.41171 22.49538,-15.4165 0.69495,-0.005 6.53079,9.90793 11.93307,20.26883 1.82732,3.50454 3.53394,6.30396 3.79249,6.22091 0.34753,-0.11165 16.31611,-28.14992 17.94121,-31.5019 0.13502,-0.27853 3.97685,3.27652 8.53739,7.90011 4.56052,4.6236 8.54591,8.40328 8.8564,8.39928 1.29018,-0.0167 1.27039,-1.2337 -0.97568,-59.98599 l -0.39219,-10.25898 2.19731,0.27501 c 1.20854,0.15126 5.94865,0.72062 10.53359,1.26524 21.27655,2.5273 24.2502,2.75619 24.24449,1.86602 -0.003,-0.53131 -5.04217,-10.2145 -12.70374,-24.41326 -2.83008,-5.24481 -5.07539,-9.6071 -4.98961,-9.69399 0.0858,-0.0869 10.46538,-0.91162 23.06576,-1.83277 12.60039,-0.92114 23.40388,-1.92582 24.00777,-2.23263 l 1.09794,-0.55787 -1.03201,-1.37727 c -0.56758,-0.7575 -6.608,-6.30012 -13.42305,-12.31693 -6.81509,-6.01681 -12.3919,-11.06607 -12.39288,-11.22056 -0.003,-0.32874 3.35484,-1.30831 22.4027,-6.53714 12.73008,-3.49453 17.40575,-5.02592 17.40141,-5.69931 -0.005,-0.74813 -24.91428,-31.21937 -34.07487,-41.68306 l -1.40174,-1.60116 13.1304,-8.03457 c 17.68832,-10.82358 19.4156,-11.98743 19.40859,-13.07748 -0.008,-1.28111 -0.73726,-2.57157 -8.10673,-14.34936 -8.32016,-13.29719 -10.50509,-17.17217 -9.95857,-17.66155 0.24209,-0.2168 6.28666,-1.95228 13.43234,-3.85664 15.30228,-4.07811 19.5136,-5.36491 19.50977,-5.96141 -0.004,-0.6672 -4.45122,-12.12403 -7.03448,-18.12327 -1.25928,-2.92452 -2.41853,-5.62261 -2.57612,-5.99578 -0.15756,-0.37316 9.21944,5.57052 20.83777,13.20819 11.61833,7.63767 20.94986,14.04498 20.73672,14.23847 -0.21315,0.19346 -6.96252,2.14461 -14.99857,4.33583 -8.03609,2.19126 -14.70136,4.07559 -14.81175,4.18741 -0.11038,0.11181 0.0287,0.49127 0.30904,0.84328 2.28171,2.86469 32.78243,44.72146 32.65458,44.81258 -0.091,0.0649 -8.78364,2.40358 -19.31694,5.19708 -10.5333,2.7935 -19.41962,5.22097 -19.74741,5.39438 -0.37547,0.19862 5.97262,8.9576 17.15738,23.67343 11.53292,15.17388 17.54288,23.4777 17.1527,23.69937 -0.33036,0.18766 -6.83072,2.70777 -14.44525,5.60022 -7.61452,2.89245 -14.0186,5.41097 -14.2313,5.59673 -0.21267,0.18576 5.23087,8.91855 12.09678,19.40621 6.86588,10.48763 12.2079,19.1267 11.87108,19.19795 -0.33678,0.0712 -12.66682,-2.04277 -27.40006,-4.69775 -14.73324,-2.65499 -26.83679,-4.7805 -26.89677,-4.72337 -0.06,0.0571 3.52321,14.10681 7.9626,31.22147 4.4394,17.11465 7.95603,31.23464 7.81474,31.37778 -0.14129,0.14311 -10.59268,-4.44214 -23.22531,-10.18945 -12.63264,-5.7473 -23.02428,-10.29292 -23.09254,-10.10134 -0.0683,0.19156 6.0235,22.56861 13.5373,49.7268 7.51382,27.15815 13.60371,49.43697 13.53314,49.50846 -0.0706,0.0715 -8.67486,-6.71637 -19.12064,-15.08413 -10.44578,-8.36777 -19.13416,-15.06832 -19.30755,-14.89009 -0.1734,0.17822 -5.15321,18.92704 -11.0663,41.66404 -5.91307,22.73699 -10.89012,41.34088 -11.06014,41.34199 -0.17002,0 -5.69066,-13.31029 -12.26807,-29.58084 -6.57741,-16.27052 -12.1082,-29.747 -12.29063,-29.94766 -0.18246,-0.20068 -13.16689,16.44944 -28.85432,37.00029 -32.01906,41.94553 -30.23614,39.64958 -30.26053,38.96794 z"
       id="path40691" />
    <path
       style="fill:#483737;fill-opacity:1;fill-rule:evenodd;stroke:#2f210e;stroke-width:1.30196"
       d="m 361.43316,483.97079 c 0,-0.13565 2.98754,-11.42097 6.64107,-25.0785 3.65355,-13.65755 6.58167,-24.89221 6.50692,-24.96593 -0.0747,-0.0737 -14.15198,10.56252 -31.28277,23.636 -17.13079,13.07349 -31.14746,23.6859 -31.14818,23.58308 0,-0.10279 1.09937,-1.69257 2.44465,-3.53282 6.36823,-8.7113 15.88537,-24.67936 26.7979,-44.96208 4.675,-8.68928 6.56529,-12.78204 8.31236,-17.99772 0.92398,-2.75847 1.18041,-3.2313 1.36027,-2.50836 0.12192,0.48998 0.96864,4.64257 1.88164,9.22796 0.913,4.58536 1.7058,8.38218 1.76176,8.43737 0.056,0.0552 5.7599,-3.07271 12.67542,-6.95089 6.91549,-3.87819 12.70304,-6.9178 12.86118,-6.75471 0.15814,0.16312 2.77289,6.78516 5.81054,14.71565 3.03766,7.93049 5.64669,14.54944 5.7979,14.70877 0.1512,0.15933 4.76056,-7.1419 10.24305,-16.22494 5.48248,-9.08301 10.07321,-16.51534 10.20164,-16.51624 0.12841,0 1.88863,1.63613 3.9116,3.63781 l 3.67811,3.63945 0.0569,4.74749 c 0.0313,2.61115 -0.0933,4.93858 -0.27692,5.17205 -0.18362,0.2335 -0.5157,1.5503 -0.73795,2.92621 -0.64185,3.97375 -1.64499,7.78484 -3.72729,14.16072 l -1.93915,5.93764 -25.43501,15.31549 c -13.98923,8.42351 -25.65074,15.44542 -25.91445,15.60428 -0.26371,0.15885 -0.48025,0.17785 -0.4812,0.0422 z"
       id="path40730" />
    <path
       style="fill:#916f6f;fill-opacity:1;fill-rule:evenodd;stroke:#2f210e;stroke-width:1.30196"
       d="m 386.96635,430.85953 c -2.78244,-7.17225 -5.36376,-13.71976 -5.7363,-14.55 l -0.67728,-1.50955 -4.87484,2.60535 c -2.68115,1.43296 -8.31458,4.51586 -12.51871,6.85091 -4.20412,2.33505 -7.74229,4.13311 -7.86257,3.99566 -0.12028,-0.13743 -0.83306,-3.37809 -1.58392,-7.20146 -0.75089,-3.82336 -1.61732,-7.94382 -1.92546,-9.15662 -0.52308,-2.05893 -0.51411,-2.4257 0.13539,-5.53413 1.11929,-5.35696 1.51609,-10.91602 1.24291,-17.41358 -0.52922,-12.58739 -3.22445,-22.81274 -11.78147,-44.69759 -2.13487,-5.46 -4.5946,-12.03368 -5.46606,-14.60818 -5.12352,-15.13612 -5.12053,-25.04109 0.0101,-33.85611 1.84927,-3.17719 4.95474,-6.53573 10.44837,-11.2998 16.67105,-14.45715 25.42846,-32.94501 26.8964,-56.7813 0.44135,-7.16663 -0.0536,-15.84431 -1.26738,-22.21788 -0.37338,-1.96077 -0.63759,-3.61259 -0.58714,-3.6707 0.0505,-0.0581 4.60412,4.88606 10.11923,10.98701 14.06893,15.56343 21.3886,23.01058 27.57252,28.05277 l 2.68147,2.18641 -1.06373,2.15246 c -1.54876,3.13394 -3.89612,7.2444 -7.21053,12.62647 -5.30159,8.60894 -7.83034,14.56595 -9.2982,21.90406 -1.01198,5.05902 -1.17922,18.01834 -0.323,25.02742 1.15244,9.43377 3.68421,20.27653 8.61311,36.88723 11.29779,38.07431 12.36218,41.8923 14.10428,50.59256 1.55567,7.76933 2.8539,18.71991 2.89364,24.40832 l 0.0138,1.97448 -3.62604,-3.53777 -3.62601,-3.53775 -0.76464,1.00973 c -0.42056,0.55536 -4.45148,7.04691 -8.95758,14.42569 -4.50612,7.37878 -8.71685,14.2058 -9.3572,15.17116 l -1.16427,1.75519 z"
       id="path45507" />
    <path
       style="fill:#916f6f;fill-opacity:1;fill-rule:evenodd;stroke:#2f210e;stroke-width:1.841;stroke-miterlimit:4;stroke-dasharray:none"
       d="m 618.40808,221.01698 c -4.86463,-6.59702 -6.74672,-9.51733 -6.29264,-9.76381 0.35632,-0.19341 6.32198,-1.91027 13.25706,-3.81524 6.93507,-1.90498 13.49427,-3.8403 14.576,-4.3007 l 1.96678,-0.83711 -3.2394,-2.27854 c -9.57218,-6.73293 -31.61525,-21.20175 -40.67969,-26.7017 l -3.03525,-1.84166 -8.07402,0.99238 c -24.10881,2.96314 -54.99023,2.78643 -80.57708,-0.46112 -24.69727,-3.13463 -53.17278,-10.69435 -74.90002,-19.88463 l -6.491,-2.74558 0.2898,2.87322 c 0.72646,7.20267 1.02243,31.01213 0.4781,38.46356 -0.50051,6.85154 -2.19623,18.10388 -3.37555,22.39923 l -0.39495,1.43843 -7.28421,-4.85486 c -14.10105,-9.39824 -25.86546,-19.01153 -39.7015,-32.44207 -13.89491,-13.48772 -26.60081,-28.13373 -36.17137,-41.69453 -5.44669,-7.71758 -9.1481,-12.36951 -14.99034,-18.8398 -2.47206,-2.73781 -4.39031,-5.08289 -4.26278,-5.21129 0.12753,-0.12838 7.75882,-0.4018 16.95847,-0.60759 9.19961,-0.2058 16.72592,-0.57088 16.7251,-0.8113 0,-0.24042 -2.68147,-3.31852 -5.95704,-6.84022 -8.75824,-9.416374 -10.37209,-11.239044 -10.14971,-11.462954 0.11036,-0.1111 8.35761,-2.62466 18.32724,-5.5857 9.96963,-2.96104 18.34346,-5.45274 18.60852,-5.53712 0.26506,-0.0844 -2.6552,-2.25766 -6.48944,-4.82952 -3.83423,-2.57186 -6.78516,-4.85859 -6.55762,-5.08162 0.22754,-0.22303 3.55457,-2.35052 7.39336,-4.72775 5.27283,-3.26529 7.18315,-4.2103 7.81193,-3.86446 0.45776,0.25178 6.40265,1.80483 13.21088,3.45122 31.98723,7.73525 62.15894,16.66486 86.16064,25.50008 17.8961,6.58769 25.98594,10.268784 66.23529,30.138754 26.77432,13.21776 38.40556,18.57885 52.58477,24.2375 16.398,6.54412 30.08601,10.61847 42.89356,12.7676 7.91922,1.32887 23.44248,1.73061 33.27583,0.86119 17.189,-1.51977 41.1903,-6.83138 58.90519,-13.03599 4.04865,-1.41804 5.23727,-1.63568 7.43445,-1.36134 1.43843,0.1796 2.73793,0.44834 2.88782,0.59722 1.46597,1.45611 -8.61828,8.68034 -23.46754,16.81192 -4.55602,2.49488 -6.31785,3.98475 -5.764,4.87418 0.18341,0.29453 0.84548,0.53379 1.47127,0.53168 1.01446,-0.003 20.9646,-3.95944 24.78508,-4.91474 1.48757,-0.37198 1.47111,-0.33198 -0.96957,2.35839 -1.36554,1.50521 -8.19951,8.80729 -15.18658,16.22681 l -12.70375,13.49002 -5.95035,3.39487 c -13.31989,7.59941 -33.48342,16.97506 -49.8154,23.16316 -5.72265,2.16829 -26.07668,9.17114 -26.66193,9.17313 -0.0847,0 -3.27716,-4.23492 -7.09441,-9.4116 z"
       id="path45546" />
    <path
       style="fill:#2f210e;fill-opacity:1;stroke:#000000;stroke-width:1.865;stroke-linecap:butt;stroke-linejoin:miter;stroke-miterlimit:4;stroke-dasharray:none;stroke-opacity:1"
       d="m 421.91622,214.55371 c 0,0 -1.50839,9.80622 -10.12465,28.48702"
       id="path51659" />
    <path
       style="fill:#2f210e;fill-opacity:1;fill-rule:evenodd;stroke:#2f210e;stroke-width:0.889619;stroke-miterlimit:4;stroke-dasharray:none"
       d="m 411.80686,242.96959 -0.77216,-0.39526 0.81,-1.76967 c 3.985,-8.70627 7.68609,-19.07624 8.91786,-24.98669 0.14854,-0.71271 0.28078,-1.30905 0.2939,-1.32522 0.0279,-0.0344 1.63036,0.22966 1.68741,0.27803 0.0831,0.0704 -0.65371,3.14925 -1.28511,5.36969 -1.67114,5.877 -4.09787,12.42594 -7.37381,19.89939 -0.6704,1.52937 -1.28349,2.90317 -1.36242,3.05287 l -0.14351,0.27215 z"
       id="path57431" />
  </g>
</svg>
