<?xml version="1.0" encoding="UTF-8" standalone="no"?>
<!-- Created with Inkscape (http://www.inkscape.org/) -->

<svg
   width="1024mm"
   height="600mm"
   viewBox="0 0 1024 600"
   version="1.1"
   id="svg84706"
   sodipodi:docname="eagle.svg"
   inkscape:version="1.1.1 (3bf5ae0d25, 2021-09-20)"
   xmlns:inkscape="http://www.inkscape.org/namespaces/inkscape"
   xmlns:sodipodi="http://sodipodi.sourceforge.net/DTD/sodipodi-0.dtd"
   xmlns="http://www.w3.org/2000/svg"
   xmlns:svg="http://www.w3.org/2000/svg">
  <sodipodi:namedview
     id="namedview84708"
     pagecolor="#505050"
     bordercolor="#ffffff"
     borderopacity="1"
     inkscape:pageshadow="0"
     inkscape:pageopacity="0"
     inkscape:pagecheckerboard="1"
     inkscape:document-units="mm"
     showgrid="false"
     units="px"
     inkscape:zoom="0.092648709"
     inkscape:cx="1486.8143"
     inkscape:cy="940.14953"
     inkscape:window-width="1920"
     inkscape:window-height="1017"
     inkscape:window-x="1912"
     inkscape:window-y="-8"
     inkscape:window-maximized="1"
     inkscape:current-layer="layer1" />
  <defs
     id="defs84703" />
  <g
     inkscape:label="Layer 1"
     inkscape:groupmode="layer"
     id="layer1">
    <path
       style="fill:none;stroke:#000000;stroke-width:0.954654px;stroke-linecap:butt;stroke-linejoin:miter;stroke-opacity:1"
       d="m 458.49915,78.079661 c 0,0 -48.30017,28.336069 -166.79644,18.676108 C 173.20639,87.09568 146.80234,140.54787 146.80234,140.54787"
       id="path89880"
       inkscape:export-filename="D:\Art\kajamGame\eagle.png"
       inkscape:export-xdpi="1.2095238"
       inkscape:export-ydpi="1.2095238" />
    <path
       style="fill:none;stroke:#000000;stroke-width:0.954654px;stroke-linecap:butt;stroke-linejoin:miter;stroke-opacity:1"
       d="m 236.31854,183.052 c 0,0 -7.08406,7.72803 -35.42011,-20.60808 -28.33606,-28.33604 -69.39118,-20.44704 -69.39118,-20.44704 0,0 -72.933179,3.70299 -80.017179,33.3271 -7.084,29.62405 -2.57602,44.43613 -2.57602,44.43613 0,0 27.5311,-39.12313 85.974209,-39.44511 58.44319,-0.32185 90.16029,8.37201 102.39629,2.89796 12.23609,-5.47401 -63.27321,38.80114 -121.55536,33.32709 -58.282149,-5.47398 -61.341179,-2.737 -61.341179,-2.737"
       id="path89882"
       inkscape:export-filename="D:\Art\kajamGame\eagle.png"
       inkscape:export-xdpi="1.2095238"
       inkscape:export-ydpi="1.2095238" />
    <path
       style="fill:none;stroke:#000000;stroke-width:0.954654px;stroke-linecap:butt;stroke-linejoin:miter;stroke-opacity:1"
       d="m 201.86444,200.1181 c 0,0 72.45022,1.6099 127.19042,32.52199"
       id="path89884"
       inkscape:export-filename="D:\Art\kajamGame\eagle.png"
       inkscape:export-xdpi="1.2095238"
       inkscape:export-ydpi="1.2095238" />
    <path
       style="fill:none;stroke:#000000;stroke-width:0.954654px;stroke-linecap:butt;stroke-linejoin:miter;stroke-opacity:1"
       d="m 329.05486,232.64009 c 0,0 18.676,12.88004 22.53995,17.38808 3.86408,4.50798 3.86408,4.50798 3.86408,4.50798 l -7.72803,-39.60613 55.0621,11.27008 -23.82798,-26.40403 59.57016,-1.93204 -28.98008,-31.23413 64.72217,-18.99799 -23.82807,-16.10008 42.82609,-26.08202 -35.42009,-6.118104 17.06605,-26.726031 -16.42206,5.473986"
       id="path89886"
       inkscape:export-filename="D:\Art\kajamGame\eagle.png"
       inkscape:export-xdpi="1.2095238"
       inkscape:export-ydpi="1.2095238" />
    <path
       style="fill:none;stroke:#000000;stroke-width:0.954654px;stroke-linecap:butt;stroke-linejoin:miter;stroke-opacity:1"
       d="m 482.6442,112.92247 c 0,0 22.31354,6.37525 61.93145,-1.36613 0,0 139.34573,-269.58376 412.57253,-258.65469 273.22682,10.92907 347.90892,-12.75057 353.37342,-21.85814 5.4645,-9.10756 -71.0391,94.718629 -163.9362,91.075578"
       id="path89888"
       inkscape:export-filename="D:\Art\kajamGame\eagle.png"
       inkscape:export-xdpi="1.2095238"
       inkscape:export-ydpi="1.2095238" />
    <path
       style="fill:none;stroke:#000000;stroke-width:0.954654px;stroke-linecap:butt;stroke-linejoin:miter;stroke-opacity:1"
       d="m 1146.5854,-77.880869 109.2907,18.215128 -140.2565,36.430149 81.9682,38.251782 -194.9018,51.002333 107.4691,34.608757 -200.36632,61.93142 118.39832,30.96566 -200.36632,5.46457 38.2518,49.18085 -129.3274,-38.25178 c 0,0 134.7919,102.00467 295.08502,60.10992 160.293,-41.89483 14.572,29.1442 14.572,29.1442 l 60.11,-12.7506 -54.6455,58.28837 h 49.1809 l -81.9681,51.00236 c 0,0 -345.05502,184.42517 -508.20184,1.82148 C 347.73086,214.93002 350.58462,228.58845 350.58462,228.58845"
       id="path89890"
       inkscape:export-filename="D:\Art\kajamGame\eagle.png"
       inkscape:export-xdpi="1.2095238"
       inkscape:export-ydpi="1.2095238" />
    <path
       style="fill:none;stroke:#000000;stroke-width:0.954654px;stroke-linecap:butt;stroke-linejoin:miter;stroke-opacity:1"
       d="m 204.76249,101.26372 c 0,0 -97.8883,-66.976182 -300.104799,-86.29621 -202.216551,-19.3200268 -234.416681,-56.672091 -234.416681,-56.672091 0,0 39.92815,73.41616 159.71242,95.312232"
       id="path89892"
       inkscape:export-filename="D:\Art\kajamGame\eagle.png"
       inkscape:export-xdpi="1.2095238"
       inkscape:export-ydpi="1.2095238" />
    <path
       style="fill:none;stroke:#000000;stroke-width:0.954654px;stroke-linecap:butt;stroke-linejoin:miter;stroke-opacity:1"
       d="m -170.04657,53.607651 -99.17625,-3.864036 133.95233,51.520105 -90.16018,11.59202 145.544391,30.9121 -73.416201,23.18406 127.512311,6.44004 -50.23216,24.47209 104.32834,2.57592 -42.50412,30.91213 119.784269,6.44002 -37.352109,30.91209 97.888319,-24.4721 -7.72805,23.18411 43.79215,-28.33609 77.28017,27.04803 -12.88001,-24.47196 78.56821,39.92802 -7.32079,-30.22685 49.18085,28.68881 -1.36619,-18.67049"
       id="path89894"
       inkscape:export-filename="D:\Art\kajamGame\eagle.png"
       inkscape:export-xdpi="1.2095238"
       inkscape:export-ydpi="1.2095238" />
    <path
       style="fill:none;stroke:#000000;stroke-width:0.954654px;stroke-linecap:butt;stroke-linejoin:miter;stroke-opacity:1"
       d="m 1102.5009,254.53615 c 0,0 104.3283,-5.15194 171.3045,-83.72015 66.976,-78.568316 2.5759,50.2321 2.5759,50.2321 l 59.2482,-27.04812 -75.9921,74.70421 73.416,2.57607 -109.4801,36.06409 90.1601,16.74396 c 0,0 -63.3218,52.95339 -156.6743,48.39968 -93.3525,-4.55382 -93.3525,-4.55382 -93.3525,-4.55382"
       id="path89896"
       inkscape:export-filename="D:\Art\kajamGame\eagle.png"
       inkscape:export-xdpi="1.2095238"
       inkscape:export-ydpi="1.2095238" />
    <path
       style="fill:none;stroke:#000000;stroke-width:0.954654px;stroke-linecap:butt;stroke-linejoin:miter;stroke-opacity:1"
       d="m 1102.5009,254.53615 v 0"
       id="path89898"
       inkscape:export-filename="D:\Art\kajamGame\eagle.png"
       inkscape:export-xdpi="1.2095238"
       inkscape:export-ydpi="1.2095238" />
    <path
       style="fill:none;stroke:#000000;stroke-width:0.954654px;stroke-linecap:butt;stroke-linejoin:miter;stroke-opacity:1"
       d="m 1102.5009,254.53615 c 0,0 -8.1702,-1.12951 -12.0409,1.14733 -3.8706,2.27693 -3.8706,2.27693 -3.8706,2.27693"
       id="path89900"
       inkscape:export-filename="D:\Art\kajamGame\eagle.png"
       inkscape:export-xdpi="1.2095238"
       inkscape:export-ydpi="1.2095238" />
    <path
       style="fill:none;stroke:#000000;stroke-width:0.954654px;stroke-linecap:butt;stroke-linejoin:miter;stroke-opacity:1"
       d="m 1037.0774,385.4206 c 0,0 14.5849,6.80325 35.9816,3.57545 21.3968,-3.22779 27.7644,-7.33815 57.8441,5.81138 30.0797,13.14952 34.1712,9.49881 44.6389,6.29144 10.4677,-3.20725 31.8524,-12.8103 20.9456,-0.95006 -10.9068,11.86033 -35.0375,14.18253 -35.0375,14.18253 0,0 26.4076,-2.32649 37.7997,1.75059 11.3921,4.07699 30.9819,8.59407 13.2316,13.63657 -17.7504,5.04249 -65.1309,-6.25311 -65.1309,-6.25311 0,0 61.094,39.04788 22.815,24.54762 -38.279,-14.50027 -52.881,-30.41108 -82.9487,-37.18531 -30.0677,-6.77427 -68.1374,-15.11545 -68.1374,-15.11545"
       id="path89902"
       inkscape:export-filename="D:\Art\kajamGame\eagle.png"
       inkscape:export-xdpi="1.2095238"
       inkscape:export-ydpi="1.2095238" />
    <path
       style="fill:none;stroke:#000000;stroke-width:0.954654px;stroke-linecap:butt;stroke-linejoin:miter;stroke-opacity:1"
       d="m 1129.6002,428.50787 c 0,0 -24.575,8.24296 -37.3299,5.99 -12.7548,-2.25299 -10.4744,-0.43571 -10.4744,-0.43571 0,0 99.3175,23.94866 45.5735,19.04038 -53.7438,-4.90831 -55.5714,-8.09249 -55.5714,-8.09249 0,0 64.7516,46.78249 18.7167,24.55525 -46.035,-22.22712 -59.2811,-43.60512 -74.3291,-54.50594 0,0 -12.5429,-10.67779 -16.86812,-10.21429"
       id="path89904"
       inkscape:export-filename="D:\Art\kajamGame\eagle.png"
       inkscape:export-xdpi="1.2095238"
       inkscape:export-ydpi="1.2095238" />
    <path
       style="fill:none;stroke:#000000;stroke-width:0.954654px;stroke-linecap:butt;stroke-linejoin:miter;stroke-opacity:1"
       d="m 736.74518,209.918 67.6589,-1.24788 -36.4851,-65.54392 121.1145,-19.22711 -68.3287,-26.354784 130.1932,-53.843456 -53.7537,-22.723945 118.35412,-52.922833 -50.11062,-22.72698 143.86522,-41.104316 -76.5111,-9.043616 136.9689,-40.77812"
       id="path89906"
       inkscape:export-filename="D:\Art\kajamGame\eagle.png"
       inkscape:export-xdpi="1.2095238"
       inkscape:export-ydpi="1.2095238" />
    <path
       style="fill:none;stroke:#000000;stroke-width:0.954654px;stroke-linecap:butt;stroke-linejoin:miter;stroke-opacity:1"
       d="m -244.96882,-8.5788381 143.93929,47.6943751 -46.88336,24.629588 117.967301,29.045568 -69.65958,15.996477 77.8803,12.68556 -26.84901,21.88063 80.15378,8.58507 -18.65683,16.4093 38.48443,5.88773"
       id="path89908"
       inkscape:export-filename="D:\Art\kajamGame\eagle.png"
       inkscape:export-xdpi="1.2095238"
       inkscape:export-ydpi="1.2095238" />
    <path
       style="fill:none;stroke:#000000;stroke-width:0.954654px;stroke-linecap:butt;stroke-linejoin:miter;stroke-opacity:1"
       d="m 140.92424,216.05548 -5.22682,12.07175 58.9656,-7.10758 -4.77138,12.07154 34.59211,-19.83795 24.37549,15.23488 10.23628,-11.62072 30.74486,8.17107 -0.23568,-9.33501"
       id="path89910"
       inkscape:export-filename="D:\Art\kajamGame\eagle.png"
       inkscape:export-xdpi="1.2095238"
       inkscape:export-ydpi="1.2095238" />
    <path
       style="fill:none;stroke:#000000;stroke-width:0.954654px;stroke-linecap:butt;stroke-linejoin:miter;stroke-opacity:1"
       d="m 402.79296,226.2001 c 0,0 113.07047,184.89916 298.88072,203.86969 185.8101,18.97059 350.19292,-85.3599 350.19292,-85.3599"
       id="path89912"
       inkscape:export-filename="D:\Art\kajamGame\eagle.png"
       inkscape:export-xdpi="1.2095238"
       inkscape:export-ydpi="1.2095238" />
    <path
       style="fill:#916f6f;fill-rule:evenodd;stroke:#251a0b;stroke-width:5.18445"
       d="m 47.481181,172.50649 c -0.70862,-0.24361 -8.19799,-1.44107 -16.64296,-2.66072 l -15.35468,-2.21766 3.75811,-3.20175 c 10.86424,-9.25592 13.65337,-12.2101 12.31018,-13.03864 -0.7855,-0.4846 -17.52453,-2.5163 -37.1977604,-4.51487 -19.6732496,-1.99865 -36.4580696,-3.98854 -37.2994896,-4.42196 -0.90895,-0.46826 3.44498,-4.88361 10.72727,-10.87867 6.74148,-5.54988 12.02357,-10.32394 11.73795,-10.60898 -0.28564,-0.28517 -14.97234,-2.84689 -32.63727,-5.6926 -17.66486,-2.84584 -33.85701,-5.53854 -35.98256,-5.98378 -2.94483,-0.61698 3.58759,-2.53186 27.44421,-8.04488 17.21988,-3.979287 31.41695,-7.792275 31.54897,-8.473162 0.13219,-0.680822 -24.68787,-7.358164 -55.15537,-14.838381 -30.467541,-7.480196 -56.214401,-13.888219 -57.215141,-14.240106 -1.03417,-0.363599 2.85574,-3.054787 9.01079,-6.234167 5.95675,-3.076856 16.29807,-8.524101 22.98064,-12.104931 l 12.150171,-6.51057 -56.607591,-18.929666 C -186.0775,9.4996391 -211.00173,0.93514822 -210.33051,0.87863192 c 0.67131,-0.0564087 11.68505,1.60534278 24.47513,3.69297958 23.29695,3.8025889 56.02718,7.9327145 101.830581,12.8497615 93.6869696,10.057468 176.37174,31.10655 246.568729,62.76922 18.48871,8.339395 40.66287,20.701327 39.23547,21.873427 -0.5961,0.48957 -4.27074,1.96726 -8.16584,3.28382 -16.24765,5.49205 -31.01389,14.87449 -41.34849,26.2728 l -6.92334,7.6359 -19.96221,2.24151 c -39.585069,4.44499 -64.412199,13.78934 -72.321529,27.22026 -2.57088,4.36575 -3.01681,4.66857 -5.57681,3.78818 z"
       id="path90062"
       inkscape:export-filename="D:\Art\kajamGame\eagle.png"
       inkscape:export-xdpi="1.2095238"
       inkscape:export-ydpi="1.2095238" />
    <path
       style="fill:#483737;fill-rule:evenodd;stroke:#251a0b;stroke-width:2.59224"
       d="m 304.63162,260.10217 c -21.19495,-10.80421 -38.69169,-19.48833 -38.88175,-19.29796 -0.1899,0.19054 2.32496,5.45405 5.58893,11.69692 3.26395,6.24297 5.83057,11.45489 5.7035,11.58205 -0.12703,0.12724 -16.75184,-5.55102 -36.94412,-12.61844 -20.19227,-7.0673 -37.148,-12.87601 -37.67928,-12.90815 -0.53136,-0.0325 -10.03275,5.82662 -21.11418,13.01946 -11.08146,7.19294 -20.30789,12.9184 -20.50332,12.72336 -0.19528,-0.19507 1.15018,-4.8842 2.99017,-10.42034 1.84002,-5.53612 3.23551,-10.17539 3.10121,-10.3095 -0.13435,-0.13413 -21.23133,4.9772 -46.88224,11.35838 -25.651019,6.3812 -46.819439,11.52603 -47.040999,11.43287 -0.22155,-0.0934 7.35504,-6.55163 16.83684,-14.35191 9.48182,-7.80039 17.253009,-14.39982 17.269219,-14.6655 0.0172,-0.26568 -0.76733,-0.47837 -1.74147,-0.47275 -3.32775,0.0194 -111.2487994,-5.74759 -114.0156594,-6.09272 L -11.441059,230.43391 9.0158606,215.55693 C 32.364911,198.57678 30.085961,200.29275 29.740471,199.95145 c -0.1477,-0.14575 -22.9730104,-0.83004 -50.72292,-1.52036 -27.74989,-0.6904 -50.55309,-1.35379 -50.67374,-1.47429 -0.12079,-0.12035 10.18996,-5.27445 22.91267,-11.45335 12.72259,-6.17892 23.13166,-11.57481 23.13136,-11.99095 -8.4e-4,-0.98054 -0.67587,-1.0236 -64.7257,-4.12345 -29.399841,-1.42292 -54.267721,-2.7876 -55.262001,-3.03265 -1.43485,-0.35361 5.37032,-2.70445 32.98963,-11.39627 19.138661,-6.02302 34.582571,-11.14799 34.320061,-11.38895 -0.26269,-0.24088 -32.281961,-7.18121 -71.154071,-15.42281 -55.36274,-11.738 -70.15673,-15.07498 -68.27714,-15.40079 1.31973,-0.22861 20.22037,-2.68402 42.00141,-5.45616 21.78102,-2.7721 39.98525,-5.33488 40.45379,-5.69506 0.67255,-0.51717 0.53689,-0.80966 -0.64526,-1.39077 -0.82328,-0.404659 -29.69521,-11.557122 -64.15978,-24.783228 -51.91271,-19.922007 -62.24619,-24.084319 -60.23442,-24.262631 1.33555,-0.1182 22.07227,0.55541 46.08156,1.497197 24.00931,0.941745 43.85273,1.512441 44.09655,1.268248 0.66569,-0.666828 -0.98624,-1.474548 -3.95646,-1.934516 -7.61213,-1.178811 -28.30715,-6.672949 -40.00919,-10.62177 -34.33407,-11.585798 -66.23093,-30.408138 -89.58673,-52.865261 -9.04022,-8.692315 -22.13644,-23.984269 -21.27745,-24.844781 0.16707,-0.167288 1.69785,0.588932 3.4018,1.680375 5.15382,3.300983 19.91794,10.077621 29.48588,13.533662 12.06941,4.359636 25.00051,8.24096 40.62151,12.1928379 7.10703,1.7979073 19.57169,5.5507618 27.69901,8.33950216 56.29676,19.31742194 77.21593,26.43162894 95.62235,32.51878994 11.51469,3.808101 21.16459,7.130506 21.44423,7.383096 0.27961,0.252612 -6.8171,4.320106 -15.77051,9.038883 -8.95334,4.718648 -17.43737,9.402095 -18.85338,10.407547 -1.41597,1.005538 -3.80556,2.473691 -5.3103,3.262724 -2.87645,1.50835 -3.49877,2.463852 -1.6079,2.468911 0.61987,0 1.985,0.449569 3.0336,0.995247 1.04858,0.545678 19.88986,5.47179 41.86926,10.946831 45.915561,11.437435 61.646531,15.536729 62.387271,16.257382 0.28799,0.280191 -0.29128,0.682889 -1.28725,0.894701 -7.4639,1.587688 -40.81179,9.820643 -44.95014,11.097283 -2.83283,0.87401 -6.72449,1.97221 -8.64801,2.44049 -4.249461,1.03465 -4.886881,2.17746 -1.53205,2.74702 1.35122,0.22944 4.19601,0.95647 6.32175,1.61576 2.12581,0.65927 17.41509,3.41968 33.97624,6.13412 16.56117,2.71448 30.11137,5.12746 30.11157,5.36233 2.5e-4,0.23461 -1.80967,1.89869 -4.0219,3.69774 -2.21223,1.79896 -7.1913,6.20069 -11.06462,9.78169 -3.87325,3.58098 -7.276,6.51104 -7.56156,6.5113 -0.28561,1.9e-4 -0.51902,0.26105 -0.51876,0.57959 1.9e-4,0.31856 1.23229,0.72046 2.73778,0.89308 1.50548,0.17268 3.89671,0.61652 5.31378,0.98625 1.4171,0.36974 12.28574,1.72085 24.15259,3.00266 11.8668296,1.28173 26.9123896,2.95362 33.43457,3.71525 l 11.85856,1.38489 -8.95296,7.6843 c -4.92411,4.22637 -9.0259604,7.85446 -9.1152304,8.06235 -0.0889,0.20798 6.5770804,1.34427 14.8141604,2.52498 8.23704,1.18083 17.53823,2.6002 20.66932,3.15408 l 5.69299,1.00707 -0.42645,1.97632 c -2.81365,13.03908 -3.91657,26.22572 -2.93919,35.14106 0.8235,7.51075 1.44916,8.80602 3.10788,6.4336 0.60209,-0.8612 1.87953,-2.44439 2.83875,-3.5182 l 1.74389,-1.95234 11.15951,0.0812 c 11.19896,0.082 21.07403,0.6782 41.429539,2.50198 6.27364,0.56211 15.41787,0.89231 21.41464,0.77345 5.75616,-0.11411 10.46788,-0.0629 10.47038,0.11454 0,0.17719 -1.05661,2.71541 -2.35371,5.64075 -1.29708,2.92537 -2.23725,5.43974 -2.08927,5.5875 0.14791,0.14769 13.28919,-1.30748 29.20252,-3.23399 15.91333,-1.92648 28.99581,-3.43664 29.07209,-3.35599 0.0762,0.0801 -0.88105,2.69603 -2.12755,5.81203 -1.24646,3.116 -2.11444,5.817 -1.92896,6.00223 0.18559,0.18537 8.2188,-4.18148 17.85157,-9.70388 l 17.5142,-10.04079 12.28162,7.66562 12.28172,7.66556 2.94627,-3.32582 c 1.62044,-1.82913 3.99886,-4.47485 5.28554,-5.87942 l 2.3393,-2.55361 15.04993,4.00305 c 8.27752,2.20173 15.25462,3.99399 15.50474,3.98273 0.25016,-0.0108 0.53825,-2.03467 0.6403,-4.49652 l 0.18537,-4.47611 9.34102,3.50896 c 5.13756,1.92993 13.39981,5.48858 18.36067,7.90834 12.6024,6.14682 28.40645,17.62887 34.83755,25.3102 1.39607,1.66748 2.63037,2.76592 2.7429,2.44114 0.11261,-0.32476 -0.8691,-6.12191 -2.18157,-12.88249 -1.31245,-6.76056 -2.21356,-12.46502 -2.00246,-12.67638 0.64439,-0.64545 7.22958,5.26943 20.16478,18.11198 13.83056,13.73156 12.68469,11.71192 13.48871,23.77418 l 0.42472,6.37269 -2.16125,-1.32554 c -9.80841,-6.01536 -46.55003,-27.11956 -46.79203,-26.87717 -0.16901,0.16944 1.28144,6.83972 3.2235,14.82294 1.94194,7.98323 3.35971,14.50053 3.15055,14.48279 -0.20927,-0.0194 -17.72155,-8.872 -38.91642,-19.67622 z"
       id="path90138"
       inkscape:export-filename="D:\Art\kajamGame\eagle.png"
       inkscape:export-xdpi="1.2095238"
       inkscape:export-ydpi="1.2095238" />
    <path
       style="fill:#483737;fill-rule:evenodd;stroke:#251a0b;stroke-width:2.59224"
       d="m 802.80688,228.63314 c -33.0234,-9.75822 -59.5469,-17.81538 -58.9411,-17.90483 0.6058,-0.0896 14.5083,-0.41902 30.8947,-0.73224 16.3863,-0.31313 29.9672,-0.74369 30.1798,-0.95656 0.2125,-0.21315 -7.7352,-14.95811 -17.6616,-32.76701 -9.9265,-17.8089 -18.0138,-32.4241 -17.9718,-32.4782 0.042,-0.0545 27.3142,-4.40479 60.6047,-9.66799 33.2904,-5.2633 60.6488,-9.6613 60.7963,-9.77347 0.1475,-0.11217 0.1266,-0.34521 -0.046,-0.51771 -0.1727,-0.17267 -15.3659,-6.12258 -33.7623,-13.22225 -18.3964,-7.09968 -33.513,-12.973584 -33.5927,-13.053008 -0.079,-0.07923 28.9545,-12.172599 64.5203,-26.873641 35.5658,-14.70102 64.4534,-26.933559 64.1948,-27.183479 -0.2586,-0.249878 -11.9212,-5.278213 -25.9171,-11.174166 -13.9959,-5.895867 -25.6597,-10.916 -25.9197,-11.155995 -0.2599,-0.24006 25.7525,-12.1612527 57.8053,-26.4917842 32.0529,-14.3305958 58.40092,-26.2549108 58.55122,-26.4986308 0.1505,-0.243591 -10.7545,-5.44688 -24.23292,-11.562675 l -24.5061,-11.119738 70.56782,-20.161076 c 38.8121,-11.088498 70.7558,-20.349507 70.9859,-20.579857 0.23,-0.230522 0.1475,-0.661122 -0.1834,-0.957138 -0.3309,-0.296038 -16.2523,-2.350863 -35.381,-4.566302 -19.1288,-2.21546 -34.9834,-4.20184 -35.2325,-4.41415 -0.2494,-0.21229 22.9288,-7.34072 51.5068,-15.84108 28.578,-8.50022 58.479,-17.39942 66.4465,-19.77592 l 14.4864,-4.3209 18.6752,-1.10053 c 49.6345,-2.92494 86.6619,-8.06892 107.5356,-14.93897 3.5411,-1.16555 6.5116,-2.05483 6.6005,-1.97646 0.3813,0.33568 -21.4296,21.86247 -28.1741,27.80721 -26.3265,23.2046 -52.9993,39.672586 -78.5852,48.518884 -14.8185,5.123455 -28.7707,7.749988 -42.656,8.030008 -6.0202,0.121214 -8.1343,0.374407 -8.1338,0.973738 4e-4,0.445327 0.1523,0.809529 0.3379,0.809357 0.5094,-3.88e-4 100.1422,16.555142 102.5787,17.045079 1.1636,0.234074 2.0333,0.502704 1.9325,0.597135 -0.1008,0.09452 -30.7506,8.093565 -68.1107,17.775937 -37.3601,9.682416 -68.1586,17.807953 -68.441,18.056926 -0.2825,0.249059 13.6336,7.053385 30.9247,15.1210706 17.2911,8.06759958 35.5474,16.5960923 40.5697,18.9522944 l 9.1315,4.283828 -97.1448,25.415585 c -53.4297,13.978515 -97.0367,25.590279 -96.9044,25.803835 0.1324,0.213578 24.0324,8.041829 53.1116,17.396105 35.7199,11.490507 52.5071,17.168128 51.7486,17.501968 -0.6175,0.27167 -44.8713,14.00881 -98.3418,30.52653 -53.47062,16.51781 -97.75542,30.19964 -98.41082,30.40405 -0.6552,0.20432 -0.9447,0.59722 -0.6432,0.87274 0.3016,0.27561 25.825,7.09784 56.719,15.16066 30.8939,8.06293 56.09442,14.73627 56.00112,14.82962 -0.093,0.0934 -43.88912,1.37452 -97.32402,2.84679 -53.4349,1.47226 -97.2353,2.75789 -97.3342,2.85701 -0.099,0.0992 8.1052,10.83072 18.2314,23.84811 10.1261,13.0174 18.3089,23.75915 18.1837,23.87066 -0.1251,0.11152 -27.2465,-7.78119 -60.2699,-17.53937 z"
       id="path90177"
       inkscape:export-filename="D:\Art\kajamGame\eagle.png"
       inkscape:export-xdpi="1.2095238"
       inkscape:export-ydpi="1.2095238" />
    <path
       style="fill:#916f6f;fill-rule:evenodd;stroke:#251a0b;stroke-width:2.59224"
       d="m 192.10779,230.08343 c -1.9e-4,-0.22209 0.72266,-2.1873 1.60629,-4.36726 2.09603,-5.17069 2.07466,-5.87016 -0.16535,-5.42044 -0.97397,0.19571 -13.21685,1.67867 -27.20634,3.29588 -13.98961,1.61718 -26.23259,3.03483 -27.20652,3.15034 -0.97393,0.11561 -1.77089,0.10872 -1.77099,-0.0172 -9e-5,-0.12401 0.89002,-2.35103 1.97815,-4.94932 l 1.97833,-4.72401 8.97386,-1.42292 c 13.76688,-2.18293 30.83926,-6.7897 46.35661,-12.50883 l 6.17451,-2.27572 7.99207,0.575 c 22.87935,1.6458 52.09113,6.92513 72.5637,13.11426 l 5.31438,1.60659 v 3.8867 c 0,3.40409 -0.13671,3.84393 -1.12401,3.54176 -2.59181,-0.79302 -28.04585,-7.44543 -28.48708,-7.44504 -0.26458,1.9e-4 -2.59189,2.39291 -5.17166,5.31731 -2.57975,2.92429 -4.8947,5.39982 -5.14445,5.50109 -0.2496,0.10141 -5.81203,-3.15892 -12.36086,-7.24504 l -11.90702,-7.42921 -15.39354,8.79617 c -16.06673,9.181 -17.00268,9.67742 -17.00327,9.01776 z"
       id="path90253"
       inkscape:export-filename="D:\Art\kajamGame\eagle.png"
       inkscape:export-xdpi="1.2095238"
       inkscape:export-ydpi="1.2095238" />
    <path
       style="fill:#916f6f;fill-rule:evenodd;stroke:#251a0b;stroke-width:2.59224"
       d="m 719.71318,430.81193 c -45.8043,-3.18311 -81.6572,-12.25355 -121.7422,-30.79925 -61.2134,-28.32117 -122.29721,-78.98241 -171.91671,-142.58305 -6.77595,-8.68517 -20.64326,-28.10934 -21.2992,-29.83402 -0.20195,-0.53117 -5.69729,-6.82969 -12.21187,-13.99686 -6.51455,-7.16717 -11.60993,-13.03419 -11.32306,-13.038 5.65759,-0.0743 58.43712,-2.03887 58.57821,-2.18015 0.10915,-0.10959 -6.2045,-7.0885 -14.03069,-15.50885 -7.82614,-8.42034 -13.9848,-15.53731 -13.68583,-15.81547 0.39449,-0.36709 50.27406,-15.26027 62.19157,-18.56939 0.61978,-0.17202 1.12658,-0.52335 1.1264,-0.78072 -1.9e-4,-0.25722 -4.27732,-3.29861 -9.50472,-6.75849 -5.22732,-3.45976 -10.46426,-7.00658 -11.63773,-7.88179 l -2.13337,-1.59142 14.73997,-8.95448 14.74007,-8.95455 5.09556,1.06959 c 8.23915,1.72944 34.42839,1.50643 46.6324,-0.39714 5.13528,-0.80105 9.91628,-1.60104 10.62457,-1.77776 0.74673,-0.18645 2.20763,-2.0001 3.47703,-4.31677 11.2961,-20.614324 34.0559,-53.608928 52.7615,-76.487695 22.4176,-27.4190391 50.567,-55.943472 77.2589,-78.288295 9.735,-8.149414 28.0316,-21.834604 39.1687,-29.296543 58.9083,-39.469257 118.2041,-61.389107 186.4719,-68.933137 12.628,-1.39545 56.1795,-1.60519 86.2959,-0.41557 39.38322,1.55569 99.12392,2.14785 136.74802,1.35551 19.6295,-0.41336 35.7886,-0.65318 35.9092,-0.53289 0.1888,0.1886 -44.9144,13.7306 -110.9625,33.31583 -10.3561,3.07095 -18.8305,5.90999 -18.8318,6.30905 3e-4,0.43406 2.3905,1.01363 5.9553,1.44305 3.2766,0.39464 18.1304,2.17307 33.0083,3.951983 14.878,1.778875 28.465,3.434254 30.1935,3.678641 2.9376,0.4154 -1.4199,1.749616 -66.8474,20.466953 -38.49442,11.012433 -69.98302,20.273915 -69.97462,20.581127 0.011,0.307319 9.6702,4.96592 21.4708,10.352645 24.90502,11.368431 26.28992,12.027896 26.28152,12.513225 0,0.200014 -1.0897,0.8322 -2.4138,1.404791 -1.3242,0.572612 -21.96182,9.811079 -45.86142,20.5299497 -23.8997,10.71887072 -49.0305,21.9865633 -55.8463,25.0393693 -6.8158,3.052892 -12.3854,5.718179 -12.3768,5.922844 0.011,0.204965 11.6048,5.25692 25.7695,11.227043 14.1646,5.970124 25.754,11.049551 25.7542,11.287543 5e-4,0.52107 -18.0403,8.140716 -79.7298,33.674501 -25.6166,10.602974 -47.0403,19.538643 -47.6083,19.857115 -1.2566,0.704548 -4.6336,-0.704333 34.1397,14.24288 16.899,6.51456 30.5242,12.01778 30.2784,12.22931 -0.2458,0.21143 -25.7839,4.38969 -56.7511,9.28478 -30.9673,4.89511 -57.2633,9.05673 -58.4355,9.24794 -1.1722,0.19119 -2.1311,0.54815 -2.1309,0.79332 2e-4,0.24524 6.4085,12.01127 14.2406,26.14696 7.8322,14.13566 15.8171,28.63458 17.7444,32.2198 l 3.5041,6.51856 -23.0301,0.42694 c -33.2127,0.61563 -43.4193,1.07826 -43.1429,1.95509 0.7362,2.33625 27.1133,18.36739 45.5753,27.69913 45.1071,22.79975 87.6449,35.60617 137.8511,41.50133 9.4151,1.10548 45.9768,1.49775 57.1083,0.61272 20.4356,-1.62483 36.39062,-4.47019 64.02882,-11.41855 28.7262,-7.22197 46.7804,-10.64107 56.9114,-10.77767 6.151,-0.0831 8.0504,0.4191 8.0518,2.12841 0,4.52163 -17.1771,16.18702 -46.6636,31.68347 -12.5869,6.61488 -13.7063,7.29777 -13.0444,7.95846 0.2131,0.21294 12.9037,-2.26939 28.2012,-5.5159 15.2975,-3.24658 28.0643,-5.81748 28.3704,-5.71323 0.3061,0.10442 -11.236,12.75383 -25.6493,28.11003 -25.5957,27.27018 -26.3481,28.00345 -32.3111,31.49378 -31.9562,18.70447 -77.81612,39.13637 -117.81832,52.4914 -46.9952,15.68976 -91.0774,25.06514 -138.4358,29.44241 -13.1559,1.21595 -56.4854,1.81347 -68.9074,0.95016 z"
       id="path90292"
       inkscape:export-filename="D:\Art\kajamGame\eagle.png"
       inkscape:export-xdpi="1.2095238"
       inkscape:export-ydpi="1.2095238" />
    <path
       style="fill:#6c5353;fill-rule:evenodd;stroke:#251a0b;stroke-width:3.66596"
       d="m 693.28048,476.84541 c -64.2795,-4.68908 -110.095,-20.33902 -151.16825,-51.63729 -12.33843,-9.4019 -25.90378,-22.99686 -51.40585,-51.51766 -30.85704,-34.50984 -63.60104,-70.35388 -86.54952,-94.74377 -17.45748,-18.5541 -44.6617,-45.64091 -50.61091,-50.39261 -2.29022,-1.82921 -3.00727,-3.24315 -3.57425,-7.04821 -0.39014,-2.61795 -0.58824,-4.87924 -0.44037,-5.02522 0.50481,-0.49794 52.12034,10.41928 52.79757,11.16739 0.37116,0.41001 3.74243,5.20514 7.49154,10.65576 29.10047,42.30772 72.26043,87.36559 113.30504,118.28754 45.2765,34.11012 92.8458,57.1298 140.427,67.9555 56.8394,12.93214 128.5764,11.27217 200.0591,-4.62912 60.9166,-13.55085 130.8064,-40.45476 180.30352,-69.40725 l 7.8218,-4.57528 23.007,-0.12531 23.007,-0.1253 -40.3042,25.06292 c -40.6784,25.29571 -50.4691,30.61885 -80.06632,43.53151 -70.6349,30.81654 -143.4604,51.62039 -208.9988,59.70401 -12.9237,1.59399 -65.1843,3.58608 -75.1011,2.86265 z"
       id="path90444"
       inkscape:export-filename="D:\Art\kajamGame\eagle.png"
       inkscape:export-xdpi="1.2095238"
       inkscape:export-ydpi="1.2095238" />
    <path
       style="fill:#c8b7b7;fill-rule:evenodd;stroke:#251a0b;stroke-width:3.66596"
       d="m 352.3467,249.41758 c -1.04898,-2.60772 -22.61242,-17.67264 -31.87136,-22.26626 -25.75436,-12.77777 -61.31652,-22.40192 -96.05984,-25.99679 -18.14636,-1.87761 -17.8616,-1.78693 -12.46226,-3.97078 7.12956,-2.88382 27.56749,-13.3476 27.55536,-14.1078 -0.0108,-0.37775 -2.16135,-0.58226 -4.78943,-0.45461 -7.81086,0.37957 -13.53423,-3.07227 -30.5792,-18.44307 -10.99172,-9.91201 -19.26962,-15.51171 -27.05292,-18.30026 -6.79037,-2.43284 -17.99122,-5.09919 -21.52012,-5.12287 -6.27466,-0.042 -6.55752,-0.85364 -2.08746,-5.98873 8.94084,-10.27096 23.54984,-19.83984 39.6162,-25.94886 4.90263,-1.86407 9.71181,-3.83292 10.68708,-4.37518 3.50872,-1.95083 24.18645,-5.706464 38.4516,-6.983862 15.84189,-1.418634 29.94769,-1.224541 55.12003,0.758159 20.24498,1.594556 75.70002,0.975955 90.61563,-1.010878 26.46115,-3.524765 47.69229,-8.458714 62.50081,-14.524775 11.54732,-4.73021 20.7223,-8.016251 21.17042,-7.582249 0.20841,0.201952 -2.87083,5.390837 -6.84318,11.530704 -3.9724,6.13993 -7.41438,11.688862 -7.64906,12.330995 -0.31266,0.855452 3.96508,1.913866 16.00469,3.959886 9.03724,1.53587 16.25165,3.09395 16.032,3.46244 -0.21963,0.36859 -9.32745,6.08104 -20.23955,12.69444 -10.91206,6.61336 -19.82913,12.22912 -19.81576,12.47942 0.0129,0.25014 5.16716,3.89289 11.45292,8.09473 l 11.42854,7.63971 -30.8494,9.0675 c -16.96716,4.98713 -31.29013,9.3473 -31.82886,9.68937 -0.93108,0.59113 2.75619,4.89726 20.52767,23.97312 l 6.81768,7.31809 -23.08817,0.48934 c -12.69852,0.26921 -26.01348,0.79019 -29.58866,1.15771 l -6.50043,0.66838 11.22635,12.49051 c 9.73768,10.83399 10.8679,12.40409 8.52279,11.83942 -11.12019,-2.67769 -46.13763,-9.77346 -48.10821,-9.74834 -2.84517,0.0362 -2.87475,-0.5328 0.92067,17.73899 3.02645,14.57006 3.72086,18.61329 3.19859,18.6216 -0.2409,0 -0.65273,-0.52678 -0.91516,-1.1792 z"
       id="path90520"
       inkscape:export-filename="D:\Art\kajamGame\eagle.png"
       inkscape:export-xdpi="1.2095238"
       inkscape:export-ydpi="1.2095238" />
    <path
       style="fill:#c8b7b7;fill-rule:evenodd;stroke:#251a0b;stroke-width:3.66596"
       d="m 1113.2934,369.51736 c -20.808,-1.07962 -39.5864,-2.06137 -41.73,-2.18176 l -3.8974,-0.21881 18.7359,-11.68641 18.7357,-11.68641 -25.4984,-0.0469 -25.4986,-0.0469 26.8618,-28.54073 c 14.774,-15.6973 27.0062,-28.95066 27.1827,-29.45167 0.1774,-0.50378 -0.4361,-0.67036 -1.3723,-0.3726 -3.5022,1.11399 -49.5552,10.59531 -49.8897,10.27133 -0.1925,-0.18602 4.6206,-3.02759 10.6953,-6.3142 25.504,-13.79867 40.3497,-24.59486 40.2744,-29.28879 -0.043,-2.69233 -3.3204,-4.06217 -9.9011,-4.13873 -2.8576,-0.0336 0.3318,-0.44133 7.0875,-0.90693 19.4517,-1.34031 42.6808,-6.44248 65.1154,-14.30216 41.4607,-14.52516 74.6453,-36.19334 101.7144,-66.41533 14.2625,-15.92382 22.5471,-24.11582 26.5726,-26.27554 1.843,-0.98865 3.5718,-1.80115 3.8422,-1.80555 0.2698,0 0.5221,1.8782 0.5587,4.18331 0.1206,7.50252 -6.758,26.26102 -20.5814,56.12912 -5.3666,11.59592 -6.9469,15.80278 -5.8057,15.45681 0.8622,-0.26159 12.8975,-5.65393 26.7447,-11.9832 13.8473,-6.32937 25.3336,-11.35631 25.525,-11.17108 0.3221,0.31207 -52.7502,52.92081 -65.318,64.74746 -3.0664,2.88543 -5.3671,5.44305 -5.1126,5.68343 0.2542,0.24062 15.2263,0.92161 33.271,1.5139 18.045,0.59217 33.0917,1.31426 33.4379,1.60468 0.3458,0.29031 -22.376,8.06999 -50.4932,17.28813 -28.1172,9.21806 -51.1198,17.2046 -51.1171,17.7478 0,0.57384 16.5603,4.05012 39.5175,8.29681 21.7319,4.01998 41.4759,7.70053 43.876,8.1791 l 4.3633,0.86999 -2.1435,1.74261 c -4.5706,3.71533 -17.7724,11.73882 -28.5654,17.36067 -25.5535,13.31057 -51.5572,21.68788 -80.0177,25.77856 -15.7152,2.25871 -43.3627,2.25215 -87.1699,-0.0217 z"
       id="path90559"
       inkscape:export-filename="D:\Art\kajamGame\eagle.png"
       inkscape:export-xdpi="1.2095238"
       inkscape:export-ydpi="1.2095238" />
    <path
       style="fill:none;stroke:#000000;stroke-width:0.954654px;stroke-linecap:butt;stroke-linejoin:miter;stroke-opacity:1"
       d="m 47.448091,205.46708 c 0,0 1.51827,-40.36945 49.7059,-53.28998 48.187739,-12.9206 58.140479,-9.30558 58.140479,-9.30558"
       id="path90711"
       inkscape:export-filename="D:\Art\kajamGame\eagle.png"
       inkscape:export-xdpi="1.2095238"
       inkscape:export-ydpi="1.2095238" />
    <path
       style="fill:#d45500;fill-rule:evenodd;stroke:#251a0b;stroke-width:1.29612"
       d="m 48.958891,216.47282 c -0.1126,-0.66233 -0.34336,-3.74175 -0.51312,-6.84295 -0.28009,-5.11963 -0.24715,-5.94942 0.35791,-9.01482 2.46435,-12.48429 8.97931,-23.75706 18.81616,-32.55698 5.32849,-4.76677 14.48211,-10.08974 22.01559,-12.8022 7.93794,-2.85803 28.152009,-7.81758 40.899409,-10.03465 10.0883,-1.75457 18.70828,-2.53279 22.50025,-2.03142 1.62149,0.21422 2.30864,0.197 2.46301,-0.0622 0.30702,-0.51485 2.85921,-0.1927 8.19009,1.03428 16.14045,3.71457 23.19067,7.52706 37.96804,20.53167 9.02073,7.93863 12.68374,11.01394 16.09511,13.51228 3.37683,2.47322 7.58836,4.82865 9.98243,5.58299 1.1834,0.3729 0.61186,0.41405 -5.27533,0.37951 -4.55885,-0.0273 -11.09403,-0.42054 -21.1141,-1.2721 -27.94512,-2.37508 -39.36165,-2.96899 -62.04493,-3.22778 -21.86281,-0.24934 -40.519059,3.87945 -57.519469,12.72976 -11.24506,5.85422 -19.84099,12.24153 -28.14572,20.91408 -2.2963,2.39802 -4.24161,4.36106 -4.32295,4.36231 -0.0812,0 -0.23978,-0.53959 -0.35238,-1.202 z"
       id="path90783"
       inkscape:export-filename="D:\Art\kajamGame\eagle.png"
       inkscape:export-xdpi="1.2095238"
       inkscape:export-ydpi="1.2095238" />
    <path
       style="fill:#ff7f2a;fill-rule:evenodd;stroke:#251a0b;stroke-width:1.29612"
       d="m 49.037761,193.36503 c -0.0373,-1.12134 1.42139,-10.16602 2.33413,-14.47105 0.67027,-3.16096 1.09327,-4.42664 1.78559,-5.34233 0.49909,-0.65994 1.56737,-2.24526 2.37403,-3.52277 1.64688,-2.60821 5.17681,-6.22732 8.02885,-8.2317 11.09767,-7.79916 30.16097,-13.45129 57.146289,-16.9435 8.8849,-1.14979 10.0383,-1.11659 4.0125,0.11583 -10.32353,2.11111 -25.911119,5.95075 -32.182159,7.92725 -8.53928,2.69138 -16.97567,7.08479 -23.51477,12.24573 -2.87609,2.27 -8.23265,7.74093 -10.46886,10.69244 -3.50498,4.62596 -6.41612,9.92708 -8.46184,15.40841 -0.56764,1.52105 -1.04184,2.47588 -1.05376,2.12182 z"
       id="path90859"
       inkscape:export-filename="D:\Art\kajamGame\eagle.png"
       inkscape:export-xdpi="1.2095238"
       inkscape:export-ydpi="1.2095238" />
    <path
       style="fill:#d45500;fill-rule:evenodd;stroke:#251a0b;stroke-width:1.29612"
       d="m 120.39659,215.88171 c -3.36688,-0.0962 -11.34561,-0.60689 -17.73053,-1.13461 -18.692729,-1.5451 -27.452989,-2.03885 -37.381709,-2.10665 l -9.33126,-0.0639 3.00639,-2.74624 c 13.37064,-12.2134 30.22171,-21.18029 47.807129,-25.43947 10.21106,-2.47315 16.27094,-3.16088 29.33471,-3.32935 18.39077,-0.23707 34.8056,0.51064 62.03845,2.82644 17.11094,1.4551 21.83764,1.7388 27.72231,1.66407 l 5.47362,-0.0698 -3.19325,1.69517 c -4.77096,2.53271 -12.89488,6.44038 -16.56907,7.97003 -1.78643,0.74369 -3.47372,1.56127 -3.74949,1.81683 -1.17985,1.09316 -17.22264,6.94683 -27.57445,10.06139 -11.31839,3.40525 -20.66797,5.59054 -32.01815,7.48351 -5.61959,0.93729 -7.69242,1.13112 -14.14867,1.32269 -4.16039,0.12337 -10.31905,0.14576 -13.68603,0.0495 z"
       id="path90972"
       inkscape:export-filename="D:\Art\kajamGame\eagle.png"
       inkscape:export-xdpi="1.2095238"
       inkscape:export-ydpi="1.2095238" />
    <path
       style="fill:#d45500;fill-rule:evenodd;stroke:#251a0b;stroke-width:3.66596"
       d="m 1090.1354,468.08903 c -22.4078,-10.88468 -37.6508,-21.32816 -55.5731,-38.0747 -11.9472,-11.16353 -22.0949,-19.62636 -27.5043,-22.93748 l -3.8713,-2.36977 8.1799,-3.98079 8.1799,-3.98082 37.566,8.36308 c 39.064,8.69658 46.6091,11.00257 61.4864,18.79179 8.9584,4.6904 8.9441,4.71781 -4.0129,7.67407 -7.6059,1.73539 -10.7615,1.98016 -21.4484,1.66389 -13.4359,-0.39762 -16.0216,0.4903 -7.7,2.64431 39.2484,10.15894 59.0096,16.29127 54.4463,16.89594 -5.272,0.69861 -51.6044,-4.51712 -62.0695,-6.9873 -3.4165,-0.80639 -6.3794,-1.18482 -6.5844,-0.84095 -0.205,0.34377 4.4872,4.26663 10.4269,8.71742 13.3455,10.00009 25.2365,20.65586 23.154,20.74874 -0.8309,0.0373 -7.4348,-2.81031 -14.6755,-6.32743 z"
       id="path91011"
       inkscape:export-filename="D:\Art\kajamGame\eagle.png"
       inkscape:export-xdpi="1.2095238"
       inkscape:export-ydpi="1.2095238" />
    <path
       style="fill:#d45500;fill-rule:evenodd;stroke:#251a0b;stroke-width:3.66596"
       d="m 1175.593,448.76967 c -8.7132,-2.62359 -24.0397,-9.49881 -37.7313,-16.92555 -21.8734,-11.86493 -29.9466,-15.75916 -38.2785,-18.46445 -6.2098,-2.01626 -67.074,-16.48077 -75.5954,-17.96546 -1.3535,-0.23571 0.042,-1.46195 5.3882,-4.73271 4.2877,-2.6233 7.7736,-4.18494 8.5915,-3.84888 0.7571,0.31103 4.4622,1.2779 8.2335,2.14855 8.5444,1.9726 21.3271,1.87216 33.9318,-0.26676 12.4016,-2.10443 22.6356,-2.22625 29.8904,-0.35598 3.2306,0.83294 12.6564,4.24353 20.9462,7.57919 18.1103,7.28727 27.0954,9.67114 33.4472,8.87418 2.5018,-0.31399 10.4414,-2.53546 17.6435,-4.93679 7.2021,-2.40126 13.8724,-4.25853 14.8228,-4.12726 1.6629,0.22945 1.658,0.3304 -0.1283,2.66721 -4.3521,5.69354 -16.1588,11.33749 -29.2596,13.98684 -3.3707,0.68162 -6.1234,1.55781 -6.1171,1.94701 0.011,0.38922 7.4928,0.76476 16.6367,0.83465 l 16.6256,0.12703 9.7941,3.50786 c 5.3867,1.92935 10.9564,4.24325 12.3772,5.14197 l 2.5832,1.63398 -4.0669,1.87438 c -9.4654,4.3622 -27.3314,3.16181 -65.8796,-4.42663 -4.3018,-0.84689 -2.7825,1.12897 4.6514,6.04885 8.9742,5.93941 24.5693,17.39775 26.0854,19.16607 1.7641,2.05745 0.87,2.15733 -4.592,0.51263 z"
       id="path91050"
       inkscape:export-filename="D:\Art\kajamGame\eagle.png"
       inkscape:export-xdpi="1.2095238"
       inkscape:export-ydpi="1.2095238" />
    <ellipse
       style="fill:#803300;fill-rule:evenodd;stroke:#251a0b;stroke-width:3.84266"
       id="path91191"
       cx="229.3098"
       cy="129.44695"
       rx="11.3348"
       ry="13.988073"
       inkscape:export-filename="D:\Art\kajamGame\eagle.png"
       inkscape:export-xdpi="1.2095238"
       inkscape:export-ydpi="1.2095238" />
    <ellipse
       style="fill:#ffffff;fill-opacity:1;fill-rule:evenodd;stroke:#251a0b;stroke-width:0;stroke-miterlimit:4;stroke-dasharray:none"
       id="path91237"
       cx="225.54527"
       cy="125.64272"
       rx="1.9833926"
       ry="3.1886132"
       inkscape:export-filename="D:\Art\kajamGame\eagle.png"
       inkscape:export-xdpi="1.2095238"
       inkscape:export-ydpi="1.2095238" />
    <path
       style="fill:#c8b7b7;stroke:#000000;stroke-width:0.954654px;stroke-linecap:butt;stroke-linejoin:miter;stroke-opacity:1"
       d="m 236.31854,183.052 c 0,0 77.07433,25.41634 125.15543,4.49706 48.08109,-20.91916 48.08109,-20.91916 48.08109,-20.91916"
       id="path91440"
       inkscape:export-filename="D:\Art\kajamGame\eagle.png"
       inkscape:export-xdpi="1.2095238"
       inkscape:export-ydpi="1.2095238" />
    <path
       style="fill:#afa3a3;fill-opacity:1;fill-rule:evenodd;stroke:#251a0b;stroke-width:0;stroke-miterlimit:4;stroke-dasharray:none"
       d="m 344.95747,240.38771 c -2.88048,-2.12382 -8.46291,-5.94693 -12.40545,-8.49596 -24.25378,-15.68098 -64.23509,-27.85407 -107.55428,-32.74685 -4.87524,-0.55066 -9.0799,-0.99773 -9.34377,-0.99353 -0.26405,0 2.26168,-1.3281 5.61231,-2.96074 3.35074,-1.63267 9.07495,-4.56023 12.7205,-6.50571 l 6.62827,-3.53718 6.94759,1.85356 c 36.99983,9.87112 73.76159,12.09586 99.33871,6.01183 7.89205,-1.87723 11.019,-3.09365 36.90103,-14.35448 19.36184,-8.42385 24.03506,-10.30024 24.34113,-9.77327 0.77366,1.33195 6.97708,8.34885 15.27706,17.28049 l 8.54864,9.19943 -23.25158,0.64623 c -19.05835,0.52963 -34.5352,1.45088 -35.19639,2.095 -0.0687,0.0667 4.107,4.85489 9.27933,10.63998 5.17231,5.7852 9.71772,10.89882 10.10094,11.36374 0.82412,0.99989 1.9594,1.16535 -11.18437,-1.62959 -17.77032,-3.77882 -30.3904,-6.10951 -32.86609,-6.06981 -2.17861,0.0355 -2.60212,0.19248 -3.2424,1.20452 -0.96343,1.52306 -0.70617,3.53928 2.37586,18.62091 1.32657,6.49145 2.36657,11.84995 2.31111,11.9078 -0.0553,0.0573 -2.45767,-1.63256 -5.33815,-3.75637 z"
       id="path91512"
       inkscape:export-filename="D:\Art\kajamGame\eagle.png"
       inkscape:export-xdpi="1.2095238"
       inkscape:export-ydpi="1.2095238" />
    <path
       style="fill:#c8b7b7;stroke:#000000;stroke-width:0.954654px;stroke-linecap:butt;stroke-linejoin:miter;stroke-opacity:1"
       d="m 1105.1376,343.74406 c 0,0 75.9875,7.78275 122.7251,-9.71301 46.7375,-17.49577 44.8264,-16.17701 44.8264,-16.17701"
       id="path93514"
       inkscape:export-filename="D:\Art\kajamGame\eagle.png"
       inkscape:export-xdpi="1.2095238"
       inkscape:export-ydpi="1.2095238" />
    <path
       style="fill:#afa3a3;fill-opacity:1;fill-rule:evenodd;stroke:#251a0b;stroke-width:0;stroke-miterlimit:4;stroke-dasharray:none"
       d="m 1145.6547,368.75557 c -6.2025,-0.19657 -24.3306,-1.02322 -40.2847,-1.83694 -15.9542,-0.81377 -29.4422,-1.47152 -29.9734,-1.4617 -0.5312,0.0108 6.4951,-4.62413 15.614,-10.29766 l 16.5797,-10.31552 10.6396,0.6946 c 13.6737,0.89261 52.8132,0.28038 64.0713,-1.00227 23.9433,-2.72802 33.4154,-5.16281 64.3252,-16.53501 l 23.8725,-8.78293 17.4427,3.24229 c 9.5935,1.78331 17.6507,3.24421 17.9043,3.2464 0.6578,0.0108 -8.0485,5.70206 -14.9758,9.79812 -13.6371,8.06357 -35.4913,17.94979 -49.4215,22.35675 -16.0743,5.08537 -33.4506,8.78675 -47.8169,10.18551 -9.3632,0.91169 -31.3286,1.23599 -47.977,0.70836 z"
       id="path100223"
       inkscape:export-filename="D:\Art\kajamGame\eagle.png"
       inkscape:export-xdpi="1.2095238"
       inkscape:export-ydpi="1.2095238" />
    <path
       style="fill:none;stroke:#000000;stroke-width:3.48186;stroke-linecap:butt;stroke-linejoin:miter;stroke-miterlimit:4;stroke-dasharray:none;stroke-opacity:1"
       d="m 736.74518,209.918 -79.5557,-37.41693"
       id="path100297"
       inkscape:export-filename="D:\Art\kajamGame\eagle.png"
       inkscape:export-xdpi="1.2095238"
       inkscape:export-ydpi="1.2095238" />
  </g>
</svg>
