<?xml version="1.0" encoding="UTF-8" standalone="no"?>
<!-- Created with Inkscape (http://www.inkscape.org/) -->

<svg
   width="1024"
   height="659"
   viewBox="0 0 270.93333 174.36042"
   version="1.1"
   id="svg84706"
   sodipodi:docname="eagle.svg"
   inkscape:version="1.1.1 (3bf5ae0d25, 2021-09-20)"
   inkscape:export-filename="D:\Art\kajamGame\Vectors\eagle2.png"
   inkscape:export-xdpi="96"
   inkscape:export-ydpi="96"
   xmlns:inkscape="http://www.inkscape.org/namespaces/inkscape"
   xmlns:sodipodi="http://sodipodi.sourceforge.net/DTD/sodipodi-0.dtd"
   xmlns="http://www.w3.org/2000/svg"
   xmlns:svg="http://www.w3.org/2000/svg">
  <sodipodi:namedview
     id="namedview84708"
     pagecolor="#505050"
     bordercolor="#ffffff"
     borderopacity="1"
     inkscape:pageshadow="0"
     inkscape:pageopacity="0"
     inkscape:pagecheckerboard="1"
     inkscape:document-units="mm"
     showgrid="false"
     units="px"
     inkscape:zoom="0.74118968"
     inkscape:cx="429.71456"
     inkscape:cy="319.08162"
     inkscape:window-width="1920"
     inkscape:window-height="1017"
     inkscape:window-x="1912"
     inkscape:window-y="-8"
     inkscape:window-maximized="1"
     inkscape:current-layer="layer2" />
  <defs
     id="defs84703" />
  <g
     inkscape:label="eagle2"
     inkscape:groupmode="layer"
     id="layer1"
     style="display:inline">
    <path
       style="fill:none;stroke:#000000;stroke-width:0.155652px;stroke-linecap:butt;stroke-linejoin:miter;stroke-opacity:1"
       d="m 128.03183,26.304407 c 0,0 -7.87512,4.620062 -27.19536,3.045048 -19.320261,-1.57503 -23.625314,7.140095 -23.625314,7.140095"
       id="path89880"
       inkscape:export-filename="D:\Art\kajamGame\eagle2.png"
       inkscape:export-xdpi="52.399212"
       inkscape:export-ydpi="52.399212" />
    <path
       style="fill:none;stroke:#000000;stroke-width:0.155652px;stroke-linecap:butt;stroke-linejoin:miter;stroke-opacity:1"
       d="m 91.806342,43.419642 c 0,0 -1.15502,1.26002 -5.775077,-3.360048 C 81.411202,35.439536 74.717367,36.7258 74.717367,36.7258 c 0,0 -11.891407,0.60376 -13.046416,5.433825 -1.155014,4.830061 -0.420011,7.245096 -0.420011,7.245096 0,0 4.488815,-6.378837 14.01768,-6.431332 9.528883,-0.0525 14.700205,1.365017 16.695224,0.472499 1.995037,-0.892516 -10.316391,6.326338 -19.819016,5.433821 C 62.642205,47.987204 62.14344,48.433457 62.14344,48.433457"
       id="path89882"
       inkscape:export-filename="D:\Art\kajamGame\eagle2.png"
       inkscape:export-xdpi="52.399212"
       inkscape:export-ydpi="52.399212" />
    <path
       style="fill:none;stroke:#000000;stroke-width:0.155652px;stroke-linecap:butt;stroke-linejoin:miter;stroke-opacity:1"
       d="m 86.188767,46.202187 c 0,0 11.812658,0.262487 20.737783,5.302555"
       id="path89884"
       inkscape:export-filename="D:\Art\kajamGame\eagle2.png"
       inkscape:export-xdpi="52.399212"
       inkscape:export-ydpi="52.399212" />
    <path
       style="fill:none;stroke:#000000;stroke-width:0.155652px;stroke-linecap:butt;stroke-linejoin:miter;stroke-opacity:1"
       d="m 106.92655,51.504742 c 0,0 3.04503,2.100031 3.67503,2.83504 0.63003,0.735009 0.63003,0.735009 0.63003,0.735009 l -1.26003,-6.457591 8.97762,1.837534 -3.88504,-4.305053 9.71263,-0.315004 -4.72506,-5.09258 10.55263,-3.097528 -3.88504,-2.625043 6.98258,-4.252548 -5.77507,-0.997529 2.78254,-4.357548 -2.67754,0.892506"
       id="path89886"
       inkscape:export-filename="D:\Art\kajamGame\eagle2.png"
       inkscape:export-xdpi="52.399212"
       inkscape:export-ydpi="52.399212" />
    <path
       style="fill:none;stroke:#000000;stroke-width:0.155652px;stroke-linecap:butt;stroke-linejoin:miter;stroke-opacity:1"
       d="m 233.03323,55.074791 c 0,0 17.01022,-0.839998 27.93037,-13.650169 10.92011,-12.810187 0.41998,8.190102 0.41998,8.190102 l 9.66014,-4.410066 -12.39015,12.180162 11.97013,0.420017 -17.85022,5.880074 14.70018,2.730025 c 0,0 -10.3243,8.633786 -25.54499,7.891336 C 226.708,73.563792 226.708,73.563792 226.708,73.563792"
       id="path89896"
       inkscape:export-filename="D:\Art\kajamGame\eagle2.png"
       inkscape:export-xdpi="52.399212"
       inkscape:export-ydpi="52.399212" />
    <path
       style="fill:none;stroke:#000000;stroke-width:0.155652px;stroke-linecap:butt;stroke-linejoin:miter;stroke-opacity:1"
       d="m 233.03323,55.074791 v 0"
       id="path89898"
       inkscape:export-filename="D:\Art\kajamGame\eagle2.png"
       inkscape:export-xdpi="52.399212"
       inkscape:export-ydpi="52.399212" />
    <path
       style="fill:none;stroke:#000000;stroke-width:0.155652px;stroke-linecap:butt;stroke-linejoin:miter;stroke-opacity:1"
       d="m 233.03323,55.074791 c 0,0 -1.33212,-0.184159 -1.96322,0.187066 -0.63108,0.371242 -0.63108,0.371242 -0.63108,0.371242"
       id="path89900"
       inkscape:export-filename="D:\Art\kajamGame\eagle2.png"
       inkscape:export-xdpi="52.399212"
       inkscape:export-ydpi="52.399212" />
    <path
       style="fill:none;stroke:#000000;stroke-width:0.155652px;stroke-linecap:butt;stroke-linejoin:miter;stroke-opacity:1"
       d="m 222.36623,76.414872 c 0,0 2.378,1.10924 5.86663,0.58296 3.48865,-0.52628 4.52686,-1.19645 9.43119,0.94751 4.90436,2.14397 5.57146,1.54874 7.27817,1.02579 1.70671,-0.52292 5.19339,-2.08865 3.41508,-0.1549 -1.7783,1.93377 -5.71269,2.3124 -5.71269,2.3124 0,0 4.30563,-0.37933 6.16305,0.28542 1.85743,0.66473 5.05146,1.401217 2.15736,2.223371 -2.89413,0.822147 -10.61929,-1.019534 -10.61929,-1.019534 0,0 9.96108,6.366534 3.71988,4.002349 -6.24121,-2.364188 -8.62199,-4.958356 -13.52438,-6.062866 -4.90241,-1.10452 -11.10949,-2.46449 -11.10949,-2.46449"
       id="path89902"
       inkscape:export-filename="D:\Art\kajamGame\eagle2.png"
       inkscape:export-xdpi="52.399212"
       inkscape:export-ydpi="52.399212" />
    <path
       style="fill:none;stroke:#000000;stroke-width:0.155652px;stroke-linecap:butt;stroke-linejoin:miter;stroke-opacity:1"
       d="m 237.45163,83.440036 c 0,0 -4.00684,1.343961 -6.08646,0.976634 -2.0796,-0.367337 -1.70779,-0.071 -1.70779,-0.071 0,0 16.19323,3.904679 7.43052,3.104422 -8.76266,-0.800274 -9.06064,-1.319441 -9.06064,-1.319441 0,0 10.55744,7.627625 3.05167,4.003606 -7.50579,-3.624009 -9.66551,-7.109578 -12.119,-8.886895 0,0 -2.04506,-1.74097 -2.75027,-1.66538"
       id="path89904"
       inkscape:export-filename="D:\Art\kajamGame\eagle2.png"
       inkscape:export-xdpi="52.399212"
       inkscape:export-ydpi="52.399212" />
    <path
       style="fill:none;stroke:#000000;stroke-width:0.155652px;stroke-linecap:butt;stroke-linejoin:miter;stroke-opacity:1"
       d="m 76.252762,48.800703 -0.852208,1.968243 9.614055,-1.158859 -0.777949,1.968204 5.640074,-3.234481 3.974312,2.483976 1.668971,-1.894705 5.012803,1.332255 -0.0384,-1.52203"
       id="path89910"
       inkscape:export-filename="D:\Art\kajamGame\eagle2.png"
       inkscape:export-xdpi="52.399212"
       inkscape:export-ydpi="52.399212" />
    <path
       style="fill:none;stroke:#000000;stroke-width:0.155652px;stroke-linecap:butt;stroke-linejoin:miter;stroke-opacity:1"
       d="m 118.9492,50.454734 c 0,0 18.43559,30.146918 48.73107,33.239959 30.29545,3.093062 57.09727,-13.917513 57.09727,-13.917513"
       id="path89912"
       inkscape:export-filename="D:\Art\kajamGame\eagle2.png"
       inkscape:export-xdpi="52.399212"
       inkscape:export-ydpi="52.399212" />
    <path
       style="fill:#6c5353;fill-rule:evenodd;stroke:#251a0b;stroke-width:0.597718"
       d="m 166.3118,91.321191 c -10.48046,-0.764517 -17.95047,-3.316162 -24.64727,-8.419162 -2.01172,-1.532927 -4.22348,-3.749527 -8.38147,-8.399707 -5.03109,-5.626654 -10.36985,-11.470855 -14.11148,-15.447508 -2.84636,-3.025158 -7.28188,-7.441531 -8.25187,-8.216276 -0.37341,-0.298243 -0.49032,-0.528777 -0.58277,-1.149174 -0.0636,-0.426845 -0.0959,-0.795536 -0.0718,-0.819338 0.0823,-0.08119 8.49797,1.698815 8.60839,1.820785 0.0605,0.06685 0.61019,0.848676 1.22146,1.737371 4.74469,6.898073 11.78172,14.244545 18.47385,19.28621 7.38212,5.5615 15.13807,9.31475 22.89595,11.079817 9.26739,2.108508 20.96376,1.837871 32.61868,-0.754747 9.93215,-2.2094 21.32735,-6.59596 29.39762,-11.316525 l 1.2753,-0.745974 3.75118,-0.02035 3.75118,-0.02035 -6.5714,4.086399 c -6.63242,4.12434 -8.22875,4.99225 -13.05443,7.0976 -11.51668,5.024469 -23.39053,8.416428 -34.07625,9.734402 -2.10715,0.259887 -10.62799,0.584687 -12.24487,0.466737 z"
       id="path90444"
       inkscape:export-filename="D:\Art\kajamGame\eagle2.png"
       inkscape:export-xdpi="52.399212"
       inkscape:export-ydpi="52.399212" />
    <path
       style="fill:#c8b7b7;fill-rule:evenodd;stroke:#251a0b;stroke-width:0.597718"
       d="m 110.72418,54.240234 c -0.17104,-0.425177 -3.68685,-2.881439 -5.19647,-3.630409 -4.19913,-2.083355 -9.997367,-3.652525 -15.662099,-4.238653 -2.958679,-0.30613 -2.912249,-0.291347 -2.031911,-0.647414 1.162439,-0.470192 4.494743,-2.176262 4.492764,-2.300211 -0.0016,-0.06159 -0.352395,-0.09493 -0.780894,-0.07412 -1.273522,0.06189 -2.206691,-0.500917 -4.985785,-3.007055 -1.792149,-1.616105 -3.141823,-2.529108 -4.410854,-2.98377 -1.107139,-0.396663 -2.933381,-0.8314 -3.508747,-0.835261 -1.023058,-0.0068 -1.069179,-0.139179 -0.340352,-0.976431 1.45776,-1.674629 3.839685,-3.234789 6.459233,-4.230834 0.799346,-0.303932 1.583461,-0.624945 1.742474,-0.713353 0.572078,-0.318074 3.943484,-0.930416 6.269352,-1.138688 2.582941,-0.231298 4.882824,-0.199655 8.987049,0.123616 3.30085,0.259986 12.34253,0.159121 14.77445,-0.164819 4.31436,-0.574697 7.776,-1.379152 10.19046,-2.368194 1.88273,-0.77124 3.37866,-1.307015 3.45173,-1.236254 0.034,0.03294 -0.46808,0.87895 -1.11574,1.880031 -0.64769,1.001081 -1.20889,1.905811 -1.24715,2.010509 -0.051,0.139477 0.64649,0.312047 2.60949,0.645638 1.47348,0.25042 2.64975,0.504453 2.61394,0.564536 -0.0358,0.06009 -1.5208,0.991481 -3.29996,2.069765 -1.77916,1.078279 -3.23305,1.993901 -3.23087,2.034711 0.002,0.0408 0.84248,0.634717 1.86734,1.319806 l 1.86337,1.245616 -5.02984,1.478415 c -2.76642,0.813128 -5.10171,1.524031 -5.18954,1.579803 -0.15181,0.09638 0.44938,0.79848 3.34694,3.908704 l 1.11158,1.193184 -3.76441,0.07978 c -2.07044,0.0439 -4.24138,0.128838 -4.82429,0.188763 l -1.05986,0.108976 1.8304,2.036515 c 1.58768,1.766429 1.77195,2.02243 1.38959,1.930362 -1.81309,-0.436587 -7.52251,-1.593518 -7.8438,-1.58942 -0.46389,0.0059 -0.46872,-0.08688 0.15011,2.892257 0.49344,2.37558 0.60666,3.034809 0.52151,3.036162 -0.0393,0 -0.10643,-0.08589 -0.14921,-0.192263 z"
       id="path90520"
       inkscape:export-filename="D:\Art\kajamGame\eagle2.png"
       inkscape:export-xdpi="52.399212"
       inkscape:export-ydpi="52.399212" />
    <path
       style="fill:#c8b7b7;fill-rule:evenodd;stroke:#251a0b;stroke-width:0.597718"
       d="m 234.79288,73.821932 c -3.39264,-0.17604 -6.45436,-0.3361 -6.80387,-0.35573 l -0.63545,-0.0357 3.05479,-1.90542 3.05477,-1.905401 -4.15739,-0.0078 -4.15742,-0.0078 4.37968,-4.653428 c 2.40884,-2.559366 4.40324,-4.720265 4.43201,-4.801952 0.0289,-0.08214 -0.0711,-0.109296 -0.22374,-0.06076 -0.57102,0.181631 -8.07974,1.727513 -8.13428,1.674691 -0.0314,-0.03034 0.75337,-0.493633 1.74382,-1.029498 4.1583,-2.249804 6.57882,-4.010073 6.56655,-4.7754 -0.008,-0.438968 -0.54138,-0.662314 -1.61433,-0.674796 -0.46593,-0.0056 0.0541,-0.07196 1.15558,-0.147869 3.17152,-0.218535 6.95889,-1.050418 10.61676,-2.331898 6.75996,-2.368262 12.17055,-5.901156 16.58403,-10.828707 2.32544,-2.596301 3.67621,-3.931969 4.33255,-4.284102 0.30049,-0.161188 0.58236,-0.293662 0.62644,-0.294382 0.044,0 0.0851,0.306231 0.0911,0.682065 0.0197,1.223252 -1.10187,4.281734 -3.3557,9.151587 -0.87501,1.890658 -1.13267,2.576568 -0.9466,2.520161 0.14058,-0.04265 2.10287,-0.921851 4.3606,-1.953805 2.25774,-1.031977 4.13052,-1.851591 4.16173,-1.821392 0.0524,0.05087 -8.60068,8.628486 -10.64979,10.556762 -0.49996,0.47046 -0.87508,0.887464 -0.83359,0.926655 0.0415,0.03923 2.48258,0.150263 5.42468,0.246839 2.94215,0.09655 5.39544,0.214281 5.45189,0.261633 0.0564,0.04733 -3.64831,1.315777 -8.23268,2.818747 -4.58438,1.50296 -8.33484,2.805127 -8.33439,2.893688 0,0.09357 2.70007,0.660364 6.44313,1.352764 3.54329,0.655441 6.76245,1.25553 7.15378,1.333559 l 0.71142,0.141854 -0.3495,0.284119 c -0.74521,0.605766 -2.8977,1.913967 -4.65745,2.83057 -4.16637,2.170228 -8.40616,3.536116 -13.0465,4.203076 -2.56228,0.36828 -7.07008,0.3672 -14.21264,-0.004 z"
       id="path90559"
       inkscape:export-filename="D:\Art\kajamGame\eagle2.png"
       inkscape:export-xdpi="52.399212"
       inkscape:export-ydpi="52.399212" />
    <path
       style="fill:none;stroke:#000000;stroke-width:0.155652px;stroke-linecap:butt;stroke-linejoin:miter;stroke-opacity:1"
       d="m 61.011919,47.074312 c 0,0 0.247548,-6.582044 8.104311,-8.688674 7.856782,-2.106641 9.47953,-1.51723 9.47953,-1.51723"
       id="path90711"
       inkscape:export-filename="D:\Art\kajamGame\eagle2.png"
       inkscape:export-xdpi="52.399212"
       inkscape:export-ydpi="52.399212" />
    <path
       style="fill:#d45500;fill-rule:evenodd;stroke:#251a0b;stroke-width:0.211326"
       d="m 61.258252,48.868743 c -0.01838,-0.107986 -0.05598,-0.610071 -0.08366,-1.115704 -0.0457,-0.834733 -0.0403,-0.970028 0.05835,-1.469822 0.4018,-2.035503 1.464032,-3.873476 3.067885,-5.308265 0.868787,-0.777196 2.361236,-1.645084 3.589536,-2.087336 1.294244,-0.46599 4.59005,-1.274617 6.668454,-1.636101 1.644848,-0.286076 3.050293,-0.412958 3.668559,-0.331214 0.264375,0.03496 0.376407,0.03215 0.401576,-0.01011 0.05008,-0.08394 0.466183,-0.03141 1.335358,0.168636 2.63162,0.605644 3.781127,1.227248 6.190508,3.347593 1.470787,1.294351 2.068022,1.795768 2.624228,2.20311 0.55058,0.403246 1.237247,0.787291 1.627587,0.910284 0.192951,0.0608 0.09976,0.06751 -0.860114,0.06188 -0.743299,-0.0045 -1.808829,-0.06857 -3.442556,-0.207411 -4.556315,-0.387244 -6.417725,-0.484078 -10.116129,-0.526278 -3.564621,-0.04063 -6.606438,0.632526 -9.378271,2.075528 -1.833454,0.954504 -3.234976,1.995924 -4.589027,3.40994 -0.374395,0.390986 -0.691569,0.711054 -0.704833,0.711257 -0.01321,0 -0.03912,-0.08798 -0.05745,-0.19598 z"
       id="path90783"
       inkscape:export-filename="D:\Art\kajamGame\eagle2.png"
       inkscape:export-xdpi="52.399212"
       inkscape:export-ydpi="52.399212" />
    <path
       style="fill:#ff7f2a;fill-rule:evenodd;stroke:#251a0b;stroke-width:0.211326"
       d="m 61.271112,45.101135 c -0.0061,-0.182834 0.231748,-1.657522 0.380567,-2.359438 0.109284,-0.515379 0.178252,-0.72174 0.291134,-0.871041 0.08137,-0.107604 0.25555,-0.366077 0.387074,-0.574371 0.268512,-0.425255 0.844052,-1.015335 1.309066,-1.342136 1.80942,-1.271617 4.917598,-2.193169 9.317423,-2.76256 1.448645,-0.18747 1.636699,-0.182051 0.654222,0.01889 -1.683202,0.344207 -4.224682,0.970242 -5.247149,1.292502 -1.392287,0.438816 -2.767798,1.155138 -3.833969,1.996609 -0.468932,0.370108 -1.342294,1.262118 -1.706898,1.743348 -0.571471,0.75424 -1.046113,1.618566 -1.379658,2.512269 -0.09255,0.247997 -0.169873,0.403683 -0.171812,0.34595 z"
       id="path90859"
       inkscape:export-filename="D:\Art\kajamGame\eagle2.png"
       inkscape:export-xdpi="52.399212"
       inkscape:export-ydpi="52.399212" />
    <path
       style="fill:#d45500;fill-rule:evenodd;stroke:#251a0b;stroke-width:0.211326"
       d="m 72.905826,48.77237 c -0.548954,-0.01569 -1.849848,-0.09895 -2.890879,-0.184992 -3.047759,-0.25192 -4.476079,-0.332427 -6.09491,-0.343476 l -1.521411,-0.01045 0.490176,-0.447766 c 2.180016,-1.991338 4.927502,-3.453342 7.79472,-4.147782 1.664863,-0.403233 2.652899,-0.515367 4.782882,-0.542835 2.998529,-0.03867 5.674887,0.08326 10.115073,0.460838 2.789858,0.237252 3.560523,0.283502 4.519991,0.271316 l 0.892449,-0.01135 -0.520645,0.276391 c -0.777882,0.412945 -2.102448,1.050074 -2.70151,1.299477 -0.291269,0.121249 -0.566373,0.254555 -0.611337,0.29622 -0.192365,0.178236 -2.808069,1.132651 -4.495879,1.640464 -1.845408,0.555211 -3.369815,0.911513 -5.220406,1.220149 -0.916246,0.152821 -1.254215,0.184425 -2.30687,0.215664 -0.678337,0.02012 -1.682477,0.02378 -2.231444,0.0081 z"
       id="path90972"
       inkscape:export-filename="D:\Art\kajamGame\eagle2.png"
       inkscape:export-xdpi="52.399212"
       inkscape:export-ydpi="52.399212" />
    <path
       style="fill:#d45500;fill-rule:evenodd;stroke:#251a0b;stroke-width:0.597718"
       d="m 231.01709,89.89352 c -3.65349,-1.774691 -6.13878,-3.477432 -9.06093,-6.207867 -1.94794,-1.820151 -3.60248,-3.199971 -4.48444,-3.739841 l -0.6312,-0.38637 1.33369,-0.64905 1.3337,-0.64906 6.12496,1.36356 c 6.36918,1.41794 7.59938,1.79393 10.02505,3.063917 1.46063,0.764737 1.45829,0.769207 -0.65428,1.251204 -1.24011,0.282947 -1.75462,0.322857 -3.49706,0.271297 -2.19066,-0.0649 -2.61225,0.0799 -1.25545,0.43114 6.39927,1.656348 9.62123,2.656195 8.87721,2.754772 -0.85958,0.11391 -8.41385,-0.736484 -10.12014,-1.139244 -0.55704,-0.131467 -1.04012,-0.193157 -1.07355,-0.137097 -0.0335,0.056 0.73161,0.695644 1.70006,1.421331 2.17592,1.630451 4.11469,3.367812 3.77514,3.382962 -0.13547,0.006 -1.2122,-0.458207 -2.39276,-1.031654 z"
       id="path91011"
       inkscape:export-filename="D:\Art\kajamGame\eagle2.png"
       inkscape:export-xdpi="52.399212"
       inkscape:export-ydpi="52.399212" />
    <path
       style="fill:#d45500;fill-rule:evenodd;stroke:#251a0b;stroke-width:0.597718"
       d="m 244.95054,86.743608 c -1.42065,-0.42776 -3.91957,-1.548734 -6.15191,-2.759615 -3.56635,-1.934511 -4.88265,-2.569441 -6.24112,-3.010541 -1.01248,-0.32873 -10.9361,-2.6871 -12.32548,-2.92917 -0.22067,-0.0384 0.008,-0.23837 0.87853,-0.77165 0.69908,-0.42771 1.26744,-0.68233 1.4008,-0.62754 0.12344,0.0507 0.72753,0.20836 1.34243,0.35031 1.39313,0.32162 3.47728,0.30525 5.53241,-0.0435 2.02203,-0.34312 3.69063,-0.36299 4.87349,-0.058 0.52674,0.13581 2.06357,0.6919 3.41518,1.23575 2.9528,1.18816 4.41778,1.57684 5.45341,1.4469 0.4079,-0.0512 1.70241,-0.41339 2.87668,-0.80492 1.17428,-0.39151 2.26184,-0.69433 2.41679,-0.67293 0.27113,0.0374 0.27033,0.0538 -0.0209,0.43488 -0.7096,0.92829 -2.63462,1.84852 -4.77065,2.28048 -0.54957,0.11114 -0.99839,0.25401 -0.99736,0.31746 0.002,0.0635 1.22166,0.12468 2.71254,0.13609 l 2.71071,0.0207 1.59689,0.57193 c 0.87827,0.31457 1.78638,0.691837 2.01804,0.838377 l 0.42118,0.26641 -0.66309,0.305607 c -1.54329,0.711227 -4.45625,0.515507 -10.74135,-0.721737 -0.7014,-0.138087 -0.45368,0.18406 0.75838,0.986227 1.46321,0.968384 4.00592,2.836602 4.2531,3.124922 0.28764,0.335447 0.14186,0.351737 -0.74871,0.0836 z"
       id="path91050"
       inkscape:export-filename="D:\Art\kajamGame\eagle2.png"
       inkscape:export-xdpi="52.399212"
       inkscape:export-ydpi="52.399212" />
    <ellipse
       style="fill:#803300;fill-rule:evenodd;stroke:#251a0b;stroke-width:0.626529"
       id="path91191"
       cx="90.663605"
       cy="34.679573"
       rx="1.8480847"
       ry="2.2806883"
       inkscape:export-filename="D:\Art\kajamGame\eagle2.png"
       inkscape:export-xdpi="52.399212"
       inkscape:export-ydpi="52.399212" />
    <ellipse
       style="fill:#ffffff;fill-opacity:1;fill-rule:evenodd;stroke:#251a0b;stroke-width:0;stroke-miterlimit:4;stroke-dasharray:none"
       id="path91237"
       cx="90.04982"
       cy="34.059319"
       rx="0.32338265"
       ry="0.5198881"
       inkscape:export-filename="D:\Art\kajamGame\eagle2.png"
       inkscape:export-xdpi="52.399212"
       inkscape:export-ydpi="52.399212" />
    <path
       style="fill:#c8b7b7;stroke:#000000;stroke-width:0.155652px;stroke-linecap:butt;stroke-linejoin:miter;stroke-opacity:1"
       d="m 91.806342,43.419642 c 0,0 12.566608,4.144016 20.405998,0.733227 7.83939,-3.410772 7.83939,-3.410772 7.83939,-3.410772"
       id="path91440"
       inkscape:export-filename="D:\Art\kajamGame\eagle2.png"
       inkscape:export-xdpi="52.399212"
       inkscape:export-ydpi="52.399212" />
    <path
       style="fill:#afa3a3;fill-opacity:1;fill-rule:evenodd;stroke:#251a0b;stroke-width:0;stroke-miterlimit:4;stroke-dasharray:none"
       d="m 109.5194,52.767956 c -0.46965,-0.346277 -1.37984,-0.969619 -2.02265,-1.385229 -3.95446,-2.556704 -10.473222,-4.541466 -17.536209,-5.339211 -0.794883,-0.08979 -1.480433,-0.162678 -1.523458,-0.161992 -0.04306,0 0.368758,-0.21654 0.91506,-0.482735 0.546326,-0.266196 1.479629,-0.743525 2.074015,-1.060726 l 1.080712,-0.57672 1.132768,0.302217 c 6.032646,1.60944 12.026472,1.972172 16.196702,0.980201 1.28676,-0.306078 1.7966,-0.504407 6.01654,-2.340435 3.15685,-1.37347 3.9188,-1.679403 3.9687,-1.593483 0.12614,0.217168 1.13758,1.36124 2.49085,2.8175 l 1.39382,1.499924 -3.79107,0.105367 c -3.10736,0.08635 -5.63079,0.236559 -5.7386,0.341578 -0.0112,0.0109 0.66963,0.791567 1.51296,1.734798 0.84332,0.943251 1.58442,1.777001 1.64691,1.852804 0.13437,0.163027 0.31946,0.190005 -1.82356,-0.265696 -2.89737,-0.61612 -4.95501,-0.99613 -5.35866,-0.989655 -0.35522,0.0058 -0.42426,0.03136 -0.52866,0.19639 -0.15708,0.248328 -0.11514,0.577063 0.38737,3.036051 0.2163,1.058399 0.38586,1.932076 0.37682,1.941507 -0.009,0.0093 -0.40071,-0.266179 -0.87036,-0.612455 z"
       id="path91512"
       inkscape:export-filename="D:\Art\kajamGame\eagle2.png"
       inkscape:export-xdpi="52.399212"
       inkscape:export-ydpi="52.399212" />
    <path
       style="fill:#c8b7b7;stroke:#000000;stroke-width:0.155652px;stroke-linecap:butt;stroke-linejoin:miter;stroke-opacity:1"
       d="m 233.46312,69.619708 c 0,0 12.38939,1.268941 20.00974,-1.583661 7.62032,-2.852595 7.30874,-2.637582 7.30874,-2.637582"
       id="path93514"
       inkscape:export-filename="D:\Art\kajamGame\eagle2.png"
       inkscape:export-xdpi="52.399212"
       inkscape:export-ydpi="52.399212" />
    <path
       style="fill:#afa3a3;fill-opacity:1;fill-rule:evenodd;stroke:#251a0b;stroke-width:0;stroke-miterlimit:4;stroke-dasharray:none"
       d="m 240.06924,73.697722 c -1.01129,-0.032 -3.96698,-0.16684 -6.56823,-0.29951 -2.60125,-0.13269 -4.8004,-0.23992 -4.88702,-0.23832 -0.0866,0.002 1.059,-0.753938 2.54579,-1.678998 l 2.70324,-1.681883 1.73474,0.11325 c 2.22943,0.145535 8.61093,0.04567 10.44652,-0.163413 3.90383,-0.444799 5.44822,-0.841773 10.48792,-2.695954 l 3.89229,-1.432014 2.84394,0.528638 c 1.56419,0.29076 2.87786,0.528956 2.91921,0.529321 0.10726,0.0016 -1.31227,0.929681 -2.44173,1.597524 -2.22346,1.314725 -5.78668,2.926625 -8.05793,3.64516 -2.62085,0.829139 -5.45396,1.432639 -7.79632,1.660699 -1.52662,0.14865 -5.10798,0.20152 -7.82242,0.1155 z"
       id="path100223"
       inkscape:export-filename="D:\Art\kajamGame\eagle2.png"
       inkscape:export-xdpi="52.399212"
       inkscape:export-ydpi="52.399212" />
    <path
       style="fill:none;stroke:#000000;stroke-width:0.0741382px;stroke-linecap:butt;stroke-linejoin:miter;stroke-opacity:1"
       d="m 233.03322,55.074791 c 0,0 -15.29093,6.146963 -27.45637,4.449461 C 193.41141,57.826746 179.12408,49.197771 166.1099,43.256519 153.09571,37.315251 131.45255,32.50566 131.45255,32.50566"
       id="path8359"
       inkscape:export-filename="D:\Art\kajamGame\eagle2.png"
       inkscape:export-xdpi="52.399212"
       inkscape:export-ydpi="52.399212" />
    <path
       style="fill:none;stroke:#000000;stroke-width:0.0741382px;stroke-linecap:butt;stroke-linejoin:miter;stroke-opacity:1"
       d="m 130.04057,71.42604 c 0,0 4.00106,14.603811 -7.40195,23.80619 -11.40299,9.20239 9.20243,22.00576 0,39.41034 -9.20241,17.40458 -11.00289,17.00447 -11.00289,17.00447 l 19.40511,-14.80389 -3.80101,14.20373 14.95395,-9.00237"
       id="path8950"
       inkscape:export-filename="D:\Art\kajamGame\eagle2.png"
       inkscape:export-xdpi="52.399212"
       inkscape:export-ydpi="52.399212" />
    <path
       style="fill:none;stroke:#000000;stroke-width:0.0741382px;stroke-linecap:butt;stroke-linejoin:miter;stroke-opacity:1"
       d="m 124.48911,129.99134 1.10029,5.50146 7.15189,-4.00106 3.25085,8.45222 5.65149,-9.35245 2.39874,2.31428"
       id="path11793"
       inkscape:export-filename="D:\Art\kajamGame\eagle2.png"
       inkscape:export-xdpi="52.399212"
       inkscape:export-ydpi="52.399212" />
  </g>
  <g
     inkscape:groupmode="layer"
     id="layer2"
     inkscape:label="eagle2 wing"
     style="display:inline">
    <path
       style="fill:none;stroke:#000000;stroke-width:0.0741382px;stroke-linecap:butt;stroke-linejoin:miter;stroke-opacity:1"
       d="m 145.44463,57.422354 c 0,0 3.20084,16.804418 -6.20163,30.407965 -9.40248,13.603511 9.20242,34.609041 3.801,51.613521 -5.40143,17.00447 -12.80338,22.806 -12.80338,22.806 l 22.20586,-15.00395 -5.80153,27.20716 16.80441,-22.00578 7.00186,17.20451 6.20162,-23.80626 11.0029,8.80231 -7.80205,-28.20742 13.20347,6.00158 -4.60121,-17.80469 15.6041,2.80074 -7.20189,-11.0029 8.40221,-3.20084 -10.00263,-13.203403 11.20294,-3.000782 -9.40247,-12.803343 8.80231,-2.400629 -12.80336,-8.402207"
       id="path8831"
       inkscape:export-filename="D:\Art\kajamGame\eagle2.png"
       inkscape:export-xdpi="52.399212"
       inkscape:export-ydpi="52.399212" />
    <path
       style="fill:none;stroke:#000000;stroke-width:0.0741382px;stroke-linecap:butt;stroke-linejoin:miter;stroke-opacity:1"
       d="m 193.05716,63.423936 3.20084,7.401945 -9.9026,2.600681 5.80153,9.202417 -9.50251,5.801497 10.30272,12.203144 -11.90314,3.20085 8.20216,7.20189 -14.00369,1.00026 5.50145,9.9026 -10.60279,-1.40036 0.80021,20.00526 -4.90128,-5.20136 -5.10135,9.20241 c 0,0 -3.90102,-7.70202 -4.30114,-7.602 -0.4001,0.10003 -11.10291,7.90209 -11.10291,7.90209 l -1.60839,-10.13588"
       id="path11791"
       inkscape:export-filename="D:\Art\kajamGame\eagle2.png"
       inkscape:export-xdpi="52.399212"
       inkscape:export-ydpi="52.399212" />
    <path
       style="fill:none;stroke:#000000;stroke-width:0.0741382px;stroke-linecap:butt;stroke-linejoin:miter;stroke-opacity:1"
       d="m 193.05716,63.423936 c 0,0 -23.97676,4.635045 -47.61253,-6.001582"
       id="path26111"
       inkscape:export-filename="D:\Art\kajamGame\eagle2.png"
       inkscape:export-xdpi="52.399212"
       inkscape:export-ydpi="52.399212" />
    <path
       style="fill:#916f6f;fill-opacity:1;fill-rule:evenodd;stroke:#2f210e;stroke-width:0;stroke-miterlimit:4;stroke-dasharray:none"
       d="m 145.558,143.91077 c -0.68398,-3.23265 -1.23351,-7.67753 -1.4025,-11.34422 -0.27989,-6.07281 -0.80898,-8.58727 -4.01465,-19.07964 -2.66053,-8.7081 -3.374,-12.09318 -3.4021,-16.141162 -0.0273,-3.931379 0.66463,-6.332167 2.77807,-9.639226 3.39518,-5.31264 5.28621,-10.53089 6.1808,-17.055665 0.34581,-2.522351 0.42385,-8.847964 0.14121,-11.446055 l -0.16643,-1.529595 1.86215,0.789269 c 4.15094,1.759387 10.72069,3.658753 16.0865,4.650728 8.36349,1.546149 19.82147,1.859936 27.31701,0.748117 1.04431,-0.154909 1.95751,-0.225086 2.02933,-0.155957 0.30818,0.296584 3.00709,6.895341 2.86909,7.014866 -0.0837,0.07254 -2.21934,0.668581 -4.74585,1.324588 -2.5265,0.656024 -4.65596,1.246844 -4.73212,1.312944 -0.0762,0.066 1.12997,2.13617 2.68028,4.60018 1.55032,2.46399 2.81907,4.52757 2.81943,4.585727 0.002,0.0582 -2.10413,1.378454 -4.67669,2.934005 -2.57254,1.555551 -4.67812,2.873295 -4.67904,2.928312 -5.6e-4,0.055 2.26434,2.782005 5.03393,6.059947 2.76959,3.277962 4.96875,6.020377 4.88701,6.094257 -0.0817,0.0739 -2.68748,0.81187 -5.79054,1.63997 -3.10307,0.82811 -5.64154,1.56788 -5.64104,1.64394 5.6e-4,0.076 1.76488,1.68228 3.92088,3.56937 2.15601,1.88711 3.89905,3.45128 3.87341,3.47596 -0.0256,0.0247 -3.06109,0.25831 -6.74546,0.51915 -3.68436,0.26085 -6.76654,0.49183 -6.84928,0.51331 -0.0827,0.0214 1.04001,2.17832 2.49497,4.79302 1.45497,2.61469 2.59255,4.80752 2.52797,4.87292 -0.0645,0.0655 -2.32232,-0.16957 -5.01719,-0.52219 -2.69488,-0.35263 -4.96102,-0.5791 -5.03588,-0.50327 -0.0749,0.0758 0.0385,4.47639 0.25162,9.77903 0.21325,5.30264 0.36413,9.66509 0.33528,9.6943 -0.0287,0.0292 -1.0866,-1.06186 -2.35055,-2.42461 -1.26396,-1.36276 -2.35958,-2.41183 -2.43471,-2.33127 -0.0751,0.0806 -1.22623,2.11791 -2.558,4.52747 l -2.42142,4.38102 -1.20839,-2.25712 c -1.54825,-2.89192 -2.73074,-4.89586 -2.97776,-5.04635 -0.22587,-0.1376 -1.18843,0.50794 -6.8329,4.58244 -2.2781,1.64447 -4.17535,2.99016 -4.2161,2.99043 -0.0407,0 -0.1264,-0.24676 -0.19034,-0.54894 z"
       id="path37189"
       inkscape:export-filename="D:\Art\kajamGame\eagle2.png"
       inkscape:export-xdpi="52.399212"
       inkscape:export-ydpi="52.399212" />
    <path
       style="fill:#483737;fill-opacity:1;fill-rule:evenodd;stroke:#2f210e;stroke-width:0.515864;stroke-miterlimit:4;stroke-dasharray:none"
       d="m 146.95997,173.6664 c -0.003,-0.0778 1.25816,-6.06786 2.80209,-13.3113 1.54392,-7.24342 2.78493,-13.1918 2.75779,-13.2186 -0.0272,-0.0268 -4.6635,3.07053 -10.30302,6.88294 -5.63952,3.81242 -10.28493,6.9008 -10.32314,6.86306 -0.0382,-0.0377 0.18394,-0.33942 0.49368,-0.67044 1.30972,-1.39973 3.35178,-4.31581 4.88351,-6.97368 2.58896,-4.49243 5.96125,-12.96251 6.49498,-16.31322 l 0.17754,-1.1146 0.26905,2.28175 c 0.34047,2.88725 0.90867,6.08155 1.16872,6.57023 l 0.20005,0.37592 0.90932,-0.59587 c 0.50013,-0.32773 2.19977,-1.52538 3.77699,-2.66145 4.06767,-2.92998 6.09379,-4.3185 6.3034,-4.31984 0.19473,-0.002 1.82998,2.77628 3.34375,5.6795 0.51202,0.98199 0.99022,1.76642 1.06269,1.74315 0.0974,-0.0313 4.5719,-7.88785 5.02726,-8.8271 0.0378,-0.0781 1.11436,0.91811 2.39226,2.21367 1.27789,1.29558 2.39463,2.35468 2.48164,2.35356 0.36152,-0.005 0.35597,-0.34569 -0.2734,-16.80858 l -0.10989,-2.87465 0.6157,0.077 c 0.33864,0.0423 1.66686,0.20191 2.9516,0.35452 5.96187,0.70818 6.79511,0.77231 6.79351,0.52288 -5.6e-4,-0.14888 -1.41286,-2.86219 -3.55969,-6.8408 -0.79301,-1.46964 -1.42217,-2.69198 -1.39814,-2.71634 0.0241,-0.0244 2.9325,-0.25544 6.46324,-0.51355 3.53073,-0.25811 6.55795,-0.53963 6.72717,-0.6256 l 0.30765,-0.15632 -0.28918,-0.38593 c -0.15904,-0.21225 -1.85162,-1.76534 -3.76126,-3.4513 -1.90963,-1.68596 -3.47231,-3.10081 -3.47259,-3.1441 -5.6e-4,-0.0921 0.94006,-0.3666 6.27743,-1.83176 3.56708,-0.9792 4.87724,-1.40831 4.87603,-1.59699 -0.002,-0.20964 -6.9812,-8.747882 -9.54806,-11.679887 l -0.39279,-0.448657 3.67925,-2.251338 c 4.95641,-3.032852 5.44042,-3.358959 5.43845,-3.664399 -0.002,-0.358977 -0.20659,-0.720577 -2.27157,-4.020807 -2.33138,-3.72599 -2.94362,-4.81179 -2.79049,-4.94892 0.0679,-0.0607 1.76159,-0.54704 3.76387,-1.080663 4.28783,-1.142722 5.46787,-1.503294 5.4668,-1.670435 -0.002,-0.186962 -1.24727,-3.397255 -1.97112,-5.078284 -0.35287,-0.81949 -0.6777,-1.575514 -0.72185,-1.680081 -0.0441,-0.10456 2.58336,1.560913 5.83891,3.701054 3.25556,2.140134 5.87034,3.935523 5.81061,3.989733 -0.0598,0.05421 -1.95095,0.600935 -4.20272,1.214926 -2.25179,0.61401 -4.11945,1.14202 -4.15038,1.17335 -0.0309,0.0313 0.008,0.13767 0.0866,0.2363 0.63937,0.80271 9.18592,12.531303 9.1501,12.556833 -0.0255,0.0183 -2.46125,0.673497 -5.41277,1.456251 -2.95152,0.782777 -5.44154,1.462964 -5.53339,1.511551 -0.1052,0.0556 1.67357,2.509988 4.80764,6.633464 3.23163,4.251819 4.91567,6.578629 4.80633,6.640729 -0.0926,0.0526 -1.91403,0.75875 -4.04768,1.56924 -2.13365,0.81049 -3.92812,1.5162 -3.98772,1.56824 -0.0597,0.0521 1.46573,2.49906 3.38962,5.43779 1.92387,2.93873 3.42075,5.35946 3.32637,5.37943 -0.0944,0.02 -3.54936,-0.57241 -7.67773,-1.31636 -4.12838,-0.74394 -7.51989,-1.33952 -7.5367,-1.32352 -0.0168,0.016 0.98723,3.95285 2.23118,8.74852 1.24397,4.79567 2.22935,8.75221 2.18976,8.79232 -0.0395,0.0401 -2.96816,-1.24473 -6.50793,-2.85518 -3.53976,-1.61043 -6.45159,-2.88416 -6.47072,-2.83047 -0.0191,0.0537 1.68784,6.32391 3.79327,13.93387 2.10543,7.60994 3.81187,13.85265 3.7921,13.87269 -0.0199,0.02 -2.43078,-1.88199 -5.35777,-4.22671 -2.92699,-2.34471 -5.36155,-4.22227 -5.41013,-4.17233 -0.0486,0.0499 -1.44398,5.30352 -3.10087,11.67462 -1.6569,6.3711 -3.05151,11.58405 -3.09915,11.58437 -0.0477,0 -1.59457,-3.72966 -3.43762,-8.28879 -1.84304,-4.55915 -3.39282,-8.33536 -3.44394,-8.39159 -0.0511,-0.0562 -3.68946,4.60927 -8.08522,10.3678 -8.97201,11.75347 -8.47242,11.11014 -8.47926,10.91913 z"
       id="path40691"
       inkscape:export-filename="D:\Art\kajamGame\eagle2.png"
       inkscape:export-xdpi="52.399212"
       inkscape:export-ydpi="52.399212" />
    <path
       style="fill:#483737;fill-opacity:1;fill-rule:evenodd;stroke:#2f210e;stroke-width:0.36482"
       d="m 127.42888,150.76102 c 0,-0.038 0.83713,-3.20025 1.86088,-7.0272 1.02376,-3.82697 1.84424,-6.975 1.8233,-6.99567 -0.021,-0.0206 -3.9655,2.95971 -8.7657,6.623 -4.80019,3.66331 -8.72778,6.637 -8.72798,6.60819 0,-0.0288 0.30805,-0.47428 0.68501,-0.98993 1.78443,-2.44098 4.45122,-6.91536 7.509,-12.59876 1.30997,-2.4348 1.83965,-3.58163 2.32919,-5.04311 0.25891,-0.77294 0.33076,-0.90544 0.38116,-0.70286 0.0342,0.13729 0.27142,1.30089 0.52725,2.58576 0.25583,1.28485 0.47798,2.34875 0.49366,2.36422 0.0157,0.0155 1.61397,-0.861 3.55176,-1.94771 1.93778,-1.08669 3.5595,-1.93842 3.60381,-1.89272 0.0444,0.0457 0.77699,1.90126 1.62817,4.12344 0.85117,2.22221 1.58224,4.07688 1.62462,4.12153 0.0424,0.0446 1.33394,-2.00122 2.87018,-4.54637 1.53624,-2.54513 2.82261,-4.62773 2.85859,-4.62798 0.036,0 0.52921,0.45845 1.09606,1.01934 l 1.03064,1.01981 0.0159,1.33028 c 0.009,0.73166 -0.0261,1.38383 -0.0776,1.44925 -0.0514,0.0655 -0.1445,0.43441 -0.20677,0.81995 -0.17985,1.11348 -0.46094,2.18138 -1.04442,3.96796 l -0.54337,1.66378 -7.12711,4.29152 c -3.9199,2.36034 -7.18755,4.32794 -7.26144,4.37244 -0.0739,0.0445 -0.13457,0.0498 -0.13484,0.0118 z"
       id="path40730"
       inkscape:export-filename="D:\Art\kajamGame\eagle2.png"
       inkscape:export-xdpi="52.399212"
       inkscape:export-ydpi="52.399212" />
    <path
       style="fill:#916f6f;fill-opacity:1;fill-rule:evenodd;stroke:#2f210e;stroke-width:0.36482"
       d="m 134.58349,135.8788 c -0.77966,-2.00972 -1.50297,-3.84439 -1.60736,-4.07703 l -0.18978,-0.42299 -1.36596,0.73004 c -0.75128,0.40153 -2.32982,1.26538 -3.50785,1.91968 -1.17803,0.6543 -2.16946,1.15814 -2.20316,1.11961 -0.0337,-0.0385 -0.23343,-0.94657 -0.44383,-2.0179 -0.2104,-1.07133 -0.45319,-2.22592 -0.53953,-2.56577 -0.14657,-0.57693 -0.14406,-0.67969 0.0379,-1.5507 0.31363,-1.50107 0.42482,-3.05876 0.34827,-4.87944 -0.14829,-3.52709 -0.90351,-6.39232 -3.30127,-12.52464 -0.5982,-1.52993 -1.28744,-3.37193 -1.53163,-4.09333 -1.43566,-4.24127 -1.43482,-7.01672 0.003,-9.486758 0.51818,-0.890274 1.38836,-1.831348 2.92772,-3.166282 4.67137,-4.050986 7.12528,-9.231416 7.5366,-15.910518 0.12367,-2.00815 -0.015,-4.43972 -0.35513,-6.22565 -0.10462,-0.549424 -0.17865,-1.012264 -0.16452,-1.02855 0.0142,-0.01631 1.29011,1.36912 2.83549,3.07865 3.94224,4.361 5.99328,6.44776 7.72606,7.860627 l 0.75137,0.612637 -0.29806,0.603137 c -0.43398,0.878144 -1.09173,2.029928 -2.02046,3.538019 -1.48555,2.412288 -2.19412,4.081479 -2.60543,6.137677 -0.28357,1.417571 -0.33043,5.04886 -0.0905,7.012851 0.32292,2.64342 1.03234,5.68165 2.41347,10.33611 3.16573,10.66875 3.46399,11.73858 3.95214,14.17647 0.43591,2.17702 0.79968,5.24546 0.81083,6.83941 l 0.005,0.55327 -1.01605,-0.99131 -1.01604,-0.9913 -0.21426,0.28293 c -0.11785,0.15561 -1.24736,1.97459 -2.51,4.04219 -1.26265,2.0676 -2.44254,3.98059 -2.62196,4.25109 l -0.32624,0.49181 z"
       id="path45507"
       inkscape:export-filename="D:\Art\kajamGame\eagle2.png"
       inkscape:export-xdpi="52.399212"
       inkscape:export-ydpi="52.399212" />
    <path
       style="fill:#916f6f;fill-opacity:1;fill-rule:evenodd;stroke:#2f210e;stroke-width:0.515864;stroke-miterlimit:4;stroke-dasharray:none"
       d="m 199.43542,77.079252 c -1.36311,-1.84855 -1.89049,-2.66684 -1.76325,-2.7359 0.0998,-0.0542 1.77146,-0.53528 3.71474,-1.06906 1.94326,-0.5338 3.7812,-1.076082 4.08431,-1.205091 l 0.55112,-0.234569 -0.90771,-0.638471 c -2.6822,-1.886614 -8.85886,-5.940901 -11.39879,-7.482033 l -0.85051,-0.516056 -2.2624,0.278077 c -6.7555,0.830302 -15.40872,0.780783 -22.57838,-0.12921 -6.92038,-0.878352 -14.89946,-2.996644 -20.98762,-5.57184 l -1.81884,-0.769333 0.0812,0.805096 c 0.20355,2.018249 0.28649,8.68987 0.13395,10.777821 -0.14024,1.919846 -0.61538,5.072859 -0.94584,6.276449 l -0.11067,0.40305 -2.0411,-1.36036 c -3.95123,-2.633476 -7.24772,-5.327193 -11.1247,-9.090542 -3.89347,-3.779372 -7.45377,-7.883309 -10.13552,-11.683163 -1.52621,-2.162531 -2.56338,-3.466038 -4.20042,-5.279066 -0.69269,-0.767159 -1.2302,-1.424274 -1.19447,-1.460251 0.0357,-0.03597 2.17409,-0.112589 4.75191,-0.170249 2.57781,-0.05767 4.68674,-0.159969 4.68651,-0.227336 0,-0.06737 -0.75137,-0.929876 -1.66921,-1.916687 -2.45414,-2.638549 -2.90634,-3.149274 -2.84404,-3.212016 0.0309,-0.03114 2.34188,-0.735453 5.13545,-1.565161 2.79358,-0.829708 5.13999,-1.527903 5.21427,-1.551549 0.0743,-0.02366 -0.74401,-0.632615 -1.8184,-1.35327 -1.07438,-0.720655 -1.90126,-1.361419 -1.8375,-1.423914 0.0638,-0.06249 0.99602,-0.658633 2.07168,-1.324757 1.47749,-0.91496 2.01278,-1.179762 2.18897,-1.082854 0.12827,0.07055 1.79407,0.505729 3.7018,0.967061 8.9631,2.167483 17.41747,4.669636 24.14295,7.145338 5.01462,1.845926 7.28147,2.877402 18.55968,8.445136 7.50239,3.703727 10.76155,5.20595 14.73469,6.791553 4.59486,1.833713 8.43035,2.975383 12.01914,3.577587 2.21903,0.372361 6.56878,0.484933 9.32417,0.241315 4.8165,-0.425857 11.54186,-1.914214 16.50572,-3.652795 1.13448,-0.39735 1.46753,-0.458331 2.08321,-0.38146 0.40305,0.05031 0.76719,0.125628 0.80918,0.167344 0.41079,0.408016 -2.41491,2.432306 -6.5758,4.710844 -1.27663,0.699081 -1.77032,1.116559 -1.61512,1.365787 0.0513,0.08253 0.23692,0.149567 0.41227,0.148976 0.28426,-0.0016 5.87445,-1.109468 6.94498,-1.377144 0.41683,-0.104233 0.41222,-0.09302 -0.27168,0.660842 -0.38264,0.421766 -2.29758,2.467873 -4.2554,4.546885 l -3.55971,3.780024 -1.66734,0.951255 c -3.73234,2.129427 -9.38233,4.756557 -13.9587,6.490517 -1.60352,0.60758 -7.3069,2.56983 -7.47089,2.57039 -0.0237,0 -0.91828,-1.18666 -1.98791,-2.63721 z"
       id="path45546"
       inkscape:export-filename="D:\Art\kajamGame\eagle2.png"
       inkscape:export-xdpi="52.399212"
       inkscape:export-ydpi="52.399212" />
    <path
       style="fill:#2f210e;fill-opacity:1;stroke:#000000;stroke-width:0.522588;stroke-linecap:butt;stroke-linejoin:miter;stroke-miterlimit:4;stroke-dasharray:none;stroke-opacity:1"
       d="m 144.37675,75.268182 c 0,0 -0.42266,2.74778 -2.83702,7.982304"
       id="path51659"
       inkscape:export-filename="D:\Art\kajamGame\eagle2.png"
       inkscape:export-xdpi="52.399212"
       inkscape:export-ydpi="52.399212" />
    <path
       style="fill:#2f210e;fill-opacity:1;fill-rule:evenodd;stroke:#2f210e;stroke-width:0.249279;stroke-miterlimit:4;stroke-dasharray:none"
       d="m 141.54401,83.230556 -0.21636,-0.11076 0.22697,-0.495877 c 1.11664,-2.439567 2.15371,-5.345317 2.49887,-7.001477 0.0416,-0.1997 0.0787,-0.36681 0.0823,-0.37133 0.008,-0.01 0.45684,0.0643 0.47283,0.0779 0.0232,0.0198 -0.18318,0.88243 -0.3601,1.50463 -0.46826,1.64678 -1.14825,3.48185 -2.06619,5.57597 -0.18786,0.428537 -0.35966,0.813484 -0.38178,0.855434 l -0.0402,0.0763 z"
       id="path57431"
       inkscape:export-filename="D:\Art\kajamGame\eagle2.png"
       inkscape:export-xdpi="52.399212"
       inkscape:export-ydpi="52.399212" />
  </g>
  <g
     inkscape:groupmode="layer"
     id="layer3"
     inkscape:label="eagle1"
     style="display:inline">
    <path
       style="display:inline;fill:none;stroke:#000000;stroke-width:0.155499px;stroke-linecap:butt;stroke-linejoin:miter;stroke-opacity:1"
       d="m 128.06944,40.126844 c 0,0 -7.86739,4.615516 -27.16864,3.042055 -19.301267,-1.573487 -23.602095,7.13308 -23.602095,7.13308"
       id="path89880-4-1"
       inkscape:export-filename="D:\Art\kajamGame\eagle.png"
       inkscape:export-xdpi="52.399212"
       inkscape:export-ydpi="52.399212" />
    <path
       style="display:inline;fill:none;stroke:#000000;stroke-width:0.155499px;stroke-linecap:butt;stroke-linejoin:miter;stroke-opacity:1"
       d="m 91.879555,57.225257 c 0,0 -1.153885,1.258786 -5.769402,-3.356739 -4.615524,-4.615516 -11.302784,-3.330519 -11.302784,-3.330519 0,0 -11.879723,0.603164 -13.033599,5.428481 -1.153876,4.825317 -0.419592,7.23798 -0.419592,7.23798 0,0 4.484402,-6.372568 14.003904,-6.425013 9.519519,-0.05242 14.685761,1.363677 16.678822,0.472038 1.993076,-0.891639 -10.306255,6.320121 -19.799547,5.428482 -9.493285,-0.89163 -9.991556,-0.44582 -9.991556,-0.44582"
       id="path89882-1-8"
       inkscape:export-filename="D:\Art\kajamGame\eagle.png"
       inkscape:export-xdpi="52.399212"
       inkscape:export-ydpi="52.399212" />
    <path
       style="display:inline;fill:none;stroke:#000000;stroke-width:0.155499px;stroke-linecap:butt;stroke-linejoin:miter;stroke-opacity:1"
       d="m 86.267499,60.005075 c 0,0 11.801054,0.262229 20.717411,5.297346"
       id="path89884-4-9"
       inkscape:export-filename="D:\Art\kajamGame\eagle.png"
       inkscape:export-xdpi="52.399212"
       inkscape:export-ydpi="52.399212" />
    <path
       style="display:inline;fill:none;stroke:#000000;stroke-width:0.155499px;stroke-linecap:butt;stroke-linejoin:miter;stroke-opacity:1"
       d="m 106.98491,65.302421 c 0,0 3.04202,2.097963 3.6714,2.832256 0.6294,0.734285 0.6294,0.734285 0.6294,0.734285 l -1.25878,-6.45125 8.96881,1.835734 -3.88123,-4.300825 9.70309,-0.3147 -4.72043,-5.087572 10.54227,-3.094485 -3.88125,-2.622463 6.97575,-4.24837 -5.76939,-0.996547 2.77979,-4.353271 -2.6749,0.891631"
       id="path89886-2-5"
       inkscape:export-filename="D:\Art\kajamGame\eagle.png"
       inkscape:export-xdpi="52.399212"
       inkscape:export-ydpi="52.399212" />
    <path
       style="display:inline;fill:none;stroke:#000000;stroke-width:0.155499px;stroke-linecap:butt;stroke-linejoin:miter;stroke-opacity:1"
       d="m 132.00229,45.802214 c 0,0 3.63454,1.038432 10.0877,-0.222521 0,0 22.69734,-43.9111456 67.20189,-42.1309626 44.50454,1.780182 56.66911,-2.076877 57.55921,-3.56036091 0.89008,-1.48348399 -11.5712,15.42823851 -26.70276,14.83483551"
       id="path89888-8-4"
       inkscape:export-filename="D:\Art\kajamGame\eagle.png"
       inkscape:export-xdpi="52.399212"
       inkscape:export-ydpi="52.399212" />
    <path
       style="display:inline;fill:none;stroke:#000000;stroke-width:0.155499px;stroke-linecap:butt;stroke-linejoin:miter;stroke-opacity:1"
       d="m 240.14833,14.723216 17.80183,2.966967 -22.84568,5.93393 13.3514,6.230644 -31.74659,8.307515 17.50511,5.637241 -32.63667,10.087694 19.28532,5.043851 -32.63667,0.890094 6.23065,8.010819 -21.06551,-6.23064 c 0,0 21.9556,16.615033 48.06494,9.790998 26.10933,-6.82403 2.37355,4.74716 2.37355,4.74716 l 9.79102,-2.076877 -8.90092,9.494282 h 8.01081 l -13.35139,8.30753 c 0,0 -56.20425,30.040066 -82.77844,0.29669 C 110.02693,62.417712 110.49177,64.642473 110.49177,64.642473"
       id="path89890-9-5"
       inkscape:export-filename="D:\Art\kajamGame\eagle.png"
       inkscape:export-xdpi="52.399212"
       inkscape:export-ydpi="52.399212" />
    <path
       style="display:inline;fill:none;stroke:#000000;stroke-width:0.155499px;stroke-linecap:butt;stroke-linejoin:miter;stroke-opacity:1"
       d="m 86.739547,43.903176 c 0,0 -15.944538,-10.909411 -48.882568,-14.056351 -32.9380417,-3.146943 -38.18295921,-9.231036 -38.18295921,-9.231036 0,0 6.50369531,11.958391 26.01475821,15.524931"
       id="path89892-1-2"
       inkscape:export-filename="D:\Art\kajamGame\eagle.png"
       inkscape:export-xdpi="52.399212"
       inkscape:export-ydpi="52.399212" />
    <path
       style="display:inline;fill:none;stroke:#000000;stroke-width:0.155499px;stroke-linecap:butt;stroke-linejoin:miter;stroke-opacity:1"
       d="m 25.688778,36.14072 -16.1543247,-0.629393 21.8188237,8.391849 -14.685739,1.888169 23.706998,5.035118 -11.958398,3.77634 20.769842,1.048977 -8.182065,3.986141 16.993518,0.419574 -6.923279,5.035135 19.511057,1.048977 -6.084097,5.035108 15.944538,-3.986131 -1.258783,3.77634 7.133085,-4.615516 12.58778,4.405715 -2.097967,-3.986123 12.797573,6.503686 -1.19245,-4.923507 8.01085,4.672971 -0.22256,-3.041138"
       id="path89894-0-4"
       inkscape:export-filename="D:\Art\kajamGame\eagle.png"
       inkscape:export-xdpi="52.399212"
       inkscape:export-ydpi="52.399212" />
    <path
       style="display:inline;fill:none;stroke:#000000;stroke-width:0.155499px;stroke-linecap:butt;stroke-linejoin:miter;stroke-opacity:1"
       d="m 232.96764,68.868962 c 0,0 16.99353,-0.839176 27.90295,-13.636758 10.90937,-12.797598 0.41956,8.182057 0.41956,8.182057 l 9.65062,-4.405733 -12.37796,12.168187 11.95837,0.419606 -17.83264,5.874303 14.68569,2.72733 c 0,0 -10.31415,8.62532 -25.51987,7.88358 -15.20574,-0.74175 -15.20574,-0.74175 -15.20574,-0.74175"
       id="path89896-2-2"
       inkscape:export-filename="D:\Art\kajamGame\eagle.png"
       inkscape:export-xdpi="52.399212"
       inkscape:export-ydpi="52.399212" />
    <path
       style="display:inline;fill:none;stroke:#000000;stroke-width:0.155499px;stroke-linecap:butt;stroke-linejoin:miter;stroke-opacity:1"
       d="m 232.96764,68.868962 v 0"
       id="path89898-2-6"
       inkscape:export-filename="D:\Art\kajamGame\eagle.png"
       inkscape:export-xdpi="52.399212"
       inkscape:export-ydpi="52.399212" />
    <path
       style="display:inline;fill:none;stroke:#000000;stroke-width:0.155499px;stroke-linecap:butt;stroke-linejoin:miter;stroke-opacity:1"
       d="m 232.96764,68.868962 c 0,0 -1.33081,-0.183984 -1.96127,0.186886 -0.63046,0.370868 -0.63046,0.370868 -0.63046,0.370868"
       id="path89900-5-1"
       inkscape:export-filename="D:\Art\kajamGame\eagle.png"
       inkscape:export-xdpi="52.399212"
       inkscape:export-ydpi="52.399212" />
    <path
       style="display:inline;fill:none;stroke:#000000;stroke-width:0.155499px;stroke-linecap:butt;stroke-linejoin:miter;stroke-opacity:1"
       d="m 222.31114,90.188074 c 0,0 2.37564,1.10815 5.86085,0.58238 3.48522,-0.52575 4.5224,-1.19527 9.42197,0.94659 4.89952,2.14186 5.56597,1.54721 7.27098,1.02478 1.70504,-0.52242 5.18828,-2.08661 3.41174,-0.15475 -1.77657,1.93188 -5.70708,2.31012 -5.70708,2.31012 0,0 4.30139,-0.37895 6.15698,0.28515 1.85562,0.66408 5.0465,1.399847 2.15523,2.221171 -2.89125,0.821347 -10.60884,-1.018534 -10.60884,-1.018534 0,0 9.95131,6.360299 3.71621,3.998419 -6.23506,-2.361858 -8.6135,-4.953476 -13.51107,-6.056896 -4.89759,-1.10343 -11.09858,-2.46208 -11.09858,-2.46208"
       id="path89902-8-4"
       inkscape:export-filename="D:\Art\kajamGame\eagle.png"
       inkscape:export-xdpi="52.399212"
       inkscape:export-ydpi="52.399212" />
    <path
       style="display:inline;fill:none;stroke:#000000;stroke-width:0.155499px;stroke-linecap:butt;stroke-linejoin:miter;stroke-opacity:1"
       d="m 237.3817,97.206338 c 0,0 -4.00287,1.342641 -6.08047,0.975674 -2.07756,-0.366987 -1.70612,-0.071 -1.70612,-0.071 0,0 16.17734,3.900868 7.42324,3.101378 -8.75406,-0.79948 -9.05174,-1.318137 -9.05174,-1.318137 0,0 10.54705,7.620157 3.04866,3.999667 -7.4984,-3.62045 -9.65601,-7.102579 -12.10708,-8.878156 0,0 -2.04307,-1.73926 -2.74757,-1.66377"
       id="path89904-8-3"
       inkscape:export-filename="D:\Art\kajamGame\eagle.png"
       inkscape:export-xdpi="52.399212"
       inkscape:export-ydpi="52.399212" />
    <path
       style="display:inline;fill:none;stroke:#000000;stroke-width:0.155499px;stroke-linecap:butt;stroke-linejoin:miter;stroke-opacity:1"
       d="m 173.39152,61.601331 11.02064,-0.203261 -5.94288,-10.676124 19.72773,-3.131809 -11.12971,-4.292791 21.20651,-8.770291 -8.75569,-3.701388 19.27813,-8.62034 -8.16226,-3.701882 23.43348,-6.695277 -12.46251,-1.473071 22.31017,-6.6421386"
       id="path89906-9-4"
       inkscape:export-filename="D:\Art\kajamGame\eagle.png"
       inkscape:export-xdpi="52.399212"
       inkscape:export-ydpi="52.399212" />
    <path
       style="display:inline;fill:none;stroke:#000000;stroke-width:0.155499px;stroke-linecap:butt;stroke-linejoin:miter;stroke-opacity:1"
       d="m 13.485066,26.011474 23.445551,7.768697 -7.636596,4.011795 19.215104,4.73108 -11.346499,2.605593 12.68553,2.066288 -4.373301,3.564021 13.055846,1.398382 -3.038918,2.672827 6.268537,0.959025"
       id="path89908-9-1"
       inkscape:export-filename="D:\Art\kajamGame\eagle.png"
       inkscape:export-xdpi="52.399212"
       inkscape:export-ydpi="52.399212" />
    <path
       style="display:inline;fill:none;stroke:#000000;stroke-width:0.155499px;stroke-linecap:butt;stroke-linejoin:miter;stroke-opacity:1"
       d="m 76.341257,62.601038 -0.851375,1.966306 9.604613,-1.157719 -0.777189,1.96627 5.634538,-3.231306 3.970399,2.481535 1.66734,-1.89284 5.007877,1.330945 -0.0384,-1.520529"
       id="path89910-6-2"
       inkscape:export-filename="D:\Art\kajamGame\eagle.png"
       inkscape:export-xdpi="52.399212"
       inkscape:export-ydpi="52.399212" />
    <path
       style="display:inline;fill:none;stroke:#000000;stroke-width:0.155499px;stroke-linecap:butt;stroke-linejoin:miter;stroke-opacity:1"
       d="m 118.99574,64.253446 c 0,0 18.41746,30.117288 48.68316,33.207299 30.2657,3.090005 57.04118,-13.903851 57.04118,-13.903851"
       id="path89912-1-0"
       inkscape:export-filename="D:\Art\kajamGame\eagle.png"
       inkscape:export-xdpi="52.399212"
       inkscape:export-ydpi="52.399212" />
    <path
       style="display:inline;fill:#916f6f;fill-rule:evenodd;stroke:#251a0b;stroke-width:0.844471"
       d="m 61.120781,55.507564 c -0.115423,-0.0397 -1.335327,-0.234738 -2.710885,-0.433397 l -2.501051,-0.361222 0.612143,-0.521522 c 1.769619,-1.507645 2.223925,-1.988835 2.005142,-2.123796 -0.127946,-0.07897 -2.85448,-0.409869 -6.058957,-0.735403 -3.204475,-0.325552 -5.93847,-0.649678 -6.075526,-0.720274 -0.148054,-0.07624 0.561134,-0.795465 1.747312,-1.771967 1.098084,-0.904001 1.958461,-1.681623 1.911933,-1.72804 -0.04652,-0.04644 -2.438768,-0.463724 -5.316118,-0.927249 -2.877343,-0.463544 -5.5148,-0.90214 -5.86102,-0.974668 -0.47967,-0.100494 0.584366,-0.412403 4.470251,-1.310385 2.80486,-0.648168 5.11735,-1.269253 5.138854,-1.380146 0.02154,-0.110903 -4.021286,-1.198546 -8.983985,-2.416958 -4.962705,-1.218411 -9.156479,-2.26218 -9.319488,-2.319501 -0.16845,-0.05925 0.46516,-0.497575 1.467724,-1.01545 0.970263,-0.501169 2.654711,-1.388445 3.7432,-1.971709 l 1.979081,-1.060478 -9.220528,-3.083359 c -5.071286,-1.695853 -9.131069,-3.09088 -9.021738,-3.100083 0.109348,-0.0092 1.903324,0.261485 3.986636,0.601533 3.794722,0.619381 9.125985,1.292116 16.586672,2.093027 15.260204,1.638209 28.728309,5.066792 40.162342,10.224166 3.011536,1.358358 6.623373,3.371937 6.390874,3.562851 -0.09709,0.07974 -0.695641,0.320438 -1.330099,0.534892 -2.646498,0.894567 -5.051697,2.422831 -6.735045,4.279437 l -1.127708,1.243777 -3.251544,0.365106 c -6.447814,0.724023 -10.491783,2.24608 -11.780092,4.43378 -0.418755,0.711114 -0.491393,0.760434 -0.90838,0.617038 z"
       id="path90062-2-8"
       inkscape:export-filename="D:\Art\kajamGame\eagle.png"
       inkscape:export-xdpi="52.399212"
       inkscape:export-ydpi="52.399212" />
    <path
       style="display:inline;fill:#483737;fill-rule:evenodd;stroke:#251a0b;stroke-width:0.422237"
       d="m 103.00673,69.775584 c -3.452341,-1.759843 -6.302298,-3.174361 -6.333254,-3.143353 -0.03093,0.03108 0.378701,0.888387 0.910354,1.905254 0.531644,1.016885 0.949709,1.865828 0.929014,1.886548 -0.02067,0.02075 -2.728622,-0.904181 -6.017646,-2.055361 -3.289015,-1.151153 -6.05085,-2.097312 -6.13739,-2.102546 -0.08654,-0.0051 -1.634182,0.949071 -3.439183,2.120681 -1.805,1.171618 -3.307846,2.104211 -3.339682,2.072442 -0.0318,-0.03176 0.187348,-0.795565 0.487059,-1.697314 0.299711,-0.901756 0.527012,-1.657418 0.505136,-1.679266 -0.02192,-0.02186 -3.458263,0.810713 -7.636413,1.85011 -4.178166,1.039398 -7.626181,1.877413 -7.662269,1.862243 -0.03611,-0.0152 1.198023,-1.067162 2.742468,-2.337713 1.544446,-1.270567 2.810259,-2.345515 2.812897,-2.388783 0.0027,-0.04329 -0.124989,-0.07795 -0.283664,-0.07701 -0.542039,0.0034 -18.120758,-0.936202 -18.571437,-0.992422 l -0.449485,-0.05601 3.332125,-2.423241 c 3.803211,-2.765807 3.432003,-2.486307 3.375727,-2.541895 -0.02407,-0.02373 -3.741958,-0.1352 -8.262002,-0.247647 -4.52004,-0.112448 -8.23434,-0.220506 -8.253992,-0.240125 -0.01968,-0.01963 1.659791,-0.859137 3.732131,-1.86558 2.072319,-1.00646 3.767801,-1.88537 3.767748,-1.953158 -1.35e-4,-0.15971 -0.110086,-0.166728 -10.542841,-0.671635 -4.788793,-0.231777 -8.839399,-0.454068 -9.001353,-0.493981 -0.233715,-0.05763 0.874747,-0.440517 5.373518,-1.856283 3.1174,-0.98106 5.632982,-1.815839 5.590222,-1.855087 -0.04279,-0.03927 -5.258247,-1.169713 -11.58993,-2.512141 -9.017761,-1.911944 -11.427483,-2.455483 -11.121326,-2.508561 0.214963,-0.03723 3.293597,-0.43718 6.841402,-0.88872 3.547803,-0.451539 6.512997,-0.868972 6.589316,-0.927641 0.109548,-0.08427 0.08745,-0.131888 -0.105104,-0.226535 -0.1341,-0.06591 -4.836903,-1.882484 -10.450665,-4.036818 -8.455802,-3.245002 -10.138969,-3.922972 -9.811282,-3.952017 0.217541,-0.01929 3.59524,0.09048 7.505992,0.243865 3.910756,0.153402 7.142956,0.246357 7.182669,0.206582 0.108429,-0.108623 -0.160645,-0.240185 -0.644447,-0.315102 -1.239904,-0.192009 -4.610811,-1.086918 -6.5169,-1.730132 C 12.921739,32.260085 7.7262204,29.194207 3.9219116,25.536279 2.4493985,24.120433 0.31621966,21.629604 0.45613212,21.489437 c 0.027232,-0.02726 0.27655508,0.09593 0.55409978,0.273706 0.8394838,0.537683 3.2443352,1.641495 4.8028121,2.204433 1.9659227,0.710117 4.072208,1.34233 6.616631,1.986028 1.15763,0.292856 3.187935,0.904137 4.511752,1.358382 9.169902,3.146526 12.57732,4.305312 15.575451,5.296823 1.875568,0.620284 3.447393,1.16145 3.492941,1.202591 0.04555,0.04115 -1.110403,0.703686 -2.568778,1.4723 -1.458364,0.768597 -2.840286,1.531457 -3.070934,1.69524 -0.23064,0.163784 -0.619867,0.402919 -0.864967,0.531443 -0.468531,0.245692 -0.569898,0.401322 -0.261904,0.402149 0.100971,0 0.32333,0.07325 0.494131,0.162111 0.170794,0.08889 3.239757,0.891271 6.819871,1.783074 7.478957,1.862992 10.041296,2.530701 10.161951,2.648083 0.04692,0.04559 -0.04745,0.111236 -0.209673,0.145736 -1.215757,0.258609 -6.647628,1.599636 -7.321703,1.807575 -0.461425,0.142363 -1.095319,0.321249 -1.408632,0.397524 -0.692174,0.16853 -0.795999,0.354673 -0.249546,0.44745 0.220091,0.03731 0.683465,0.155791 1.029717,0.263185 0.346264,0.107384 2.836657,0.557013 5.534219,0.999152 2.697566,0.442148 4.90469,0.835189 4.904723,0.873437 4.2e-5,0.03825 -0.294766,0.309271 -0.655107,0.602313 -0.360339,0.293023 -1.171354,1.010003 -1.80226,1.593284 -0.630896,0.583291 -1.185152,1.060562 -1.231665,1.060597 -0.04652,3.4e-5 -0.08454,0.04251 -0.08449,0.0944 3.2e-5,0.05191 0.200723,0.117358 0.445945,0.145472 0.245218,0.02809 0.634715,0.100423 0.865534,0.160641 0.230825,0.06018 2.001161,0.280302 3.934097,0.489087 1.932927,0.208785 4.383623,0.481106 5.445987,0.605164 l 1.931582,0.225578 -1.458304,1.251657 c -0.802061,0.688412 -1.470194,1.279378 -1.484735,1.313238 -0.01446,0.03389 1.071312,0.218961 2.41301,0.411277 1.341687,0.192341 2.856708,0.423537 3.366718,0.513752 l 0.927303,0.164039 -0.06947,0.321907 c -0.458305,2.123881 -0.63795,4.271788 -0.478752,5.723965 0.134139,1.223381 0.236047,1.434359 0.506227,1.047935 0.09808,-0.140279 0.30615,-0.398155 0.462391,-0.573061 l 0.284058,-0.318014 1.817711,0.01323 c 1.824142,0.01332 3.432647,0.110475 6.748254,0.407538 1.021882,0.09156 2.511335,0.145342 3.488123,0.125978 0.937592,-0.01853 1.705059,-0.01025 1.705463,0.0187 0,0.02886 -0.172104,0.442293 -0.38338,0.918789 -0.211275,0.476502 -0.364418,0.886056 -0.340311,0.910114 0.02407,0.02407 2.16461,-0.212959 4.756649,-0.526764 2.592046,-0.313787 4.722985,-0.55977 4.73541,-0.546631 0.01242,0.01307 -0.143512,0.439135 -0.346546,0.94669 -0.203032,0.507545 -0.344413,0.9475 -0.314204,0.977663 0.03024,0.03014 1.338725,-0.681095 2.907756,-1.580615 l 2.852802,-1.635487 2.000494,1.24861 2.000504,1.248609 0.479901,-0.54173 c 0.263947,-0.297942 0.651359,-0.72888 0.860939,-0.957668 l 0.381037,-0.415947 2.45141,0.652034 c 1.348282,0.358634 2.484745,0.650566 2.525485,0.648731 0.0408,-0.0016 0.0877,-0.331418 0.1043,-0.732416 l 0.0302,-0.729094 1.52151,0.57156 c 0.83684,0.314361 2.18263,0.894004 2.99068,1.288155 2.05274,1.001219 4.62698,2.871477 5.67452,4.122647 0.22739,0.271604 0.42844,0.450524 0.44677,0.397626 0.0182,-0.05293 -0.14156,-0.997172 -0.35535,-2.098364 -0.21377,-1.101192 -0.36055,-2.030362 -0.32618,-2.064794 0.10498,-0.105131 1.17761,0.858309 3.28454,2.950176 2.25282,2.236662 2.06616,1.907686 2.19711,3.872459 l 0.0691,1.038011 -0.35204,-0.215912 c -1.59764,-0.979811 -7.5823,-4.417372 -7.6217,-4.377886 -0.0274,0.02758 0.20871,1.114084 0.52504,2.414431 0.31633,1.300358 0.54725,2.361926 0.51317,2.359032 -0.034,-0.0029 -2.88655,-1.445116 -6.33888,-3.204962 z"
       id="path90138-6-6"
       inkscape:export-filename="D:\Art\kajamGame\eagle.png"
       inkscape:export-xdpi="52.399212"
       inkscape:export-ydpi="52.399212" />
    <path
       style="display:inline;fill:#483737;fill-rule:evenodd;stroke:#251a0b;stroke-width:0.422237"
       d="m 184.15197,64.649747 c -5.37898,-1.589468 -9.69927,-2.901853 -9.60061,-2.916426 0.0987,-0.0146 2.36321,-0.06821 5.03229,-0.119269 2.66909,-0.05105 4.88121,-0.121138 4.91584,-0.155808 0.0346,-0.03466 -1.25995,-2.436458 -2.87681,-5.33726 -1.61688,-2.900803 -2.93419,-5.2814 -2.92735,-5.290209 0.007,-0.0089 4.44909,-0.717475 9.87161,-1.574768 5.42251,-0.857319 9.87879,-1.573682 9.9028,-1.591954 0.0241,-0.01826 0.0207,-0.05626 -0.008,-0.08435 -0.0281,-0.02809 -2.5029,-0.997274 -5.49938,-2.153703 -2.99652,-1.15643 -5.45877,-2.113201 -5.47177,-2.126136 -0.0128,-0.01289 4.71626,-1.982739 10.50942,-4.377311 5.79313,-2.394581 10.49847,-4.38708 10.45637,-4.427786 -0.0421,-0.04073 -1.94181,-0.859743 -4.22153,-1.8201 -2.27973,-0.960359 -4.17958,-1.778055 -4.22193,-1.817147 -0.0423,-0.03911 4.19472,-1.980884 9.41564,-4.315116 5.22092,-2.334238 9.51262,-4.276527 9.53709,-4.316228 0.0246,-0.03967 -1.75174,-0.887213 -3.94717,-1.883386 l -3.99167,-1.81124 11.49444,-3.283936 c 6.32189,-1.806145 11.52504,-3.314631 11.56253,-3.35215 0.0374,-0.03756 0.024,-0.107683 -0.0299,-0.1559 -0.0539,-0.04821 -2.64724,-0.382923 -5.76303,-0.743783 -3.11579,-0.360866 -5.69826,-0.684419 -5.73885,-0.719002 -0.0407,-0.0346 3.73475,-1.1956904 8.3897,-2.5802715 4.65493,-1.3845544 9.52534,-2.8341031 10.82313,-3.2211951 l 2.35962,-0.703809 3.04188,-0.179261 c 8.08474,-0.476431 14.11594,-1.314305 17.51596,-2.433333 0.5768,-0.18985197 1.06064,-0.33470497 1.0751,-0.32193897 0.0622,0.05467 -3.49053,3.56106897 -4.58912,4.52938097 -4.28819,3.7796772 -8.63278,6.4620626 -12.80034,7.9029916 -2.41372,0.834532 -4.68633,1.262358 -6.94803,1.307968 -0.9806,0.01976 -1.32494,0.06098 -1.32487,0.158604 6e-5,0.07253 0.025,0.131866 0.0551,0.131834 0.083,-6e-5 16.31165,2.696587 16.70853,2.776392 0.18952,0.03811 0.33119,0.08187 0.31476,0.09727 -0.0165,0.01538 -5.00882,1.318321 -11.0942,2.895433 -6.0854,1.577122 -11.10201,2.900652 -11.14802,2.941203 -0.0461,0.04059 2.22072,1.148888 5.03717,2.462994 2.81646,1.314093 5.79012,2.703254 6.60821,3.087044 l 1.48736,0.697774 -15.8234,4.139815 c -8.70289,2.276892 -15.80585,4.168271 -15.78428,4.203062 0.0215,0.03483 3.91452,1.309883 8.65108,2.83356 5.81824,1.871634 8.55262,2.796433 8.42907,2.850808 -0.10056,0.04423 -7.30888,2.281826 -16.0184,4.972316 -8.70955,2.690499 -15.9229,4.919067 -16.02966,4.952362 -0.10672,0.03329 -0.15386,0.09728 -0.10476,0.142158 0.0491,0.04491 4.20651,1.156132 9.23866,2.469438 5.03216,1.313332 9.13697,2.400326 9.12177,2.415531 -0.0151,0.0152 -7.14888,0.223888 -15.85265,0.463698 -8.70373,0.23981 -15.83816,0.449217 -15.85426,0.465361 -0.0162,0.01613 1.32023,1.764164 2.96961,3.884502 1.6494,2.120339 2.98225,3.870006 2.96187,3.888174 -0.0204,0.01818 -4.43806,-1.267444 -9.81709,-2.856903 z"
       id="path90177-5-3"
       inkscape:export-filename="D:\Art\kajamGame\eagle.png"
       inkscape:export-xdpi="52.399212"
       inkscape:export-ydpi="52.399212" />
    <path
       style="display:inline;fill:#916f6f;fill-rule:evenodd;stroke:#251a0b;stroke-width:0.422237"
       d="m 84.678286,64.88598 c -3.3e-5,-0.03619 0.117707,-0.356279 0.261641,-0.711362 0.341414,-0.842224 0.337932,-0.956156 -0.02694,-0.882905 -0.158648,0.03192 -2.152827,0.273431 -4.431504,0.536846 -2.278695,0.263417 -4.272896,0.49433 -4.431533,0.513147 -0.158639,0.01887 -0.288452,0.01766 -0.288468,-0.0025 -1.5e-5,-0.02015 0.14497,-0.382941 0.322208,-0.806162 l 0.322241,-0.769475 1.461711,-0.231777 c 2.242416,-0.355561 5.023251,-1.10593 7.550788,-2.037499 l 1.005737,-0.370672 1.301793,0.09364 c 3.726699,0.268085 8.484861,1.128008 11.819534,2.136125 l 0.865636,0.261691 v 0.63308 c 0,0.554477 -0.0222,0.626115 -0.18309,0.576904 -0.42216,-0.129171 -4.568245,-1.212751 -4.640115,-1.212691 -0.04307,3.4e-5 -0.422179,0.38977 -0.842386,0.866112 -0.420198,0.476324 -0.797273,0.87955 -0.837951,0.896044 -0.04065,0.01657 -0.946696,-0.514536 -2.013399,-1.180112 l -1.939479,-1.210105 -2.507373,1.432772 c -2.617031,1.495435 -2.769483,1.576303 -2.769579,1.46885 z"
       id="path90253-8-5"
       inkscape:export-filename="D:\Art\kajamGame\eagle.png"
       inkscape:export-xdpi="52.399212"
       inkscape:export-ydpi="52.399212" />
    <path
       style="display:inline;fill:#916f6f;fill-rule:evenodd;stroke:#251a0b;stroke-width:0.422237"
       d="m 170.61727,97.581615 c -7.46084,-0.518457 -13.30073,-1.995901 -19.82998,-5.016711 -9.97074,-4.6131 -19.92038,-12.86506 -28.00263,-23.224639 -1.10372,-1.414689 -3.3625,-4.578583 -3.46932,-4.859509 -0.0329,-0.08652 -0.92801,-1.112461 -1.98916,-2.279878 -1.06111,-1.167427 -1.89105,-2.123081 -1.84433,-2.123696 0.92154,-0.01213 9.51851,-0.332107 9.54149,-0.355125 0.0177,-0.01785 -1.01061,-1.154603 -2.28536,-2.526151 -1.27478,-1.371549 -2.27794,-2.530796 -2.22924,-2.576106 0.0643,-0.05976 8.1889,-2.485666 10.13009,-3.02468 0.10096,-0.02801 0.1835,-0.0852 0.18347,-0.127159 -4e-5,-0.04192 -0.6967,-0.537298 -1.54817,-1.100858 -0.85144,-0.563544 -1.70448,-1.141268 -1.89563,-1.283826 l -0.34748,-0.259216 2.40091,-1.458554 2.40095,-1.458564 0.82997,0.174217 c 1.34203,0.281702 5.60788,0.245384 7.59574,-0.06472 0.83644,-0.130478 1.61521,-0.260785 1.73058,-0.289565 0.12162,-0.03039 0.35959,-0.325791 0.56635,-0.70314 1.83996,-3.357764 5.54718,-8.732093 8.59406,-12.458703 3.65147,-4.466145 8.23658,-9.112349 12.58431,-12.751985 1.58567,-1.327415 4.56593,-3.556532 6.37998,-4.771968 9.59528,-6.4289501 19.25369,-9.9993586 30.3735,-11.2281686 2.05689,-0.227295 9.15079,-0.261457 14.05627,-0.06769 6.41495,0.253398 16.14582,0.349854 22.27423,0.220791 3.19734,-0.06732 5.82941,-0.106388 5.84906,-0.0868 0.0307,0.03071 -7.31589,2.236506 -18.07414,5.4266442 -1.68684,0.5002117 -3.06719,0.9626454 -3.06742,1.0276444 6e-5,0.0707 0.38939,0.16511 0.97005,0.235053 0.53369,0.06428 2.95316,0.353962 5.37654,0.64372 2.42341,0.289752 4.63653,0.559387 4.91808,0.599194 0.47849,0.06767 -0.23127,0.284987 -10.88843,3.333761 -6.27018,1.793758 -11.39919,3.302314 -11.39782,3.352355 0.003,0.05003 1.57512,0.808874 3.49726,1.686291 4.05665,1.851745 4.28224,1.959164 4.28087,2.038218 0,0.0326 -0.17749,0.135553 -0.39316,0.228819 -0.21571,0.09327 -3.57727,1.598075 -7.47015,3.34402 -3.89288,1.745941 -7.98632,3.581285 -9.09652,4.078542 -1.1102,0.497268 -2.01738,0.931399 -2.01598,0.964737 0.003,0.03338 1.89025,0.856278 4.19746,1.828716 2.30719,0.972446 4.19492,1.799806 4.19495,1.838576 1e-4,0.08487 -2.93848,1.326 -12.98679,5.485068 -4.17254,1.727068 -7.66213,3.182558 -7.75465,3.234423 -0.20468,0.114761 -0.75476,-0.114718 5.56085,2.319953 2.75257,1.061127 4.97191,1.957521 4.93188,1.991971 -0.0401,0.03441 -4.19981,0.715015 -9.24389,1.512357 -5.04412,0.797333 -9.32736,1.475203 -9.51829,1.506347 -0.19091,0.03116 -0.34711,0.08928 -0.34709,0.129215 2e-5,0.03996 1.04384,1.956462 2.31958,4.258949 1.27574,2.302495 2.57637,4.664146 2.89031,5.248127 l 0.57076,1.061775 -3.75128,0.06958 c -5.40984,0.10027 -7.07234,0.175634 -7.02731,0.318448 0.11991,0.380543 4.41635,2.991771 7.42353,4.511778 7.34727,3.713735 14.27603,5.79971 22.45389,6.759956 1.53355,0.180055 7.4889,0.243956 9.30206,0.09978 3.32866,-0.264657 5.9275,-0.728113 10.42936,-1.859903 4.67905,-1.176355 7.61981,-1.733273 9.27001,-1.755522 1.00191,-0.01358 1.31129,0.0683 1.31151,0.346682 0,0.736512 -2.79791,2.636623 -7.6008,5.160771 -2.05022,1.077455 -2.23255,1.188695 -2.12474,1.296302 0.0346,0.0347 2.10182,-0.369649 4.59356,-0.89845 2.49174,-0.528821 4.57124,-0.947572 4.62111,-0.930597 0.0498,0.01702 -1.83017,2.0774 -4.17789,4.578692 -4.16917,4.44191 -4.29172,4.56135 -5.263,5.12986 -5.20519,3.04668 -12.67507,6.37474 -19.19084,8.55007 -7.6548,2.55562 -14.83514,4.082737 -22.54911,4.795701 -2.14288,0.19808 -9.20062,0.2954 -11.22398,0.15477 z"
       id="path90292-6-2"
       inkscape:export-filename="D:\Art\kajamGame\eagle.png"
       inkscape:export-xdpi="52.399212"
       inkscape:export-ydpi="52.399212" />
    <path
       style="display:inline;fill:#6c5353;fill-rule:evenodd;stroke:#251a0b;stroke-width:0.597133"
       d="m 166.3118,105.07977 c -10.47018,-0.76378 -17.93283,-3.31292 -24.62308,-8.410909 -2.00972,-1.531427 -4.21931,-3.745847 -8.37321,-8.391457 -5.02616,-5.62113 -10.35967,-11.459596 -14.09762,-15.432332 -2.84355,-3.022181 -7.27472,-7.434224 -8.24377,-8.208199 -0.37304,-0.29795 -0.48983,-0.528267 -0.58218,-1.148045 -0.0635,-0.426432 -0.0958,-0.794756 -0.0716,-0.818543 0.0822,-0.08111 8.4896,1.697145 8.59991,1.819009 0.0604,0.06677 0.60961,0.847833 1.22027,1.735655 4.74003,6.891302 11.77012,14.230555 18.45569,19.267265 7.37486,5.55603 15.12318,9.30558 22.87345,11.068927 9.25827,2.106438 20.94315,1.836051 32.58662,-0.754017 9.92238,-2.20722 21.30639,-6.58946 29.36872,-11.30539 l 1.27406,-0.74524 3.74749,-0.0204 3.7475,-0.0204 -6.56493,4.08237 c -6.62591,4.12029 -8.22067,4.98736 -13.04161,7.09063 -11.50536,5.019529 -23.36755,8.408156 -34.04278,9.724866 -2.10507,0.25962 -10.61753,0.58411 -12.23283,0.46627 z"
       id="path90444-5-0"
       inkscape:export-filename="D:\Art\kajamGame\eagle.png"
       inkscape:export-xdpi="52.399212"
       inkscape:export-ydpi="52.399212" />
    <path
       style="display:inline;fill:#c8b7b7;fill-rule:evenodd;stroke:#251a0b;stroke-width:0.597133"
       d="m 110.77879,68.035225 c -0.17085,-0.424759 -3.68322,-2.878606 -5.19136,-3.626841 -4.195,-2.081305 -9.987538,-3.648944 -15.646705,-4.234488 -2.955768,-0.30583 -2.909386,-0.291069 -2.029912,-0.646784 1.161298,-0.469733 4.490329,-2.174116 4.488354,-2.297953 -0.0016,-0.06155 -0.352051,-0.09484 -0.780124,-0.07402 -1.272273,0.0618 -2.204526,-0.500426 -4.980897,-3.004098 -1.790383,-1.614518 -3.138731,-2.526621 -4.406514,-2.980842 -1.106046,-0.396267 -2.930501,-0.830579 -3.505303,-0.834437 -1.022049,-0.0068 -1.068124,-0.139042 -0.340016,-0.975469 1.456328,-1.672983 3.835911,-3.231615 6.452883,-4.226684 0.798563,-0.303629 1.58191,-0.624323 1.740763,-0.712652 0.571522,-0.317757 3.939611,-0.929494 6.263194,-1.137562 2.580402,-0.231075 4.878026,-0.199461 8.978227,0.123495 3.29761,0.259728 12.33039,0.158969 14.75991,-0.164662 4.31013,-0.57413 7.76837,-1.377798 10.18045,-2.365869 1.88088,-0.770475 3.37537,-1.305725 3.44835,-1.235034 0.0339,0.03287 -0.46764,0.878091 -1.11468,1.878181 -0.64703,1.0001 -1.20768,1.903939 -1.2459,2.008532 -0.0509,0.13934 0.64585,0.311747 2.60691,0.645007 1.47205,0.250166 2.64715,0.503961 2.61139,0.56398 -0.0358,0.06002 -1.51932,0.990511 -3.29672,2.06773 -1.77741,1.077219 -3.22986,1.991943 -3.22768,2.032719 0.003,0.04073 0.84164,0.634088 1.86551,1.318504 l 1.86151,1.244393 -5.02487,1.476961 c -2.76371,0.812335 -5.09671,1.522534 -5.18444,1.57826 -0.15168,0.09627 0.44892,0.797683 3.34361,3.904854 l 1.1105,1.192014 -3.7607,0.07974 c -2.0684,0.04379 -4.2372,0.128711 -4.81955,0.188567 l -1.05882,0.108871 1.8286,2.034521 c 1.58613,1.764692 1.77022,2.02044 1.38822,1.928457 -1.8113,-0.436155 -7.51511,-1.591943 -7.83607,-1.587854 -0.46347,0.006 -0.46827,-0.08679 0.14996,2.889413 0.49295,2.373245 0.60605,3.031827 0.52098,3.033177 -0.0392,0 -0.10632,-0.0858 -0.14906,-0.192068 z"
       id="path90520-1-2"
       inkscape:export-filename="D:\Art\kajamGame\eagle.png"
       inkscape:export-xdpi="52.399212"
       inkscape:export-ydpi="52.399212" />
    <path
       style="display:inline;fill:#c8b7b7;fill-rule:evenodd;stroke:#251a0b;stroke-width:0.597133"
       d="m 234.72559,87.597674 c -3.38932,-0.17585 -6.44804,-0.33576 -6.7972,-0.35538 l -0.63483,-0.0356 3.0518,-1.90354 3.05178,-1.90355 -4.15331,-0.008 -4.15333,-0.008 4.37537,-4.64885 c 2.40645,-2.556873 4.39889,-4.715642 4.42764,-4.797241 0.0288,-0.08204 -0.071,-0.109193 -0.22352,-0.06072 -0.57045,0.181443 -8.07179,1.725802 -8.12629,1.673028 -0.0312,-0.03034 0.75263,-0.493136 1.74211,-1.02848 4.15423,-2.247592 6.57235,-4.006131 6.56009,-4.770706 -0.007,-0.438538 -0.54083,-0.661664 -1.61273,-0.674129 -0.46546,-0.0051 0.0541,-0.07189 1.15444,-0.147733 3.16841,-0.218313 6.95207,-1.049378 10.60632,-2.329602 6.75332,-2.365936 12.15861,-5.895356 16.56774,-10.818068 2.32317,-2.593751 3.67259,-3.928102 4.32828,-4.27989 0.30019,-0.161035 0.5818,-0.293383 0.62585,-0.294091 0.044,0 0.085,0.305932 0.091,0.681394 0.0197,1.222049 -1.10077,4.277525 -3.35239,9.142593 -0.87414,1.888803 -1.13154,2.574038 -0.94567,2.517683 0.14045,-0.04261 2.10082,-0.92094 4.35633,-1.951886 2.2555,-1.030953 4.12645,-1.849777 4.1576,-1.819597 0.0525,0.05089 -8.5922,8.619996 -10.63929,10.546389 -0.49949,0.469989 -0.87424,0.886583 -0.83278,0.925745 0.0414,0.03918 2.48015,0.150117 5.41934,0.246589 2.93927,0.09641 5.39013,0.214073 5.44655,0.26138 0.0563,0.04733 -3.64474,1.31448 -8.22456,2.815978 -4.57988,1.501478 -8.32668,2.802364 -8.32623,2.890844 0,0.0935 2.69743,0.6597 6.43681,1.35143 3.53978,0.65479 6.7558,1.2543 7.14673,1.33224 l 0.71071,0.1417 -0.34914,0.28387 c -0.74448,0.60516 -2.89483,1.91208 -4.65288,2.82778 -4.16226,2.1681 -8.39787,3.53264 -13.03368,4.19894 -2.55977,0.3679 -7.06313,0.36684 -14.19865,-0.003 z"
       id="path90559-1-9"
       inkscape:export-filename="D:\Art\kajamGame\eagle.png"
       inkscape:export-xdpi="52.399212"
       inkscape:export-ydpi="52.399212" />
    <path
       style="display:inline;fill:none;stroke:#000000;stroke-width:0.155499px;stroke-linecap:butt;stroke-linejoin:miter;stroke-opacity:1"
       d="m 61.11539,60.876344 c 0,0 0.247305,-6.575581 8.096348,-8.680133 7.849059,-2.10458 9.470212,-1.515748 9.470212,-1.515748"
       id="path90711-1-0"
       inkscape:export-filename="D:\Art\kajamGame\eagle.png"
       inkscape:export-xdpi="52.399212"
       inkscape:export-ydpi="52.399212" />
    <path
       style="display:inline;fill:#d45500;fill-rule:evenodd;stroke:#251a0b;stroke-width:0.211119"
       d="m 61.36148,62.669014 c -0.01836,-0.107881 -0.05593,-0.609475 -0.08358,-1.114613 -0.04561,-0.833909 -0.04026,-0.969066 0.05829,-1.468373 0.401408,-2.033504 1.462594,-3.86968 3.064869,-5.30305 0.867935,-0.776434 2.358916,-1.643468 3.586011,-2.085284 1.292972,-0.465532 4.585539,-1.273368 6.661897,-1.634503 1.643232,-0.285785 3.047301,-0.412549 3.664955,-0.33088 0.264114,0.03483 0.37604,0.03211 0.401187,-0.01016 0.05003,-0.08384 0.465722,-0.03141 1.334044,0.168471 2.629035,0.605053 3.777411,1.226044 6.184425,3.3443 1.469336,1.293089 2.065989,1.79401 2.621652,2.20095 0.550033,0.402851 1.236028,0.786518 1.625988,0.909389 0.192755,0.06079 0.09966,0.06745 -0.859277,0.0618 -0.742568,-0.0043 -1.807047,-0.06847 -3.439166,-0.207204 -4.551841,-0.38686 -6.411423,-0.483607 -10.106191,-0.525757 -3.561121,-0.04055 -6.599947,0.631903 -9.369053,2.073493 -1.831655,0.953562 -3.231804,1.993959 -4.584517,3.406582 -0.374038,0.390608 -0.690897,0.710354 -0.704149,0.710558 -0.01322,0 -0.03908,-0.08789 -0.0574,-0.19579 z"
       id="path90783-0-4"
       inkscape:export-filename="D:\Art\kajamGame\eagle.png"
       inkscape:export-xdpi="52.399212"
       inkscape:export-ydpi="52.399212" />
    <path
       style="display:inline;fill:#ff7f2a;fill-rule:evenodd;stroke:#251a0b;stroke-width:0.211119"
       d="m 61.374327,58.905104 c -0.0061,-0.182651 0.231523,-1.65589 0.380195,-2.357117 0.109174,-0.51488 0.178074,-0.721035 0.290843,-0.870184 0.0813,-0.107497 0.255304,-0.365722 0.386693,-0.573807 0.268254,-0.424843 0.843231,-1.014339 1.30778,-1.340822 1.807647,-1.270371 4.912772,-2.191012 9.308276,-2.759848 1.447215,-0.187279 1.635086,-0.181875 0.653575,0.01886 -1.68155,0.343874 -4.220532,0.969288 -5.241992,1.291229 -1.390918,0.438392 -2.765084,1.154004 -3.8302,1.99465 -0.468473,0.369742 -1.340974,1.260876 -1.705224,1.741631 -0.570908,0.753503 -1.045086,1.616977 -1.378306,2.509803 -0.09246,0.247759 -0.169702,0.403286 -0.17164,0.345616 z"
       id="path90859-7-0"
       inkscape:export-filename="D:\Art\kajamGame\eagle.png"
       inkscape:export-xdpi="52.399212"
       inkscape:export-ydpi="52.399212" />
    <path
       style="display:inline;fill:#d45500;fill-rule:evenodd;stroke:#251a0b;stroke-width:0.211119"
       d="m 72.997607,62.572728 c -0.548413,-0.01563 -1.848026,-0.09885 -2.888038,-0.184811 -3.044764,-0.251668 -4.471679,-0.332092 -6.088918,-0.34314 l -1.519923,-0.01041 0.489698,-0.447322 c 2.177877,-1.989381 4.92266,-3.449951 7.787062,-4.143707 1.663231,-0.402843 2.650291,-0.514864 4.778186,-0.542303 2.995581,-0.03859 5.66931,0.08315 10.105127,0.460384 2.787117,0.237019 3.557025,0.283223 4.515548,0.271057 l 0.891575,-0.01135 -0.520128,0.276111 c -0.777125,0.412541 -2.100384,1.049045 -2.698856,1.298203 -0.290983,0.121131 -0.565821,0.254307 -0.610741,0.295935 -0.192178,0.178059 -2.805307,1.131534 -4.491458,1.638849 -1.843598,0.554665 -3.366507,0.910619 -5.215279,1.218951 -0.915346,0.152668 -1.252981,0.18424 -2.304602,0.215443 -0.677673,0.02006 -1.680823,0.02373 -2.229253,0.0077 z"
       id="path90972-9-0"
       inkscape:export-filename="D:\Art\kajamGame\eagle.png"
       inkscape:export-xdpi="52.399212"
       inkscape:export-ydpi="52.399212" />
    <path
       style="display:inline;fill:#d45500;fill-rule:evenodd;stroke:#251a0b;stroke-width:0.597133"
       d="m 230.9535,103.65349 c -3.64988,-1.77295 -6.13276,-3.47403 -9.05204,-6.201785 -1.946,-1.818361 -3.59892,-3.196811 -4.48003,-3.736161 l -0.63057,-0.38599 1.33237,-0.64842 1.33241,-0.64841 6.11891,1.36223 c 6.36293,1.41653 7.59193,1.79214 10.01523,3.060877 1.45918,0.764007 1.45684,0.768467 -0.65365,1.249984 -1.23888,0.282677 -1.75289,0.322547 -3.49363,0.271027 -2.18851,-0.0648 -2.60967,0.0798 -1.25421,0.43072 6.39297,1.654718 9.61179,2.653588 8.86848,2.752078 -0.85872,0.1138 -8.40558,-0.73576 -10.11018,-1.13812 -0.55649,-0.131347 -1.03911,-0.192987 -1.07251,-0.136977 -0.0334,0.056 0.73092,0.694977 1.69838,1.419937 2.1738,1.62887 4.11066,3.36452 3.77146,3.37966 -0.13536,0.006 -1.21101,-0.45776 -2.39042,-1.03065 z"
       id="path91011-4-0"
       inkscape:export-filename="D:\Art\kajamGame\eagle.png"
       inkscape:export-xdpi="52.399212"
       inkscape:export-ydpi="52.399212" />
    <path
       style="display:inline;fill:#d45500;fill-rule:evenodd;stroke:#251a0b;stroke-width:0.597133"
       d="m 244.87325,100.50665 c -1.41924,-0.42734 -3.91571,-1.547204 -6.14584,-2.756895 -3.56286,-1.932611 -4.87787,-2.566921 -6.23502,-3.007581 -1.01148,-0.32842 -10.92533,-2.68447 -12.31336,-2.92629 -0.22044,-0.0385 0.007,-0.23814 0.87768,-0.7709 0.6984,-0.42729 1.26619,-0.68166 1.39941,-0.62693 0.1233,0.0507 0.72682,0.20817 1.34111,0.34998 1.39177,0.32131 3.47389,0.30494 5.52699,-0.0434 2.02003,-0.34278 3.687,-0.36263 4.86869,-0.0579 0.52621,0.13566 2.06153,0.6912 3.41183,1.23452 2.94989,1.18701 4.41345,1.5753 5.44805,1.44548 0.4075,-0.0511 1.70074,-0.41298 2.87384,-0.80413 1.17311,-0.39113 2.25962,-0.69364 2.41442,-0.67226 0.27087,0.0373 0.27006,0.0538 -0.021,0.43444 -0.7089,0.9274 -2.63201,1.84671 -4.76595,2.27824 -0.54903,0.11103 -0.99742,0.25375 -0.99638,0.31714 0.003,0.0635 1.22046,0.12458 2.70985,0.13596 l 2.70808,0.0206 1.59531,0.57138 c 0.87742,0.31425 1.78463,0.691157 2.01605,0.837537 l 0.42077,0.26615 -0.66244,0.305307 c -1.54177,0.710537 -4.45188,0.515007 -10.73079,-0.721027 -0.7007,-0.137947 -0.45324,0.18388 0.75765,0.985277 1.46175,0.967414 4.00195,2.833802 4.2489,3.121842 0.28737,0.33512 0.14171,0.35139 -0.74795,0.0835 z"
       id="path91050-6-1"
       inkscape:export-filename="D:\Art\kajamGame\eagle.png"
       inkscape:export-xdpi="52.399212"
       inkscape:export-ydpi="52.399212" />
    <ellipse
       style="display:inline;fill:#803300;fill-rule:evenodd;stroke:#251a0b;stroke-width:0.625913"
       id="path91191-7-4"
       cx="90.737923"
       cy="48.493793"
       rx="1.8462687"
       ry="2.2784472"
       inkscape:export-filename="D:\Art\kajamGame\eagle.png"
       inkscape:export-xdpi="52.399212"
       inkscape:export-ydpi="52.399212" />
    <ellipse
       style="display:inline;fill:#ffffff;fill-opacity:1;fill-rule:evenodd;stroke:#251a0b;stroke-width:0;stroke-miterlimit:4;stroke-dasharray:none"
       id="path91237-5-3"
       cx="90.124741"
       cy="47.874142"
       rx="0.32306489"
       ry="0.51937717"
       inkscape:export-filename="D:\Art\kajamGame\eagle.png"
       inkscape:export-xdpi="52.399212"
       inkscape:export-ydpi="52.399212" />
    <path
       style="display:inline;fill:#c8b7b7;stroke:#000000;stroke-width:0.155499px;stroke-linecap:butt;stroke-linejoin:miter;stroke-opacity:1"
       d="m 91.879555,57.225257 c 0,0 12.554255,4.139953 20.385925,0.732509 7.83169,-3.407417 7.83169,-3.407417 7.83169,-3.407417"
       id="path91440-7-9"
       inkscape:export-filename="D:\Art\kajamGame\eagle.png"
       inkscape:export-xdpi="52.399212"
       inkscape:export-ydpi="52.399212" />
    <path
       style="display:inline;fill:#afa3a3;fill-opacity:1;fill-rule:evenodd;stroke:#251a0b;stroke-width:0;stroke-miterlimit:4;stroke-dasharray:none"
       d="m 109.57522,66.564392 c -0.4692,-0.345939 -1.37851,-0.968664 -2.02068,-1.383868 -3.95057,-2.55419 -10.462928,-4.537007 -17.518973,-5.333965 -0.794104,-0.08971 -1.478981,-0.162519 -1.521963,-0.161836 -0.04302,0 0.368395,-0.216324 0.914165,-0.482258 0.545784,-0.265934 1.478172,-0.742796 2.071974,-1.059682 l 1.079648,-0.576153 1.131658,0.30192 c 6.026711,1.60785 12.014661,1.970232 16.180761,0.979233 1.28552,-0.30577 1.79486,-0.503909 6.01064,-2.33813 3.15375,-1.372122 3.91495,-1.677755 3.96481,-1.591919 0.12602,0.216955 1.13646,1.359903 2.48841,2.814728 l 1.39244,1.498459 -3.78733,0.105259 c -3.10432,0.08627 -5.62529,0.236325 -5.73297,0.341243 -0.0113,0.01085 0.66894,0.790786 1.51147,1.733095 0.84248,0.942318 1.58286,1.775253 1.64528,1.850982 0.13425,0.162861 0.31915,0.189813 -1.82176,-0.265432 -2.89453,-0.615519 -4.95013,-0.995157 -5.3534,-0.988684 -0.35484,0.006 -0.42385,0.03133 -0.52812,0.196191 -0.15693,0.248082 -0.11502,0.576503 0.38698,3.033074 0.21608,1.05736 0.3855,1.930175 0.37646,1.939599 -0.009,0.0093 -0.40033,-0.265917 -0.8695,-0.611856 z"
       id="path91512-7-7"
       inkscape:export-filename="D:\Art\kajamGame\eagle.png"
       inkscape:export-xdpi="52.399212"
       inkscape:export-ydpi="52.399212" />
    <path
       style="display:inline;fill:#c8b7b7;stroke:#000000;stroke-width:0.155499px;stroke-linecap:butt;stroke-linejoin:miter;stroke-opacity:1"
       d="m 233.39714,83.399584 c 0,0 12.37722,1.2677 19.99004,-1.58211 7.61284,-2.8498 7.30156,-2.63498 7.30156,-2.63498"
       id="path93514-8-2"
       inkscape:export-filename="D:\Art\kajamGame\eagle.png"
       inkscape:export-xdpi="52.399212"
       inkscape:export-ydpi="52.399212" />
    <path
       style="display:inline;fill:#afa3a3;fill-opacity:1;fill-rule:evenodd;stroke:#251a0b;stroke-width:0;stroke-miterlimit:4;stroke-dasharray:none"
       d="m 239.99675,87.473584 c -1.0103,-0.032 -3.96308,-0.16667 -6.56176,-0.29921 -2.59871,-0.13256 -4.79571,-0.23969 -4.88223,-0.23808 -0.0865,0.002 1.05795,-0.7532 2.5433,-1.67734 l 2.70056,-1.68025 1.73305,0.11314 c 2.22723,0.1454 8.60249,0.0457 10.43625,-0.16325 3.9,-0.44435 5.44287,-0.84095 10.47761,-2.69331 l 3.88847,-1.4306 2.84115,0.52812 c 1.56265,0.29047 2.87504,0.52843 2.91634,0.52879 0.10715,0.002 -1.31099,0.92878 -2.43934,1.59596 -2.22127,1.31343 -5.78099,2.92375 -8.05,3.64158 -2.61827,0.82833 -5.44859,1.43122 -7.78867,1.65907 -1.52514,0.1485 -5.10295,0.20132 -7.81473,0.11538 z"
       id="path100223-6-6"
       inkscape:export-filename="D:\Art\kajamGame\eagle.png"
       inkscape:export-xdpi="52.399212"
       inkscape:export-ydpi="52.399212" />
    <path
       style="display:inline;fill:none;stroke:#000000;stroke-width:0.567143;stroke-linecap:butt;stroke-linejoin:miter;stroke-miterlimit:4;stroke-dasharray:none;stroke-opacity:1"
       d="m 173.39152,61.601331 -12.9584,-6.094654"
       id="path100297-9-4"
       inkscape:export-filename="D:\Art\kajamGame\eagle.png"
       inkscape:export-xdpi="52.399212"
       inkscape:export-ydpi="52.399212" />
  </g>
</svg>
