<?xml version="1.0" encoding="UTF-8" standalone="no"?>
<!-- Created with Inkscape (http://www.inkscape.org/) -->

<svg
   width="1024"
   height="600"
   viewBox="0 0 270.93333 158.75"
   version="1.1"
   id="svg47555"
   inkscape:version="1.1.1 (3bf5ae0d25, 2021-09-20)"
   sodipodi:docname="spider.svg"
   xmlns:inkscape="http://www.inkscape.org/namespaces/inkscape"
   xmlns:sodipodi="http://sodipodi.sourceforge.net/DTD/sodipodi-0.dtd"
   xmlns="http://www.w3.org/2000/svg"
   xmlns:svg="http://www.w3.org/2000/svg">
  <sodipodi:namedview
     id="namedview47557"
     pagecolor="#505050"
     bordercolor="#ffffff"
     borderopacity="1"
     inkscape:pageshadow="0"
     inkscape:pageopacity="0"
     inkscape:pagecheckerboard="1"
     inkscape:document-units="mm"
     showgrid="false"
     units="px"
     inkscape:zoom="2.096401"
     inkscape:cx="519.22318"
     inkscape:cy="471.99939"
     inkscape:window-width="1920"
     inkscape:window-height="1017"
     inkscape:window-x="1912"
     inkscape:window-y="-8"
     inkscape:window-maximized="1"
     inkscape:current-layer="layer1" />
  <defs
     id="defs47552" />
  <g
     inkscape:label="Layer 1"
     inkscape:groupmode="layer"
     id="layer1">
    <path
       style="fill:none;stroke:#2f210e;stroke-width:1.065;stroke-linecap:butt;stroke-linejoin:miter;stroke-miterlimit:4;stroke-dasharray:none;stroke-opacity:1"
       d="m 149.48167,120.83473 c 14.45102,-3.06682 22.4167,-0.60187 22.4167,-0.60187 0,0 8.37099,21.68499 1.3131,36.44795"
       id="path59997-6-2" />
    <path
       style="fill:none;stroke:#2f210e;stroke-width:1.14466;stroke-linecap:butt;stroke-linejoin:miter;stroke-miterlimit:4;stroke-dasharray:none;stroke-opacity:1"
       d="m 149.48167,118.22801 c 14.61737,-5.96253 23.43573,-4.81388 23.43573,-4.81388 0,0 12.76382,21.58768 8.0539,38.65827"
       id="path59997-6-1-0" />
    <path
       style="fill:none;stroke:#2f210e;stroke-width:1.13657;stroke-linecap:butt;stroke-linejoin:miter;stroke-miterlimit:4;stroke-dasharray:none;stroke-opacity:1"
       d="m 150.38692,115.53467 c 13.12996,-8.47536 21.88542,-8.91808 21.88542,-8.91808 0,0 16.17613,18.96767 14.60913,36.60716"
       id="path59997-6-1-4-0" />
    <path
       style="fill:none;stroke:#2f210e;stroke-width:1.08549;stroke-linecap:butt;stroke-linejoin:miter;stroke-miterlimit:4;stroke-dasharray:none;stroke-opacity:1"
       d="m 149.77527,111.46368 c 9.42513,-11.80919 16.98858,-14.66699 16.98858,-14.66699 0,0 18.83011,13.77638 21.78651,31.20086"
       id="path59997-6-1-4-8-8" />
    <path
       style="fill:none;stroke:#2c1f0d;stroke-width:1.065;stroke-linecap:butt;stroke-linejoin:miter;stroke-opacity:1;stroke-miterlimit:4;stroke-dasharray:none"
       d="m 112.35667,120.83473 c -14.45102,-3.06682 -22.416704,-0.60187 -22.416704,-0.60187 0,0 -8.370995,21.68499 -1.313096,36.44795"
       id="path59997-6" />
    <path
       style="fill:none;stroke:#2c1f0d;stroke-width:1.14466;stroke-linecap:butt;stroke-linejoin:miter;stroke-miterlimit:4;stroke-dasharray:none;stroke-opacity:1"
       d="m 112.35667,118.22801 c -14.617375,-5.96253 -23.435733,-4.81388 -23.435733,-4.81388 0,0 -12.763828,21.58768 -8.053907,38.65827"
       id="path59997-6-1" />
    <path
       style="fill:none;stroke:#2c1f0d;stroke-width:1.13657;stroke-linecap:butt;stroke-linejoin:miter;stroke-miterlimit:4;stroke-dasharray:none;stroke-opacity:1"
       d="m 111.45142,115.53467 c -13.129967,-8.47536 -21.885423,-8.91808 -21.885423,-8.91808 0,0 -16.176136,18.96767 -14.609134,36.60716"
       id="path59997-6-1-4" />
    <path
       style="fill:none;stroke:#2c1f0d;stroke-width:1.08549;stroke-linecap:butt;stroke-linejoin:miter;stroke-miterlimit:4;stroke-dasharray:none;stroke-opacity:1"
       d="M 112.06307,111.46368 C 102.63794,99.654494 95.074483,96.796689 95.074483,96.796689 c 0,0 -18.83011,13.776381 -21.786508,31.200861"
       id="path59997-6-1-4-8" />
    <path
       style="fill:#261400;fill-opacity:1;fill-rule:evenodd;stroke:#ffffff;stroke-width:0"
       d="m 109.886,123.21041 c -0.71864,-2.36992 -1.25065,-5.70499 -1.38973,-8.71198 -0.24743,-5.3495 0.61263,-10.38165 2.60674,-15.251762 3.21478,-7.851353 8.97049,-14.264477 17.58562,-19.594267 l 1.97081,-1.219241 1.63533,0.994468 c 8.7565,5.324941 14.69574,11.885433 17.94226,19.81904 1.61175,3.938682 2.43417,7.707152 2.59921,11.909802 0.13124,3.34205 -0.0988,6.27109 -0.73659,9.37931 -0.29803,1.45244 -0.84892,3.51967 -0.97985,3.67697 -0.0216,0.026 -0.38583,-0.19185 -0.80941,-0.48397 -1.52949,-1.05483 -1.71653,-1.17209 -2.86551,-1.79653 -1.70801,-0.92825 -3.35941,-1.65917 -5.12106,-2.26662 -8.81852,-3.04076 -18.93608,-2.46343 -27.14017,1.54868 -1.10958,0.54263 -3.55534,1.9765 -4.19686,2.46049 -0.83841,0.63254 -0.75786,0.66652 -1.10079,-0.46439 z"
       id="path59329" />
    <ellipse
       style="fill:#3d260b;fill-opacity:1;fill-rule:evenodd;stroke:#ffffff;stroke-width:0"
       id="path47782-2"
       cx="130.87997"
       cy="134.51019"
       rx="27.352915"
       ry="18.799253" />
    <ellipse
       style="fill:#482f0c;fill-opacity:1;fill-rule:evenodd;stroke:#ffffff;stroke-width:0"
       id="path47782"
       cx="130.83534"
       cy="134.45192"
       rx="25.969652"
       ry="17.848557" />
    <ellipse
       style="fill:#18120c;fill-opacity:1;fill-rule:evenodd;stroke:#ffffff;stroke-width:0"
       id="path48644-8"
       cx="114.77164"
       cy="130.34674"
       rx="2.5880408"
       ry="2.4095552" />
    <circle
       style="fill:#cb0000;fill-opacity:1;fill-rule:evenodd;stroke:#ffffff;stroke-width:0"
       id="path49196-5"
       cx="114.81626"
       cy="130.39136"
       r="1.3386418" />
    <ellipse
       style="fill:#18120c;fill-opacity:1;fill-rule:evenodd;stroke:#ffffff;stroke-width:0"
       id="path48644-0"
       cx="121.46485"
       cy="125.6169"
       rx="2.5880408"
       ry="2.4095552" />
    <circle
       style="fill:#cb0000;fill-opacity:1;fill-rule:evenodd;stroke:#ffffff;stroke-width:0"
       id="path49196-8"
       cx="121.50946"
       cy="125.66151"
       r="1.3386418" />
    <ellipse
       style="fill:#18120c;fill-opacity:1;fill-rule:evenodd;stroke:#ffffff;stroke-width:0"
       id="path48644-87"
       cx="124.23138"
       cy="132.66707"
       rx="2.5880408"
       ry="2.4095552" />
    <circle
       style="fill:#cb0000;fill-opacity:1;fill-rule:evenodd;stroke:#ffffff;stroke-width:0"
       id="path49196-3"
       cx="124.276"
       cy="132.71169"
       r="1.3386418" />
    <ellipse
       style="fill:#18120c;fill-opacity:1;fill-rule:evenodd;stroke:#ffffff;stroke-width:0"
       id="path48644-2"
       cx="114.14693"
       cy="137.75391"
       rx="2.5880408"
       ry="2.4095552" />
    <circle
       style="fill:#cb0000;fill-opacity:1;fill-rule:evenodd;stroke:#ffffff;stroke-width:0"
       id="path49196-51"
       cx="114.19156"
       cy="137.79852"
       r="1.3386418" />
    <ellipse
       style="fill:#18120c;fill-opacity:1;fill-rule:evenodd;stroke:#ffffff;stroke-width:0"
       id="path48644-8-3"
       cx="-146.80978"
       cy="130.21288"
       rx="2.5880408"
       ry="2.4095552"
       transform="scale(-1,1)" />
    <circle
       style="fill:#cb0000;fill-opacity:1;fill-rule:evenodd;stroke:#ffffff;stroke-width:0"
       id="path49196-5-8"
       cx="-146.76517"
       cy="130.25749"
       r="1.3386418"
       transform="scale(-1,1)" />
    <ellipse
       style="fill:#18120c;fill-opacity:1;fill-rule:evenodd;stroke:#ffffff;stroke-width:0"
       id="path48644-0-2"
       cx="-140.11658"
       cy="125.48302"
       rx="2.5880408"
       ry="2.4095552"
       transform="scale(-1,1)" />
    <circle
       style="fill:#cb0000;fill-opacity:1;fill-rule:evenodd;stroke:#ffffff;stroke-width:0"
       id="path49196-8-8"
       cx="-140.07196"
       cy="125.52763"
       r="1.3386418"
       transform="scale(-1,1)" />
    <ellipse
       style="fill:#18120c;fill-opacity:1;fill-rule:evenodd;stroke:#ffffff;stroke-width:0"
       id="path48644-87-7"
       cx="-137.35005"
       cy="132.5332"
       rx="2.5880408"
       ry="2.4095552"
       transform="scale(-1,1)" />
    <circle
       style="fill:#cb0000;fill-opacity:1;fill-rule:evenodd;stroke:#ffffff;stroke-width:0"
       id="path49196-3-1"
       cx="-137.30544"
       cy="132.57782"
       r="1.3386418"
       transform="scale(-1,1)" />
    <ellipse
       style="fill:#18120c;fill-opacity:1;fill-rule:evenodd;stroke:#ffffff;stroke-width:0"
       id="path48644-2-3"
       cx="-147.43449"
       cy="137.62004"
       rx="2.5880408"
       ry="2.4095552"
       transform="scale(-1,1)" />
    <circle
       style="fill:#cb0000;fill-opacity:1;fill-rule:evenodd;stroke:#ffffff;stroke-width:0"
       id="path49196-51-3"
       cx="-147.38988"
       cy="137.66466"
       r="1.3386418"
       transform="scale(-1,1)" />
    <path
       style="fill:none;stroke:#000000;stroke-width:0.264583px;stroke-linecap:butt;stroke-linejoin:miter;stroke-opacity:1"
       d="m 123.6513,143.68854 c 0,0 7.67488,-5.2207 15.39438,-0.0892"
       id="path51145" />
    <path
       style="fill:none;stroke:#000000;stroke-width:0.264583px;stroke-linecap:butt;stroke-linejoin:miter;stroke-opacity:1"
       d="m 123.6513,143.51014 c 0,0 7.67488,5.2207 15.39438,0.0892"
       id="path51145-6" />
    <path
       style="fill:#1c0000;fill-opacity:1;fill-rule:evenodd;stroke:#ffffff;stroke-width:0"
       d="m 130.2897,145.63004 c -1.54098,-0.17663 -2.98629,-0.55228 -4.40733,-1.14551 -0.57081,-0.23829 -1.76255,-0.83683 -1.76255,-0.88523 0,-0.0484 1.19174,-0.64695 1.76255,-0.88523 2.06098,-0.86038 4.11923,-1.25812 6.20237,-1.19857 1.96062,0.0561 3.67487,0.49141 5.45088,1.3843 0.55046,0.27674 1.1754,0.6488 1.1754,0.69977 0,0.0626 -0.78084,0.50925 -1.44276,0.82527 -1.19482,0.57047 -2.40518,0.94604 -3.67055,1.13898 -0.81272,0.12392 -2.50845,0.15786 -3.30801,0.0662 z"
       id="path51590" />
    <path
       style="fill:#f6ff9d;fill-opacity:1;stroke:#000000;stroke-width:0.264583px;stroke-linecap:butt;stroke-linejoin:miter;stroke-opacity:1"
       d="m 127.6226,141.99293 0.6247,2.63266 0.84781,-2.94501 z"
       id="path52001" />
    <path
       style="fill:#f6ff9d;fill-opacity:1;stroke:#000000;stroke-width:0.264583px;stroke-linecap:butt;stroke-linejoin:miter;stroke-opacity:1"
       d="m 135.24459,141.90922 -0.6247,2.63266 -0.84781,-2.94501 z"
       id="path52001-1" />
  </g>
</svg>
