<?xml version="1.0" encoding="UTF-8" standalone="no"?>
<!-- Created with Inkscape (http://www.inkscape.org/) -->

<svg
   width="1024"
   height="600"
   viewBox="0 0 270.93333 158.75"
   version="1.1"
   id="svg19196"
   inkscape:version="1.1.1 (3bf5ae0d25, 2021-09-20)"
   sodipodi:docname="tumbleweed.svg"
   xmlns:inkscape="http://www.inkscape.org/namespaces/inkscape"
   xmlns:sodipodi="http://sodipodi.sourceforge.net/DTD/sodipodi-0.dtd"
   xmlns="http://www.w3.org/2000/svg"
   xmlns:svg="http://www.w3.org/2000/svg">
  <sodipodi:namedview
     id="namedview19198"
     pagecolor="#505050"
     bordercolor="#ffffff"
     borderopacity="1"
     inkscape:pageshadow="0"
     inkscape:pageopacity="0"
     inkscape:pagecheckerboard="1"
     inkscape:document-units="mm"
     showgrid="false"
     units="px"
     inkscape:zoom="2.096401"
     inkscape:cx="410.16009"
     inkscape:cy="418.86496"
     inkscape:window-width="1920"
     inkscape:window-height="1017"
     inkscape:window-x="1912"
     inkscape:window-y="-8"
     inkscape:window-maximized="1"
     inkscape:current-layer="layer1" />
  <defs
     id="defs19193" />
  <g
     inkscape:label="Layer 1"
     inkscape:groupmode="layer"
     id="layer1">
    <path
       style="fill:none;stroke:#000000;stroke-width:0.259679px;stroke-linecap:butt;stroke-linejoin:miter;stroke-opacity:1"
       d="m 107.14692,104.57679 2.30944,0.2569 1.09735,-1.76479 1.82155,1.13941 2.43329,-1.00494 -0.3679,1.7662 4.13303,0.26044 -1.21936,2.01697 1.94472,0.25619 -0.005,2.52416 2.42806,1.89785 -2.43351,1.13115 0.72466,2.65179 -2.43146,-0.005 -0.85557,2.52251 -1.82018,-1.89666 -3.04343,2.26585 -0.11885,-1.51474 -4.25665,0.8752 0.73375,-2.39654 -2.42873,-1.51921 2.06947,-1.51049 -2.4292,-1.2668 1.4632,-2.39512 -1.45434,-2.527 2.67326,0.76244 z"
       id="path24944" />
    <path
       style="fill:none;stroke:#000000;stroke-width:0.259679px;stroke-linecap:butt;stroke-linejoin:miter;stroke-opacity:1"
       d="m 100.59627,96.612939 2.9164,0.762913 0.007,-3.533828 3.27975,1.520867 2.19196,-2.015082 2.6712,1.898311 1.58523,-2.647304 1.57364,3.789312 4.01418,-1.254297 0.23974,1.893594 4.01306,-0.623256 0.11794,2.019568 4.13395,-0.244396 -1.22073,2.774219 4.3755,0.63954 -2.43556,2.26702 1.942,1.77069 -0.61128,1.89194 3.15636,2.5303 -2.43351,1.13116 1.575,3.03206 -3.6497,1.38121 2.54645,3.66499 -2.79506,-0.63647 0.6022,3.15639 -4.86271,-0.13565 0.60036,4.16605 -3.6447,-1.39537 -1.46206,1.76408 -1.57932,-0.6341 -2.43851,3.90773 -2.30353,-3.53831 -1.58341,1.63764 -2.67007,-2.52935 -2.92163,2.13987 -1.94108,-2.27552 -4.013964,1.12809 1.464554,-3.15237 -4.617966,-1.01863 3.52858,-1.63387 -1.700887,-0.63434 2.195133,-3.782 -5.712355,-0.89454 1.462746,-2.14271 -2.063567,-1.77093 3.5279,-1.25523 -2.183094,-2.90704 4.377777,-0.62255 -2.060609,-3.41163 1.581359,-0.50176 -2.425782,-3.159924 3.03911,0.132106 z"
       id="path24946" />
    <path
       style="fill:none;stroke:#000000;stroke-width:0.259679px;stroke-linecap:butt;stroke-linejoin:miter;stroke-opacity:1"
       d="m 79.553398,102.50391 6.327046,-2.890522 -1.93813,-3.916227 6.198424,1.021699 -1.320489,-9.341999 5.223566,2.281891 1.957674,-6.937673 c 0,0 7.283721,5.945938 7.650481,4.810773 0.36677,-1.135166 2.93004,-6.809576 2.93004,-6.809576 l 8.504,3.424134 1.70953,-4.161565 7.03921,6.702713 7.41916,-1.75252 c 0,0 -2.19787,5.296495 -1.59,5.297672 0.60786,0.0011 11.06159,0.904928 11.06159,0.904928 l -1.83542,6.559283 4.61365,3.416589 c 0,0 -6.57155,3.64729 -5.6001,4.28022 0.97145,0.63293 7.27804,9.10114 7.27804,9.10114 0,0 -6.69108,2.51119 -6.44953,3.39512 0.24156,0.88393 0.83715,7.70035 0.83715,7.70035 0,0 -7.9034,0.6157 -7.90431,1.12053 -9.6e-4,0.50484 0.47357,7.06861 0.47357,7.06861 0,0 -6.07481,-2.15734 -5.95506,-1.14744 0.11976,1.0099 -3.04864,5.16864 -3.04864,5.16864 l -5.58807,-2.40881 -4.01942,4.15708 c 0,0 -6.06958,-5.06012 -6.5561,-4.93485 -0.48652,0.12526 -9.850624,1.7478 -9.850624,1.7478 l -3.392693,-6.31702 -8.510364,0.1097 3.654701,-4.15779 -7.77206,-4.81101 4.258703,-2.01107 -4.003513,-4.67749 4.867481,-2.51473 -7.162831,-5.56707 3.528129,-1.38145 z"
       id="path24948" />
    <path
       style="fill:#785a32;fill-opacity:0.99607843;fill-rule:evenodd;stroke:#ffffff;stroke-width:0;stroke-miterlimit:4;stroke-dasharray:none"
       d="m 423.20641,444.14253 c -0.26182,-2.12785 -0.47012,-2.57823 -1.10138,-2.38135 -0.42817,0.13354 -3.36835,0.76408 -6.53373,1.40121 -3.16539,0.63712 -6.32167,1.29945 -7.01397,1.47183 l -1.25873,0.31342 1.20787,-3.90709 c 0.66433,-2.14891 1.10844,-4.16769 0.9869,-4.4862 -0.12154,-0.3185 -1.95835,-1.64155 -4.08179,-2.9401 -2.12344,-1.29855 -3.86057,-2.49052 -3.86027,-2.64881 3e-4,-0.15828 1.61259,-1.43614 3.58288,-2.83967 1.97028,-1.40353 3.58255,-2.6696 3.58282,-2.81347 2.7e-4,-0.14388 -1.98309,-1.31596 -4.40746,-2.60463 -2.42438,-1.28867 -4.47218,-2.39146 -4.55068,-2.45065 -0.0785,-0.0592 1.04492,-2.058 2.49651,-4.44181 l 2.63924,-4.33421 -2.33963,-4.06871 c -1.28679,-2.23779 -2.17913,-4.06841 -1.98297,-4.06804 0.19616,3.7e-4 2.24827,0.5529 4.56026,1.22786 2.31198,0.67495 4.28591,1.14519 4.3865,1.04496 0.1006,-0.10022 -0.58652,-2.16525 -1.52693,-4.58895 -0.94041,-2.42371 -1.59942,-4.51674 -1.46447,-4.65119 0.13496,-0.13445 1.89651,-0.0492 3.91457,0.1895 l 3.6692,0.43396 1.20408,-1.94101 c 0.66224,-1.06755 1.55786,-2.51612 1.99026,-3.21904 l 0.78619,-1.27803 3.28041,2.07558 3.28041,2.07558 3.83758,-1.61004 c 2.11067,-0.88553 3.93523,-1.51203 4.05457,-1.39224 0.11935,0.1198 -0.009,1.35017 -0.28543,2.73417 -0.27634,1.384 -0.40307,2.6778 -0.28163,2.87513 0.12145,0.19733 1.76434,0.38296 3.65087,0.41253 1.88654,0.0296 5.18828,0.19673 7.3372,0.37147 l 3.90714,0.31772 -2.13579,3.48316 c -1.17468,1.91574 -2.02724,3.65953 -1.89457,3.8751 0.13267,0.21556 1.85393,0.54609 3.82503,0.73452 l 3.58381,0.34259 -0.009,4.70348 -0.009,4.70348 4.04864,3.17361 c 2.22676,1.74549 4.04847,3.26492 4.04827,3.37652 -2.1e-4,0.1116 -1.82651,1.04244 -4.05845,2.06854 -2.23193,1.0261 -4.05851,2.10578 -4.05906,2.39929 -5.4e-4,0.29352 0.53207,2.44329 1.1836,4.77729 0.65152,2.33399 1.18436,4.36257 1.18409,4.50796 -2.7e-4,0.14539 -1.99932,0.2606 -4.44233,0.25603 l -4.44184,-0.008 -1.38444,4.30429 -1.38444,4.30429 -3.35793,-3.34009 -3.35793,-3.34009 -5.34129,4.0114 -5.34129,4.0114 z"
       id="path25332"
       transform="scale(0.26458333)" />
    <path
       style="fill:#95713e;fill-opacity:1;fill-rule:evenodd;stroke:#ffffff;stroke-width:0;stroke-miterlimit:4;stroke-dasharray:none"
       d="m 430.39625,481.32158 -4.20087,-6.51132 -2.96039,2.92312 c -1.62822,1.60772 -3.14303,2.92279 -3.36625,2.92237 -0.22322,-4.2e-4 -2.53502,-2.05204 -5.13733,-4.55917 l -4.73148,-4.55841 -2.47679,1.7844 c -1.36223,0.98143 -3.84154,2.80131 -5.50958,4.04419 l -3.0328,2.25979 -3.55863,-4.16241 c -2.30604,-2.6973 -3.83985,-4.10749 -4.35757,-4.00638 -0.43942,0.0858 -3.44572,0.90506 -6.68067,1.82053 -3.23495,0.91548 -5.9862,1.55965 -6.11388,1.43149 -0.12768,-0.12816 0.83857,-2.56112 2.14721,-5.40658 1.30865,-2.84545 2.28977,-5.26571 2.18027,-5.37835 -0.10951,-0.11264 -3.74197,-0.9826 -8.07215,-1.93324 l -7.87304,-1.72845 6.21769,-2.82503 c 3.41974,-1.55377 6.21798,-2.97626 6.21833,-3.16108 3.4e-4,-0.18482 -0.80383,-0.60272 -1.78705,-0.92868 -0.98322,-0.32594 -2.47473,-0.8807 -3.31446,-1.23279 l -1.52679,-0.64016 4.06441,-6.97236 c 2.23543,-3.83478 3.9441,-7.09311 3.79704,-7.24071 -0.14705,-0.14761 -4.79385,-0.97664 -10.32621,-1.8423 -5.53236,-0.86567 -10.15933,-1.6748 -10.28215,-1.79809 -0.12283,-0.12328 0.8709,-1.77607 2.20827,-3.67287 1.33738,-1.8968 2.43189,-3.61082 2.43226,-3.80891 3.7e-4,-0.1981 -1.60462,-1.71541 -3.56665,-3.37179 l -3.56732,-3.0116 6.2245,-2.2169 c 3.42348,-1.2193 6.34047,-2.33244 6.48222,-2.47365 0.14174,-0.14121 -1.49923,-2.54148 -3.64659,-5.33392 -2.14737,-2.79245 -3.80646,-5.17466 -3.68687,-5.2938 0.1196,-0.11914 3.52624,-0.67086 7.57032,-1.22604 4.04409,-0.55518 7.54305,-1.17723 7.77547,-1.38233 0.23242,-0.20511 -1.21118,-3.04713 -3.208,-6.31562 -1.99683,-3.26848 -3.63022,-6.14285 -3.62976,-6.38749 4.5e-4,-0.24464 1.07412,-0.71774 2.38593,-1.05133 1.3118,-0.33359 2.51197,-0.81097 2.66705,-1.06084 0.15507,-0.24986 -0.96791,-2.10466 -2.49552,-4.12177 -1.5276,-2.01711 -3.39392,-4.4918 -4.14736,-5.49932 l -1.36991,-1.83185 5.17581,0.0985 5.17581,0.0985 1.10105,-4.67594 c 0.60558,-2.57177 1.15883,-4.7335 1.22943,-4.80384 0.0706,-0.0703 2.58918,0.50461 5.59683,1.27768 3.00765,0.77307 5.52211,1.41038 5.58769,1.41624 0.0656,0.006 0.12465,-2.88715 0.13127,-6.42893 0.007,-3.54178 0.10015,-6.43943 0.20785,-6.43923 0.10769,2e-4 2.721,1.17271 5.80735,2.60558 l 5.61154,2.60521 4.12495,-3.7517 4.12495,-3.7517 5.11691,3.61076 c 2.8143,1.98591 5.17842,3.53405 5.25361,3.4403 0.0752,-0.0937 1.33081,-2.17138 2.7903,-4.61696 1.45949,-2.44557 2.76183,-4.2677 2.89409,-4.04916 0.13227,0.21853 1.35008,3.08258 2.70625,6.36455 1.35617,3.28197 2.60749,6.10247 2.7807,6.26776 0.17322,0.1653 3.53663,-0.70643 7.47425,-1.93716 8.10396,-2.53295 7.6049,-2.65752 8.11095,2.02456 0.27097,2.50708 0.38622,2.72403 1.33587,2.5145 1.31339,-0.28978 13.09056,-2.13023 13.62512,-2.12923 0.21878,4.1e-4 0.51807,1.63167 0.66508,3.62502 0.14701,1.99335 0.33585,3.67027 0.41964,3.72649 0.0838,0.0562 3.33104,-0.0894 7.21611,-0.32365 3.88507,-0.23422 7.16016,-0.32909 7.27798,-0.21083 0.11782,0.11826 -0.74339,2.39349 -1.9138,5.05606 -2.47498,5.63036 -3.15823,4.86989 5.44031,6.05519 3.0163,0.41579 6.11887,0.88349 6.89459,1.03933 l 1.41041,0.28334 -4.28043,3.97943 -4.28042,3.97943 3.76569,3.49841 3.7657,3.49841 -1.03513,3.04639 c -0.56932,1.67553 -1.03564,3.31616 -1.03625,3.64585 -6.2e-4,0.3297 2.19578,2.36436 4.88089,4.52146 2.6851,2.15711 5.16484,4.18051 5.51053,4.49645 0.50306,0.45977 -0.23232,0.98156 -3.68406,2.614 l -4.31258,2.03957 2.88571,5.68636 c 1.58713,3.1275 2.80855,5.74528 2.71427,5.8173 -0.0943,0.072 -3.07129,1.22154 -6.61557,2.55452 -3.91381,1.47195 -6.42639,2.66925 -6.39891,3.04922 0.0249,0.3441 1.89269,3.25851 4.15069,6.47646 2.96539,4.22607 3.87672,5.84588 3.28175,5.833 -0.45304,-0.01 -2.53788,-0.42742 -4.63297,-0.92803 -2.0951,-0.50061 -3.87069,-0.84901 -3.94576,-0.77422 -0.0751,0.0748 0.36586,2.7432 0.97983,5.9298 l 1.1163,5.79381 -9.14523,-0.0171 -9.14524,-0.0171 1.08123,7.25524 c 0.59468,3.99038 0.98808,7.34805 0.87423,7.46148 -0.11386,0.11343 -2.84064,-0.79088 -6.05953,-2.00957 -3.21888,-1.21869 -6.08284,-2.27344 -6.36435,-2.3439 -0.28152,-0.0705 -1.7579,1.33193 -3.28084,3.1164 -1.52294,1.78446 -3.01228,3.14596 -3.30964,3.02554 -0.29735,-0.12042 -1.65057,-0.66351 -3.00715,-1.20686 l -2.46649,-0.98793 -4.40705,7.12577 c -2.42388,3.91917 -4.43161,7.12447 -4.46161,7.1229 -0.03,-0.001 -1.94493,-2.93296 -4.25541,-6.51418 z m -1.88203,-36.43108 5.69418,-4.28819 3.42274,3.69788 c 1.88251,2.03383 3.59695,3.52721 3.80987,3.31862 0.21292,-0.20859 1.05239,-2.34857 1.86548,-4.75551 l 1.47837,-4.37625 4.89781,-0.12731 c 4.79187,-0.12455 4.89192,-0.15016 4.62484,-1.18388 -0.15014,-0.58111 -0.79525,-2.95232 -1.43358,-5.26936 l -1.16061,-4.2128 4.73917,-2.17311 c 2.60654,-1.19522 4.72854,-2.30162 4.71555,-2.45869 -0.013,-0.15706 -2.14923,-1.89944 -4.74721,-3.87196 l -4.72361,-3.58639 -0.007,-4.85721 c -0.007,-5.45196 0.26554,-5.08267 -4.17889,-5.65507 -1.37703,-0.17735 -2.50354,-0.40428 -2.50335,-0.50429 1.9e-4,-0.10001 0.95559,-1.74165 2.12312,-3.64808 1.8276,-2.98425 2.01099,-3.50764 1.31881,-3.76383 -0.44218,-0.16366 -3.96981,-0.46089 -7.83917,-0.6605 -4.78313,-0.24676 -7.02951,-0.53792 -7.01742,-0.90957 0.01,-0.30066 0.30811,-1.88769 0.66297,-3.52674 0.35486,-1.63906 0.51082,-2.98098 0.34658,-2.98206 -0.16425,-0.001 -2.45769,0.87927 -5.09654,1.95633 l -4.79791,1.95829 -3.4349,-2.21078 c -1.88918,-1.21593 -3.51539,-2.21094 -3.61378,-2.21112 -0.0984,-1.8e-4 -1.08957,1.50054 -2.20262,3.33494 -2.26766,3.7373 -2.12765,3.68914 -8.35303,2.87332 -1.57374,-0.20623 -2.92683,-0.32203 -3.00687,-0.25733 -0.08,0.0647 0.58667,2.02129 1.48157,4.34797 0.89489,2.32668 1.44367,4.30017 1.2195,4.38552 -0.22416,0.0854 -2.36733,-0.41258 -4.76258,-1.10652 -2.39526,-0.69395 -4.44338,-1.17368 -4.55138,-1.06608 -0.10801,0.10761 1.119,2.47838 2.72669,5.26839 l 2.92307,5.07274 -2.68967,4.42686 c -1.47931,2.43478 -2.68995,4.58003 -2.6903,4.76722 -3.5e-4,0.1872 1.4469,1.07952 3.2161,1.98292 5.61865,2.86904 5.55565,2.61661 1.39161,5.57507 -1.9933,1.41619 -3.6353,2.68958 -3.64888,2.82975 -0.0136,0.14018 0.67215,0.66434 1.52387,1.16481 0.85172,0.50047 2.97738,1.82544 4.72369,2.94439 l 3.17511,2.03444 -1.43441,4.60207 c -0.78892,2.53115 -1.35976,4.677 -1.26854,4.76857 0.0912,0.0916 3.68816,-0.56331 7.99319,-1.45527 4.30503,-0.89196 7.93261,-1.51607 8.06129,-1.3869 0.12868,0.12916 0.32965,1.41536 0.44658,2.85823 0.11695,1.44287 0.3641,2.62368 0.54925,2.62403 0.18515,3.4e-4 2.89901,-1.92906 6.03081,-4.28756 z"
       id="path34593"
       transform="scale(0.26458333)" />
    <path
       style="fill:#a98654;fill-opacity:1;fill-rule:evenodd;stroke:#ffffff;stroke-width:0;stroke-miterlimit:4;stroke-dasharray:none"
       d="m 424.03842,522.33749 c -6.70998,-5.63018 -17.34929,-13.53559 -18.66426,-13.86824 -1.31194,-0.33188 -1.21765,-0.34609 -22.31801,3.36191 -8.12421,1.42768 -14.99531,2.58944 -15.26911,2.58169 -0.27381,-0.008 -3.27851,-5.26637 -6.67712,-11.68582 l -6.1793,-11.67172 -15.39049,-0.1614 -15.39049,-0.1614 6.23242,-7.11122 c 3.42784,-3.91117 6.16031,-7.32892 6.07216,-7.59502 -0.0882,-0.26609 -6.31697,-4.28778 -13.84183,-8.93708 -7.52487,-4.64931 -13.81599,-8.58821 -13.98029,-8.75311 -0.16429,-0.16491 3.18865,-1.96039 7.45098,-3.98996 l 7.74968,-3.69013 -7.56838,-8.83522 -7.56838,-8.83522 9.28641,-4.80941 9.2864,-4.80942 -12.79975,-9.93126 c -7.03987,-5.46219 -13.07547,-10.18588 -13.41244,-10.49709 -0.48198,-0.44513 0.76575,-1.10671 5.84916,-3.10138 3.554,-1.39456 6.46196,-2.60443 6.46212,-2.68861 1.5e-4,-0.0842 -2.53822,-2.27466 -5.64084,-4.86772 l -5.64113,-4.71464 11.42551,-5.18007 c 6.28402,-2.84904 11.51169,-5.3162 11.61703,-5.48259 0.10533,-0.16638 -1.27543,-3.38877 -3.06836,-7.16087 -1.79294,-3.77209 -3.22889,-6.89859 -3.191,-6.94778 0.0379,-0.0492 5.10718,0.74184 11.26509,1.75783 6.1579,1.01599 11.23454,1.81457 11.28141,1.77461 0.0469,-0.04 -0.99532,-7.74485 -2.31596,-17.12197 -1.32064,-9.37712 -2.29287,-17.1572 -2.1605,-17.28908 0.13236,-0.13187 4.39192,1.58786 9.46567,3.82163 5.07376,2.23376 9.32294,3.96382 9.44264,3.84457 0.11969,-0.11925 1.79953,-5.82793 3.73298,-12.68596 1.93346,-6.85803 3.59112,-12.54461 3.6837,-12.63685 0.0926,-0.0922 2.51217,1.66643 5.37686,3.90814 9.14179,7.15373 18.30585,13.10629 21.21232,13.77858 1.67043,0.38638 2.48491,-0.39683 3.64555,-3.50557 1.28355,-3.43793 9.23968,-21.59389 9.64289,-22.00516 0.17186,-0.17529 7.4843,2.571 16.24987,6.10287 8.76558,3.53187 15.98021,6.37221 16.03252,6.31187 0.0523,-0.0603 1.44739,-3.43432 3.10017,-7.49773 1.65279,-4.06341 3.06208,-7.46041 3.13176,-7.54889 0.10983,-0.13945 12.60446,11.61607 22.81947,21.46959 l 3.33305,3.2151 13.50568,-3.19827 c 10.76206,-2.54856 13.43854,-3.04302 13.17516,-2.43404 -1.51532,3.50374 -5.47304,15.84601 -5.47534,17.07501 -0.002,1.22773 0.21977,1.59234 1.06998,1.75682 0.59009,0.11416 10.042,0.92451 21.00425,1.80078 13.45419,1.07546 19.86801,1.75993 19.7364,2.10622 -0.10723,0.28215 -1.65772,5.76593 -3.44553,12.18617 l -3.25056,11.67317 1.37419,1.09222 c 0.75581,0.60072 4.54659,3.4345 8.42397,6.2973 l 7.04977,5.20508 -4.20214,2.50908 c -9.60775,5.73674 -15.05349,9.75494 -16.19278,11.94801 -0.69009,1.3284 -0.65564,1.41106 1.6066,3.85603 3.67562,3.9725 8.4014,9.83119 17.20309,21.32717 l 8.1976,10.70698 -5.1695,2.05888 c -7.27999,2.89943 -15.59479,7.08439 -17.38424,8.74973 -1.33952,1.24661 -1.48242,1.61965 -1.22247,3.19125 0.24315,1.47001 2.31073,20.98669 2.77086,26.1552 l 0.13129,1.47476 -6.45532,0.57664 c -7.67596,0.68569 -16.00861,1.71981 -19.3945,2.40696 -4.34956,0.88271 -4.14919,0.13823 -3.33418,12.38823 0.39239,5.8979 0.82491,11.71488 0.96114,12.92663 l 0.2477,2.20319 -6.02803,-1.8644 c -10.67908,-3.30293 -16.3962,-3.83328 -16.40156,-1.52151 -0.003,1.53369 -2.66348,6.47425 -6.67913,12.40586 -2.17461,3.21215 -4.11371,5.93866 -4.3091,6.05893 -0.1954,0.12025 -5.05153,-1.81391 -10.7914,-4.29813 l -10.43612,-4.51678 -7.32818,7.59901 c -4.03051,4.17945 -7.57867,7.58654 -7.8848,7.57131 -0.30614,-0.0152 -2.48548,-1.64617 -4.84298,-3.62429 z m 15.57665,-39.51256 c 2.49995,-4.05211 4.75985,-7.28321 5.02202,-7.18021 0.26216,0.10301 1.5951,0.63523 2.96208,1.18271 l 2.48542,0.99542 2.74191,-3.32027 c 1.50804,-1.82615 2.79097,-3.32018 2.85095,-3.32007 0.06,1.1e-4 3.24652,1.21063 7.08122,2.69004 3.83469,1.4794 7.03993,2.61233 7.12276,2.51761 0.0828,-0.0947 -0.21862,-2.64143 -0.66986,-5.65936 -0.45125,-3.01792 -0.96912,-6.52395 -1.15084,-7.79117 l -0.3304,-2.30403 9.0982,0.17388 c 6.84256,0.13078 9.09835,0.0321 9.09878,-0.39816 3.2e-4,-0.31462 -0.43672,-2.86112 -0.97121,-5.65888 -0.53449,-2.79775 -0.90112,-5.15725 -0.81474,-5.24331 0.0864,-0.0861 2.39091,0.37586 5.12116,1.02649 2.73026,0.65063 5.13829,1.12482 5.3512,1.05375 0.21291,-0.0711 -1.7524,-3.1842 -4.36734,-6.91807 -2.61495,-3.73386 -4.75409,-6.98102 -4.75365,-7.2159 4.4e-4,-0.23488 2.81461,-1.45624 6.25372,-2.71412 3.43911,-1.25789 6.35,-2.53865 6.46866,-2.84614 0.11865,-0.3075 -0.97132,-2.81208 -2.42217,-5.56574 -1.45085,-2.75366 -2.63751,-5.22031 -2.63702,-5.48143 4.8e-4,-0.26113 2.09333,-1.43008 4.65076,-2.59769 l 4.64988,-2.1229 -5.94887,-4.71393 c -3.27188,-2.59266 -6.11096,-4.85311 -6.30906,-5.02321 -0.1981,-0.17011 0.18397,-1.89941 0.84904,-3.84289 l 1.20923,-3.53359 -3.45935,-3.24225 -3.45934,-3.24225 4.72667,-4.48736 4.72668,-4.48735 -1.6172,-0.28417 c -0.88946,-0.15629 -4.60779,-0.71944 -8.26295,-1.25143 -3.65516,-0.53199 -6.73098,-1.0528 -6.83514,-1.15735 -0.10417,-0.10456 0.81331,-2.48117 2.03883,-5.28137 1.22552,-2.80019 2.16014,-5.13568 2.07692,-5.18997 -0.0832,-0.0543 -3.41892,0.0934 -7.41269,0.32824 -3.99375,0.23483 -7.58933,0.3004 -7.99017,0.14573 -0.5649,-0.21798 -0.72727,-1.09115 -0.72205,-3.88284 0.007,-3.48843 -0.027,-3.5941 -1.06698,-3.36255 -3.18721,0.70965 -13.76746,2.16218 -14.12644,1.93939 -0.23065,-0.14315 -0.56675,-1.78521 -0.7469,-3.64902 -0.22213,-2.29834 -0.50899,-3.322 -0.89149,-3.1813 -2.30317,0.84719 -14.76746,4.63971 -14.85925,4.52123 -0.0636,-0.082 -1.34821,-3.15662 -2.85479,-6.8324 -1.50658,-3.67579 -2.90334,-6.98769 -3.10392,-7.35979 -0.25426,-0.4717 -1.27397,0.86239 -3.36774,4.40603 -1.65168,2.79543 -3.18535,5.08224 -3.40815,5.08183 -0.22281,-4.2e-4 -2.27905,-1.35761 -4.56944,-3.01598 -2.29038,-1.65837 -4.40897,-3.16311 -4.70798,-3.34387 -0.31365,-0.18962 -2.28306,1.28076 -4.65536,3.47574 -2.26146,2.09242 -4.19701,3.80423 -4.30123,3.80404 -0.10421,-2e-4 -2.91612,-1.29338 -6.24868,-2.87374 -3.33256,-1.58035 -6.14359,-2.87353 -6.24673,-2.87373 -0.10313,-1.9e-4 -0.19314,3.0048 -0.2,6.67775 -0.007,3.67296 -0.0661,6.67331 -0.13172,6.66744 -0.0656,-0.006 -2.53105,-0.63069 -5.47883,-1.38849 l -5.3596,-1.37782 -0.46311,1.73514 c -0.25471,0.95432 -0.69724,2.80796 -0.98339,4.1192 -0.98759,4.52547 -0.32519,4.14925 -6.97271,3.96026 -3.25532,-0.0926 -5.91876,-0.0101 -5.91875,0.18304 0,0.19323 1.92721,2.85268 4.28269,5.90988 2.35548,3.0572 4.28241,5.70767 4.28207,5.88993 -3.4e-4,0.18226 -1.18191,0.70133 -2.6257,1.15348 -1.4438,0.45215 -2.62525,0.90698 -2.62544,1.01074 -2e-4,0.10376 1.62671,2.89988 3.61535,6.2136 1.98863,3.31372 3.52306,6.11724 3.40983,6.23005 -0.11323,0.11281 -3.40992,0.64328 -7.32599,1.17882 -3.91606,0.53555 -7.48804,1.12048 -7.93772,1.29985 -0.68365,0.27271 -0.1513,1.21308 3.24913,5.73953 2.23671,2.97737 3.99495,5.47121 3.9072,5.54187 -0.0877,0.0707 -2.74642,1.02749 -5.90815,2.12628 -3.16173,1.0988 -6.0616,2.1956 -6.44417,2.43735 -0.55364,0.34985 -0.21005,0.85534 1.68382,2.47721 1.30867,1.12073 3.08262,2.68296 3.94213,3.47163 l 1.56274,1.43394 -2.68754,3.98246 c -1.47815,2.19035 -2.50738,4.13805 -2.28718,4.32822 0.22019,0.19017 4.88845,1.03358 10.3739,1.87424 5.48545,0.84066 10.06398,1.61924 10.1745,1.73018 0.11053,0.11094 -1.56652,3.23771 -3.72676,6.94836 -2.16024,3.71066 -3.74107,6.91878 -3.51294,7.12915 0.22813,0.21037 1.21626,0.64024 2.19584,0.95525 0.97959,0.31502 1.88374,0.73959 2.00923,0.94347 0.12549,0.2039 -2.59048,1.68851 -6.03547,3.29915 -3.44499,1.61065 -6.16983,3.02258 -6.05521,3.13763 0.11462,0.11505 4.02531,1.06545 8.69042,2.11199 4.6651,1.04654 8.60777,2.02903 8.76148,2.18332 0.15371,0.15428 -0.94491,2.88671 -2.44139,6.07206 -1.49647,3.18535 -2.63522,5.87749 -2.53056,5.98254 0.10466,0.10505 3.69643,-0.80596 7.98172,-2.02447 l 7.79144,-2.21548 2.40188,2.79819 c 1.32104,1.53901 3.04452,3.50951 3.82996,4.37887 l 1.42807,1.58066 5.47857,-4.01682 5.47857,-4.01682 5.16086,4.81427 5.16087,4.81426 2.78812,-3.05478 c 1.53346,-1.68013 2.89499,-2.94726 3.02562,-2.81584 0.13063,0.13142 2.08938,3.08658 4.35278,6.56701 2.2634,3.48043 4.26736,6.32116 4.45325,6.31273 0.18589,-0.008 2.38339,-3.3307 4.88333,-7.38282 z"
       id="path37204"
       transform="scale(0.26458333)" />
  </g>
</svg>
