<?xml version="1.0" encoding="UTF-8" standalone="no"?>
<!-- Created with Inkscape (http://www.inkscape.org/) -->

<svg
   width="210mm"
   height="297mm"
   viewBox="0 0 210 297"
   version="1.1"
   id="svg5"
   inkscape:version="1.1.1 (3bf5ae0d25, 2021-09-20)"
   sodipodi:docname="bee.svg"
   xmlns:inkscape="http://www.inkscape.org/namespaces/inkscape"
   xmlns:sodipodi="http://sodipodi.sourceforge.net/DTD/sodipodi-0.dtd"
   xmlns="http://www.w3.org/2000/svg"
   xmlns:svg="http://www.w3.org/2000/svg">
  <sodipodi:namedview
     id="namedview7"
     pagecolor="#505050"
     bordercolor="#ffffff"
     borderopacity="1"
     inkscape:pageshadow="0"
     inkscape:pageopacity="0"
     inkscape:pagecheckerboard="1"
     inkscape:document-units="mm"
     showgrid="false"
     inkscape:zoom="4"
     inkscape:cx="421.5"
     inkscape:cy="386.5"
     inkscape:window-width="1920"
     inkscape:window-height="1052"
     inkscape:window-x="0"
     inkscape:window-y="28"
     inkscape:window-maximized="1"
     inkscape:current-layer="layer1" />
  <defs
     id="defs2">
    <inkscape:path-effect
       effect="powerclip"
       id="path-effect3428"
       is_visible="true"
       lpeversion="1"
       inverse="true"
       flatten="false"
       hide_clip="false"
       message="Use fill-rule evenodd on &lt;b&gt;fill and stroke&lt;/b&gt; dialog if no flatten result after convert clip to paths." />
    <inkscape:path-effect
       effect="powerclip"
       id="path-effect2807"
       is_visible="true"
       lpeversion="1"
       inverse="true"
       flatten="false"
       hide_clip="false"
       message="Use fill-rule evenodd on &lt;b&gt;fill and stroke&lt;/b&gt; dialog if no flatten result after convert clip to paths." />
    <inkscape:path-effect
       effect="powerclip"
       id="path-effect2743"
       is_visible="true"
       lpeversion="1"
       inverse="true"
       flatten="false"
       hide_clip="false"
       message="Use fill-rule evenodd on &lt;b&gt;fill and stroke&lt;/b&gt; dialog if no flatten result after convert clip to paths." />
    <inkscape:path-effect
       effect="powerclip"
       id="path-effect2599"
       is_visible="true"
       lpeversion="1"
       inverse="true"
       flatten="false"
       hide_clip="false"
       message="Use fill-rule evenodd on &lt;b&gt;fill and stroke&lt;/b&gt; dialog if no flatten result after convert clip to paths." />
    <inkscape:path-effect
       effect="powerclip"
       id="path-effect2379"
       is_visible="true"
       lpeversion="1"
       inverse="true"
       flatten="false"
       hide_clip="false"
       message="Use fill-rule evenodd on &lt;b&gt;fill and stroke&lt;/b&gt; dialog if no flatten result after convert clip to paths." />
    <clipPath
       clipPathUnits="userSpaceOnUse"
       id="clipPath2375">
      <ellipse
         style="display:none;fill:#ff0000;stroke:none;stroke-width:0.550526;stroke-linejoin:round;stroke-miterlimit:4;stroke-dasharray:none"
         id="ellipse2377"
         cx="95.508781"
         cy="128.43637"
         rx="20.448936"
         ry="14.42986"
         d="M 115.95772,128.43637 A 20.448936,14.42986 0 0 1 95.508781,142.86623 20.448936,14.42986 0 0 1 75.059845,128.43637 20.448936,14.42986 0 0 1 95.508781,114.00651 20.448936,14.42986 0 0 1 115.95772,128.43637 Z" />
      <path
         id="lpe_path-effect2379"
         style="fill:#ff0000;stroke:none;stroke-width:0.550526;stroke-linejoin:round;stroke-miterlimit:4;stroke-dasharray:none"
         class="powerclip"
         d="M 70.741686,101.81237 H 120.8912 v 40.16934 H 70.741686 Z m 45.216034,26.624 a 20.448936,14.42986 0 0 0 -20.448939,-14.42986 20.448936,14.42986 0 0 0 -20.448936,14.42986 20.448936,14.42986 0 0 0 20.448936,14.42986 20.448936,14.42986 0 0 0 20.448939,-14.42986 z" />
    </clipPath>
    <clipPath
       clipPathUnits="userSpaceOnUse"
       id="clipPath2375-2">
      <ellipse
         style="display:none;fill:#ff0000;stroke:none;stroke-width:0.550526;stroke-linejoin:round;stroke-miterlimit:4;stroke-dasharray:none"
         id="ellipse2377-9"
         cx="95.508781"
         cy="128.43637"
         rx="20.448936"
         ry="14.42986"
         d="M 115.95772,128.43637 A 20.448936,14.42986 0 0 1 95.508781,142.86623 20.448936,14.42986 0 0 1 75.059845,128.43637 20.448936,14.42986 0 0 1 95.508781,114.00651 20.448936,14.42986 0 0 1 115.95772,128.43637 Z" />
      <path
         id="lpe_path-effect2379-1"
         style="fill:#ff0000;stroke:none;stroke-width:0.550526;stroke-linejoin:round;stroke-miterlimit:4;stroke-dasharray:none"
         class="powerclip"
         d="M 70.741686,101.81237 H 120.8912 v 40.16934 H 70.741686 Z m 45.216034,26.624 a 20.448936,14.42986 0 0 0 -20.448939,-14.42986 20.448936,14.42986 0 0 0 -20.448936,14.42986 20.448936,14.42986 0 0 0 20.448936,14.42986 20.448936,14.42986 0 0 0 20.448939,-14.42986 z" />
    </clipPath>
    <clipPath
       clipPathUnits="userSpaceOnUse"
       id="clipath_lpe_path-effect2599">
      <ellipse
         style="display:none;fill:#ff0000;stroke:none;stroke-width:0.550526;stroke-linejoin:round;stroke-miterlimit:4;stroke-dasharray:none"
         id="ellipse2601"
         cx="95.508781"
         cy="128.43637"
         rx="20.448936"
         ry="14.42986" />
    </clipPath>
    <clipPath
       clipPathUnits="userSpaceOnUse"
       id="clipPath2375-7">
      <ellipse
         style="display:none;fill:#ff0000;stroke:none;stroke-width:0.550526;stroke-linejoin:round;stroke-miterlimit:4;stroke-dasharray:none"
         id="ellipse2377-0"
         cx="95.508781"
         cy="128.43637"
         rx="20.448936"
         ry="14.42986"
         d="M 115.95772,128.43637 A 20.448936,14.42986 0 0 1 95.508781,142.86623 20.448936,14.42986 0 0 1 75.059845,128.43637 20.448936,14.42986 0 0 1 95.508781,114.00651 20.448936,14.42986 0 0 1 115.95772,128.43637 Z" />
      <path
         id="lpe_path-effect2379-9"
         style="fill:#ff0000;stroke:none;stroke-width:0.550526;stroke-linejoin:round;stroke-miterlimit:4;stroke-dasharray:none"
         class="powerclip"
         d="M 70.741686,101.81237 H 120.8912 v 40.16934 H 70.741686 Z m 45.216034,26.624 a 20.448936,14.42986 0 0 0 -20.448939,-14.42986 20.448936,14.42986 0 0 0 -20.448936,14.42986 20.448936,14.42986 0 0 0 20.448936,14.42986 20.448936,14.42986 0 0 0 20.448939,-14.42986 z" />
    </clipPath>
    <clipPath
       clipPathUnits="userSpaceOnUse"
       id="clipath_lpe_path-effect2743">
      <ellipse
         style="display:none;fill:#ff0000;stroke:none;stroke-width:0.550526;stroke-linejoin:round;stroke-miterlimit:4;stroke-dasharray:none"
         id="ellipse2745"
         cx="95.508781"
         cy="128.43637"
         rx="20.448936"
         ry="14.42986" />
    </clipPath>
    <clipPath
       clipPathUnits="userSpaceOnUse"
       id="clipath_lpe_path-effect2743-6">
      <ellipse
         style="display:none;fill:#ff0000;stroke:none;stroke-width:0.550526;stroke-linejoin:round;stroke-miterlimit:4;stroke-dasharray:none"
         id="ellipse2745-0"
         cx="95.508781"
         cy="128.43637"
         rx="20.448936"
         ry="14.42986"
         d="M 115.95772,128.43637 A 20.448936,14.42986 0 0 1 95.508781,142.86623 20.448936,14.42986 0 0 1 75.059845,128.43637 20.448936,14.42986 0 0 1 95.508781,114.00651 20.448936,14.42986 0 0 1 115.95772,128.43637 Z" />
      <path
         id="lpe_path-effect2743-6"
         style="fill:#ff0000;stroke:none;stroke-width:0.550526;stroke-linejoin:round;stroke-miterlimit:4;stroke-dasharray:none"
         class="powerclip"
         d="M 70.741686,101.81237 H 120.8912 v 40.16934 H 70.741686 Z m 45.216034,26.624 a 20.448936,14.42986 0 0 0 -20.448939,-14.42986 20.448936,14.42986 0 0 0 -20.448936,14.42986 20.448936,14.42986 0 0 0 20.448936,14.42986 20.448936,14.42986 0 0 0 20.448939,-14.42986 z" />
    </clipPath>
    <clipPath
       clipPathUnits="userSpaceOnUse"
       id="clipath_lpe_path-effect2807">
      <ellipse
         style="display:none;fill:#ff0000;stroke:none;stroke-width:0.550526;stroke-linejoin:round;stroke-miterlimit:4;stroke-dasharray:none"
         id="ellipse2809"
         cx="95.508781"
         cy="128.43637"
         rx="20.448936"
         ry="14.42986" />
    </clipPath>
    <clipPath
       clipPathUnits="userSpaceOnUse"
       id="clipPath2375-6">
      <ellipse
         style="display:none;fill:#ff0000;stroke:none;stroke-width:0.550526;stroke-linejoin:round;stroke-miterlimit:4;stroke-dasharray:none"
         id="ellipse2377-1"
         cx="95.508781"
         cy="128.43637"
         rx="20.448936"
         ry="14.42986"
         d="M 115.95772,128.43637 A 20.448936,14.42986 0 0 1 95.508781,142.86623 20.448936,14.42986 0 0 1 75.059845,128.43637 20.448936,14.42986 0 0 1 95.508781,114.00651 20.448936,14.42986 0 0 1 115.95772,128.43637 Z" />
      <path
         id="lpe_path-effect2379-8"
         style="fill:#ff0000;stroke:none;stroke-width:0.550526;stroke-linejoin:round;stroke-miterlimit:4;stroke-dasharray:none"
         class="powerclip"
         d="M 70.741686,101.81237 H 120.8912 v 40.16934 H 70.741686 Z m 45.216034,26.624 a 20.448936,14.42986 0 0 0 -20.448939,-14.42986 20.448936,14.42986 0 0 0 -20.448936,14.42986 20.448936,14.42986 0 0 0 20.448936,14.42986 20.448936,14.42986 0 0 0 20.448939,-14.42986 z" />
    </clipPath>
    <clipPath
       clipPathUnits="userSpaceOnUse"
       id="clipath_lpe_path-effect3428">
      <ellipse
         style="display:none;fill:#ff0000;stroke:none;stroke-width:0.550526;stroke-linejoin:round;stroke-miterlimit:4;stroke-dasharray:none"
         id="ellipse3430"
         cx="95.508781"
         cy="128.43637"
         rx="20.448936"
         ry="14.42986"
         d="M 115.95772,128.43637 A 20.448936,14.42986 0 0 1 95.508781,142.86623 20.448936,14.42986 0 0 1 75.059845,128.43637 20.448936,14.42986 0 0 1 95.508781,114.00651 20.448936,14.42986 0 0 1 115.95772,128.43637 Z" />
      <path
         id="lpe_path-effect3428"
         style="fill:#ff0000;stroke:none;stroke-width:0.550526;stroke-linejoin:round;stroke-miterlimit:4;stroke-dasharray:none"
         class="powerclip"
         d="M 70.741686,101.81237 H 120.8912 v 40.16934 H 70.741686 Z m 45.216034,26.624 a 20.448936,14.42986 0 0 0 -20.448939,-14.42986 20.448936,14.42986 0 0 0 -20.448936,14.42986 20.448936,14.42986 0 0 0 20.448936,14.42986 20.448936,14.42986 0 0 0 20.448939,-14.42986 z" />
    </clipPath>
  </defs>
  <g
     inkscape:label="Layer 1"
     inkscape:groupmode="layer"
     id="layer1">
    <ellipse
       style="opacity:0.681905;fill:#ffffff;stroke:none;stroke-width:0.529167;stroke-linejoin:round;stroke-miterlimit:4;stroke-dasharray:none"
       id="path3825"
       cx="39.142029"
       cy="-179.83841"
       rx="7.5770912"
       ry="10.664055"
       transform="matrix(0.73865455,-0.67408416,-0.67408416,-0.73865455,0,0)" />
    <ellipse
       style="fill:#ffd42a;stroke-width:0.772181;stroke-linejoin:round"
       id="path868-7"
       cx="-150.62141"
       cy="122.82215"
       rx="22.934963"
       ry="14.847909"
       transform="scale(-1,1)" />
    <ellipse
       style="fill:#d4aa00;stroke-width:0.667194;stroke-linejoin:round"
       id="path868"
       cx="-127.33981"
       cy="116.32253"
       rx="17.122393"
       ry="14.847909"
       transform="scale(-1,1)" />
    <ellipse
       style="fill:#ffffff;stroke:#000000;stroke-width:0.574366;stroke-linejoin:round;stroke-miterlimit:4;stroke-dasharray:none"
       id="path868-3-6"
       cx="-111.75942"
       cy="113.46317"
       transform="scale(-1,1)"
       rx="4.7164907"
       ry="5.6099925" />
    <ellipse
       style="fill:#000000;stroke:none;stroke-width:0.275731;stroke-linejoin:round;stroke-miterlimit:4;stroke-dasharray:none"
       id="path868-3-6-5"
       cx="-111.07817"
       cy="114.26791"
       transform="scale(-1,1)"
       rx="2.4194219"
       ry="2.5203614" />
    <ellipse
       style="fill:#ffffff;stroke:#000000;stroke-width:0.566354;stroke-linejoin:round;stroke-miterlimit:4;stroke-dasharray:none"
       id="path868-3"
       cx="-118.77863"
       cy="111.18433"
       transform="scale(-1,1)"
       rx="6.74226"
       ry="7.7658424" />
    <ellipse
       style="fill:#000000;stroke:none;stroke-width:0.407331;stroke-linejoin:round;stroke-miterlimit:4;stroke-dasharray:none"
       id="path868-3-6-5-3"
       cx="-118.1181"
       cy="112.92757"
       transform="scale(-1,1)"
       rx="3.3448517"
       ry="3.9785078" />
    <path
       style="fill:#000000;stroke:none;stroke-width:0.557704;stroke-linejoin:round;stroke-miterlimit:4;stroke-dasharray:none;opacity:1"
       id="path2105"
       clip-path="url(#clipPath2375)"
       sodipodi:type="arc"
       sodipodi:cx="95.816444"
       sodipodi:cy="121.89704"
       sodipodi:rx="20.074759"
       sodipodi:ry="15.08467"
       d="M 115.8912,121.89704 A 20.074759,15.08467 0 0 1 95.816444,136.98171 20.074759,15.08467 0 0 1 75.741686,121.89704 20.074759,15.08467 0 0 1 95.816444,106.81237 20.074759,15.08467 0 0 1 115.8912,121.89704 Z"
       transform="matrix(-0.41586525,0.79709311,-0.79709311,-0.41586525,278.23486,95.334514)"
       inkscape:path-effect="#path-effect2379" />
    <path
       style="fill:#000000;stroke:none;stroke-width:0.557704;stroke-linejoin:round;stroke-miterlimit:4;stroke-dasharray:none"
       id="path2105-7"
       clip-path="url(#clipath_lpe_path-effect3428)"
       sodipodi:type="arc"
       sodipodi:cx="95.816444"
       sodipodi:cy="121.89704"
       sodipodi:rx="20.074759"
       sodipodi:ry="15.08467"
       transform="matrix(-0.27450705,0.85612336,-0.85612336,-0.27450705,284.26687,74.802702)"
       d="M 115.8912,121.89704 A 20.074759,15.08467 0 0 1 95.816444,136.98171 20.074759,15.08467 0 0 1 75.741686,121.89704 20.074759,15.08467 0 0 1 95.816444,106.81237 20.074759,15.08467 0 0 1 115.8912,121.89704 Z"
       inkscape:path-effect="#path-effect3428" />
    <ellipse
       style="opacity:0.681905;fill:#ffffff;stroke:none;stroke-width:0.529167;stroke-linejoin:round;stroke-miterlimit:4;stroke-dasharray:none"
       id="path3825-2"
       cx="-189.52393"
       cy="29.344994"
       rx="7.5770912"
       ry="10.664055"
       transform="rotate(-137.61693)"
       inkscape:transform-center-x="-6.3610148"
       inkscape:transform-center-y="-27.314946" />
    <path
       style="fill:none;stroke:#000000;stroke-width:0.264583px;stroke-linecap:butt;stroke-linejoin:miter;stroke-opacity:1"
       d="m 116.54896,104.0474 c -2.91042,-8.731256 -5.55625,-3.04271 -5.55625,-3.04271"
       id="path4668" />
  </g>
</svg>
