<?xml version="1.0" encoding="UTF-8" standalone="no"?>
<!-- Created with Inkscape (http://www.inkscape.org/) -->

<svg
   width="1024"
   height="600"
   viewBox="0 0 270.93332 158.75001"
   version="1.1"
   id="svg5"
   inkscape:version="1.1.1 (3bf5ae0d25, 2021-09-20)"
   sodipodi:docname="plains-ground.svg"
   inkscape:export-filename="/home/davran/Documents/Code/godot/KajamGame/Assets/Vectors/environments/plains/plains-ground.png"
   inkscape:export-xdpi="150"
   inkscape:export-ydpi="150"
   xmlns:inkscape="http://www.inkscape.org/namespaces/inkscape"
   xmlns:sodipodi="http://sodipodi.sourceforge.net/DTD/sodipodi-0.dtd"
   xmlns="http://www.w3.org/2000/svg"
   xmlns:svg="http://www.w3.org/2000/svg">
  <sodipodi:namedview
     id="namedview7"
     pagecolor="#505050"
     bordercolor="#ffffff"
     borderopacity="1"
     inkscape:pageshadow="0"
     inkscape:pageopacity="0"
     inkscape:pagecheckerboard="1"
     inkscape:document-units="mm"
     showgrid="false"
     units="px"
     width="200px"
     inkscape:lockguides="false"
     inkscape:zoom="0.70710678"
     inkscape:cx="458.20519"
     inkscape:cy="345.06811"
     inkscape:window-width="1920"
     inkscape:window-height="1052"
     inkscape:window-x="0"
     inkscape:window-y="28"
     inkscape:window-maximized="1"
     inkscape:current-layer="layer2" />
  <defs
     id="defs2" />
  <g
     inkscape:groupmode="layer"
     id="layer2"
     inkscape:label="fg">
    <path
       sodipodi:type="star"
       style="opacity:1;fill:#5aa02c;fill-opacity:1;stroke-width:3.78709;stroke-linejoin:round"
       id="path2363"
       inkscape:flatsided="false"
       sodipodi:sides="7"
       sodipodi:cx="56.354675"
       sodipodi:cy="19.819653"
       sodipodi:r1="24.451311"
       sodipodi:r2="12.225656"
       sodipodi:arg1="1.0153026"
       sodipodi:arg2="1.4641016"
       inkscape:rounded="0.13"
       inkscape:randomized="0"
       d="M 69.249389,40.594469 C 67.65383,41.584815 59.523858,31.775803 57.656615,31.975787 55.789372,32.175772 49.92109,43.484018 48.151992,42.854031 46.382894,42.224045 48.982934,29.751957 47.662373,28.416776 46.341811,27.081595 33.841855,29.544164 33.231384,27.768237 32.620912,25.99231 43.993081,20.248884 44.213612,18.383955 44.434142,16.519027 34.715232,8.2815542 35.723085,6.6969964 36.730938,5.1124384 48.311761,10.422591 49.907319,9.4322442 51.502877,8.4418978 51.883552,-4.292632 53.750795,-4.4926164 55.618038,-4.6926009 58.686919,7.6724767 60.456017,8.3024634 62.225116,8.93245 72.418718,1.2902239 73.73928,2.6254052 75.059841,3.9605867 67.30585,14.069434 67.916321,15.845361 c 0.610472,1.775927 12.941012,4.980756 12.720482,6.845685 -0.220531,1.864928 -12.95848,2.105377 -13.966333,3.689935 -1.007853,1.584558 4.174477,13.223141 2.578919,14.213488 z"
       transform="matrix(0.20478657,0,0,0.20478657,14.419904,116.43782)"
       inkscape:transform-center-x="-0.11258539"
       inkscape:transform-center-y="-0.36981476" />
    <path
       sodipodi:type="star"
       style="opacity:1;fill:#5aa02c;fill-opacity:1;stroke-width:3.78709;stroke-linejoin:round"
       id="path2363-5-3"
       inkscape:flatsided="false"
       sodipodi:sides="5"
       sodipodi:cx="56.354675"
       sodipodi:cy="19.819653"
       sodipodi:r1="24.451311"
       sodipodi:r2="12.225656"
       sodipodi:arg1="1.0153026"
       sodipodi:arg2="1.6436211"
       inkscape:rounded="0.13"
       inkscape:randomized="0"
       transform="matrix(0.24842926,0.003583,-0.003583,0.24842926,79.755331,114.43119)"
       inkscape:transform-center-x="-0.16310269"
       inkscape:transform-center-y="-0.42300866"
       d="M 69.249389,40.594469 C 67.45593,41.70765 57.570382,32.166489 55.465131,32.012903 53.359881,31.859317 42.194244,39.864714 40.581337,38.503025 38.968429,37.141336 44.98781,24.791241 44.48332,22.741568 43.978831,20.691895 32.914875,12.546547 33.711503,10.591796 34.50813,8.637044 48.113859,10.545426 49.907318,9.4322447 51.700777,8.3190632 56.028513,-4.720435 58.133764,-4.566849 c 2.10525,0.153586 4.494673,13.6831263 6.10758,15.044815 1.612908,1.361689 15.351552,1.448184 15.856041,3.497857 0.504489,2.049673 -11.624496,8.503006 -12.421123,10.457758 -0.796627,1.954751 3.366586,15.047706 1.573127,16.160888 z" />
    <path
       sodipodi:type="star"
       style="opacity:1;fill:#5aa02c;fill-opacity:1;stroke-width:3.78709;stroke-linejoin:round"
       id="path2363-5-3-9"
       inkscape:flatsided="false"
       sodipodi:sides="5"
       sodipodi:cx="56.354675"
       sodipodi:cy="19.819653"
       sodipodi:r1="24.451311"
       sodipodi:r2="12.225656"
       sodipodi:arg1="1.0153026"
       sodipodi:arg2="1.6436211"
       inkscape:rounded="0.13"
       inkscape:randomized="0"
       transform="matrix(0.1088976,0.05040593,-0.05040593,0.1088976,69.328415,114.55431)"
       inkscape:transform-center-x="-0.11136182"
       inkscape:transform-center-y="0.1648021"
       d="M 69.249389,40.594469 C 67.45593,41.70765 57.570382,32.166489 55.465131,32.012903 53.359881,31.859317 42.194244,39.864714 40.581337,38.503025 38.968429,37.141336 44.98781,24.791241 44.48332,22.741568 43.978831,20.691895 32.914875,12.546547 33.711503,10.591796 34.50813,8.637044 48.113859,10.545426 49.907318,9.4322447 51.700777,8.3190632 56.028513,-4.720435 58.133764,-4.566849 c 2.10525,0.153586 4.494673,13.6831263 6.10758,15.044815 1.612908,1.361689 15.351552,1.448184 15.856041,3.497857 0.504489,2.049673 -11.624496,8.503006 -12.421123,10.457758 -0.796627,1.954751 3.366586,15.047706 1.573127,16.160888 z" />
    <path
       sodipodi:type="star"
       style="opacity:1;fill:#ff8080;fill-opacity:1;stroke-width:3.78709;stroke-linejoin:round"
       id="path2363-5-3-2"
       inkscape:flatsided="false"
       sodipodi:sides="8"
       sodipodi:cx="56.354675"
       sodipodi:cy="19.819653"
       sodipodi:r1="24.451311"
       sodipodi:r2="12.225656"
       sodipodi:arg1="1.0153026"
       sodipodi:arg2="1.4080017"
       inkscape:rounded="0.13"
       inkscape:randomized="0"
       transform="matrix(0.25649188,6.6069157e-5,-6.6069157e-5,0.25649188,50.977639,114.1673)"
       inkscape:transform-center-x="0.44044251"
       inkscape:transform-center-y="-0.82368323"
       d="M 69.249389,40.594469 C 67.707086,41.55176 60.127408,31.589455 58.336167,31.883663 56.544926,32.177871 52.550081,44.041271 50.782601,43.627605 49.015121,43.21394 50.699893,30.809884 49.225258,29.751322 47.750623,28.69276 36.53715,34.256668 35.579859,32.714366 34.622568,31.172063 44.584873,23.592385 44.290665,21.801144 43.996457,20.009903 32.133057,16.015058 32.546723,14.247578 32.960388,12.480099 45.364443,14.164871 46.423006,12.690235 47.481568,11.2156 41.91766,0.00212758 43.459962,-0.95516359 45.002265,-1.9124548 52.581942,8.0498504 54.373184,7.7556422 56.164425,7.4614341 60.15927,-4.4019655 61.92675,-3.9883 63.694229,-3.5746345 62.009457,8.8294206 63.484093,9.8879829 64.958728,10.946545 76.1722,5.3826368 77.129491,6.9249393 78.086783,8.4672419 68.124477,16.04692 68.418686,17.838161 c 0.294208,1.791241 12.157607,5.786086 11.743942,7.553566 -0.413666,1.767479 -12.817721,0.08271 -13.876283,1.557343 -1.058562,1.474635 4.505346,12.688108 2.963044,13.645399 z" />
    <path
       sodipodi:type="star"
       style="opacity:1;fill:#88aa00;fill-opacity:1;stroke-width:3.78709;stroke-linejoin:round"
       id="path2363-5-3-2-1"
       inkscape:flatsided="false"
       sodipodi:sides="8"
       sodipodi:cx="56.354675"
       sodipodi:cy="19.819653"
       sodipodi:r1="24.451311"
       sodipodi:r2="12.225656"
       sodipodi:arg1="1.0153026"
       sodipodi:arg2="1.4080017"
       inkscape:rounded="0.13"
       inkscape:randomized="0"
       transform="matrix(-0.25649188,6.6069157e-5,6.6069157e-5,0.25649188,132.13616,114.69147)"
       inkscape:transform-center-x="-0.4404404"
       inkscape:transform-center-y="-0.82368146"
       d="M 69.249389,40.594469 C 67.707086,41.55176 60.127408,31.589455 58.336167,31.883663 56.544926,32.177871 52.550081,44.041271 50.782601,43.627605 49.015121,43.21394 50.699893,30.809884 49.225258,29.751322 47.750623,28.69276 36.53715,34.256668 35.579859,32.714366 34.622568,31.172063 44.584873,23.592385 44.290665,21.801144 43.996457,20.009903 32.133057,16.015058 32.546723,14.247578 32.960388,12.480099 45.364443,14.164871 46.423006,12.690235 47.481568,11.2156 41.91766,0.00212758 43.459962,-0.95516359 45.002265,-1.9124548 52.581942,8.0498504 54.373184,7.7556422 56.164425,7.4614341 60.15927,-4.4019655 61.92675,-3.9883 63.694229,-3.5746345 62.009457,8.8294206 63.484093,9.8879829 64.958728,10.946545 76.1722,5.3826368 77.129491,6.9249393 78.086783,8.4672419 68.124477,16.04692 68.418686,17.838161 c 0.294208,1.791241 12.157607,5.786086 11.743942,7.553566 -0.413666,1.767479 -12.817721,0.08271 -13.876283,1.557343 -1.058562,1.474635 4.505346,12.688108 2.963044,13.645399 z" />
    <path
       sodipodi:type="star"
       style="opacity:1;fill:#b9b700;fill-opacity:1;stroke-width:3.78709;stroke-linejoin:round"
       id="path2363-5-3-2-1-2"
       inkscape:flatsided="false"
       sodipodi:sides="8"
       sodipodi:cx="56.354675"
       sodipodi:cy="19.819653"
       sodipodi:r1="24.451311"
       sodipodi:r2="12.225656"
       sodipodi:arg1="1.0153026"
       sodipodi:arg2="1.4080017"
       inkscape:rounded="0.13"
       inkscape:randomized="0"
       transform="matrix(0.30359867,7.8203277e-5,-7.8203277e-5,0.30359867,-2.2123767,113.49824)"
       inkscape:transform-center-x="0.52133696"
       inkscape:transform-center-y="-0.97495185"
       d="M 69.249389,40.594469 C 67.707086,41.55176 60.127408,31.589455 58.336167,31.883663 56.544926,32.177871 52.550081,44.041271 50.782601,43.627605 49.015121,43.21394 50.699893,30.809884 49.225258,29.751322 47.750623,28.69276 36.53715,34.256668 35.579859,32.714366 34.622568,31.172063 44.584873,23.592385 44.290665,21.801144 43.996457,20.009903 32.133057,16.015058 32.546723,14.247578 32.960388,12.480099 45.364443,14.164871 46.423006,12.690235 47.481568,11.2156 41.91766,0.00212758 43.459962,-0.95516359 45.002265,-1.9124548 52.581942,8.0498504 54.373184,7.7556422 56.164425,7.4614341 60.15927,-4.4019655 61.92675,-3.9883 63.694229,-3.5746345 62.009457,8.8294206 63.484093,9.8879829 64.958728,10.946545 76.1722,5.3826368 77.129491,6.9249393 78.086783,8.4672419 68.124477,16.04692 68.418686,17.838161 c 0.294208,1.791241 12.157607,5.786086 11.743942,7.553566 -0.413666,1.767479 -12.817721,0.08271 -13.876283,1.557343 -1.058562,1.474635 4.505346,12.688108 2.963044,13.645399 z" />
    <path
       sodipodi:type="star"
       style="opacity:1;fill:#5aa02c;fill-opacity:1;stroke-width:3.78709;stroke-linejoin:round"
       id="path2363-5-5"
       inkscape:flatsided="false"
       sodipodi:sides="6"
       sodipodi:cx="56.354675"
       sodipodi:cy="19.819653"
       sodipodi:r1="24.451311"
       sodipodi:r2="12.225656"
       sodipodi:arg1="1.0153026"
       sodipodi:arg2="1.5389014"
       inkscape:rounded="0.13"
       inkscape:randomized="0"
       transform="matrix(0.11779416,0,0,0.11779416,97.593409,116.55553)"
       inkscape:transform-center-x="-0.064760361"
       inkscape:transform-center-y="-0.2127162"
       d="M 69.249389,40.594469 C 67.575865,41.633207 58.713229,31.976278 56.744546,32.03909 54.775863,32.101902 46.546849,42.304154 44.810513,41.37421 43.074178,40.444265 47.006006,27.940532 45.967267,26.267009 44.928528,24.593486 31.978612,22.568077 31.9158,20.599394 31.852988,18.630711 44.647452,15.783907 45.577397,14.047571 46.507341,12.311236 41.786439,0.08357499 43.459962,-0.95516359 45.133486,-1.9939022 53.996122,7.6630273 55.964805,7.600215 c 1.968683,-0.062812 10.197697,-10.2650642 11.934032,-9.3351197 1.736336,0.92994447 -2.195492,13.4336777 -1.156753,15.1072007 1.038738,1.673524 13.988654,3.698932 14.051466,5.667615 0.06281,1.968684 -12.731652,4.815487 -13.661596,6.551823 -0.929945,1.736336 3.790958,13.963996 2.117435,15.002735 z" />
    <path
       sodipodi:type="star"
       style="opacity:1;fill:#5aa02c;fill-opacity:1;stroke-width:3.78709;stroke-linejoin:round"
       id="path2363-5-5-6"
       inkscape:flatsided="false"
       sodipodi:sides="6"
       sodipodi:cx="56.354675"
       sodipodi:cy="19.819653"
       sodipodi:r1="24.451311"
       sodipodi:r2="12.225656"
       sodipodi:arg1="1.0153026"
       sodipodi:arg2="1.5389014"
       inkscape:rounded="0.13"
       inkscape:randomized="0"
       transform="matrix(0.22774681,-0.26529981,0.26529981,0.22774681,20.824638,133.25111)"
       inkscape:transform-center-x="0.35388021"
       inkscape:transform-center-y="-0.55712549"
       d="M 69.249389,40.594469 C 67.575865,41.633207 58.713229,31.976278 56.744546,32.03909 54.775863,32.101902 46.546849,42.304154 44.810513,41.37421 43.074178,40.444265 47.006006,27.940532 45.967267,26.267009 44.928528,24.593486 31.978612,22.568077 31.9158,20.599394 31.852988,18.630711 44.647452,15.783907 45.577397,14.047571 46.507341,12.311236 41.786439,0.08357499 43.459962,-0.95516359 45.133486,-1.9939022 53.996122,7.6630273 55.964805,7.600215 c 1.968683,-0.062812 10.197697,-10.2650642 11.934032,-9.3351197 1.736336,0.92994447 -2.195492,13.4336777 -1.156753,15.1072007 1.038738,1.673524 13.988654,3.698932 14.051466,5.667615 0.06281,1.968684 -12.731652,4.815487 -13.661596,6.551823 -0.929945,1.736336 3.790958,13.963996 2.117435,15.002735 z" />
    <path
       sodipodi:type="star"
       style="opacity:1;fill:#5aa02c;fill-opacity:1;stroke-width:3.78709;stroke-linejoin:round"
       id="path2363-8"
       inkscape:flatsided="false"
       sodipodi:sides="7"
       sodipodi:cx="56.354675"
       sodipodi:cy="19.819653"
       sodipodi:r1="24.451311"
       sodipodi:r2="12.225656"
       sodipodi:arg1="1.0153026"
       sodipodi:arg2="1.4641016"
       inkscape:rounded="0.13"
       inkscape:randomized="0"
       transform="matrix(0.20478657,0,0,0.20478657,147.65842,117.13222)"
       inkscape:transform-center-x="-0.11258539"
       inkscape:transform-center-y="-0.36981476"
       d="M 69.249389,40.594469 C 67.65383,41.584815 59.523858,31.775803 57.656615,31.975787 55.789372,32.175772 49.92109,43.484018 48.151992,42.854031 46.382894,42.224045 48.982934,29.751957 47.662373,28.416776 46.341811,27.081595 33.841855,29.544164 33.231384,27.768237 32.620912,25.99231 43.993081,20.248884 44.213612,18.383955 44.434142,16.519027 34.715232,8.2815542 35.723085,6.6969964 36.730938,5.1124384 48.311761,10.422591 49.907319,9.4322442 51.502877,8.4418978 51.883552,-4.292632 53.750795,-4.4926164 55.618038,-4.6926009 58.686919,7.6724767 60.456017,8.3024634 62.225116,8.93245 72.418718,1.2902239 73.73928,2.6254052 75.059841,3.9605867 67.30585,14.069434 67.916321,15.845361 c 0.610472,1.775927 12.941012,4.980756 12.720482,6.845685 -0.220531,1.864928 -12.95848,2.105377 -13.966333,3.689935 -1.007853,1.584558 4.174477,13.223141 2.578919,14.213488 z" />
    <path
       sodipodi:type="star"
       style="opacity:1;fill:#5aa02c;fill-opacity:1;stroke-width:3.78709;stroke-linejoin:round"
       id="path2363-5-3-97"
       inkscape:flatsided="false"
       sodipodi:sides="5"
       sodipodi:cx="56.354675"
       sodipodi:cy="19.819653"
       sodipodi:r1="24.451311"
       sodipodi:r2="12.225656"
       sodipodi:arg1="1.0153026"
       sodipodi:arg2="1.6436211"
       inkscape:rounded="0.13"
       inkscape:randomized="0"
       transform="matrix(0.24842926,0.003583,-0.003583,0.24842926,212.99385,115.12559)"
       inkscape:transform-center-x="-0.16310269"
       inkscape:transform-center-y="-0.42300866"
       d="M 69.249389,40.594469 C 67.45593,41.70765 57.570382,32.166489 55.465131,32.012903 53.359881,31.859317 42.194244,39.864714 40.581337,38.503025 38.968429,37.141336 44.98781,24.791241 44.48332,22.741568 43.978831,20.691895 32.914875,12.546547 33.711503,10.591796 34.50813,8.637044 48.113859,10.545426 49.907318,9.4322447 51.700777,8.3190632 56.028513,-4.720435 58.133764,-4.566849 c 2.10525,0.153586 4.494673,13.6831263 6.10758,15.044815 1.612908,1.361689 15.351552,1.448184 15.856041,3.497857 0.504489,2.049673 -11.624496,8.503006 -12.421123,10.457758 -0.796627,1.954751 3.366586,15.047706 1.573127,16.160888 z" />
    <path
       sodipodi:type="star"
       style="opacity:1;fill:#5aa02c;fill-opacity:1;stroke-width:3.78709;stroke-linejoin:round"
       id="path2363-5-3-9-3"
       inkscape:flatsided="false"
       sodipodi:sides="5"
       sodipodi:cx="56.354675"
       sodipodi:cy="19.819653"
       sodipodi:r1="24.451311"
       sodipodi:r2="12.225656"
       sodipodi:arg1="1.0153026"
       sodipodi:arg2="1.6436211"
       inkscape:rounded="0.13"
       inkscape:randomized="0"
       transform="matrix(0.1088976,0.05040593,-0.05040593,0.1088976,202.56694,115.24871)"
       inkscape:transform-center-x="-0.11136182"
       inkscape:transform-center-y="0.1648021"
       d="M 69.249389,40.594469 C 67.45593,41.70765 57.570382,32.166489 55.465131,32.012903 53.359881,31.859317 42.194244,39.864714 40.581337,38.503025 38.968429,37.141336 44.98781,24.791241 44.48332,22.741568 43.978831,20.691895 32.914875,12.546547 33.711503,10.591796 34.50813,8.637044 48.113859,10.545426 49.907318,9.4322447 51.700777,8.3190632 56.028513,-4.720435 58.133764,-4.566849 c 2.10525,0.153586 4.494673,13.6831263 6.10758,15.044815 1.612908,1.361689 15.351552,1.448184 15.856041,3.497857 0.504489,2.049673 -11.624496,8.503006 -12.421123,10.457758 -0.796627,1.954751 3.366586,15.047706 1.573127,16.160888 z" />
    <path
       sodipodi:type="star"
       style="opacity:1;fill:#ff8080;fill-opacity:1;stroke-width:3.78709;stroke-linejoin:round"
       id="path2363-5-3-2-6"
       inkscape:flatsided="false"
       sodipodi:sides="8"
       sodipodi:cx="56.354675"
       sodipodi:cy="19.819653"
       sodipodi:r1="24.451311"
       sodipodi:r2="12.225656"
       sodipodi:arg1="1.0153026"
       sodipodi:arg2="1.4080017"
       inkscape:rounded="0.13"
       inkscape:randomized="0"
       transform="matrix(0.25649188,6.6069157e-5,-6.6069157e-5,0.25649188,184.21616,114.8617)"
       inkscape:transform-center-x="0.44044251"
       inkscape:transform-center-y="-0.82368323"
       d="M 69.249389,40.594469 C 67.707086,41.55176 60.127408,31.589455 58.336167,31.883663 56.544926,32.177871 52.550081,44.041271 50.782601,43.627605 49.015121,43.21394 50.699893,30.809884 49.225258,29.751322 47.750623,28.69276 36.53715,34.256668 35.579859,32.714366 34.622568,31.172063 44.584873,23.592385 44.290665,21.801144 43.996457,20.009903 32.133057,16.015058 32.546723,14.247578 32.960388,12.480099 45.364443,14.164871 46.423006,12.690235 47.481568,11.2156 41.91766,0.00212758 43.459962,-0.95516359 45.002265,-1.9124548 52.581942,8.0498504 54.373184,7.7556422 56.164425,7.4614341 60.15927,-4.4019655 61.92675,-3.9883 63.694229,-3.5746345 62.009457,8.8294206 63.484093,9.8879829 64.958728,10.946545 76.1722,5.3826368 77.129491,6.9249393 78.086783,8.4672419 68.124477,16.04692 68.418686,17.838161 c 0.294208,1.791241 12.157607,5.786086 11.743942,7.553566 -0.413666,1.767479 -12.817721,0.08271 -13.876283,1.557343 -1.058562,1.474635 4.505346,12.688108 2.963044,13.645399 z" />
    <path
       sodipodi:type="star"
       style="opacity:1;fill:#88aa00;fill-opacity:1;stroke-width:3.78709;stroke-linejoin:round"
       id="path2363-5-3-2-1-1"
       inkscape:flatsided="false"
       sodipodi:sides="8"
       sodipodi:cx="56.354675"
       sodipodi:cy="19.819653"
       sodipodi:r1="24.451311"
       sodipodi:r2="12.225656"
       sodipodi:arg1="1.0153026"
       sodipodi:arg2="1.4080017"
       inkscape:rounded="0.13"
       inkscape:randomized="0"
       transform="matrix(-0.25649188,6.6069157e-5,6.6069157e-5,0.25649188,270.93093,115.12129)"
       inkscape:transform-center-x="-0.4404404"
       inkscape:transform-center-y="-0.82368146"
       d="M 69.249389,40.594469 C 67.707086,41.55176 60.127408,31.589455 58.336167,31.883663 56.544926,32.177871 52.550081,44.041271 50.782601,43.627605 49.015121,43.21394 50.699893,30.809884 49.225258,29.751322 47.750623,28.69276 36.53715,34.256668 35.579859,32.714366 34.622568,31.172063 44.584873,23.592385 44.290665,21.801144 43.996457,20.009903 32.133057,16.015058 32.546723,14.247578 32.960388,12.480099 45.364443,14.164871 46.423006,12.690235 47.481568,11.2156 41.91766,0.00212758 43.459962,-0.95516359 45.002265,-1.9124548 52.581942,8.0498504 54.373184,7.7556422 56.164425,7.4614341 60.15927,-4.4019655 61.92675,-3.9883 63.694229,-3.5746345 62.009457,8.8294206 63.484093,9.8879829 64.958728,10.946545 76.1722,5.3826368 77.129491,6.9249393 78.086783,8.4672419 68.124477,16.04692 68.418686,17.838161 c 0.294208,1.791241 12.157607,5.786086 11.743942,7.553566 -0.413666,1.767479 -12.817721,0.08271 -13.876283,1.557343 -1.058562,1.474635 4.505346,12.688108 2.963044,13.645399 z" />
    <path
       sodipodi:type="star"
       style="opacity:1;fill:#b9b700;fill-opacity:1;stroke-width:3.78709;stroke-linejoin:round"
       id="path2363-5-3-2-1-2-2"
       inkscape:flatsided="false"
       sodipodi:sides="8"
       sodipodi:cx="56.354675"
       sodipodi:cy="19.819653"
       sodipodi:r1="24.451311"
       sodipodi:r2="12.225656"
       sodipodi:arg1="1.0153026"
       sodipodi:arg2="1.4080017"
       inkscape:rounded="0.13"
       inkscape:randomized="0"
       transform="matrix(0.30359867,7.8203277e-5,-7.8203277e-5,0.30359867,131.02614,114.19264)"
       inkscape:transform-center-x="0.52133696"
       inkscape:transform-center-y="-0.97495185"
       d="M 69.249389,40.594469 C 67.707086,41.55176 60.127408,31.589455 58.336167,31.883663 56.544926,32.177871 52.550081,44.041271 50.782601,43.627605 49.015121,43.21394 50.699893,30.809884 49.225258,29.751322 47.750623,28.69276 36.53715,34.256668 35.579859,32.714366 34.622568,31.172063 44.584873,23.592385 44.290665,21.801144 43.996457,20.009903 32.133057,16.015058 32.546723,14.247578 32.960388,12.480099 45.364443,14.164871 46.423006,12.690235 47.481568,11.2156 41.91766,0.00212758 43.459962,-0.95516359 45.002265,-1.9124548 52.581942,8.0498504 54.373184,7.7556422 56.164425,7.4614341 60.15927,-4.4019655 61.92675,-3.9883 63.694229,-3.5746345 62.009457,8.8294206 63.484093,9.8879829 64.958728,10.946545 76.1722,5.3826368 77.129491,6.9249393 78.086783,8.4672419 68.124477,16.04692 68.418686,17.838161 c 0.294208,1.791241 12.157607,5.786086 11.743942,7.553566 -0.413666,1.767479 -12.817721,0.08271 -13.876283,1.557343 -1.058562,1.474635 4.505346,12.688108 2.963044,13.645399 z" />
    <path
       sodipodi:type="star"
       style="opacity:1;fill:#5aa02c;fill-opacity:1;stroke-width:3.78709;stroke-linejoin:round"
       id="path2363-5-5-9"
       inkscape:flatsided="false"
       sodipodi:sides="6"
       sodipodi:cx="56.354675"
       sodipodi:cy="19.819653"
       sodipodi:r1="24.451311"
       sodipodi:r2="12.225656"
       sodipodi:arg1="1.0153026"
       sodipodi:arg2="1.5389014"
       inkscape:rounded="0.13"
       inkscape:randomized="0"
       transform="matrix(0.11779416,0,0,0.11779416,230.83193,117.24993)"
       inkscape:transform-center-x="-0.064760361"
       inkscape:transform-center-y="-0.2127162"
       d="M 69.249389,40.594469 C 67.575865,41.633207 58.713229,31.976278 56.744546,32.03909 54.775863,32.101902 46.546849,42.304154 44.810513,41.37421 43.074178,40.444265 47.006006,27.940532 45.967267,26.267009 44.928528,24.593486 31.978612,22.568077 31.9158,20.599394 31.852988,18.630711 44.647452,15.783907 45.577397,14.047571 46.507341,12.311236 41.786439,0.08357499 43.459962,-0.95516359 45.133486,-1.9939022 53.996122,7.6630273 55.964805,7.600215 c 1.968683,-0.062812 10.197697,-10.2650642 11.934032,-9.3351197 1.736336,0.92994447 -2.195492,13.4336777 -1.156753,15.1072007 1.038738,1.673524 13.988654,3.698932 14.051466,5.667615 0.06281,1.968684 -12.731652,4.815487 -13.661596,6.551823 -0.929945,1.736336 3.790958,13.963996 2.117435,15.002735 z" />
    <path
       sodipodi:type="star"
       style="opacity:1;fill:#5aa02c;fill-opacity:1;stroke-width:3.78709;stroke-linejoin:round"
       id="path2363-5-5-6-3"
       inkscape:flatsided="false"
       sodipodi:sides="6"
       sodipodi:cx="56.354675"
       sodipodi:cy="19.819653"
       sodipodi:r1="24.451311"
       sodipodi:r2="12.225656"
       sodipodi:arg1="1.0153026"
       sodipodi:arg2="1.5389014"
       inkscape:rounded="0.13"
       inkscape:randomized="0"
       transform="matrix(0.22774681,-0.26529981,0.26529981,0.22774681,154.06316,133.94551)"
       inkscape:transform-center-x="0.35388021"
       inkscape:transform-center-y="-0.55712549"
       d="M 69.249389,40.594469 C 67.575865,41.633207 58.713229,31.976278 56.744546,32.03909 54.775863,32.101902 46.546849,42.304154 44.810513,41.37421 43.074178,40.444265 47.006006,27.940532 45.967267,26.267009 44.928528,24.593486 31.978612,22.568077 31.9158,20.599394 31.852988,18.630711 44.647452,15.783907 45.577397,14.047571 46.507341,12.311236 41.786439,0.08357499 43.459962,-0.95516359 45.133486,-1.9939022 53.996122,7.6630273 55.964805,7.600215 c 1.968683,-0.062812 10.197697,-10.2650642 11.934032,-9.3351197 1.736336,0.92994447 -2.195492,13.4336777 -1.156753,15.1072007 1.038738,1.673524 13.988654,3.698932 14.051466,5.667615 0.06281,1.968684 -12.731652,4.815487 -13.661596,6.551823 -0.929945,1.736336 3.790958,13.963996 2.117435,15.002735 z" />
  </g>
  <g
     inkscape:groupmode="layer"
     id="layer3"
     inkscape:label="fg2">
    <rect
       style="opacity:1;fill:#5aa02c;stroke-width:5.51425;stroke-linejoin:round"
       id="rect890"
       width="270.76678"
       height="39.604904"
       x="0.029811904"
       y="118.86" />
  </g>
  <g
     inkscape:groupmode="layer"
     id="layer4"
     inkscape:label="fg3">
    <rect
       style="opacity:0.5;fill:#447821;stroke-width:5.21329;stroke-linejoin:round"
       id="rect890-3"
       width="270.76678"
       height="35.399654"
       x="0.029811904"
       y="123.14785" />
  </g>
  <g
     inkscape:groupmode="layer"
     id="layer5"
     inkscape:label="fg4">
    <rect
       style="opacity:1;fill:#447821;stroke-width:4.60082;stroke-linejoin:round"
       id="rect890-3-6"
       width="270.26233"
       height="27.621702"
       x="0.48921022"
       y="130.92575" />
  </g>
  <g
     inkscape:groupmode="layer"
     id="layer6"
     inkscape:label="fg5">
    <rect
       style="opacity:0.807619;fill:#2d5016;stroke-width:3.3891;stroke-linejoin:round"
       id="rect890-3-6-7"
       width="269.91647"
       height="15.007454"
       x="0.83379054"
       y="143.53996" />
  </g>
</svg>
