<?xml version="1.0" encoding="UTF-8" standalone="no"?>
<!-- Created with Inkscape (http://www.inkscape.org/) -->

<svg
   width="1024"
   height="600"
   viewBox="0 0 270.93333 158.75"
   version="1.1"
   id="svg5"
   inkscape:export-filename="D:\Art\kajamGame\plains-bg2.png"
   inkscape:export-xdpi="96"
   inkscape:export-ydpi="96"
   inkscape:version="1.1.1 (3bf5ae0d25, 2021-09-20)"
   sodipodi:docname="plains-bg2.svg"
   xmlns:inkscape="http://www.inkscape.org/namespaces/inkscape"
   xmlns:sodipodi="http://sodipodi.sourceforge.net/DTD/sodipodi-0.dtd"
   xmlns="http://www.w3.org/2000/svg"
   xmlns:svg="http://www.w3.org/2000/svg">
  <sodipodi:namedview
     id="namedview7"
     pagecolor="#505050"
     bordercolor="#ffffff"
     borderopacity="1"
     inkscape:pageshadow="0"
     inkscape:pageopacity="0"
     inkscape:pagecheckerboard="1"
     inkscape:document-units="mm"
     showgrid="false"
     inkscape:zoom="0.74118967"
     inkscape:cx="414.87356"
     inkscape:cy="302.89143"
     inkscape:window-width="1920"
     inkscape:window-height="1017"
     inkscape:window-x="1912"
     inkscape:window-y="-8"
     inkscape:window-maximized="1"
     inkscape:current-layer="layer1"
     units="px" />
  <defs
     id="defs2" />
  <g
     inkscape:label="Layer 1"
     inkscape:groupmode="layer"
     id="layer1">
    <rect
       style="fill:#c88f6a;stroke-width:0.297464;fill-opacity:1"
       id="rect31"
       width="13.327487"
       height="51.241943"
       x="44.840855"
       y="82.265259" />
    <rect
       style="fill:#d38d5f;stroke-width:0.297464"
       id="rect31-1"
       width="13.327487"
       height="51.241943"
       x="187.52856"
       y="66.477585" />
    <ellipse
       style="fill:#9ede55;fill-opacity:1;stroke-width:0.235938"
       id="path153"
       cx="32.34634"
       cy="45.615528"
       rx="14.493642"
       ry="13.077309" />
    <ellipse
       style="fill:#9ede55;fill-opacity:1;stroke-width:0.235938"
       id="path153-3"
       cx="48.172726"
       cy="37.708321"
       rx="14.493642"
       ry="13.077309" />
    <ellipse
       style="fill:#9ede55;fill-opacity:1;stroke-width:0.235938"
       id="path153-7"
       cx="67.164398"
       cy="46.223774"
       rx="14.493642"
       ry="13.077309" />
    <ellipse
       style="fill:#9ede55;fill-opacity:1;stroke-width:0.235938"
       id="path153-9"
       cx="71.162643"
       cy="64.471176"
       rx="14.493642"
       ry="13.077309" />
    <ellipse
       style="fill:#9ede55;fill-opacity:1;stroke-width:0.235938"
       id="path153-4"
       cx="64.498901"
       cy="75.723747"
       rx="14.493642"
       ry="13.077309" />
    <ellipse
       style="fill:#9ede55;fill-opacity:1;stroke-width:0.235938"
       id="path153-6"
       cx="44.507664"
       cy="79.373238"
       rx="14.493642"
       ry="13.077309" />
    <ellipse
       style="fill:#9ede55;fill-opacity:1;stroke-width:0.235938"
       id="path153-1"
       cx="29.181055"
       cy="65.07943"
       rx="14.493642"
       ry="13.077309" />
    <ellipse
       style="fill:#9ede55;fill-opacity:1;stroke-width:0.235938"
       id="path153-94"
       cx="46.839977"
       cy="58.388714"
       rx="14.493642"
       ry="13.077309" />
    <ellipse
       style="fill:#9fef44;fill-opacity:1;stroke-width:0.235938"
       id="path153-2"
       cx="174.9389"
       cy="28.840374"
       rx="14.493642"
       ry="13.077309" />
    <ellipse
       style="fill:#9fef44;fill-opacity:1;stroke-width:0.235938"
       id="path153-3-7"
       cx="190.76529"
       cy="20.933168"
       rx="14.493642"
       ry="13.077309" />
    <ellipse
       style="fill:#9fef44;fill-opacity:1;stroke-width:0.235938"
       id="path153-7-7"
       cx="209.75697"
       cy="29.44862"
       rx="14.493642"
       ry="13.077309" />
    <ellipse
       style="fill:#9fef44;fill-opacity:1;stroke-width:0.235938"
       id="path153-9-1"
       cx="213.75522"
       cy="47.696033"
       rx="14.493642"
       ry="13.077309" />
    <ellipse
       style="fill:#9fef44;fill-opacity:1;stroke-width:0.235938"
       id="path153-4-83"
       cx="207.09148"
       cy="58.948593"
       rx="14.493642"
       ry="13.077309" />
    <ellipse
       style="fill:#9fef44;fill-opacity:1;stroke-width:0.235938"
       id="path153-6-1"
       cx="187.10023"
       cy="62.598083"
       rx="14.493642"
       ry="13.077309" />
    <ellipse
       style="fill:#9fef44;fill-opacity:1;stroke-width:0.235938"
       id="path153-1-3"
       cx="171.77362"
       cy="48.304279"
       rx="14.493642"
       ry="13.077309" />
    <ellipse
       style="fill:#9fef44;fill-opacity:1;stroke-width:0.235938"
       id="path153-94-2"
       cx="189.43254"
       cy="41.61356"
       rx="14.493642"
       ry="13.077309" />
    <ellipse
       style="fill:#689d23;fill-opacity:1;stroke-width:0.183161"
       id="path153-8"
       cx="185.4575"
       cy="115.527"
       rx="11.332849"
       ry="10.079181" />
    <ellipse
       style="fill:#689d23;fill-opacity:1;stroke-width:0.183161"
       id="path153-3-3"
       cx="197.83247"
       cy="109.43262"
       rx="11.332849"
       ry="10.079181" />
    <ellipse
       style="fill:#689d23;fill-opacity:1;stroke-width:0.183161"
       id="path153-7-9"
       cx="212.6824"
       cy="115.9958"
       rx="11.332849"
       ry="10.079181" />
    <ellipse
       style="fill:#689d23;fill-opacity:1;stroke-width:0.183161"
       id="path153-9-6"
       cx="215.80872"
       cy="130.05975"
       rx="11.332849"
       ry="10.079181" />
    <ellipse
       style="fill:#689d23;fill-opacity:1;stroke-width:0.183161"
       id="path153-4-8"
       cx="210.59822"
       cy="138.73253"
       rx="11.332849"
       ry="10.079181" />
    <ellipse
       style="fill:#689d23;fill-opacity:1;stroke-width:0.183161"
       id="path153-6-8"
       cx="194.96669"
       cy="141.54535"
       rx="11.332849"
       ry="10.079181" />
    <ellipse
       style="fill:#689d23;fill-opacity:1;stroke-width:0.183161"
       id="path153-1-9"
       cx="182.98254"
       cy="130.52853"
       rx="11.332849"
       ry="10.079181" />
    <ellipse
       style="fill:#689d23;fill-opacity:1;stroke-width:0.183161"
       id="path153-94-9"
       cx="196.79036"
       cy="125.37177"
       rx="11.332849"
       ry="10.079181" />
    <ellipse
       style="fill:#689d23;fill-opacity:1;stroke-width:0.183161"
       id="path153-8-0"
       cx="186.65225"
       cy="113.86068"
       rx="11.332849"
       ry="10.079181" />
    <ellipse
       style="fill:#689d23;fill-opacity:1;stroke-width:0.183161"
       id="path153-3-3-0"
       cx="199.02722"
       cy="107.76629"
       rx="11.332849"
       ry="10.079181" />
    <ellipse
       style="fill:#689d23;fill-opacity:1;stroke-width:0.183161"
       id="path153-7-9-1"
       cx="213.87715"
       cy="114.32949"
       rx="11.332849"
       ry="10.079181" />
    <ellipse
       style="fill:#689d23;fill-opacity:1;stroke-width:0.183161"
       id="path153-9-6-8"
       cx="217.00346"
       cy="128.39343"
       rx="11.332849"
       ry="10.079181" />
    <ellipse
       style="fill:#689d23;fill-opacity:1;stroke-width:0.183161"
       id="path153-4-8-5"
       cx="211.79297"
       cy="137.06621"
       rx="11.332849"
       ry="10.079181" />
    <ellipse
       style="fill:#689d23;fill-opacity:1;stroke-width:0.183161"
       id="path153-6-8-6"
       cx="196.16144"
       cy="139.87901"
       rx="11.332849"
       ry="10.079181" />
    <ellipse
       style="fill:#689d23;fill-opacity:1;stroke-width:0.183161"
       id="path153-1-9-2"
       cx="184.17729"
       cy="128.86221"
       rx="11.332849"
       ry="10.079181" />
    <ellipse
       style="fill:#689d23;fill-opacity:1;stroke-width:0.183161"
       id="path153-94-9-3"
       cx="197.98511"
       cy="123.70545"
       rx="11.332849"
       ry="10.079181" />
    <ellipse
       style="fill:#689d23;fill-opacity:1;stroke-width:0.183161"
       id="path153-8-7"
       cx="227.75211"
       cy="123.98226"
       rx="11.332849"
       ry="10.079181" />
    <ellipse
       style="fill:#689d23;fill-opacity:1;stroke-width:0.183161"
       id="path153-3-3-1"
       cx="240.12706"
       cy="117.88787"
       rx="11.332849"
       ry="10.079181" />
    <ellipse
       style="fill:#689d23;fill-opacity:1;stroke-width:0.183161"
       id="path153-7-9-7"
       cx="254.97701"
       cy="124.45106"
       rx="11.332849"
       ry="10.079181" />
    <ellipse
       style="fill:#689d23;fill-opacity:1;stroke-width:0.183161"
       id="path153-9-6-6"
       cx="258.1033"
       cy="138.515"
       rx="11.332849"
       ry="10.079181" />
    <ellipse
       style="fill:#689d23;fill-opacity:1;stroke-width:0.183161"
       id="path153-4-8-52"
       cx="252.89281"
       cy="147.18777"
       rx="11.332849"
       ry="10.079181" />
    <ellipse
       style="fill:#689d23;fill-opacity:1;stroke-width:0.183161"
       id="path153-6-8-9"
       cx="237.26128"
       cy="150.0006"
       rx="11.332849"
       ry="10.079181" />
    <ellipse
       style="fill:#689d23;fill-opacity:1;stroke-width:0.183161"
       id="path153-1-9-24"
       cx="225.27713"
       cy="138.98378"
       rx="11.332849"
       ry="10.079181" />
    <ellipse
       style="fill:#689d23;fill-opacity:1;stroke-width:0.183161"
       id="path153-94-9-9"
       cx="239.08495"
       cy="133.82701"
       rx="11.332849"
       ry="10.079181" />
    <ellipse
       style="fill:#689d23;fill-opacity:1;stroke-width:0.183161"
       id="path153-8-0-5"
       cx="228.94685"
       cy="122.31594"
       rx="11.332849"
       ry="10.079181" />
    <ellipse
       style="fill:#689d23;fill-opacity:1;stroke-width:0.183161"
       id="path153-3-3-0-5"
       cx="241.32181"
       cy="116.22154"
       rx="11.332849"
       ry="10.079181" />
    <ellipse
       style="fill:#689d23;fill-opacity:1;stroke-width:0.183161"
       id="path153-7-9-1-3"
       cx="256.17175"
       cy="122.78474"
       rx="11.332849"
       ry="10.079181" />
    <ellipse
       style="fill:#689d23;fill-opacity:1;stroke-width:0.183161"
       id="path153-9-6-8-6"
       cx="259.29807"
       cy="136.84868"
       rx="11.332849"
       ry="10.079181" />
    <ellipse
       style="fill:#689d23;fill-opacity:1;stroke-width:0.183161"
       id="path153-4-8-5-5"
       cx="254.08755"
       cy="145.52145"
       rx="11.332849"
       ry="10.079181" />
    <ellipse
       style="fill:#689d23;fill-opacity:1;stroke-width:0.183161"
       id="path153-6-8-6-9"
       cx="238.45602"
       cy="148.33427"
       rx="11.332849"
       ry="10.079181" />
    <ellipse
       style="fill:#689d23;fill-opacity:1;stroke-width:0.183161"
       id="path153-1-9-2-9"
       cx="226.47188"
       cy="137.31746"
       rx="11.332849"
       ry="10.079181" />
    <ellipse
       style="fill:#689d23;fill-opacity:1;stroke-width:0.183161"
       id="path153-94-9-3-4"
       cx="240.27969"
       cy="132.16069"
       rx="11.332849"
       ry="10.079181" />
    <ellipse
       style="fill:#689d23;fill-opacity:1;stroke-width:0.183161"
       id="path153-8-73"
       cx="37.002064"
       cy="184.09154"
       rx="11.325555"
       ry="10.08569"
       transform="matrix(0.82793126,-0.56082959,0.56240126,0.82686445,0,0)" />
    <ellipse
       style="fill:#689d23;fill-opacity:1;stroke-width:0.183161"
       id="path153-3-3-4"
       cx="49.369072"
       cy="177.99323"
       rx="11.325555"
       ry="10.08569"
       transform="matrix(0.82793126,-0.56082959,0.56240126,0.82686445,0,0)" />
    <ellipse
       style="fill:#689d23;fill-opacity:1;stroke-width:0.183161"
       id="path153-7-9-2"
       cx="64.20945"
       cy="184.56065"
       rx="11.325555"
       ry="10.08569"
       transform="matrix(0.82793126,-0.56082959,0.56240126,0.82686445,0,0)" />
    <ellipse
       style="fill:#689d23;fill-opacity:1;stroke-width:0.183161"
       id="path153-9-6-9"
       cx="67.333755"
       cy="198.6337"
       rx="11.325555"
       ry="10.08569"
       transform="matrix(0.82793126,-0.56082959,0.56240126,0.82686445,0,0)" />
    <ellipse
       style="fill:#689d23;fill-opacity:1;stroke-width:0.183161"
       id="path153-4-8-2"
       cx="62.126598"
       cy="207.31207"
       rx="11.325555"
       ry="10.08569"
       transform="matrix(0.82793126,-0.56082959,0.56240126,0.82686445,0,0)" />
    <ellipse
       style="fill:#689d23;fill-opacity:1;stroke-width:0.183161"
       id="path153-6-8-5"
       cx="46.505127"
       cy="210.12669"
       rx="11.325555"
       ry="10.08569"
       transform="matrix(0.82793126,-0.56082959,0.56240126,0.82686445,0,0)" />
    <ellipse
       style="fill:#689d23;fill-opacity:1;stroke-width:0.183161"
       id="path153-6-8-5-3"
       cx="48.954365"
       cy="215.75467"
       rx="11.325555"
       ry="10.08569"
       transform="matrix(0.82793126,-0.56082959,0.56240126,0.82686445,0,0)" />
    <ellipse
       style="fill:#689d23;fill-opacity:1;stroke-width:0.183161"
       id="path153-1-9-8"
       cx="34.528683"
       cy="199.10278"
       rx="11.325555"
       ry="10.08569"
       transform="matrix(0.82793126,-0.56082959,0.56240126,0.82686445,0,0)" />
    <ellipse
       style="fill:#689d23;fill-opacity:1;stroke-width:0.183161"
       id="path153-94-9-2"
       cx="48.327621"
       cy="193.94267"
       rx="11.325555"
       ry="10.08569"
       transform="matrix(0.82793126,-0.56082959,0.56240126,0.82686445,0,0)" />
    <ellipse
       style="fill:#689d23;fill-opacity:1;stroke-width:0.183161"
       id="path153-8-0-6"
       cx="38.196045"
       cy="182.42415"
       rx="11.325555"
       ry="10.08569"
       transform="matrix(0.82793126,-0.56082959,0.56240126,0.82686445,0,0)" />
    <ellipse
       style="fill:#689d23;fill-opacity:1;stroke-width:0.183161"
       id="path153-3-3-0-6"
       cx="50.563049"
       cy="176.32582"
       rx="11.325555"
       ry="10.08569"
       transform="matrix(0.82793126,-0.56082959,0.56240126,0.82686445,0,0)" />
    <ellipse
       style="fill:#689d23;fill-opacity:1;stroke-width:0.183161"
       id="path153-7-9-1-2"
       cx="65.403435"
       cy="182.89326"
       rx="11.325555"
       ry="10.08569"
       transform="matrix(0.82793126,-0.56082959,0.56240126,0.82686445,0,0)" />
    <ellipse
       style="fill:#689d23;fill-opacity:1;stroke-width:0.183161"
       id="path153-9-6-8-5"
       cx="68.527718"
       cy="196.96629"
       rx="11.325555"
       ry="10.08569"
       transform="matrix(0.82793126,-0.56082959,0.56240126,0.82686445,0,0)" />
    <ellipse
       style="fill:#689d23;fill-opacity:1;stroke-width:0.183161"
       id="path153-4-8-5-0"
       cx="63.32058"
       cy="205.64467"
       rx="11.325555"
       ry="10.08569"
       transform="matrix(0.82793126,-0.56082959,0.56240126,0.82686445,0,0)" />
    <ellipse
       style="fill:#689d23;fill-opacity:1;stroke-width:0.183161"
       id="path153-6-8-6-94"
       cx="66.762787"
       cy="224.08543"
       rx="11.325555"
       ry="10.08569"
       transform="matrix(0.82793126,-0.56082959,0.56240126,0.82686445,0,0)" />
    <ellipse
       style="fill:#689d23;fill-opacity:1;stroke-width:0.183161"
       id="path153-1-9-2-2"
       cx="35.722664"
       cy="197.43538"
       rx="11.325555"
       ry="10.08569"
       transform="matrix(0.82793126,-0.56082959,0.56240126,0.82686445,0,0)" />
    <ellipse
       style="fill:#689d23;fill-opacity:1;stroke-width:0.183161"
       id="path153-94-9-3-7"
       cx="49.521603"
       cy="192.27528"
       rx="11.325555"
       ry="10.08569"
       transform="matrix(0.82793126,-0.56082959,0.56240126,0.82686445,0,0)" />
    <ellipse
       style="fill:#689d23;fill-opacity:1;stroke-width:0.183161"
       id="path153-8-09"
       cx="50.293285"
       cy="117.33498"
       rx="11.332849"
       ry="10.079181" />
    <ellipse
       style="fill:#689d23;fill-opacity:1;stroke-width:0.183161"
       id="path153-3-3-9"
       cx="62.668255"
       cy="111.24059"
       rx="11.332849"
       ry="10.079181" />
    <ellipse
       style="fill:#689d23;fill-opacity:1;stroke-width:0.183161"
       id="path153-7-9-3"
       cx="77.518188"
       cy="117.80377"
       rx="11.332849"
       ry="10.079181" />
    <ellipse
       style="fill:#689d23;fill-opacity:1;stroke-width:0.183161"
       id="path153-9-6-3"
       cx="80.644501"
       cy="131.86772"
       rx="11.332849"
       ry="10.079181" />
    <ellipse
       style="fill:#689d23;fill-opacity:1;stroke-width:0.183161"
       id="path153-4-8-8"
       cx="75.434006"
       cy="140.54051"
       rx="11.332849"
       ry="10.079181" />
    <ellipse
       style="fill:#689d23;fill-opacity:1;stroke-width:0.183161"
       id="path153-6-8-3"
       cx="59.802471"
       cy="143.35332"
       rx="11.332849"
       ry="10.079181" />
    <ellipse
       style="fill:#689d23;fill-opacity:1;stroke-width:0.183161"
       id="path153-1-9-9"
       cx="47.818325"
       cy="132.3365"
       rx="11.332849"
       ry="10.079181" />
    <ellipse
       style="fill:#689d23;fill-opacity:1;stroke-width:0.183161"
       id="path153-94-9-92"
       cx="61.626141"
       cy="127.17975"
       rx="11.332849"
       ry="10.079181" />
    <ellipse
       style="fill:#689d23;fill-opacity:1;stroke-width:0.183161"
       id="path153-8-0-4"
       cx="51.488033"
       cy="115.66866"
       rx="11.332849"
       ry="10.079181" />
    <ellipse
       style="fill:#689d23;fill-opacity:1;stroke-width:0.183161"
       id="path153-3-3-0-4"
       cx="63.863003"
       cy="109.57426"
       rx="11.332849"
       ry="10.079181" />
    <ellipse
       style="fill:#689d23;fill-opacity:1;stroke-width:0.183161"
       id="path153-7-9-1-8"
       cx="78.712936"
       cy="116.13747"
       rx="11.332849"
       ry="10.079181" />
    <ellipse
       style="fill:#689d23;fill-opacity:1;stroke-width:0.183161"
       id="path153-9-6-8-4"
       cx="81.839249"
       cy="130.2014"
       rx="11.332849"
       ry="10.079181" />
    <ellipse
       style="fill:#689d23;fill-opacity:1;stroke-width:0.183161"
       id="path153-4-8-5-2"
       cx="76.628754"
       cy="138.87418"
       rx="11.332849"
       ry="10.079181" />
    <ellipse
       style="fill:#689d23;fill-opacity:1;stroke-width:0.183161"
       id="path153-6-8-6-2"
       cx="60.997219"
       cy="141.68698"
       rx="11.332849"
       ry="10.079181" />
    <ellipse
       style="fill:#689d23;fill-opacity:1;stroke-width:0.183161"
       id="path153-1-9-2-93"
       cx="49.013073"
       cy="130.67018"
       rx="11.332849"
       ry="10.079181" />
    <ellipse
       style="fill:#689d23;fill-opacity:1;stroke-width:0.183161"
       id="path153-94-9-3-2"
       cx="62.820889"
       cy="125.51343"
       rx="11.332849"
       ry="10.079181" />
    <ellipse
       style="fill:#689d23;fill-opacity:1;stroke-width:0.183161"
       id="path153-8-7-1"
       cx="92.587891"
       cy="125.79024"
       rx="11.332849"
       ry="10.079181" />
    <ellipse
       style="fill:#689d23;fill-opacity:1;stroke-width:0.183161"
       id="path153-3-3-1-3"
       cx="104.96284"
       cy="119.69585"
       rx="11.332849"
       ry="10.079181" />
    <ellipse
       style="fill:#689d23;fill-opacity:1;stroke-width:0.183161"
       id="path153-7-9-7-6"
       cx="119.81279"
       cy="126.25902"
       rx="11.332849"
       ry="10.079181" />
    <ellipse
       style="fill:#689d23;fill-opacity:1;stroke-width:0.183161"
       id="path153-9-6-6-2"
       cx="122.93907"
       cy="140.32298"
       rx="11.332849"
       ry="10.079181" />
    <ellipse
       style="fill:#689d23;fill-opacity:1;stroke-width:0.183161"
       id="path153-4-8-52-3"
       cx="117.72859"
       cy="148.99574"
       rx="11.332849"
       ry="10.079181" />
    <ellipse
       style="fill:#689d23;fill-opacity:1;stroke-width:0.183161"
       id="path153-6-8-9-6"
       cx="102.09706"
       cy="151.80856"
       rx="11.332849"
       ry="10.079181" />
    <ellipse
       style="fill:#689d23;fill-opacity:1;stroke-width:0.183161"
       id="path153-1-9-24-0"
       cx="90.112915"
       cy="140.79175"
       rx="11.332849"
       ry="10.079181" />
    <ellipse
       style="fill:#689d23;fill-opacity:1;stroke-width:0.183161"
       id="path153-94-9-9-9"
       cx="103.92073"
       cy="135.63498"
       rx="11.332849"
       ry="10.079181" />
    <ellipse
       style="fill:#689d23;fill-opacity:1;stroke-width:0.183161"
       id="path153-8-0-5-2"
       cx="93.782639"
       cy="124.12392"
       rx="11.332849"
       ry="10.079181" />
    <ellipse
       style="fill:#689d23;fill-opacity:1;stroke-width:0.183161"
       id="path153-3-3-0-5-6"
       cx="106.15758"
       cy="118.02951"
       rx="11.332849"
       ry="10.079181" />
    <ellipse
       style="fill:#689d23;fill-opacity:1;stroke-width:0.183161"
       id="path153-7-9-1-3-3"
       cx="121.00752"
       cy="124.59271"
       rx="11.332849"
       ry="10.079181" />
    <ellipse
       style="fill:#689d23;fill-opacity:1;stroke-width:0.183161"
       id="path153-9-6-8-6-1"
       cx="124.13382"
       cy="138.65666"
       rx="11.332849"
       ry="10.079181" />
    <ellipse
       style="fill:#689d23;fill-opacity:1;stroke-width:0.183161"
       id="path153-4-8-5-5-2"
       cx="118.92332"
       cy="147.32942"
       rx="11.332849"
       ry="10.079181" />
    <ellipse
       style="fill:#689d23;fill-opacity:1;stroke-width:0.183161"
       id="path153-6-8-6-9-6"
       cx="103.29179"
       cy="150.14224"
       rx="11.332849"
       ry="10.079181" />
    <ellipse
       style="fill:#689d23;fill-opacity:1;stroke-width:0.183161"
       id="path153-1-9-2-9-8"
       cx="91.307663"
       cy="139.12544"
       rx="11.332849"
       ry="10.079181" />
    <ellipse
       style="fill:#689d23;fill-opacity:1;stroke-width:0.183161"
       id="path153-94-9-3-4-3"
       cx="105.11546"
       cy="133.96866"
       rx="11.332849"
       ry="10.079181" />
    <ellipse
       style="fill:#689d23;fill-opacity:1;stroke-width:0.183161"
       id="path153-8-73-9"
       cx="-75.777435"
       cy="109.78419"
       rx="11.325555"
       ry="10.08569"
       transform="matrix(0.82793126,-0.56082959,0.56240126,0.82686445,0,0)" />
    <ellipse
       style="fill:#689d23;fill-opacity:1;stroke-width:0.183161"
       id="path153-3-3-4-6"
       cx="-58.47504"
       cy="105.3065"
       rx="11.325555"
       ry="10.08569"
       transform="matrix(0.82793126,-0.56082959,0.56240126,0.82686445,0,0)" />
    <ellipse
       style="fill:#689d23;fill-opacity:1;stroke-width:0.183161"
       id="path153-7-9-2-4"
       cx="-48.570057"
       cy="110.25331"
       rx="11.325555"
       ry="10.08569"
       transform="matrix(0.82793126,-0.56082959,0.56240126,0.82686445,0,0)" />
    <ellipse
       style="fill:#689d23;fill-opacity:1;stroke-width:0.183161"
       id="path153-9-6-9-8"
       cx="-45.445751"
       cy="124.32635"
       rx="11.325555"
       ry="10.08569"
       transform="matrix(0.82793126,-0.56082959,0.56240126,0.82686445,0,0)" />
    <ellipse
       style="fill:#689d23;fill-opacity:1;stroke-width:0.183161"
       id="path153-4-8-2-8"
       cx="-50.652905"
       cy="133.00473"
       rx="11.325555"
       ry="10.08569"
       transform="matrix(0.82793126,-0.56082959,0.56240126,0.82686445,0,0)" />
    <ellipse
       style="fill:#689d23;fill-opacity:1;stroke-width:0.183161"
       id="path153-6-8-5-6"
       cx="-66.274376"
       cy="135.81935"
       rx="11.325555"
       ry="10.08569"
       transform="matrix(0.82793126,-0.56082959,0.56240126,0.82686445,0,0)" />
    <ellipse
       style="fill:#689d23;fill-opacity:1;stroke-width:0.183161"
       id="path153-6-8-5-3-8"
       cx="-63.825138"
       cy="141.44733"
       rx="11.325555"
       ry="10.08569"
       transform="matrix(0.82793126,-0.56082959,0.56240126,0.82686445,0,0)" />
    <ellipse
       style="fill:#689d23;fill-opacity:1;stroke-width:0.183161"
       id="path153-1-9-8-7"
       cx="-78.250816"
       cy="124.79544"
       rx="11.325555"
       ry="10.08569"
       transform="matrix(0.82793126,-0.56082959,0.56240126,0.82686445,0,0)" />
    <ellipse
       style="fill:#689d23;fill-opacity:1;stroke-width:0.183161"
       id="path153-94-9-2-0"
       cx="-64.451874"
       cy="119.63533"
       rx="11.325555"
       ry="10.08569"
       transform="matrix(0.82793126,-0.56082959,0.56240126,0.82686445,0,0)" />
    <ellipse
       style="fill:#689d23;fill-opacity:1;stroke-width:0.183161"
       id="path153-8-0-6-8"
       cx="-75.079384"
       cy="108.21216"
       rx="11.325555"
       ry="10.08569"
       transform="matrix(0.82793126,-0.56082959,0.56240126,0.82686445,0,0)" />
    <ellipse
       style="fill:#689d23;fill-opacity:1;stroke-width:0.183161"
       id="path153-9-6-8-5-7"
       cx="-44.251789"
       cy="122.65895"
       rx="11.325555"
       ry="10.08569"
       transform="matrix(0.82793126,-0.56082959,0.56240126,0.82686445,0,0)" />
    <ellipse
       style="fill:#689d23;fill-opacity:1;stroke-width:0.183161"
       id="path153-4-8-5-0-3"
       cx="-49.458927"
       cy="131.33733"
       rx="11.325555"
       ry="10.08569"
       transform="matrix(0.82793126,-0.56082959,0.56240126,0.82686445,0,0)" />
    <ellipse
       style="fill:#689d23;fill-opacity:1;stroke-width:0.183161"
       id="path153-6-8-6-94-2"
       cx="-46.01672"
       cy="149.77809"
       rx="11.325555"
       ry="10.08569"
       transform="matrix(0.82793126,-0.56082959,0.56240126,0.82686445,0,0)" />
    <ellipse
       style="fill:#689d23;fill-opacity:1;stroke-width:0.183161"
       id="path153-1-9-2-2-8"
       cx="-77.056824"
       cy="123.12804"
       rx="11.325555"
       ry="10.08569"
       transform="matrix(0.82793126,-0.56082959,0.56240126,0.82686445,0,0)" />
    <ellipse
       style="fill:#689d23;fill-opacity:1;stroke-width:0.183161"
       id="path153-8-73-9-8"
       cx="146.66138"
       cy="258.48373"
       rx="11.325555"
       ry="10.08569"
       transform="matrix(0.82793126,-0.56082959,0.56240126,0.82686445,0,0)" />
    <ellipse
       style="fill:#689d23;fill-opacity:1;stroke-width:0.183161"
       id="path153-1-9-8-7-4"
       cx="144.18799"
       cy="273.495"
       rx="11.325555"
       ry="10.08569"
       transform="matrix(0.82793126,-0.56082959,0.56240126,0.82686445,0,0)" />
    <ellipse
       style="fill:#689d23;fill-opacity:1;stroke-width:0.183161"
       id="path153-8-0-6-8-7"
       cx="153.68819"
       cy="257.75052"
       rx="11.325555"
       ry="10.08569"
       transform="matrix(0.82793126,-0.56082959,0.56240126,0.82686445,0,0)" />
    <ellipse
       style="fill:#689d23;fill-opacity:1;stroke-width:0.183161"
       id="path153-3-3-0-6-7-7"
       cx="149.20676"
       cy="242.81487"
       rx="11.325555"
       ry="10.08569"
       transform="matrix(0.82793126,-0.56082959,0.56240126,0.82686445,0,0)" />
    <ellipse
       style="fill:#689d23;fill-opacity:1;stroke-width:0.183161"
       id="path153-1-9-2-2-8-1"
       cx="145.38199"
       cy="271.82758"
       rx="11.325555"
       ry="10.08569"
       transform="matrix(0.82793126,-0.56082959,0.56240126,0.82686445,0,0)" />
    <ellipse
       style="fill:#689d23;fill-opacity:1;stroke-width:0.183161"
       id="path153-94-9-3-7-2"
       cx="-63.2579"
       cy="117.96794"
       rx="11.325555"
       ry="10.08569"
       transform="matrix(0.82793126,-0.56082959,0.56240126,0.82686445,0,0)" />
  </g>
</svg>
