<?xml version="1.0" encoding="UTF-8" standalone="no"?>
<!-- Created with Inkscape (http://www.inkscape.org/) -->

<svg
   width="256"
   height="256"
   viewBox="0 0 67.733332 67.733335"
   version="1.1"
   id="svg5"
   inkscape:version="1.1.1 (3bf5ae0d25, 2021-09-20)"
   sodipodi:docname="spikey-rock.svg"
   xmlns:inkscape="http://www.inkscape.org/namespaces/inkscape"
   xmlns:sodipodi="http://sodipodi.sourceforge.net/DTD/sodipodi-0.dtd"
   xmlns="http://www.w3.org/2000/svg"
   xmlns:svg="http://www.w3.org/2000/svg">
  <sodipodi:namedview
     id="namedview7"
     pagecolor="#505050"
     bordercolor="#ffffff"
     borderopacity="1"
     inkscape:pageshadow="0"
     inkscape:pageopacity="0"
     inkscape:pagecheckerboard="1"
     inkscape:document-units="mm"
     showgrid="false"
     units="px"
     width="256px"
     inkscape:zoom="1.0469406"
     inkscape:cx="152.82624"
     inkscape:cy="110.79902"
     inkscape:window-width="1920"
     inkscape:window-height="1052"
     inkscape:window-x="0"
     inkscape:window-y="28"
     inkscape:window-maximized="1"
     inkscape:current-layer="layer1" />
  <defs
     id="defs2">
    <inkscape:path-effect
       effect="powerstroke"
       id="path-effect1375"
       is_visible="true"
       lpeversion="1"
       offset_points="0,4.99214"
       not_jump="false"
       sort_points="true"
       interpolator_type="CubicBezierJohan"
       interpolator_beta="0.2"
       start_linecap_type="zerowidth"
       linejoin_type="extrp_arc"
       miter_limit="4"
       scale_width="1"
       end_linecap_type="zerowidth" />
  </defs>
  <g
     inkscape:label="Layer 1"
     inkscape:groupmode="layer"
     id="layer1">
    <path
       sodipodi:type="star"
       style="fill:#e6e6e6;stroke:none;stroke-width:3.57165;stroke-linecap:round;stroke-linejoin:round;stroke-miterlimit:12.2"
       id="path2019"
       inkscape:flatsided="false"
       sodipodi:sides="4"
       sodipodi:cx="119.54632"
       sodipodi:cy="84.425369"
       sodipodi:r1="48.521015"
       sodipodi:r2="24.260508"
       sodipodi:arg1="0.67691485"
       sodipodi:arg2="1.462313"
       inkscape:rounded="0.13"
       inkscape:randomized="0"
       d="m 157.36888,114.8185 c -2.91122,3.62286 -30.57556,-6.77844 -35.19586,-6.27524 -4.6203,0.5032 -29.396974,16.6159 -33.019834,13.70467 -3.62286,-2.91122 6.778442,-30.575562 6.275241,-35.195859 -0.503201,-4.620297 -16.615901,-29.396974 -13.704674,-33.019834 2.911227,-3.62286 30.575567,6.778442 35.195867,6.275241 4.62029,-0.5032 29.39697,-16.6159 33.01983,-13.704674 3.62286,2.911227 -6.77844,30.575567 -6.27524,35.195864 0.5032,4.620297 16.6159,29.396972 13.70467,33.019832 z"
       transform="matrix(0.47153684,0,0,0.6125455,-24.022906,-23.039786)"
       inkscape:transform-center-x="-0.018582923"
       inkscape:transform-center-y="1.4210588"
       inkscape:export-filename="/home/davran/Documents/Code/godot/KajamGame/Assets/spikey-rock.png"
       inkscape:export-xdpi="150"
       inkscape:export-ydpi="150" />
    <path
       sodipodi:type="star"
       style="fill:#cccccc;stroke:none;stroke-width:3.57165;stroke-linecap:round;stroke-linejoin:round;stroke-miterlimit:12.2"
       id="path2019-5"
       inkscape:flatsided="false"
       sodipodi:sides="4"
       sodipodi:cx="119.54632"
       sodipodi:cy="84.425369"
       sodipodi:r1="48.521015"
       sodipodi:r2="24.260508"
       sodipodi:arg1="0.67691485"
       sodipodi:arg2="1.462313"
       inkscape:rounded="0.13"
       inkscape:randomized="0"
       transform="matrix(-0.39937204,0.27020105,0.29435048,0.36660632,66.602044,-22.865303)"
       inkscape:transform-center-x="-0.66713382"
       inkscape:transform-center-y="0.86114827"
       d="m 157.36888,114.8185 c -2.91122,3.62286 -30.57556,-6.77844 -35.19586,-6.27524 -4.6203,0.5032 -29.396974,16.6159 -33.019834,13.70467 -3.62286,-2.91122 6.778442,-30.575562 6.275241,-35.195859 -0.503201,-4.620297 -16.615901,-29.396974 -13.704674,-33.019834 2.911227,-3.62286 30.575567,6.778442 35.195867,6.275241 4.62029,-0.5032 29.39697,-16.6159 33.01983,-13.704674 3.62286,2.911227 -6.77844,30.575567 -6.27524,35.195864 0.5032,4.620297 16.6159,29.396972 13.70467,33.019832 z"
       inkscape:export-filename="/home/davran/Documents/Code/godot/KajamGame/Assets/spikey-rock.png"
       inkscape:export-xdpi="150"
       inkscape:export-ydpi="150" />
    <path
       sodipodi:type="star"
       style="fill:#cccccc;stroke:none;stroke-width:3.57165;stroke-linecap:round;stroke-linejoin:round;stroke-miterlimit:12.2"
       id="path2019-5-2"
       inkscape:flatsided="false"
       sodipodi:sides="4"
       sodipodi:cx="119.54632"
       sodipodi:cy="84.425369"
       sodipodi:r1="48.521015"
       sodipodi:r2="24.260508"
       sodipodi:arg1="0.67691485"
       sodipodi:arg2="1.462313"
       inkscape:rounded="0.13"
       inkscape:randomized="0"
       transform="matrix(-0.378409,0.25340762,0.25340762,0.378409,45.496051,-25.923025)"
       inkscape:transform-center-x="-0.5729727"
       inkscape:transform-center-y="0.88786671"
       d="m 157.36888,114.8185 c -2.91122,3.62286 -30.57556,-6.77844 -35.19586,-6.27524 -4.6203,0.5032 -29.396974,16.6159 -33.019834,13.70467 -3.62286,-2.91122 6.778442,-30.575562 6.275241,-35.195859 -0.503201,-4.620297 -16.615901,-29.396974 -13.704674,-33.019834 2.911227,-3.62286 30.575567,6.778442 35.195867,6.275241 4.62029,-0.5032 29.39697,-16.6159 33.01983,-13.704674 3.62286,2.911227 -6.77844,30.575567 -6.27524,35.195864 0.5032,4.620297 16.6159,29.396972 13.70467,33.019832 z"
       inkscape:export-filename="/home/davran/Documents/Code/godot/KajamGame/Assets/spikey-rock.png"
       inkscape:export-xdpi="150"
       inkscape:export-ydpi="150" />
    <path
       sodipodi:type="star"
       style="fill:#cccccc;stroke:none;stroke-width:3.57165;stroke-linecap:round;stroke-linejoin:round;stroke-miterlimit:12.2"
       id="path2019-5-2-2"
       inkscape:flatsided="false"
       sodipodi:sides="4"
       sodipodi:cx="119.54632"
       sodipodi:cy="84.425369"
       sodipodi:r1="48.521015"
       sodipodi:r2="24.260508"
       sodipodi:arg1="0.67691485"
       sodipodi:arg2="1.462313"
       inkscape:rounded="0.13"
       inkscape:randomized="0"
       transform="matrix(-0.05644128,0.2916978,0.2916978,0.05644128,-0.33149054,0.57323525)"
       inkscape:transform-center-x="-0.67449072"
       inkscape:transform-center-y="0.1424364"
       d="m 157.36888,114.8185 c -2.91122,3.62286 -30.57556,-6.77844 -35.19586,-6.27524 -4.6203,0.5032 -29.396974,16.6159 -33.019834,13.70467 -3.62286,-2.91122 6.778442,-30.575562 6.275241,-35.195859 -0.503201,-4.620297 -16.615901,-29.396974 -13.704674,-33.019834 2.911227,-3.62286 30.575567,6.778442 35.195867,6.275241 4.62029,-0.5032 29.39697,-16.6159 33.01983,-13.704674 3.62286,2.911227 -6.77844,30.575567 -6.27524,35.195864 0.5032,4.620297 16.6159,29.396972 13.70467,33.019832 z"
       inkscape:export-filename="/home/davran/Documents/Code/godot/KajamGame/Assets/spikey-rock.png"
       inkscape:export-xdpi="150"
       inkscape:export-ydpi="150" />
    <path
       sodipodi:type="star"
       style="fill:#b3b3b3;stroke-width:3.57165;stroke-linecap:round;stroke-linejoin:round;stroke-miterlimit:12.2"
       id="path2019-5-3"
       inkscape:flatsided="false"
       sodipodi:sides="3"
       sodipodi:cx="119.54632"
       sodipodi:cy="84.425369"
       sodipodi:r1="48.521015"
       sodipodi:r2="24.260508"
       sodipodi:arg1="0.67691485"
       sodipodi:arg2="1.7241124"
       inkscape:rounded="0.13"
       inkscape:randomized="0"
       transform="matrix(-0.66139444,0,0,0.48483555,111.91817,1.1199692)"
       inkscape:transform-center-x="0.026060623"
       inkscape:transform-center-y="1.1247817"
       d="m 157.36888,114.8185 c -3.42176,4.25819 -36.12895,-5.58296 -41.52753,-6.4172 -5.39858,-0.83423 -39.550719,-1.32477 -41.527539,-6.41719 -1.976821,-5.09243 22.899465,-28.497118 26.321229,-32.755307 3.42175,-4.258189 20.92264,-33.589538 26.32122,-32.755302 5.39858,0.834236 13.22949,34.080075 15.20631,39.1725 1.97682,5.092425 18.62807,34.914309 15.20631,39.172499 z"
       inkscape:export-filename="/home/davran/Documents/Code/godot/KajamGame/Assets/spikey-rock.png"
       inkscape:export-xdpi="150"
       inkscape:export-ydpi="150" />
    <path
       sodipodi:type="star"
       style="fill:#cccccc;stroke-width:3.57165;stroke-linecap:round;stroke-linejoin:round;stroke-miterlimit:12.2"
       id="path2019-5-3-6"
       inkscape:flatsided="false"
       sodipodi:sides="3"
       sodipodi:cx="119.54632"
       sodipodi:cy="84.425369"
       sodipodi:r1="48.521015"
       sodipodi:r2="24.260508"
       sodipodi:arg1="0.67691485"
       sodipodi:arg2="1.7241124"
       inkscape:rounded="0.13"
       inkscape:randomized="0"
       transform="matrix(0.65324444,-0.05881931,-0.01951014,-0.13149027,-38.75903,74.225087)"
       inkscape:transform-center-x="0.62370754"
       inkscape:transform-center-y="-1.7684539"
       d="m 157.36888,114.8185 c -3.42176,4.25819 -36.12895,-5.58296 -41.52753,-6.4172 -5.39858,-0.83423 -39.550719,-1.32477 -41.527539,-6.41719 -1.976821,-5.09243 22.899465,-28.497118 26.321229,-32.755307 3.42175,-4.258189 20.92264,-33.589538 26.32122,-32.755302 5.39858,0.834236 13.22949,34.080075 15.20631,39.1725 1.97682,5.092425 18.62807,34.914309 15.20631,39.172499 z"
       inkscape:export-filename="/home/davran/Documents/Code/godot/KajamGame/Assets/spikey-rock.png"
       inkscape:export-xdpi="150"
       inkscape:export-ydpi="150" />
    <path
       sodipodi:type="star"
       style="fill:#808080;stroke-width:3.57165;stroke-linecap:round;stroke-linejoin:round;stroke-miterlimit:12.2"
       id="path2019-5-3-1"
       inkscape:flatsided="false"
       sodipodi:sides="2"
       sodipodi:cx="119.54632"
       sodipodi:cy="84.425369"
       sodipodi:r1="48.521015"
       sodipodi:r2="24.260508"
       sodipodi:arg1="0.67691485"
       sodipodi:arg2="2.2477112"
       inkscape:rounded="0.13"
       inkscape:randomized="0"
       transform="matrix(0.54927607,0.23988584,0.24227576,-0.43312851,-51.165362,61.851846)"
       inkscape:transform-center-x="-0.58371081"
       inkscape:transform-center-y="-0.9953738"
       d="m 157.36888,114.8185 c -4.41747,5.4973 -47.52183,-7.06438 -53.01913,-11.48185 -5.497297,-4.417471 -27.043469,-43.807115 -22.625997,-49.304413 4.417472,-5.497299 47.521837,7.064378 53.019127,11.48185 5.4973,4.417472 27.04348,43.807113 22.626,49.304413 z"
       inkscape:export-filename="/home/davran/Documents/Code/godot/KajamGame/Assets/spikey-rock.png"
       inkscape:export-xdpi="150"
       inkscape:export-ydpi="150" />
  </g>
</svg>
