<?xml version="1.0" encoding="UTF-8" standalone="no"?>
<!-- Created with Inkscape (http://www.inkscape.org/) -->

<svg
   width="80mm"
   height="50mm"
   viewBox="0 0 80 50"
   version="1.1"
   id="svg5"
   inkscape:export-filename="D:\Art\kajamGame\worm-dead.png"
   inkscape:export-xdpi="500"
   inkscape:export-ydpi="500"
   inkscape:version="1.1.1 (3bf5ae0d25, 2021-09-20)"
   sodipodi:docname="worm.svg"
   xmlns:inkscape="http://www.inkscape.org/namespaces/inkscape"
   xmlns:sodipodi="http://sodipodi.sourceforge.net/DTD/sodipodi-0.dtd"
   xmlns="http://www.w3.org/2000/svg"
   xmlns:svg="http://www.w3.org/2000/svg">
  <sodipodi:namedview
     id="namedview7"
     pagecolor="#505050"
     bordercolor="#ffffff"
     borderopacity="1"
     inkscape:pageshadow="0"
     inkscape:pageopacity="0"
     inkscape:pagecheckerboard="1"
     inkscape:document-units="mm"
     showgrid="false"
     inkscape:zoom="1"
     inkscape:cx="27.5"
     inkscape:cy="286.5"
     inkscape:window-width="1920"
     inkscape:window-height="1017"
     inkscape:window-x="1912"
     inkscape:window-y="-8"
     inkscape:window-maximized="1"
     inkscape:current-layer="layer1" />
  <defs
     id="defs2" />
  <g
     inkscape:label="Layer 1"
     inkscape:groupmode="layer"
     id="layer1">
    <path
       style="fill:none;stroke:#000000;stroke-width:0.327659px;stroke-linecap:butt;stroke-linejoin:miter;stroke-opacity:1"
       d="m 1.612369,86.476588 c 0,0 2.2696837,-3.275221 15.157528,5.357525 12.887832,8.632737 16.447319,-17.168605 26.870142,-18.97062 10.422834,-1.802016 11.114068,21.201919 22.2914,14.328828 11.177333,-6.873093 -6.873483,-35.716334 2.6176,-34.88226 9.491082,0.834076 15.199493,15.306517 8.561924,40.168171 C 70.473381,117.33988 49.660959,82.256904 43.476922,81.924507 37.292896,81.59211 38.911903,102.18096 23.674805,101.24344 8.4377168,100.30592 -4.9080414,92.549225 1.612369,86.476588 Z"
       id="path857" />
    <path
       style="fill:none;stroke:#000000;stroke-width:0.327659px;stroke-linecap:butt;stroke-linejoin:miter;stroke-opacity:1"
       d="m 17.533044,92.161744 c 0,0 -3.321066,2.128718 -1.865263,8.095146"
       id="path859" />
    <path
       style="fill:none;stroke:#000000;stroke-width:0.327659px;stroke-linecap:butt;stroke-linejoin:miter;stroke-opacity:1"
       d="m 19.260399,93.177744 c 0,0 -2.228139,2.502218 -0.909267,7.527716"
       id="path861" />
    <path
       style="fill:none;stroke:#000000;stroke-width:0.327659px;stroke-linecap:butt;stroke-linejoin:miter;stroke-opacity:1"
       d="m 28.354962,89.942482 c 0,0 -0.324445,5.742031 4.779997,7.713037"
       id="path863" />
    <path
       style="fill:none;stroke:#000000;stroke-width:0.327659px;stroke-linecap:butt;stroke-linejoin:miter;stroke-opacity:1"
       d="m 29.939761,87.87083 c 0,0 -0.53251,5.019798 4.547056,8.372054"
       id="path865" />
    <path
       style="fill:none;stroke:#000000;stroke-width:0.327659px;stroke-linecap:butt;stroke-linejoin:miter;stroke-opacity:1"
       d="m 31.186097,86.179954 c 0,0 -0.470301,4.634049 4.553034,8.04056"
       id="path867" />
    <path
       style="fill:none;stroke:#000000;stroke-width:0.327659px;stroke-linecap:butt;stroke-linejoin:miter;stroke-opacity:1"
       d="m 53.992351,81.118983 c 0,0 -3.759985,0.09812 -4.245203,5.560915"
       id="path869" />
    <path
       style="fill:none;stroke:#000000;stroke-width:0.327659px;stroke-linecap:butt;stroke-linejoin:miter;stroke-opacity:1"
       d="m 55.067516,82.796378 c 0,0 -2.931246,0.113034 -3.522981,5.352844"
       id="path871" />
    <path
       style="fill:none;stroke:#000000;stroke-width:0.327659px;stroke-linecap:butt;stroke-linejoin:miter;stroke-opacity:1"
       d="m 56.899278,85.426949 c 0,0 -3.227394,1.213064 -2.862963,5.530531"
       id="path873" />
    <path
       style="fill:none;stroke:#000000;stroke-width:0.327659px;stroke-linecap:butt;stroke-linejoin:miter;stroke-opacity:1"
       d="m 65.147991,87.730896 c 0,0 -3.510491,7.729594 4.065828,13.613854"
       id="path875" />
    <path
       style="fill:none;stroke:#000000;stroke-width:0.327659px;stroke-linecap:butt;stroke-linejoin:miter;stroke-opacity:1"
       d="m 67.386844,86.168427 c 0,0 -2.103834,9.412954 4.65766,14.508793"
       id="path877" />
    <path
       style="fill:none;stroke:#000000;stroke-width:0.327659px;stroke-linecap:butt;stroke-linejoin:miter;stroke-opacity:1"
       d="m 69.680839,78.472203 c 0,0 2.578407,4.13625 10.209787,-2.247994"
       id="path879" />
    <path
       style="fill:none;stroke:#000000;stroke-width:0.327659px;stroke-linecap:butt;stroke-linejoin:miter;stroke-opacity:1"
       d="m 69.717639,76.427949 c 0,0 3.465391,3.986414 10.142059,-4.625739"
       id="path881" />
    <path
       style="fill:none;stroke:#000000;stroke-width:0.327659px;stroke-linecap:butt;stroke-linejoin:miter;stroke-opacity:1"
       d="m 70.120565,60.18641 c 0,0 2.442488,2.475759 4.157676,-0.698907"
       id="path883" />
    <path
       style="fill:#ff80b2;fill-rule:evenodd;stroke:#2f210e;stroke-width:0.0417707"
       d="M 13.374843,99.290634 C 8.1277072,97.802206 4.2377362,95.799514 1.9268347,93.3968 1.2077568,92.649145 0.84895453,92.170758 0.57761127,91.597888 0.23838082,90.881682 0.20943382,90.735664 0.22578231,89.822979 c 0.0155406,-0.867606 0.0590841,-1.074861 0.34124134,-1.624238 0.17788492,-0.346353 0.57839155,-0.898817 0.89001565,-1.227694 0.4587431,-0.484146 0.6848412,-0.63004 1.1878278,-0.766496 2.2576085,-0.612456 6.9841716,1.270203 13.0550339,5.200017 0.676063,0.437633 1.22856,0.831458 1.227773,0.875167 -7.87e-4,0.04371 -0.159166,0.270001 -0.351947,0.502872 -0.475888,0.574852 -0.956557,1.506748 -1.183467,2.294476 -0.275754,0.957282 -0.368624,2.581086 -0.212747,3.719801 0.11877,0.867571 0.114702,0.968344 -0.03867,0.957832 -0.09427,-0.0067 -0.888967,-0.215296 -1.766012,-0.464082 z"
       id="path1421" />
    <path
       style="fill:#ff80b2;fill-rule:evenodd;stroke:#2f210e;stroke-width:0.0417707"
       d="m 21.195668,100.8034 c -0.81899,-0.0968 -1.760797,-0.22048 -2.092914,-0.27496 l -0.603841,-0.0991 -0.140216,-0.60928 c -0.0811,-0.352317 -0.135194,-1.285157 -0.12831,-2.211839 0.01041,-1.403455 0.04605,-1.704777 0.2866,-2.425295 0.288965,-0.865514 0.635247,-1.589745 0.809572,-1.693195 0.05709,-0.03384 0.442167,0.02474 0.855893,0.130201 0.951733,0.242584 2.588128,0.19949 3.465929,-0.09127 1.421783,-0.470938 2.540188,-1.167966 3.876123,-2.41572 l 0.582093,-0.543678 0.05924,0.431532 c 0.424739,3.092051 1.72347,5.175622 4.026634,6.46 l 0.662134,0.369244 -0.5887,0.488882 c -1.775445,1.474425 -3.551755,2.280708 -5.711216,2.592428 -1.205029,0.17393 -3.335922,0.13098 -5.359058,-0.10798 z"
       id="path1460" />
    <path
       style="fill:#ff80b2;fill-rule:evenodd;stroke:#2f210e;stroke-width:0.0417707"
       d="m 35.035041,93.420832 c -2.082848,-1.685938 -3.433893,-4.085513 -3.599338,-6.392809 l -0.05268,-0.733986 1.786342,-2.731242 c 0.982496,-1.502183 2.094572,-3.173366 2.471284,-3.713737 2.663914,-3.82118 4.813304,-5.770413 7.242926,-6.568437 0.827658,-0.27185 2.329472,-0.346922 3.1608,-0.158007 2.149317,0.488428 4.135286,2.353094 6.553791,6.153507 0.556503,0.874481 1.011363,1.614904 1.010815,1.645384 -5.49e-4,0.03047 -0.16965,0.08392 -0.375786,0.118769 -0.520297,0.08796 -1.610602,0.788561 -2.121213,1.363067 -0.705742,0.794061 -1.444081,2.536005 -1.460456,3.445618 -0.0051,0.280846 -0.06004,0.246136 -0.886578,-0.55996 -0.484653,-0.472655 -1.230936,-1.153681 -1.658428,-1.513402 -2.541576,-2.138652 -3.849282,-2.519473 -5.35473,-1.559346 -1.091287,0.695977 -1.86057,2.034996 -3.686071,6.415959 -1.345958,3.230088 -2.229499,5.104977 -2.43022,5.15693 -0.06061,0.01569 -0.330854,-0.150049 -0.600505,-0.368309 z"
       id="path1499" />
    <path
       style="fill:#ff80b2;fill-rule:evenodd;stroke:#2f210e;stroke-width:0.0417707"
       d="m 67.344538,100.79918 c -2.869687,-0.871586 -6.285195,-3.351433 -11.27093,-8.183302 l -1.879361,-1.821357 0.06867,-0.938324 c 0.115002,-1.571937 0.744238,-2.803693 1.889449,-3.698983 l 0.601129,-0.469946 0.775001,0.778986 c 1.609324,1.617589 2.663681,2.118399 4.508702,2.1416 1.02877,0.01292 1.331585,-0.02642 1.970118,-0.256056 0.635739,-0.228633 0.745229,-0.243022 0.695608,-0.09142 -0.374147,1.143017 -0.47368,1.838543 -0.507043,3.543208 -0.03067,1.564726 -0.0019,1.957014 0.202304,2.767042 0.538459,2.135526 1.383928,3.652555 3.002547,5.387415 0.562482,0.602867 0.953088,1.091347 0.868015,1.085497 -0.08512,-0.005 -0.500973,-0.1158 -0.924216,-0.24436 z"
       id="path1538" />
    <path
       style="fill:#ff80b2;fill-rule:evenodd;stroke:#2f210e;stroke-width:0.0417707"
       d="M 71.091518,99.501122 C 70.051603,98.475223 69.268839,97.387853 68.671784,96.1398 67.559108,93.813884 67.082707,90.672962 67.396511,87.731968 l 0.157475,-1.475792 0.604966,-0.869536 c 0.996577,-1.432445 1.684261,-3.653487 1.718403,-5.550062 l 0.0136,-0.755419 0.437025,0.287013 c 0.527893,0.346686 1.510892,0.635815 2.194646,0.645504 1.696819,0.02405 3.663191,-0.789001 6.05112,-2.502032 l 1.096986,-0.786943 -0.07094,0.630786 c -0.03895,0.346934 -0.136802,1.276235 -0.217355,2.065116 -0.382233,3.743017 -1.247276,8.302909 -2.371946,12.503138 -0.880379,3.287876 -1.715341,5.215591 -2.933854,6.773531 -0.570474,0.729381 -1.717076,1.764558 -1.949846,1.760368 -0.0369,-6.7e-4 -0.502741,-0.4311 -1.035329,-0.956518 z"
       id="path1577" />
    <path
       style="fill:#ff80b2;fill-rule:evenodd;stroke:#2f210e;stroke-width:0.0417707"
       d="m 71.055644,76.951757 c -0.529802,-0.175901 -1.223512,-0.62892 -1.222052,-0.798061 4.38e-4,-0.06078 -0.106098,-0.883434 -0.236808,-1.828106 -0.318807,-2.303249 -0.764604,-4.42997 -1.98638,-9.476136 -1.192723,-4.926192 -1.618811,-7.131487 -1.686722,-8.729922 -0.129674,-3.052443 0.899323,-3.999521 3.705125,-3.410144 1.851616,0.388945 3.403124,1.278475 4.889219,2.803137 3.086047,3.166162 4.750947,8.046337 5.198167,15.23701 l 0.05157,0.829947 -0.635239,0.762317 c -1.714841,2.057882 -3.222434,3.386947 -4.652944,4.10194 -1.36748,0.683492 -2.423518,0.840177 -3.423975,0.508017 z m 2.038199,-15.910569 c 0.584612,-0.292132 1.40078,-1.213691 1.315677,-1.485563 -0.08784,-0.280773 -0.372338,-0.141528 -0.691272,0.338402 -0.392734,0.590962 -1.059071,0.997329 -1.620562,0.988292 -0.356155,-0.0058 -1.220148,-0.374758 -1.669798,-0.713203 -0.1448,-0.108991 -0.218406,-0.111913 -0.32116,-0.01288 -0.18025,0.173868 0.02255,0.419445 0.601811,0.728637 0.983202,0.524831 1.57067,0.563307 2.385305,0.156222 z"
       id="path1616" />
    <path
       style="fill:#ff2a7f;fill-rule:evenodd;stroke:#2f210e;stroke-width:0.0417707"
       d="m 71.597556,79.453439 c -0.472017,-0.123946 -1.048853,-0.448118 -1.395212,-0.784075 -0.265867,-0.257879 -0.297354,-0.367878 -0.28599,-0.999179 0.01141,-0.633931 0.03316,-0.700099 0.204641,-0.621976 1.188067,0.541356 1.971118,0.639934 3.038025,0.382452 1.915044,-0.462159 4.01084,-2.030204 6.209497,-4.645852 l 0.363321,-0.432221 -0.03019,1.888362 -0.03019,1.888361 -0.936019,0.714732 c -2.765482,2.111683 -5.385517,3.069524 -7.13768,2.6094 z"
       id="path1729" />
    <path
       style="fill:#ff2a7f;fill-rule:evenodd;stroke:#2f210e;stroke-width:0.0417707"
       d="m 68.485089,100.42221 c -2.529011,-2.293748 -3.807392,-4.944889 -3.885897,-8.058682 -0.0376,-1.489383 0.07276,-2.342307 0.47944,-3.705332 l 0.259146,-0.868616 0.883484,-0.562368 c 0.857611,-0.545901 0.880985,-0.553575 0.797927,-0.261978 -0.168999,0.59336 -0.149509,4.121596 0.02924,5.276584 0.468954,3.031068 1.715813,5.607757 3.640532,7.523318 0.502404,0.500014 0.913058,0.930924 0.912578,0.957584 -0.0016,0.0886 -1.079697,0.34944 -1.681387,0.40678 l -0.592933,0.0565 z"
       id="path1768" />
    <path
       style="fill:#ff2a7f;fill-rule:evenodd;stroke:#2f210e;stroke-width:0.0417707"
       d="m 52.72989,89.248439 -0.982791,-1.040301 0.109556,-0.712167 c 0.145261,-0.944478 0.614726,-2.244831 1.042946,-2.888861 0.411544,-0.618926 1.210422,-1.322471 1.674994,-1.475095 0.317684,-0.104368 0.349326,-0.08554 0.678162,0.403676 0.1897,0.28224 0.549305,0.796769 0.799108,1.1434 l 0.454194,0.630245 -0.303488,0.208087 c -1.231931,0.844714 -2.074729,2.221113 -2.333544,3.81104 l -0.156319,0.960281 z"
       id="path1807" />
    <path
       style="fill:#ff2a7f;fill-rule:evenodd;stroke:#2f210e;stroke-width:0.0417707"
       d="m 50.643892,87.103176 -0.675375,-0.706416 0.172989,-0.820515 c 0.323269,-1.533326 0.880773,-2.549505 1.850112,-3.372264 0.429708,-0.364734 1.499509,-0.877247 1.807494,-0.86593 0.04333,0.0014 0.257782,0.290068 0.476666,0.641055 l 0.397956,0.638166 -0.547471,0.248224 c -1.153996,0.523219 -2.068662,1.908821 -2.54051,3.848545 l -0.2665,1.095548 z"
       id="path1846" />
    <path
       style="fill:#ff2a7f;fill-rule:evenodd;stroke:#2f210e;stroke-width:0.0417707"
       d="m 33.785217,95.434246 c -0.3163,-0.267027 -0.665353,-0.554388 -0.775684,-0.638574 -0.306884,-0.234173 -1.334008,-1.575599 -1.688313,-2.204938 -0.666254,-1.183477 -1.190709,-3.035921 -1.170908,-4.135847 0.0087,-0.482976 0.668671,-1.555041 0.812218,-1.319375 0.04932,0.08107 0.08866,0.248843 0.08742,0.372836 -0.0046,0.466406 0.325814,1.581058 0.740523,2.49598 0.693055,1.52899 1.867392,2.956212 3.369584,4.095225 l 0.298661,0.226448 -0.464747,0.710116 c -0.255607,0.390565 -0.502747,0.749162 -0.549211,0.796881 -0.04644,0.04772 -0.343247,-0.13172 -0.659547,-0.398752 z"
       id="path1885" />
    <path
       style="fill:#ff2a7f;fill-rule:evenodd;stroke:#2f210e;stroke-width:0.0417707"
       d="m 32.321832,97.014906 c -0.538242,-0.289175 -1.08276,-0.710631 -1.596761,-1.235877 -0.982394,-1.003888 -1.671512,-2.394527 -1.967052,-3.969515 -0.290794,-1.549669 -0.269199,-1.701395 0.348858,-2.450388 0.602164,-0.729753 0.559396,-0.76285 0.789516,0.611104 0.351498,2.098774 1.829555,4.459502 3.68546,5.88636 0.284837,0.218985 0.517267,0.432575 0.516509,0.474647 -7.57e-4,0.04207 -0.217018,0.311841 -0.48058,0.59949 l -0.479191,0.523003 z"
       id="path1924" />
    <path
       style="fill:#ff2a7f;fill-rule:evenodd;stroke:#2f210e;stroke-width:0.0417707"
       d="m 16.841472,100.13817 -0.99117,-0.202605 -0.142386,-0.552043 c -0.08451,-0.327931 -0.136868,-1.157776 -0.12879,-2.044044 0.01145,-1.255707 0.05445,-1.613797 0.271282,-2.261104 0.269074,-0.80303 0.900588,-1.91015 1.323483,-2.32021 l 0.246888,-0.239407 0.712094,0.355173 c 0.391645,0.195343 0.725056,0.365689 0.740914,0.378547 0.01587,0.01287 -0.09697,0.240076 -0.250679,0.504934 -0.841839,1.450419 -1.100343,3.883795 -0.663975,6.250139 0.03657,0.19824 0.02311,0.35432 -0.03003,0.34683 -0.05311,-0.008 -0.542503,-0.10478 -1.087648,-0.21621 z"
       id="path1963" />
    <ellipse
       style="fill:#000000;fill-rule:evenodd;stroke:#2f210e;stroke-width:0;stroke-miterlimit:4;stroke-dasharray:none"
       id="path2024"
       cx="38.737743"
       cy="81.550865"
       rx="0.7183677"
       ry="0.93940389"
       transform="rotate(-25.325544)" />
    <ellipse
       style="fill:#ffffff;fill-rule:evenodd;stroke:#2f210e;stroke-width:0;stroke-miterlimit:4;stroke-dasharray:none"
       id="path2146"
       cx="62.184662"
       cy="65.234924"
       rx="0.29305539"
       ry="0.27351835"
       transform="rotate(-7.3523153)" />
    <ellipse
       style="fill:#000000;fill-rule:evenodd;stroke:#2f210e;stroke-width:0;stroke-miterlimit:4;stroke-dasharray:none"
       id="path2024-9"
       cx="38.314999"
       cy="83.533707"
       rx="0.7183677"
       ry="0.93940389"
       transform="rotate(-27.398239)" />
    <ellipse
       style="fill:#ffffff;fill-rule:evenodd;stroke:#2f210e;stroke-width:0;stroke-miterlimit:4;stroke-dasharray:none"
       id="path2146-8"
       cx="62.394421"
       cy="67.251427"
       rx="0.29305539"
       ry="0.27351835"
       transform="rotate(-9.4250106)" />
    <path
       style="fill:none;stroke:#000000;stroke-width:0.264583px;stroke-linecap:butt;stroke-linejoin:miter;stroke-opacity:1"
       d="m 73.224958,114.72188 c 0,0 2.068083,1.89991 3.325554,-0.72852"
       id="path883-2" />
    <ellipse
       style="fill:#000000;fill-rule:evenodd;stroke:#2f210e;stroke-width:0;stroke-miterlimit:4;stroke-dasharray:none"
       id="path2024-0"
       cx="11.353769"
       cy="133.39827"
       rx="0.58007812"
       ry="0.7585637"
       transform="rotate(-28.139785)" />
    <ellipse
       style="fill:#ffffff;fill-rule:evenodd;stroke:#2f210e;stroke-width:0;stroke-miterlimit:4;stroke-dasharray:none"
       id="path2146-85"
       cx="52.102375"
       cy="123.07587"
       rx="0.23664068"
       ry="0.22086462"
       transform="rotate(-10.166557)" />
    <ellipse
       style="fill:#000000;fill-rule:evenodd;stroke:#2f210e;stroke-width:0;stroke-miterlimit:4;stroke-dasharray:none"
       id="path2024-9-5"
       cx="8.5824594"
       cy="134.23451"
       rx="0.58007812"
       ry="0.7585637"
       transform="rotate(-30.21248)" />
    <ellipse
       style="fill:#ffffff;fill-rule:evenodd;stroke:#2f210e;stroke-width:0;stroke-miterlimit:4;stroke-dasharray:none"
       id="path2146-8-3"
       cx="49.724377"
       cy="124.72644"
       rx="0.23664068"
       ry="0.22086462"
       transform="rotate(-12.239252)" />
    <path
       style="fill:none;stroke:#000000;stroke-width:0.264583px;stroke-linecap:butt;stroke-linejoin:miter;stroke-opacity:1"
       d="m 4.4090893,136.97024 c 0,0 5.6314737,-1.62739 13.2923417,3.12179 7.660869,4.74918 15.478559,0.33894 28.724024,-0.0734 13.245464,-0.41231 15.476352,2.29618 21.795982,-1.56235 6.319641,-3.85853 3.687241,-11.35276 2.694757,-18.89804 -0.992484,-7.54527 -2.54895,-12.92641 1.913322,-11.55008 4.462272,1.37634 6.322577,4.3489 6.590086,8.88627 0.267509,4.53738 5.656972,31.64382 -2.519046,32.65594 -8.176008,1.01212 -23.47467,-3.68872 -36.909596,-1.25021 -13.434935,2.43851 -17.246839,1.67328 -24.547183,-1.63502 -7.3003345,-3.3083 -16.37115927,-2.64714 -11.0346877,-9.69494 z"
       id="path2454" />
    <path
       style="fill:none;stroke:#000000;stroke-width:0.264583px;stroke-linecap:butt;stroke-linejoin:miter;stroke-opacity:1"
       d="m 19.757087,141.2276 c 0,0 -3.04741,1.48382 -1.374612,6.54567"
       id="path2456" />
    <path
       style="fill:none;stroke:#000000;stroke-width:0.264583px;stroke-linecap:butt;stroke-linejoin:miter;stroke-opacity:1"
       d="m 21.160412,141.68899 c 0,0 -2.481961,3.4234 -0.925243,6.78422"
       id="path2458" />
    <path
       style="fill:none;stroke:#000000;stroke-width:0.264583px;stroke-linecap:butt;stroke-linejoin:miter;stroke-opacity:1"
       d="m 33.217293,141.62936 c 0,0 -2.499873,4.87606 0.80523,7.61424"
       id="path2460" />
    <path
       style="fill:none;stroke:#000000;stroke-width:0.264583px;stroke-linecap:butt;stroke-linejoin:miter;stroke-opacity:1"
       d="m 34.847392,141.26295 c 0,0 -1.528248,5.66656 0.937268,7.79953"
       id="path2462" />
    <path
       style="fill:none;stroke:#000000;stroke-width:0.264583px;stroke-linecap:butt;stroke-linejoin:miter;stroke-opacity:1"
       d="m 36.607567,141.01876 c 0,0 -1.607034,5.16393 0.616001,7.62012"
       id="path2464" />
    <path
       style="fill:none;stroke:#000000;stroke-width:0.264583px;stroke-linecap:butt;stroke-linejoin:miter;stroke-opacity:1"
       d="m 52.423342,140.02137 c 0,0 -2.791437,3.62243 -0.458213,7.59043"
       id="path2466" />
    <path
       style="fill:none;stroke:#000000;stroke-width:0.264583px;stroke-linecap:butt;stroke-linejoin:miter;stroke-opacity:1"
       d="m 54.132217,140.15758 c 0,0 -2.292742,3.41751 -0.523246,7.52932"
       id="path2468" />
    <path
       style="fill:none;stroke:#000000;stroke-width:0.264583px;stroke-linecap:butt;stroke-linejoin:miter;stroke-opacity:1"
       d="m 55.521799,140.17746 c 0,0 -2.21003,4.04628 -0.332065,7.5865"
       id="path2470" />
    <path
       style="fill:none;stroke:#000000;stroke-width:0.264583px;stroke-linecap:butt;stroke-linejoin:miter;stroke-opacity:1"
       d="m 67.852817,138.78347 c 0,0 0.720311,8.94271 7.281684,10.82191"
       id="path2472" />
    <path
       style="fill:none;stroke:#000000;stroke-width:0.264583px;stroke-linecap:butt;stroke-linejoin:miter;stroke-opacity:1"
       d="m 69.463273,137.78631 c 0,0 -0.215975,9.28754 8.436648,11.41732"
       id="path2474" />
    <path
       style="fill:none;stroke:#000000;stroke-width:0.264583px;stroke-linecap:butt;stroke-linejoin:miter;stroke-opacity:1"
       d="m 72.190426,128.04181 c 0,0 3.848954,3.98395 8.526716,0.11339"
       id="path2476" />
    <path
       style="fill:none;stroke:#000000;stroke-width:0.264583px;stroke-linecap:butt;stroke-linejoin:miter;stroke-opacity:1"
       d="m 72.391172,130.43468 c 0,0 3.965296,3.66465 8.637168,-0.39512"
       id="path2478" />
    <path
       style="fill:#ff80b2;fill-opacity:1;fill-rule:evenodd;stroke:#2f210e;stroke-width:0;stroke-miterlimit:4;stroke-dasharray:none"
       d="m 15.886212,146.61862 c -1.045599,-0.46099 -3.684167,-1.38283 -5.863473,-2.04853 -5.8529997,-1.78788 -7.0949214,-2.55221 -6.9596137,-4.28327 0.070852,-0.90582 1.0598558,-2.73449 1.6634933,-3.07566 0.5624027,-0.31786 2.6304776,-0.36371 4.4852679,-0.0994 2.6071295,0.37147 4.7947055,1.19354 8.2125755,3.08619 l 1.859456,1.02968 -0.57924,0.6827 c -0.318582,0.37549 -0.67732,0.9976 -0.797213,1.38247 -0.236193,0.75825 -0.232416,2.89967 0.0065,3.68387 0.08146,0.26755 0.08633,0.48504 0.01104,0.48329 -0.07559,-0.002 -0.992924,-0.38033 -2.038523,-0.84132 z"
       id="path5200" />
    <path
       style="fill:#ff80b2;fill-opacity:1;fill-rule:evenodd;stroke:#2f210e;stroke-width:0;stroke-miterlimit:4;stroke-dasharray:none"
       d="m 24.631118,149.3224 c -0.788763,-0.0977 -2.062084,-0.34311 -2.829616,-0.5453 -1.375137,-0.36226 -1.398735,-0.37823 -1.616428,-1.09363 -0.364695,-1.19848 -0.199768,-2.91845 0.420125,-4.38144 0.580348,-1.36962 0.669141,-1.42779 1.750423,-1.14662 1.758125,0.45717 6.48261,0.34203 9.761494,-0.2379 l 0.748065,-0.13231 -0.3384,1.05658 c -0.666434,2.0808 -0.486213,4.24402 0.467024,5.60571 l 0.442312,0.63183 -1.079681,0.14694 c -1.723247,0.23452 -6.162508,0.28976 -7.725318,0.0961 z"
       id="path5239" />
    <path
       style="fill:#ff80b2;fill-opacity:1;fill-rule:evenodd;stroke:#2f210e;stroke-width:0;stroke-miterlimit:4;stroke-dasharray:none"
       d="m 37.232632,148.2503 c -0.981248,-1.16299 -1.220888,-3.73377 -0.595389,-6.38715 0.174291,-0.73933 0.02175,-0.69312 3.885796,-1.17748 1.897668,-0.23788 11.190657,-0.61971 11.353713,-0.4665 0.03989,0.0375 -0.113905,0.47024 -0.341838,0.9616 -0.811825,1.75003 -0.922538,3.48086 -0.33201,5.19018 l 0.356388,1.03161 -4.917542,0.15967 c -3.749639,0.12172 -5.372033,0.24645 -6.831219,0.52514 -2.2865,0.4367 -2.343875,0.44033 -2.577898,0.16296 z"
       id="path5278" />
    <path
       style="fill:#ff80b2;fill-opacity:1;fill-rule:evenodd;stroke:#2f210e;stroke-width:0;stroke-miterlimit:4;stroke-dasharray:none"
       d="m 72.044945,149.41732 c -0.34441,-0.0213 -4.233323,-0.42982 -8.642027,-0.90777 l -8.015818,-0.869 -0.314101,-0.70451 c -0.451581,-1.01286 -0.480959,-3.25449 -0.06198,-4.73277 0.524086,-1.84933 0.415084,-1.78984 2.920462,-1.59395 4.11439,0.32168 6.492073,0.047 8.587057,-0.99218 1.038802,-0.51526 1.268352,-0.45969 1.301129,0.31496 0.03892,0.91926 0.914195,3.52211 1.668086,4.9603 0.928478,1.77124 2.116915,3.12733 3.507211,4.002 l 0.922034,0.58008 -0.622897,-0.009 c -0.342604,-0.005 -0.904707,-0.0266 -1.249117,-0.048 z"
       id="path5317" />
    <path
       style="fill:#ff80b2;fill-opacity:1;fill-rule:evenodd;stroke:#2f210e;stroke-width:0;stroke-miterlimit:4;stroke-dasharray:none"
       d="m 76.812922,148.60317 c -1.562829,-0.58666 -2.508543,-1.16508 -3.555906,-2.17485 -1.873051,-1.80583 -3.140567,-4.4627 -3.438362,-7.20726 l -0.14935,-1.37653 0.731169,-0.88277 c 1.018013,-1.22908 1.646899,-2.67248 1.939137,-4.45065 l 0.249348,-1.51716 1.093415,0.52151 c 1.011672,0.48253 1.228249,0.51731 2.897011,0.46537 1.674289,-0.0521 1.886712,-0.10033 2.963268,-0.6726 0.63783,-0.33905 1.210048,-0.61802 1.271598,-0.61994 0.240083,-0.007 0.388896,8.8992 0.183209,10.96533 -0.338208,3.3972 -1.22497,5.89512 -2.460398,6.93072 -0.583553,0.48917 -0.474367,0.48797 -1.724138,0.0188 z"
       id="path5356" />
    <path
       style="fill:#ff2a7f;fill-opacity:1;fill-rule:evenodd;stroke:#2f210e;stroke-width:0;stroke-miterlimit:4;stroke-dasharray:none"
       d="m 75.173326,129.44689 c -1.507942,-0.40952 -2.705898,-1.28495 -2.833422,-2.07055 -1.19217,-7.34404 -2.137646,-14.25982 -2.194138,-16.04926 -0.09195,-2.9218 0.446761,-3.63405 2.374756,-3.13807 3.137107,0.80702 5.450604,3.01534 6.257444,5.97295 0.122161,0.44779 0.338448,1.88749 0.480642,3.19934 0.142204,1.31185 0.465008,3.90555 0.717354,5.76377 0.614789,4.52715 0.617649,4.77813 0.05977,5.24577 -1.103729,0.92521 -3.480823,1.45126 -4.862405,1.07605 z m 0.991172,-14.49304 c 0.445805,-0.47445 0.668294,-1.10597 0.386551,-1.0972 -0.05567,0.002 -0.357437,0.29238 -0.67063,0.64588 -0.651468,0.7353 -1.149887,0.82086 -1.992971,0.34211 -0.539197,-0.30617 -0.784981,-0.29477 -0.774686,0.0359 0.0089,0.28615 1.021151,0.64432 1.774353,0.62785 0.620896,-0.0136 0.871109,-0.12221 1.277383,-0.55459 z m -2.683629,-2.58932 c -0.02051,-0.65894 -0.419329,-1.02869 -0.894403,-0.82921 -0.343252,0.14412 -0.362473,1.03212 -0.02916,1.34535 0.125283,0.11772 0.388571,0.18586 0.585074,0.15143 0.277661,-0.0486 0.353089,-0.19742 0.338455,-0.66757 z m 2.149375,-0.36142 c 0.0683,-0.31298 -0.0057,-0.56606 -0.234992,-0.80412 -0.462843,-0.4805 -1.053913,-0.34658 -1.10435,0.2502 -0.07903,0.93501 1.145715,1.44153 1.339342,0.55392 z"
       id="path5395" />
    <path
       style="fill:#ff2a7f;fill-opacity:1;fill-rule:evenodd;stroke:#2f210e;stroke-width:0;stroke-miterlimit:4;stroke-dasharray:none"
       d="m 19.224122,148.04229 c -0.581097,-0.22163 -0.650682,-0.27503 -0.746445,-0.57288 -0.247291,-0.76917 -0.363012,-1.44689 -0.389977,-2.2839 -0.04683,-1.44011 0.304364,-2.45153 1.142842,-3.29548 0.496134,-0.49936 0.562671,-0.52266 1.017744,-0.3564 0.167506,0.0612 0.373563,0.13312 0.457915,0.15983 0.133176,0.0422 0.09971,0.15954 -0.254292,0.89164 -0.621745,1.28584 -0.84532,2.17401 -0.856279,3.40169 -0.0067,0.75458 0.03401,1.18911 0.154241,1.63779 0.08989,0.33589 0.152535,0.62229 0.139248,0.63643 -0.01327,0.0142 -0.312533,-0.0843 -0.664997,-0.21872 z"
       id="path9332" />
    <path
       style="fill:#ff2a7f;fill-opacity:1;fill-rule:evenodd;stroke:#2f210e;stroke-width:0;stroke-miterlimit:4;stroke-dasharray:none"
       d="m 33.736243,148.7049 c -1.373194,-1.36343 -1.603891,-3.79059 -0.608976,-6.40709 l 0.245057,-0.64447 0.585812,-0.0785 c 0.322202,-0.0432 0.597239,-0.0672 0.611196,-0.0533 0.01394,0.0138 -0.03855,0.36868 -0.116593,0.78852 -0.458108,2.46311 -0.229257,4.93447 0.565343,6.10522 0.15196,0.2239 0.257027,0.42758 0.233495,0.45263 -0.02353,0.0251 -0.29815,0.0741 -0.610236,0.10891 -0.565778,0.0632 -0.568424,0.0624 -0.905097,-0.27188 z"
       id="path9371" />
    <path
       style="fill:#ff2a7f;fill-opacity:1;fill-rule:evenodd;stroke:#2f210e;stroke-width:0;stroke-miterlimit:4;stroke-dasharray:none"
       d="m 35.490864,148.48188 c -0.666775,-0.81998 -1.024606,-2.53917 -0.901138,-4.32949 0.0642,-0.93002 0.315476,-2.62616 0.402942,-2.71924 0.01511,-0.0161 0.321159,-0.0658 0.680114,-0.11043 l 0.652659,-0.0812 -0.03959,0.21617 c -0.02181,0.11889 -0.119369,0.64052 -0.216929,1.15919 -0.143985,0.76545 -0.169819,1.2202 -0.13718,2.41499 0.04501,1.63872 0.148119,2.0875 0.70693,3.07069 l 0.306092,0.53851 -0.396558,0.067 c -0.696905,0.11772 -0.794763,0.0968 -1.057378,-0.22616 z"
       id="path9410" />
    <path
       style="fill:#ff2a7f;fill-opacity:1;fill-rule:evenodd;stroke:#2f210e;stroke-width:0;stroke-miterlimit:4;stroke-dasharray:none"
       d="m 52.216267,147.44775 c -0.272356,-0.12996 -0.706861,-1.09564 -0.880875,-1.95767 -0.284523,-1.40956 0.0093,-3.14953 0.776838,-4.60029 0.381292,-0.72069 0.36039,-0.71017 1.254699,-0.63153 l 0.447652,0.0394 -0.315103,0.70291 c -0.372226,0.83034 -0.673169,2.11417 -0.728597,3.10827 -0.04629,0.83022 0.129933,2.11393 0.395904,2.88314 l 0.184405,0.5334 -0.458978,0.013 c -0.252452,0.007 -0.556625,-0.0336 -0.675945,-0.0906 z"
       id="path9449" />
    <path
       style="fill:#ff2a7f;fill-opacity:1;fill-rule:evenodd;stroke:#2f210e;stroke-width:0;stroke-miterlimit:4;stroke-dasharray:none"
       d="m 54.036493,147.61922 c -0.214311,-0.0205 -0.298632,-0.0883 -0.383717,-0.30859 -0.779363,-2.01769 -0.697708,-4.20761 0.233965,-6.27519 l 0.326449,-0.72445 0.499591,0.0154 c 0.333941,0.0103 0.486159,0.05 0.459074,0.11965 -1.024811,2.6367 -1.176136,4.79074 -0.46777,6.65859 0.102236,0.26954 0.186287,0.50385 0.186811,0.52071 0.0011,0.0354 -0.454211,0.0321 -0.854403,-0.006 z"
       id="path9488" />
    <path
       style="fill:#ff2a7f;fill-opacity:1;fill-rule:evenodd;stroke:#2f210e;stroke-width:0;stroke-miterlimit:4;stroke-dasharray:none"
       d="m 74.627362,149.24785 c -2.184447,-0.91794 -3.551856,-2.20092 -4.799127,-4.5028 -0.751771,-1.38742 -1.512303,-3.78592 -1.748078,-5.51292 -0.06208,-0.45462 -0.05647,-0.47066 0.217413,-0.622 0.154616,-0.0854 0.442346,-0.27315 0.639402,-0.41712 l 0.358279,-0.26177 0.08326,0.99719 c 0.257417,3.08273 1.586949,5.99145 3.580951,7.83434 1.128012,1.04252 2.135764,1.66041 3.56636,2.18667 0.961348,0.35364 0.941922,0.37916 -0.373033,0.49009 -0.860927,0.0726 -0.91163,0.0662 -1.525432,-0.19168 z"
       id="path9527" />
    <path
       style="fill:#ff2a7f;fill-opacity:1;fill-rule:evenodd;stroke:#2f210e;stroke-width:0;stroke-miterlimit:4;stroke-dasharray:none"
       d="M 75.959702,131.76284 C 74.925671,131.633 73.76387,131.19206 72.91046,130.60557 l -0.433571,-0.29797 -0.02777,-0.89199 -0.02777,-0.892 0.433174,0.29102 c 1.66552,1.11895 3.474018,1.46747 5.140067,0.99054 0.829265,-0.23739 1.648694,-0.62431 2.235628,-1.05564 0.463898,-0.34091 0.492231,-0.30624 0.521639,0.63852 l 0.02013,0.64687 -0.467535,0.34393 c -0.650478,0.47851 -1.58051,0.95865 -2.209481,1.14067 -0.580544,0.168 -1.710066,0.29672 -2.135283,0.24332 z"
       id="path9605" />
    <path
       style="fill:#ff80b2;fill-opacity:1;fill-rule:evenodd;stroke:#2f210e;stroke-width:0;stroke-miterlimit:4;stroke-dasharray:none"
       d="m 74.924477,129.32128 c -1.053986,-0.34443 -2.080112,-1.02642 -2.395229,-1.59195 -0.292291,-0.52454 -2.083439,-12.91724 -2.29282,-15.86362 -0.146,-2.05478 0.07311,-3.26405 0.649685,-3.58533 0.364704,-0.20322 1.032197,-0.20807 1.74249,-0.0127 3.295784,0.90666 5.644481,3.38701 6.238589,6.58828 0.0589,0.31736 0.296864,2.12165 0.528823,4.00952 0.231949,1.88787 0.525353,4.20242 0.651992,5.14343 0.374718,2.7843 0.421889,3.55274 0.241112,3.92783 -0.192657,0.39973 -0.879481,0.84773 -1.822222,1.1886 -0.567125,0.20505 -0.925895,0.26912 -1.820248,0.32504 -1.007858,0.063 -1.17181,0.0507 -1.722172,-0.12913 z m 0.9294,-14.03769 c 0.617093,-0.44439 1.107053,-1.4397 0.702529,-1.4271 -0.07726,0.002 -0.361549,0.22678 -0.631802,0.49862 -0.816387,0.82116 -1.076599,0.88138 -1.997583,0.46232 -0.608661,-0.27694 -0.869161,-0.26614 -0.859767,0.0357 0.01158,0.372 0.876226,0.67663 1.859878,0.65528 0.516712,-0.0112 0.687793,-0.0527 0.926745,-0.22478 z m -2.404508,-2.39595 c 0.139051,-0.28047 0.08067,-0.8323 -0.120643,-1.14051 -0.152497,-0.23345 -0.241572,-0.28266 -0.497238,-0.27471 -0.234426,0.007 -0.346131,0.0664 -0.451712,0.23903 -0.195899,0.3203 -0.09296,1.00776 0.182205,1.21674 0.275821,0.20948 0.774753,0.18668 0.887408,-0.0405 z m 2.077752,-0.60084 c 0.331235,-0.38973 0.05962,-1.19897 -0.458289,-1.3656 -0.530699,-0.17072 -0.944759,0.27541 -0.790358,0.85159 0.163264,0.60923 0.907374,0.91555 1.248647,0.51401 z"
       id="path21142" />
    <path
       style="fill:none;stroke:#000000;stroke-width:0.264583px;stroke-linecap:butt;stroke-linejoin:miter;stroke-opacity:1"
       d="m 26.310466,171.58431 c 0,0 3.281412,-2.77659 2.524162,9.84425 -0.757252,12.62083 1.00967,31.93071 13.25188,27.63963 12.24221,-4.29108 13.88292,-9.97046 14.64017,-18.67884 0.75725,-8.70837 -7.06767,-22.21267 -1.64071,-21.203 5.42696,1.00966 9.087,3.40762 8.70838,12.87325 -0.37863,9.46563 1.5145,23.72717 -8.45596,29.78517 -9.97046,6.058 -16.5333,6.56284 -23.34855,3.40763 -6.815252,-3.15521 -11.737382,-13.12567 -7.446292,-36.97905"
       id="path21569" />
    <path
       style="fill:none;stroke:#000000;stroke-width:0.264583px;stroke-linecap:butt;stroke-linejoin:miter;stroke-opacity:1"
       d="m 24.543546,178.27335 c 0,0 0.0631,-2.68192 1.76692,-6.68904"
       id="path21571" />
    <path
       style="fill:none;stroke:#000000;stroke-width:0.264583px;stroke-linecap:butt;stroke-linejoin:miter;stroke-opacity:1"
       d="m 23.218356,187.73898 c 0,0 2.65038,2.58727 5.426962,0.1262"
       id="path21686" />
    <path
       style="fill:none;stroke:#000000;stroke-width:0.264583px;stroke-linecap:butt;stroke-linejoin:miter;stroke-opacity:1"
       d="m 23.092146,189.6321 c 0,0 3.029,2.9028 5.616282,0.18932"
       id="path21688" />
    <path
       style="fill:none;stroke:#000000;stroke-width:0.264583px;stroke-linecap:butt;stroke-linejoin:miter;stroke-opacity:1"
       d="m 47.155298,207.07881 c 0,0 -1.07091,5.44381 2.05259,8.03185"
       id="path21690" />
    <path
       style="fill:none;stroke:#000000;stroke-width:0.264583px;stroke-linecap:butt;stroke-linejoin:miter;stroke-opacity:1"
       d="m 48.583188,206.16407 c 0,0 -0.49084,6.09082 2.25338,8.14341"
       id="path21692" />
    <path
       style="fill:none;stroke:#000000;stroke-width:0.264583px;stroke-linecap:butt;stroke-linejoin:miter;stroke-opacity:1"
       d="m 49.899518,205.24933 c 0,0 0,6.6709 2.23107,8.43345"
       id="path21694" />
    <path
       style="fill:none;stroke:#000000;stroke-width:0.264583px;stroke-linecap:butt;stroke-linejoin:miter;stroke-opacity:1"
       d="m 25.513926,208.23897 c 0,0 4.685242,1.29402 6.737832,-2.76653"
       id="path21696" />
    <path
       style="fill:none;stroke:#000000;stroke-width:0.264583px;stroke-linecap:butt;stroke-linejoin:miter;stroke-opacity:1"
       d="m 26.227866,209.80071 c 0,0 4.729872,1.38327 6.782452,-3.07887"
       id="path21698" />
    <path
       style="fill:none;stroke:#000000;stroke-width:0.264583px;stroke-linecap:butt;stroke-linejoin:miter;stroke-opacity:1"
       d="m 27.209536,211.31784 c 0,0 4.908352,1.74024 6.827072,-3.43584"
       id="path21700" />
    <path
       style="fill:none;stroke:#000000;stroke-width:0.264583px;stroke-linecap:butt;stroke-linejoin:miter;stroke-opacity:1"
       d="m 54.830178,199.27007 c 0,0 0.49084,6.91631 6.91632,4.596"
       id="path21702" />
    <path
       style="fill:none;stroke:#000000;stroke-width:0.264583px;stroke-linecap:butt;stroke-linejoin:miter;stroke-opacity:1"
       d="m 55.321018,198.15453 c 0,0 2.00796,6.38086 7.05018,3.83744"
       id="path21704" />
    <path
       style="fill:none;stroke:#000000;stroke-width:0.264583px;stroke-linecap:butt;stroke-linejoin:miter;stroke-opacity:1"
       d="m 56.615038,190.61352 c 0,0 3.88206,3.83744 7.00556,-1.2494"
       id="path21708" />
    <path
       style="fill:none;stroke:#000000;stroke-width:0.264583px;stroke-linecap:butt;stroke-linejoin:miter;stroke-opacity:1"
       d="m 56.525788,192.13064 c 0,0 3.56972,4.55138 7.18405,-0.80318"
       id="path21710" />
    <path
       style="fill:#ff80b2;fill-opacity:1;fill-rule:evenodd;stroke:#2f210e;stroke-width:0;stroke-miterlimit:4;stroke-dasharray:none"
       d="m 25.306756,188.57739 c -0.38391,-0.0862 -0.96066,-0.31899 -1.28168,-0.51739 -0.50046,-0.3093 -0.57319,-0.44244 -0.51014,-0.93388 0.0404,-0.31523 0.15698,-1.29601 0.25899,-2.17952 0.82057,-7.1069 2.13723,-13.05183 2.96063,-13.3678 0.35821,-0.13746 0.72647,0.0393 1.0148,0.4872 0.902672,1.40213 1.088902,3.76611 0.820162,10.41113 l -0.217732,5.38389 -0.63806,0.3488 c -0.82789,0.45256 -1.54227,0.56165 -2.40697,0.36757 z"
       id="path25923" />
    <path
       style="fill:#ff80b2;fill-opacity:1;fill-rule:evenodd;stroke:#2f210e;stroke-width:0;stroke-miterlimit:4;stroke-dasharray:none"
       d="m 25.915516,208.07951 c -0.37519,-0.10417 -0.53883,-0.39646 -1.02806,-1.83633 -0.68974,-2.03001 -1.19982,-4.40111 -1.46015,-6.78759 -0.18244,-1.67236 -0.27194,-9.24366 -0.10928,-9.24366 0.0439,0 0.45745,0.20079 0.91901,0.44621 1.09861,0.58413 2.73029,0.61975 3.61733,0.079 0.33011,-0.20126 0.61982,-0.34152 0.6438,-0.31168 0.024,0.0298 0.138872,1.12373 0.255332,2.43089 0.23733,2.66397 0.73674,5.63523 1.29094,7.68049 0.39383,1.45346 1.29522,3.7778 1.72465,4.44723 0.23646,0.36862 0.21737,0.46718 -0.21801,1.12508 -1.04752,1.58291 -3.695932,2.50889 -5.635562,1.9704 z"
       id="path25962" />
    <path
       style="fill:#ff80b2;fill-opacity:1;fill-rule:evenodd;stroke:#2f210e;stroke-width:0;stroke-miterlimit:4;stroke-dasharray:none"
       d="m 37.958298,216.81075 c -2.46103,-0.34917 -5.48557,-1.41109 -7.23234,-2.53929 -1.06793,-0.68976 -2.668622,-2.05494 -2.668622,-2.27599 0,-0.0769 0.582312,-0.17762 1.294032,-0.22378 1.97413,-0.12805 3.35749,-0.96157 4.26519,-2.56992 l 0.54898,-0.97273 0.56023,0.37467 c 1.47472,0.98626 2.07075,1.15243 4.12995,1.15141 1.77193,-7.9e-4 2.12737,-0.0593 3.64585,-0.59895 0.92538,-0.32888 2.27071,-0.86602 2.98963,-1.19364 l 1.30713,-0.59568 v 1.6056 c 0,2.12257 0.40868,3.86137 1.17532,5.00059 0.33493,0.4977 0.56611,0.97424 0.51375,1.05897 -0.13314,0.21543 -3.6975,1.34575 -4.98971,1.58233 -1.51807,0.27793 -4.27565,0.3757 -5.53939,0.19641 z"
       id="path26001" />
    <path
       style="fill:#ff80b2;fill-opacity:1;fill-rule:evenodd;stroke:#2f210e;stroke-width:0;stroke-miterlimit:4;stroke-dasharray:none"
       d="m 51.919558,213.08635 c -0.82334,-0.9407 -1.51307,-3.42834 -1.66566,-6.00754 l -0.1056,-1.78485 0.89791,-0.67697 c 1.07446,-0.81008 2.33785,-2.25507 3.1481,-3.60062 l 0.5912,-0.98179 0.10669,0.66635 c 0.15761,0.98444 1.16751,2.53938 2.05119,3.15819 0.73632,0.51563 0.86188,0.54241 2.5435,0.54241 0.97291,0 1.7689,0.0221 1.76885,0.0491 -5.2e-4,0.2689 -1.39052,2.69121 -2.04079,3.55628 -1.39859,1.86053 -2.75936,2.96048 -5.75516,4.65206 -1.17885,0.66564 -1.30184,0.69977 -1.54023,0.4274 z"
       id="path26040" />
    <path
       style="fill:#ff80b2;fill-opacity:1;fill-rule:evenodd;stroke:#2f210e;stroke-width:0;stroke-miterlimit:4;stroke-dasharray:none"
       d="m 58.667618,202.015 c -0.88298,-0.40333 -2.06169,-1.66398 -2.66027,-2.84522 l -0.45153,-0.89106 0.42904,-1.69133 c 0.23597,-0.93023 0.48484,-2.18452 0.55304,-2.78731 l 0.124,-1.09598 0.59842,0.45644 c 1.80357,1.37565 3.81342,1.2534 5.49693,-0.33436 l 0.69277,-0.65337 -0.12421,2.09844 c -0.13401,2.26401 -0.51801,5.12861 -0.87945,6.56057 -0.18607,0.73715 -0.33254,0.94672 -0.84184,1.2045 -0.79328,0.4015 -2.0309,0.39251 -2.9369,-0.0213 z"
       id="path26079" />
    <path
       style="fill:#ff80b2;fill-opacity:1;fill-rule:evenodd;stroke:#2f210e;stroke-width:0;stroke-miterlimit:4;stroke-dasharray:none"
       d="m 58.904358,191.65239 c -0.26246,-0.0841 -0.80461,-0.33692 -1.20478,-0.56182 l -0.72757,-0.40892 v -1.64501 c 0,-1.97459 -0.49619,-5.00991 -1.35427,-8.28445 -1.89649,-7.23722 -2.21544,-8.62527 -2.21544,-9.64134 0,-0.82981 0.0796,-1.14736 0.35697,-1.42477 0.44722,-0.44722 0.75204,-0.44598 2.53921,0.0103 1.88402,0.48103 3.37089,1.24755 4.51029,2.32514 1.09884,1.03924 1.70819,2.10014 2.247,3.91212 0.36786,1.23708 0.40372,1.78396 0.47512,7.24631 l 0.0772,5.90824 -0.77464,0.94741 c -1.15167,1.40853 -2.65212,2.02594 -3.92912,1.61677 z"
       id="path26118" />
    <path
       style="fill:#ff2a7f;fill-opacity:1;fill-rule:evenodd;stroke:#2f210e;stroke-width:0;stroke-miterlimit:4;stroke-dasharray:none"
       d="m 24.463386,190.24835 c -0.90194,-0.47012 -0.96059,-0.54223 -1.01205,-1.24411 l -0.0546,-0.74507 1.01286,0.46371 c 0.82726,0.37873 1.18518,0.44592 1.95326,0.36664 0.51722,-0.0534 1.18858,-0.22539 1.49191,-0.38225 0.54471,-0.28168 0.55299,-0.27933 0.67107,0.19114 0.153052,0.6098 -0.0657,0.94898 -0.9318,1.44444 -0.96229,0.55053 -1.95031,0.5207 -3.13062,-0.0945 z"
       id="path29821" />
    <path
       style="fill:#ff2a7f;fill-opacity:1;fill-rule:evenodd;stroke:#2f210e;stroke-width:0;stroke-miterlimit:4;stroke-dasharray:none"
       d="m 27.059836,209.79725 c -0.60953,-0.079 -0.73651,-0.12154 -0.82576,-0.27638 -0.19343,-0.33557 -0.52558,-1.02282 -0.50452,-1.04389 0.0126,-0.0126 0.16221,-0.001 0.33254,0.0252 2.12614,0.32988 4.144282,-0.2759 5.396912,-1.61997 0.27617,-0.29634 0.69757,-0.86349 0.78782,-1.06032 0.0198,-0.0433 0.034,-0.0452 0.0522,-0.007 0.0137,0.0288 0.14728,0.22896 0.29685,0.44471 l 0.27193,0.39229 -0.19174,0.37444 c -0.35522,0.69373 -0.98086,1.42698 -1.59139,1.86513 -1.03602,0.74352 -2.586032,1.09234 -4.024802,0.90576 z"
       id="path29860" />
    <path
       style="fill:#ff2a7f;fill-opacity:1;fill-rule:evenodd;stroke:#2f210e;stroke-width:0;stroke-miterlimit:4;stroke-dasharray:none"
       d="m 28.258136,211.38455 c -0.46854,-0.0641 -0.93668,-0.17555 -0.97755,-0.23278 -0.17012,-0.23821 -0.68246,-1.01029 -0.69898,-1.05333 -0.0173,-0.0451 0.0709,-0.0441 0.437,0.005 0.60082,0.0803 1.601412,0.0442 2.187462,-0.079 1.60704,-0.33785 2.86152,-1.26385 3.67655,-2.71386 0.16478,-0.29317 0.21926,-0.35856 0.26021,-0.31235 0.0285,0.0322 0.20854,0.23412 0.40013,0.44883 0.4028,0.45141 0.40163,0.34039 0.0119,1.12581 -1.06088,2.13798 -2.93787,3.13442 -5.296722,2.81186 z"
       id="path29899" />
    <path
       style="fill:#ff2a7f;fill-opacity:1;fill-rule:evenodd;stroke:#2f210e;stroke-width:0;stroke-miterlimit:4;stroke-dasharray:none"
       d="m 48.902298,214.60867 c -0.9802,-1.03969 -1.56437,-2.52836 -1.7291,-4.40636 -0.0615,-0.70143 -0.0284,-1.9857 0.0685,-2.65497 0.0432,-0.29866 0.0494,-0.45157 0.0187,-0.4624 -0.0343,-0.0121 1.08035,-0.6758 1.13426,-0.67537 0.006,5e-5 0.0128,0.44682 0.0161,0.99283 0.0184,3.04871 0.6597,5.32493 1.86298,6.61263 0.13636,0.14592 0.24132,0.27192 0.23325,0.27999 -0.0241,0.0241 -1.28518,0.59254 -1.31458,0.59254 -0.0149,0 -0.14544,-0.1255 -0.29005,-0.27889 z"
       id="path29938" />
    <path
       style="fill:#ff2a7f;fill-opacity:1;fill-rule:evenodd;stroke:#2f210e;stroke-width:0;stroke-miterlimit:4;stroke-dasharray:none"
       d="m 50.551448,213.84228 c -0.85404,-0.86674 -1.43427,-2.32432 -1.69766,-4.26467 -0.1336,-0.98423 -0.19702,-2.64078 -0.12167,-3.17809 0.0296,-0.21069 0.0297,-0.21087 0.51175,-0.5243 0.26521,-0.17244 0.4911,-0.31353 0.50199,-0.31353 0.0109,0 0.0198,0.14901 0.0198,0.33115 0,0.18213 0.0299,0.69918 0.0665,1.149 0.25512,3.14029 0.88746,5.33446 1.85486,6.43627 0.10073,0.11473 0.11819,0.15969 0.0754,0.1942 -0.0631,0.0509 -0.86625,0.45668 -0.9039,0.45668 -0.0135,0 -0.15164,-0.12902 -0.30702,-0.28671 z"
       id="path29977" />
    <path
       style="fill:#ff2a7f;fill-opacity:1;fill-rule:evenodd;stroke:#2f210e;stroke-width:0;stroke-miterlimit:4;stroke-dasharray:none"
       d="m 58.511448,204.11338 c -1.76564,-0.37974 -2.93981,-1.80773 -3.41463,-4.15277 l -0.11134,-0.54993 0.16433,-0.40249 0.16433,-0.4025 0.19085,0.42371 c 0.22396,0.49723 0.63891,1.20634 0.96345,1.64646 0.34159,0.46322 1.00099,1.10029 1.42478,1.37653 0.77166,0.503 1.3326,0.67221 2.2246,0.67107 0.64837,-7.9e-4 1.06455,-0.0768 1.67137,-0.30524 0.16812,-0.0633 0.31141,-0.10933 0.31842,-0.10232 0.0248,0.0248 -0.43648,1.35015 -0.48765,1.40121 -0.0655,0.0654 -0.55621,0.21714 -1.07824,0.33352 -0.5279,0.11769 -1.61814,0.15139 -2.03027,0.0627 z"
       id="path30016" />
    <path
       style="fill:#ff2a7f;fill-opacity:1;fill-rule:evenodd;stroke:#2f210e;stroke-width:0;stroke-miterlimit:4;stroke-dasharray:none"
       d="m 59.247698,193.71054 c -0.41556,-0.0928 -0.86618,-0.28429 -1.29738,-0.5513 -0.41255,-0.25547 -1.15875,-0.89417 -1.20131,-1.02825 -0.0234,-0.0737 0.0523,-1.0681 0.0839,-1.10248 0.005,-0.005 0.14809,0.0884 0.31907,0.2073 1.38037,0.96004 2.92608,1.16714 4.20146,0.56291 0.67831,-0.32135 1.35033,-0.89287 1.88788,-1.60554 l 0.29004,-0.38452 0.0122,0.738 0.0122,0.738 -0.25488,0.34491 c -0.55201,0.74698 -1.37909,1.49382 -2.00067,1.80655 -0.6072,0.3055 -1.42429,0.41474 -2.05258,0.27442 z"
       id="path30055" />
    <path
       style="fill:none;stroke:#000000;stroke-width:0.264583px;stroke-linecap:butt;stroke-linejoin:miter;stroke-opacity:1"
       d="m 56.867278,175.72843 c 0,0 2.00797,1.96334 3.34661,-0.6247"
       id="path883-2-7" />
    <ellipse
       style="fill:#000000;fill-rule:evenodd;stroke:#2f210e;stroke-width:0;stroke-miterlimit:4;stroke-dasharray:none"
       id="path2024-0-1"
       cx="-26.171183"
       cy="180.40952"
       rx="0.58007812"
       ry="0.7585637"
       transform="rotate(-26.356873)" />
    <ellipse
       style="fill:#ffffff;fill-rule:evenodd;stroke:#2f210e;stroke-width:0;stroke-miterlimit:4;stroke-dasharray:none"
       id="path2146-85-8"
       cx="30.91501"
       cy="179.37218"
       rx="0.23664068"
       ry="0.22086462"
       transform="rotate(-8.3836447)" />
    <ellipse
       style="fill:#000000;fill-rule:evenodd;stroke:#2f210e;stroke-width:0;stroke-miterlimit:4;stroke-dasharray:none"
       id="path2024-9-5-2"
       cx="-30.618212"
       cy="179.85783"
       rx="0.58007812"
       ry="0.7585637"
       transform="rotate(-28.429568)" />
    <ellipse
       style="fill:#ffffff;fill-rule:evenodd;stroke:#2f210e;stroke-width:0;stroke-miterlimit:4;stroke-dasharray:none"
       id="path2146-8-3-7"
       cx="26.514748"
       cy="180.21965"
       rx="0.23664068"
       ry="0.22086462"
       transform="rotate(-10.45634)" />
    <path
       style="fill:none;stroke:#000000;stroke-width:0.270381px;stroke-linecap:butt;stroke-linejoin:miter;stroke-opacity:1"
       d="m 24.960906,3.0841311 c 0,0 3.353328,-2.83743428 2.579492,10.0600069 C 26.76655,26.041578 28.572186,45.774674 41.08271,41.389546 53.593232,37.004418 55.269902,31.200562 56.043758,22.301322 56.817606,13.40209 48.821176,-0.3981737 54.367088,0.63362527 59.912992,1.6654139 63.653248,4.1159199 63.26632,13.789008 62.879402,23.462096 64.814014,38.036206 54.62503,44.22698 44.436048,50.417754 37.72938,50.933658 30.76476,47.709306 23.80013,44.484932 18.770132,34.29595 23.15526,9.9197745"
       id="path21569-3" />
    <path
       style="fill:none;stroke:#000000;stroke-width:0.270381px;stroke-linecap:butt;stroke-linejoin:miter;stroke-opacity:1"
       d="m 23.15526,9.9197745 c 0,0 0.06448,-2.7406992 1.805646,-6.8356434"
       id="path21571-5" />
    <path
       style="fill:none;stroke:#000000;stroke-width:0.270381px;stroke-linecap:butt;stroke-linejoin:miter;stroke-opacity:1"
       d="m 21.801026,19.592862 c 0,0 2.708468,2.643976 5.545902,0.128966"
       id="path21686-0" />
    <path
       style="fill:none;stroke:#000000;stroke-width:0.270381px;stroke-linecap:butt;stroke-linejoin:miter;stroke-opacity:1"
       d="m 21.67205,21.527474 c 0,0 3.095386,2.966422 5.739372,0.19347"
       id="path21688-7" />
    <path
       style="fill:none;stroke:#000000;stroke-width:0.270381px;stroke-linecap:butt;stroke-linejoin:miter;stroke-opacity:1"
       d="m 46.262592,39.356564 c 0,0 -1.094382,5.563122 2.097576,8.207884"
       id="path21690-9" />
    <path
       style="fill:none;stroke:#000000;stroke-width:0.270381px;stroke-linecap:butt;stroke-linejoin:miter;stroke-opacity:1"
       d="m 47.721778,38.421776 c 0,0 -0.501598,6.224312 2.302766,8.32189"
       id="path21692-0" />
    <path
       style="fill:none;stroke:#000000;stroke-width:0.270381px;stroke-linecap:butt;stroke-linejoin:miter;stroke-opacity:1"
       d="m 49.066958,37.486988 c 0,0 0,6.817106 2.279968,8.618286"
       id="path21694-1" />
    <path
       style="fill:none;stroke:#000000;stroke-width:0.270381px;stroke-linecap:butt;stroke-linejoin:miter;stroke-opacity:1"
       d="m 24.146908,40.542152 c 0,0 4.787926,1.32238 6.885502,-2.827164"
       id="path21696-9" />
    <path
       style="fill:none;stroke:#000000;stroke-width:0.270381px;stroke-linecap:butt;stroke-linejoin:miter;stroke-opacity:1"
       d="m 24.876494,42.13812 c 0,0 4.833536,1.413588 6.931102,-3.14635"
       id="path21698-8" />
    <path
       style="fill:none;stroke:#000000;stroke-width:0.270381px;stroke-linecap:butt;stroke-linejoin:miter;stroke-opacity:1"
       d="m 25.87968,43.688502 c 0,0 5.015926,1.77838 6.9767,-3.511144"
       id="path21700-8" />
    <path
       style="fill:none;stroke:#000000;stroke-width:0.270381px;stroke-linecap:butt;stroke-linejoin:miter;stroke-opacity:1"
       d="m 54.105682,31.37668 c 0,0 0.501598,7.067894 7.067906,4.69673"
       id="path21702-6" />
    <path
       style="fill:none;stroke:#000000;stroke-width:0.270381px;stroke-linecap:butt;stroke-linejoin:miter;stroke-opacity:1"
       d="m 54.60728,30.23669 c 0,0 2.051968,6.52071 7.2047,3.921546"
       id="path21704-1" />
    <path
       style="fill:none;stroke:#000000;stroke-width:0.270381px;stroke-linecap:butt;stroke-linejoin:miter;stroke-opacity:1"
       d="m 55.929662,22.530404 c 0,0 3.967142,3.921546 7.1591,-1.276782"
       id="path21708-9" />
    <path
       style="fill:none;stroke:#000000;stroke-width:0.270381px;stroke-linecap:butt;stroke-linejoin:miter;stroke-opacity:1"
       d="m 55.838466,24.080774 c 0,0 3.647946,4.651134 7.341492,-0.820782"
       id="path21710-8" />
    <path
       style="fill:#ff80b2;fill-opacity:1;fill-rule:evenodd;stroke:#2f210e;stroke-width:0;stroke-miterlimit:4;stroke-dasharray:none"
       d="m 23.935196,20.449648 c -0.392312,-0.08808 -0.981714,-0.32597 -1.30977,-0.52873 -0.511418,-0.316068 -0.585752,-0.452136 -0.52132,-0.954348 0.04128,-0.322138 0.16042,-1.324414 0.264666,-2.227288 0.838564,-7.2626613 2.184072,-13.3378865 3.025518,-13.6607815 0.366072,-0.1404728 0.742402,0.040162 1.037052,0.4978778 0.922444,1.4328606 1.112754,3.848652 0.838124,10.6393097 l -0.222502,5.50189 -0.652044,0.356444 c -0.846034,0.462478 -1.576072,0.57396 -2.459724,0.375626 z"
       id="path25923-6" />
    <path
       style="fill:#ff80b2;fill-opacity:1;fill-rule:evenodd;stroke:#2f210e;stroke-width:0;stroke-miterlimit:4;stroke-dasharray:none"
       d="M 24.5573,40.379196 C 24.173886,40.272744 24.00666,39.974048 23.506718,38.50262 22.80185,36.428118 22.2806,34.00505 22.014556,31.566266 c -0.18644,-1.709014 -0.277902,-9.446254 -0.111676,-9.446254 0.04486,0 0.467476,0.205192 0.939162,0.45599 1.122678,0.596932 2.79012,0.633334 3.6966,0.08074 0.337346,-0.205672 0.633406,-0.349006 0.657912,-0.318512 0.02452,0.03046 0.141924,1.14836 0.260926,2.484168 0.242542,2.722356 0.752886,5.758738 1.319232,7.848824 0.402472,1.485316 1.323618,3.860598 1.76245,4.5447 0.241652,0.376699 0.222134,0.47742 -0.222788,1.149738 -1.070478,1.617603 -3.776934,2.563878 -5.759074,2.013586 z"
       id="path25962-3" />
    <path
       style="fill:#ff80b2;fill-opacity:1;fill-rule:evenodd;stroke:#2f210e;stroke-width:0;stroke-miterlimit:4;stroke-dasharray:none"
       d="m 36.864032,49.3018 c -2.51498,-0.356814 -5.605808,-1.442018 -7.390862,-2.594944 -1.091336,-0.704878 -2.727098,-2.099968 -2.727098,-2.325874 0,-0.07858 0.595072,-0.181512 1.32238,-0.228684 2.017398,-0.130856 3.431088,-0.982644 4.358672,-2.626244 l 0.561012,-0.99405 0.572508,0.382882 c 1.507042,1.007876 2.116134,1.177688 4.220466,1.176646 1.810776,-8.08e-4 2.174006,-0.0606 3.725756,-0.612078 0.945662,-0.336088 2.320488,-0.885 3.055154,-1.219802 l 1.335778,-0.608724 v 1.64079 c 0,2.16909 0.417638,3.946 1.20108,5.110188 0.34227,0.508608 0.578528,0.995592 0.52501,1.082168 -0.136058,0.220152 -3.778528,1.375256 -5.09906,1.617022 -1.551352,0.28402 -4.36937,0.383924 -5.660796,0.200704 z"
       id="path26001-9" />
    <path
       style="fill:#ff80b2;fill-opacity:1;fill-rule:evenodd;stroke:#2f210e;stroke-width:0;stroke-miterlimit:4;stroke-dasharray:none"
       d="m 51.13127,45.495772 c -0.841384,-0.961318 -1.546232,-3.50348 -1.702166,-6.139208 L 49.3212,37.532596 50.23878,36.840788 c 1.098008,-0.827834 2.389088,-2.304494 3.217096,-3.679534 l 0.604158,-1.003308 0.109028,0.680954 c 0.161064,1.006016 1.193098,2.595036 2.096146,3.227408 0.752458,0.526932 0.88077,0.554298 2.599246,0.554298 0.994244,0 1.80768,0.02258 1.807628,0.05018 -5.42e-4,0.274794 -1.420996,2.750194 -2.085528,3.634224 -1.429244,1.901306 -2.819838,3.025364 -5.881296,4.754018 -1.204688,0.68023 -1.330372,0.715108 -1.573988,0.436768 z"
       id="path26040-0" />
    <path
       style="fill:#ff80b2;fill-opacity:1;fill-rule:evenodd;stroke:#2f210e;stroke-width:0;stroke-miterlimit:4;stroke-dasharray:none"
       d="M 58.027238,34.18177 C 57.124896,33.7696 55.920362,32.481322 55.308662,31.274192 l -0.461426,-0.91059 0.438444,-1.728388 c 0.241142,-0.950618 0.495466,-2.232408 0.56516,-2.84841 l 0.126708,-1.12 0.611546,0.466454 c 1.843088,1.40579 3.897,1.28087 5.617396,-0.341698 l 0.707964,-0.66768 -0.126932,2.14442 c -0.136948,2.313632 -0.529374,5.241014 -0.898736,6.704358 -0.190138,0.753318 -0.339818,0.96747 -0.86029,1.2309 -0.810656,0.4103 -2.075402,0.401112 -3.001258,-0.02176 z"
       id="path26079-0" />
    <path
       style="fill:#ff80b2;fill-opacity:1;fill-rule:evenodd;stroke:#2f210e;stroke-width:0;stroke-miterlimit:4;stroke-dasharray:none"
       d="m 58.269166,23.592044 c -0.268222,-0.08594 -0.822254,-0.344306 -1.231184,-0.574134 l -0.743526,-0.417882 v -1.681064 c 0,-2.017868 -0.507056,-5.119712 -1.383942,-8.46602 -1.938066,-7.3958283 -2.264006,-8.8143105 -2.264006,-9.8526395 0,-0.8480072 0.08134,-1.1725066 0.364794,-1.4559966 0.457022,-0.45703199 0.768522,-0.45576481 2.594872,0.010526 1.925312,0.4915727 3.44477,1.2748925 4.609142,2.3760899 1.122922,1.062017 1.745628,2.146179 2.296248,3.9978722 0.375912,1.2641932 0.412558,1.823049 0.485522,7.4051261 l 0.0789,6.037732 -0.791608,0.968174 c -1.17692,1.4394 -2.710256,2.070342 -4.015234,1.652204 z"
       id="path26118-7" />
    <path
       style="fill:#ff2a7f;fill-opacity:1;fill-rule:evenodd;stroke:#2f210e;stroke-width:0;stroke-miterlimit:4;stroke-dasharray:none"
       d="M 23.073354,22.15723 C 22.151646,21.676808 22.0917,21.603116 22.039112,20.885854 l -0.0558,-0.7614 1.03506,0.473872 c 0.84539,0.387032 1.211166,0.455694 1.99607,0.374676 0.528556,-0.05457 1.21463,-0.23033 1.524608,-0.390628 0.556648,-0.287842 0.56511,-0.285452 0.685778,0.19533 0.156404,0.623166 -0.06714,0.969778 -0.952222,1.476108 -0.983382,0.562586 -1.993056,0.532112 -3.199234,-0.09658 z"
       id="path29821-7" />
    <path
       style="fill:#ff2a7f;fill-opacity:1;fill-rule:evenodd;stroke:#2f210e;stroke-width:0;stroke-miterlimit:4;stroke-dasharray:none"
       d="m 25.7267,42.134584 c -0.62289,-0.08074 -0.752652,-0.124204 -0.843858,-0.282436 -0.19767,-0.342926 -0.5371,-1.045238 -0.515568,-1.06677 0.01288,-0.01288 0.165764,-0.001 0.339818,0.02576 2.172738,0.33711 4.23511,-0.281946 5.515194,-1.655474 0.282222,-0.302826 0.712858,-0.882416 0.805086,-1.08355 0.02024,-0.04424 0.03474,-0.04619 0.05334,-0.0072 0.014,0.02943 0.150518,0.233978 0.303356,0.454457 l 0.27789,0.400888 -0.195932,0.382646 c -0.363016,0.708934 -1.002357,1.458256 -1.626278,1.906008 -1.058726,0.759816 -2.642708,1.116281 -4.113002,0.925612 z"
       id="path29860-6" />
    <path
       style="fill:#ff2a7f;fill-opacity:1;fill-rule:evenodd;stroke:#2f210e;stroke-width:0;stroke-miterlimit:4;stroke-dasharray:none"
       d="m 26.951262,43.756674 c -0.478808,-0.0655 -0.957208,-0.179398 -0.998974,-0.237882 -0.17385,-0.243432 -0.697418,-1.032434 -0.71429,-1.076416 -0.01768,-0.04608 0.07246,-0.04506 0.446568,0.0052 0.613988,0.08206 1.636508,0.04516 2.235402,-0.08074 1.642262,-0.345254 2.924246,-1.29155 3.75713,-2.77334 0.16839,-0.299595 0.224064,-0.366418 0.265912,-0.319195 0.02912,0.0329 0.213122,0.239251 0.4089,0.458667 0.411628,0.461303 0.410432,0.34785 0.01216,1.150484 -1.08413,2.184838 -3.002258,3.203117 -5.412808,2.873488 z"
       id="path29899-2" />
    <path
       style="fill:#ff2a7f;fill-opacity:1;fill-rule:evenodd;stroke:#2f210e;stroke-width:0;stroke-miterlimit:4;stroke-dasharray:none"
       d="m 48.047892,47.051456 c -1.001694,-1.062476 -1.598668,-2.583774 -1.767008,-4.502934 -0.06284,-0.716804 -0.02902,-2.02922 0.07,-2.713158 0.04414,-0.305206 0.05048,-0.461468 0.019,-0.472536 -0.03506,-0.01236 1.104028,-0.69061 1.159118,-0.690172 0.0062,5.2e-5 0.01308,0.456614 0.01646,1.01459 0.0188,3.11553 0.674158,5.441638 1.90381,6.75756 0.13935,0.149118 0.24661,0.27788 0.238362,0.286126 -0.02462,0.02462 -1.313346,0.605526 -1.34339,0.605526 -0.01522,0 -0.148628,-0.12825 -0.296408,-0.285002 z"
       id="path29938-3" />
    <path
       style="fill:#ff2a7f;fill-opacity:1;fill-rule:evenodd;stroke:#2f210e;stroke-width:0;stroke-miterlimit:4;stroke-dasharray:none"
       d="M 49.733176,46.26827 C 48.860418,45.382544 48.26747,43.893008 47.998308,41.91013 47.86178,40.90434 47.79697,39.211472 47.873972,38.662396 c 0.03024,-0.215308 0.03036,-0.215492 0.522966,-0.5358 0.271022,-0.17622 0.501862,-0.320392 0.512992,-0.320392 0.01114,0 0.02024,0.152276 0.02024,0.338408 0,0.186122 0.03056,0.714504 0.06796,1.174182 0.260712,3.209116 0.906912,5.451376 1.895514,6.577334 0.102938,0.117244 0.12078,0.16319 0.07706,0.198456 -0.06448,0.05202 -0.885236,0.46669 -0.92371,0.46669 -0.0138,0 -0.154954,-0.131848 -0.31374,-0.292994 z"
       id="path29977-8" />
    <path
       style="fill:#ff2a7f;fill-opacity:1;fill-rule:evenodd;stroke:#2f210e;stroke-width:0;stroke-miterlimit:4;stroke-dasharray:none"
       d="m 57.867636,36.32614 c -1.804338,-0.388062 -3.004232,-1.84735 -3.48946,-4.243786 l -0.11379,-0.561982 0.167932,-0.411312 0.167942,-0.411322 0.195022,0.432998 c 0.228868,0.508128 0.652924,1.232778 0.984576,1.682544 0.349078,0.473374 1.02292,1.124406 1.455998,1.4067 0.788582,0.514024 1.361816,0.686944 2.273356,0.685778 0.66259,-8.08e-4 1.087892,-0.07848 1.708002,-0.31193 0.171814,-0.06468 0.318244,-0.111726 0.325398,-0.104562 0.02534,0.02534 -0.446046,1.37974 -0.498338,1.43192 -0.06694,0.06684 -0.56839,0.221898 -1.101862,0.34083 -0.53948,0.12027 -1.653614,0.154708 -2.074776,0.06408 z"
       id="path30016-3" />
    <path
       style="fill:#ff2a7f;fill-opacity:1;fill-rule:evenodd;stroke:#2f210e;stroke-width:0;stroke-miterlimit:4;stroke-dasharray:none"
       d="m 58.620022,25.695302 c -0.424668,-0.09484 -0.885164,-0.290522 -1.325806,-0.563384 -0.421602,-0.261068 -1.184156,-0.913766 -1.227638,-1.050776 -0.02392,-0.07532 0.05344,-1.091518 0.08574,-1.126652 0.004,-0.0052 0.151326,0.09034 0.326054,0.211842 1.410624,0.981092 2.99021,1.192732 4.293542,0.575258 0.693188,-0.328392 1.379926,-0.912448 1.929268,-1.640738 l 0.296386,-0.392938 0.01246,0.754176 0.01246,0.754174 -0.260456,0.35247 c -0.56412,0.76334 -1.409326,1.52656 -2.04452,1.846134 -0.620518,0.312194 -1.455516,0.42383 -2.097576,0.280444 z"
       id="path30055-2" />
    <ellipse
       style="fill:none;fill-opacity:1;fill-rule:evenodd;stroke:#000000;stroke-width:0.306576;stroke-miterlimit:4;stroke-dasharray:none;stroke-opacity:1"
       id="path30815"
       cx="55.293427"
       cy="20.266264"
       rx="1.9829824"
       ry="1.3864757"
       transform="rotate(-12.57827)" />
    <path
       style="fill:#ff2a7f;fill-opacity:1;fill-rule:evenodd;stroke:#000000;stroke-width:0;stroke-miterlimit:4;stroke-dasharray:none;stroke-opacity:1"
       d="m 57.886674,8.9925079 c -0.44056,-0.038628 -0.820222,-0.1977818 -1.052862,-0.4412842 -0.10117,-0.105891 -0.167144,-0.2122418 -0.210208,-0.3388166 -0.04374,-0.1285674 -0.0515,-0.326155 -0.01809,-0.4583808 0.05437,-0.2147764 0.164744,-0.4040252 0.34364,-0.5889104 0.303704,-0.3138512 0.729332,-0.5351882 1.220344,-0.6345798 0.712602,-0.1442436 1.398738,0.014 1.768794,0.4080004 0.151806,0.1616264 0.22612,0.333891 0.23497,0.5446818 0.0062,0.1424756 -0.01226,0.255234 -0.06112,0.377353 -0.224342,0.5607668 -0.902752,1.0065678 -1.697528,1.1154838 -0.157498,0.021562 -0.387704,0.028716 -0.527912,0.016452 z"
       id="path36021" />
    <path
       style="fill:none;stroke:#000000;stroke-width:0.270381px;stroke-linecap:butt;stroke-linejoin:miter;stroke-opacity:1"
       d="m 54.447442,4.0799587 c 0,0 1.185588,0.045578 2.336972,1.3565846"
       id="path36175" />
    <path
       style="fill:none;stroke:#000000;stroke-width:0.270381px;stroke-linecap:butt;stroke-linejoin:miter;stroke-opacity:1"
       d="m 55.769824,3.4757707 c 0,0 0.170996,0.4673942 0.114004,2.2001668"
       id="path36181" />
    <path
       style="fill:none;stroke:#000000;stroke-width:0.270381px;stroke-linecap:butt;stroke-linejoin:miter;stroke-opacity:1"
       d="m 57.365802,3.2933687 c 0,0 1.060188,-0.1139948 1.846778,1.3793836"
       id="path36183" />
    <path
       style="fill:none;stroke:#000000;stroke-width:0.270381px;stroke-linecap:butt;stroke-linejoin:miter;stroke-opacity:1"
       d="m 58.585594,2.9171805 c 0,0 0.364792,1.1285746 -0.159604,1.9379738"
       id="path36185" />
  </g>
</svg>
