<?xml version="1.0" encoding="UTF-8" standalone="no"?>
<!-- Created with Inkscape (http://www.inkscape.org/) -->

<svg
   width="1024"
   height="600"
   viewBox="0 0 270.93333 158.75"
   version="1.1"
   id="svg5"
   inkscape:export-filename="/home/davran/Documents/Code/godot/KajamGame/Assets/ice-bg2.png"
   inkscape:export-xdpi="96"
   inkscape:export-ydpi="96"
   inkscape:version="1.1.1 (3bf5ae0d25, 2021-09-20)"
   sodipodi:docname="ice-bg2.svg"
   xmlns:inkscape="http://www.inkscape.org/namespaces/inkscape"
   xmlns:sodipodi="http://sodipodi.sourceforge.net/DTD/sodipodi-0.dtd"
   xmlns:xlink="http://www.w3.org/1999/xlink"
   xmlns="http://www.w3.org/2000/svg"
   xmlns:svg="http://www.w3.org/2000/svg">
  <sodipodi:namedview
     id="namedview7"
     pagecolor="#505050"
     bordercolor="#ffffff"
     borderopacity="1"
     inkscape:pageshadow="0"
     inkscape:pageopacity="0"
     inkscape:pagecheckerboard="1"
     inkscape:document-units="mm"
     showgrid="false"
     units="px"
     inkscape:zoom="0.42554132"
     inkscape:cx="488.7892"
     inkscape:cy="446.49014"
     inkscape:window-width="1920"
     inkscape:window-height="1052"
     inkscape:window-x="0"
     inkscape:window-y="28"
     inkscape:window-maximized="1"
     inkscape:current-layer="svg5" />
  <defs
     id="defs2">
    <linearGradient
       inkscape:collect="always"
       id="linearGradient8945">
      <stop
         style="stop-color:#115675;stop-opacity:1;"
         offset="0"
         id="stop8941" />
      <stop
         style="stop-color:#115675;stop-opacity:0;"
         offset="1"
         id="stop8943" />
    </linearGradient>
    <linearGradient
       inkscape:collect="always"
       xlink:href="#linearGradient8945"
       id="linearGradient8947"
       x1="137.37309"
       y1="71.15519"
       x2="137.37311"
       y2="159.44572"
       gradientUnits="userSpaceOnUse"
       gradientTransform="translate(0,15.875)" />
    <filter
       inkscape:collect="always"
       style="color-interpolation-filters:sRGB"
       id="filter17900"
       x="-1.7798965"
       y="-2.4866285"
       width="4.559793"
       height="5.9732571">
      <feGaussianBlur
         inkscape:collect="always"
         stdDeviation="4.8590926"
         id="feGaussianBlur17902" />
    </filter>
    <filter
       inkscape:collect="always"
       style="color-interpolation-filters:sRGB"
       id="filter17904"
       x="-1.7811266"
       y="-2.4852261"
       width="4.5622532"
       height="5.9704522">
      <feGaussianBlur
         inkscape:collect="always"
         stdDeviation="4.8590926"
         id="feGaussianBlur17906" />
    </filter>
    <filter
       inkscape:collect="always"
       style="color-interpolation-filters:sRGB"
       id="filter17908"
       x="-0.45245043"
       y="-0.96850647"
       width="1.9049009"
       height="2.9370129">
      <feGaussianBlur
         inkscape:collect="always"
         stdDeviation="4.8590926"
         id="feGaussianBlur17910" />
    </filter>
    <filter
       inkscape:collect="always"
       style="color-interpolation-filters:sRGB"
       id="filter17912"
       x="-0.30008405"
       y="-0.48042493"
       width="1.6001681"
       height="1.9608499">
      <feGaussianBlur
         inkscape:collect="always"
         stdDeviation="4.8590926"
         id="feGaussianBlur17914" />
    </filter>
    <filter
       inkscape:collect="always"
       style="color-interpolation-filters:sRGB"
       id="filter17916"
       x="-2.0826432"
       y="-2.7697203"
       width="5.1652863"
       height="6.5394407">
      <feGaussianBlur
         inkscape:collect="always"
         stdDeviation="4.8590926"
         id="feGaussianBlur17918" />
    </filter>
    <filter
       inkscape:collect="always"
       style="color-interpolation-filters:sRGB"
       id="filter17920"
       x="-1.4423619"
       y="-1.476118"
       width="3.8847239"
       height="3.9522361">
      <feGaussianBlur
         inkscape:collect="always"
         stdDeviation="4.8590926"
         id="feGaussianBlur17922" />
    </filter>
    <filter
       inkscape:collect="always"
       style="color-interpolation-filters:sRGB"
       id="filter17924"
       x="-2.2196437"
       y="-1.1796973"
       width="5.4392875"
       height="3.3593947">
      <feGaussianBlur
         inkscape:collect="always"
         stdDeviation="4.8590926"
         id="feGaussianBlur17926" />
    </filter>
    <filter
       inkscape:collect="always"
       style="color-interpolation-filters:sRGB"
       id="filter17928"
       x="-0.9408373"
       y="-0.64909644"
       width="2.8816746"
       height="2.2981929">
      <feGaussianBlur
         inkscape:collect="always"
         stdDeviation="4.8590926"
         id="feGaussianBlur17930" />
    </filter>
    <filter
       inkscape:collect="always"
       style="color-interpolation-filters:sRGB"
       id="filter17932"
       x="-0.35479063"
       y="-0.51547179"
       width="1.7095813"
       height="2.0309436">
      <feGaussianBlur
         inkscape:collect="always"
         stdDeviation="4.8590926"
         id="feGaussianBlur17934" />
    </filter>
    <filter
       inkscape:collect="always"
       style="color-interpolation-filters:sRGB"
       id="filter17936"
       x="-0.10499033"
       y="-0.30391002"
       width="1.2099807"
       height="1.60782">
      <feGaussianBlur
         inkscape:collect="always"
         stdDeviation="4.8590926"
         id="feGaussianBlur17938" />
    </filter>
    <filter
       inkscape:collect="always"
       style="color-interpolation-filters:sRGB"
       id="filter17940"
       x="-1.5273179"
       y="-2.1306224"
       width="4.0546357"
       height="5.2612448">
      <feGaussianBlur
         inkscape:collect="always"
         stdDeviation="4.8590926"
         id="feGaussianBlur17942" />
    </filter>
    <filter
       inkscape:collect="always"
       style="color-interpolation-filters:sRGB"
       id="filter17944"
       x="-0.75169672"
       y="-1.0512459"
       width="2.5033934"
       height="3.1024918">
      <feGaussianBlur
         inkscape:collect="always"
         stdDeviation="4.8590926"
         id="feGaussianBlur17946" />
    </filter>
    <filter
       inkscape:collect="always"
       style="color-interpolation-filters:sRGB"
       id="filter17948"
       x="-0.31057495"
       y="-0.60184969"
       width="1.6211499"
       height="2.2036994">
      <feGaussianBlur
         inkscape:collect="always"
         stdDeviation="4.8590926"
         id="feGaussianBlur17950" />
    </filter>
    <filter
       inkscape:collect="always"
       style="color-interpolation-filters:sRGB"
       id="filter17952"
       x="-0.27358762"
       y="-0.46098614"
       width="1.5464827"
       height="1.9207504">
      <feGaussianBlur
         inkscape:collect="always"
         stdDeviation="4.8590926"
         id="feGaussianBlur17954" />
    </filter>
    <filter
       inkscape:collect="always"
       style="color-interpolation-filters:sRGB"
       id="filter17956"
       x="-0.66401961"
       y="-0.93741966"
       width="2.3294995"
       height="2.8748393">
      <feGaussianBlur
         inkscape:collect="always"
         stdDeviation="4.8590926"
         id="feGaussianBlur17958" />
    </filter>
    <filter
       inkscape:collect="always"
       style="color-interpolation-filters:sRGB"
       id="filter17960"
       x="-1.3624905"
       y="-1.723476"
       width="3.6849064"
       height="4.4583092">
      <feGaussianBlur
         inkscape:collect="always"
         stdDeviation="4.8590926"
         id="feGaussianBlur17962" />
    </filter>
    <filter
       inkscape:collect="always"
       style="color-interpolation-filters:sRGB"
       id="filter17964"
       x="-1.1038953"
       y="-1.5296962"
       width="3.2061422"
       height="4.0563191">
      <feGaussianBlur
         inkscape:collect="always"
         stdDeviation="4.8590926"
         id="feGaussianBlur17966" />
    </filter>
    <filter
       inkscape:collect="always"
       style="color-interpolation-filters:sRGB"
       id="filter17968"
       x="-0.24566541"
       y="-0.4785184"
       width="1.4919142"
       height="1.9575281">
      <feGaussianBlur
         inkscape:collect="always"
         stdDeviation="4.8590926"
         id="feGaussianBlur17970" />
    </filter>
    <filter
       inkscape:collect="always"
       style="color-interpolation-filters:sRGB"
       id="filter17972"
       x="-0.40259731"
       y="-1.817814"
       width="1.8051946"
       height="4.6356279">
      <feGaussianBlur
         inkscape:collect="always"
         stdDeviation="4.8590926"
         id="feGaussianBlur17974" />
    </filter>
    <filter
       inkscape:collect="always"
       style="color-interpolation-filters:sRGB"
       id="filter17976"
       x="-0.37150643"
       y="-1.6112336"
       width="1.7443702"
       height="4.2204985">
      <feGaussianBlur
         inkscape:collect="always"
         stdDeviation="4.8590926"
         id="feGaussianBlur17978" />
    </filter>
    <filter
       inkscape:collect="always"
       style="color-interpolation-filters:sRGB"
       id="filter17980"
       x="-0.50145049"
       y="-1.8941306"
       width="2.002901"
       height="4.7882612">
      <feGaussianBlur
         inkscape:collect="always"
         stdDeviation="4.8590926"
         id="feGaussianBlur17982" />
    </filter>
    <filter
       inkscape:collect="always"
       style="color-interpolation-filters:sRGB"
       id="filter17984"
       x="-0.46618014"
       y="-1.761393"
       width="1.9323603"
       height="4.522786">
      <feGaussianBlur
         inkscape:collect="always"
         stdDeviation="4.8590926"
         id="feGaussianBlur17986" />
    </filter>
    <filter
       inkscape:collect="always"
       style="color-interpolation-filters:sRGB"
       id="filter17988"
       x="-0.33743674"
       y="-1.3001013"
       width="1.6759499"
       height="3.6016669">
      <feGaussianBlur
         inkscape:collect="always"
         stdDeviation="4.8590926"
         id="feGaussianBlur17990" />
    </filter>
    <filter
       inkscape:collect="always"
       style="color-interpolation-filters:sRGB"
       id="filter17992"
       x="-0.57467657"
       y="-0.75216667"
       width="2.1493531"
       height="2.5043333">
      <feGaussianBlur
         inkscape:collect="always"
         stdDeviation="4.8590926"
         id="feGaussianBlur17994" />
    </filter>
    <filter
       inkscape:collect="always"
       style="color-interpolation-filters:sRGB"
       id="filter17996"
       x="-0.48469733"
       y="-0.66176399"
       width="1.9720882"
       height="2.3264801">
      <feGaussianBlur
         inkscape:collect="always"
         stdDeviation="4.8590926"
         id="feGaussianBlur17998" />
    </filter>
    <filter
       inkscape:collect="always"
       style="color-interpolation-filters:sRGB"
       id="filter18000"
       x="-0.44506537"
       y="-4.8386494"
       width="1.8901307"
       height="10.677299">
      <feGaussianBlur
         inkscape:collect="always"
         stdDeviation="4.8590926"
         id="feGaussianBlur18002" />
    </filter>
    <filter
       inkscape:collect="always"
       style="color-interpolation-filters:sRGB"
       id="filter18004"
       x="-1.5003624"
       y="-0.63329012"
       width="4.0007248"
       height="2.2665802">
      <feGaussianBlur
         inkscape:collect="always"
         stdDeviation="4.8590926"
         id="feGaussianBlur18006" />
    </filter>
    <filter
       inkscape:collect="always"
       style="color-interpolation-filters:sRGB"
       id="filter18008"
       x="-1.5755653"
       y="-1.2162452"
       width="4.1511307"
       height="3.4324905">
      <feGaussianBlur
         inkscape:collect="always"
         stdDeviation="4.8590926"
         id="feGaussianBlur18010" />
    </filter>
    <filter
       inkscape:collect="always"
       style="color-interpolation-filters:sRGB"
       id="filter18012"
       x="-0.97505743"
       y="-0.47153436"
       width="2.9501149"
       height="1.9430687">
      <feGaussianBlur
         inkscape:collect="always"
         stdDeviation="4.8590926"
         id="feGaussianBlur18014" />
    </filter>
    <filter
       inkscape:collect="always"
       style="color-interpolation-filters:sRGB"
       id="filter18016"
       x="-0.12372683"
       y="-0.20166585"
       width="1.2474537"
       height="1.4033317">
      <feGaussianBlur
         inkscape:collect="always"
         stdDeviation="4.8590926"
         id="feGaussianBlur18018" />
    </filter>
    <filter
       inkscape:collect="always"
       style="color-interpolation-filters:sRGB"
       id="filter18020"
       x="-0.12522838"
       y="-0.2771283"
       width="1.2504568"
       height="1.5542566">
      <feGaussianBlur
         inkscape:collect="always"
         stdDeviation="4.8590926"
         id="feGaussianBlur18022" />
    </filter>
    <filter
       inkscape:collect="always"
       style="color-interpolation-filters:sRGB"
       id="filter18024"
       x="-0.16016167"
       y="-0.20152536"
       width="1.3203233"
       height="1.4030507">
      <feGaussianBlur
         inkscape:collect="always"
         stdDeviation="4.8590926"
         id="feGaussianBlur18026" />
    </filter>
    <filter
       inkscape:collect="always"
       style="color-interpolation-filters:sRGB"
       id="filter18028"
       x="-0.79599602"
       y="-0.38147875"
       width="2.5923755"
       height="1.7644142">
      <feGaussianBlur
         inkscape:collect="always"
         stdDeviation="4.8590926"
         id="feGaussianBlur18030" />
    </filter>
  </defs>
  <g
     inkscape:groupmode="layer"
     id="layer2"
     inkscape:label="bg mountains"
     style="display:inline"
     sodipodi:insensitive="true">
    <path
       style="fill:none;stroke:#000000;stroke-width:0.264583px;stroke-linecap:butt;stroke-linejoin:miter;stroke-opacity:1"
       d="m 0,88.917992 44.435696,-40.80533 49.082565,4.356441 35.722809,23.524782 12.48847,13.069321 z"
       id="path11947" />
    <path
       style="fill:none;stroke:#000000;stroke-width:0.264583px;stroke-linecap:butt;stroke-linejoin:miter;stroke-opacity:1"
       d="m 135.65055,82.402715 30.33106,-37.262244 21.16567,-4.0388 7.0716,-12.740023 28.47894,3.838841 16.25769,13.3161 34.04808,47.031766 -131.27405,-3.485149 z"
       id="path11949" />
    <path
       style="fill:none;stroke:#000000;stroke-width:0.264583px;stroke-linecap:butt;stroke-linejoin:miter;stroke-opacity:1"
       d="m 144.67491,71.258814 17.49559,-13.603989 28.36442,-4.9053 8.69505,-8.340842 17.36105,3.542133 5.26615,6.712215 8.08391,34.524071 -88.21154,-0.123896 -6.07899,-6.660491 z"
       id="path11951" />
    <path
       style="fill:none;stroke:#000000;stroke-width:0.264583px;stroke-linecap:butt;stroke-linejoin:miter;stroke-opacity:1"
       d="m 238.95551,45.516589 9.12354,26.051256 -14.80033,-30.720552 5.67679,4.669296"
       id="path11955" />
    <path
       style="fill:none;stroke:#000000;stroke-width:0.264583px;stroke-linecap:butt;stroke-linejoin:miter;stroke-opacity:1"
       d="m 199.97734,66.835557 1.36792,21.608047 -9.01525,-0.168391 z"
       id="path11957" />
    <path
       style="fill:none;stroke:#000000;stroke-width:0.264583px;stroke-linecap:butt;stroke-linejoin:miter;stroke-opacity:1"
       d="m 208.66943,75.552652 10.24,13.227063 -6.5271,-0.942012 z"
       id="path11959" />
    <path
       style="fill:none;stroke:#000000;stroke-width:0.264583px;stroke-linecap:butt;stroke-linejoin:miter;stroke-opacity:1"
       d="m 148.80817,87.435489 31.86994,-3.373882 7.45571,3.741259 z"
       id="path11961" />
    <path
       style="fill:none;stroke:#000000;stroke-width:0.264583px;stroke-linecap:butt;stroke-linejoin:miter;stroke-opacity:1"
       d="m 194.21888,28.361648 30.19166,18.146443 17.65976,41.994021"
       id="path11963" />
    <path
       style="opacity:1;fill:#80e5ff;fill-opacity:1;fill-rule:nonzero;stroke-width:0.155439"
       d="m 241.23934,85.975026 c -0.15321,-0.363559 -3.96264,-9.425715 -8.46539,-20.13812 L 224.58713,46.3598 210.02166,37.600052 c -8.01101,-4.817862 -14.54479,-8.780366 -14.51952,-8.805564 0.12571,-0.125352 27.0913,3.617948 27.29629,3.789206 0.12808,0.107011 2.50351,2.050069 5.27874,4.317907 l 5.04586,4.123343 5.76409,11.965901 c 3.17025,6.581244 6.50256,13.500066 7.40513,15.37516 2.79915,5.815203 2.47287,4.511215 -2.23362,-8.92661 -2.31282,-6.603497 -4.17667,-12.03474 -4.14188,-12.069427 0.0525,-0.05239 28.01221,38.442344 28.39461,39.093576 0.10404,0.177181 -2.04237,0.208058 -13.33473,0.191837 l -13.45873,-0.01934 z"
       id="path12039" />
    <path
       style="opacity:1;fill:#87cdde;fill-opacity:1;fill-rule:nonzero;stroke-width:0.155439"
       d="m 137.88165,84.534211 -1.91218,-2.096439 0.28363,-0.384374 c 0.15601,-0.211405 2.17302,-2.707968 4.48226,-5.547915 l 4.19862,-5.163543 8.67444,-6.74538 8.67444,-6.74538 14.19092,-2.454185 14.19093,-2.454185 4.34654,-4.175416 c 2.3906,-2.29648 4.42315,-4.145994 4.51677,-4.110029 0.0936,0.03596 3.93798,0.831736 8.54303,1.76839 l 8.37282,1.703007 2.55513,3.250165 c 1.40533,1.787591 2.61682,3.433104 2.69221,3.656695 0.12182,0.36132 7.40292,31.363049 7.4027,31.519471 -5e-5,0.0347 -2.6062,0.05936 -5.79145,0.05478 l -5.79135,-0.0083 -4.34202,-5.602386 c -2.38811,-3.081313 -4.41245,-5.577596 -4.49853,-5.547299 -0.22366,0.07873 -0.21361,0.117562 1.50556,5.815566 0.85807,2.84395 1.51837,5.212447 1.46735,5.263324 -0.051,0.05087 -2.37097,0.128016 -5.15544,0.171426 -4.34898,0.0678 -5.06262,0.04729 -5.06234,-0.145518 1.7e-4,-0.123447 -0.27287,-4.488712 -0.60677,-9.700591 -0.33389,-5.211878 -0.60733,-9.633529 -0.60764,-9.825884 -0.002,-1.244155 -0.65635,0.345639 -3.98046,9.670386 l -3.5722,10.020713 -3.07659,-0.0044 -3.07659,-0.0044 -2.86355,-1.434436 -2.86355,-1.434439 -13.41978,1.415063 -13.41979,1.415066 -7.07246,-0.02154 -7.07247,-0.02154 z"
       id="path12078" />
    <path
       style="opacity:1;fill:#2c89a0;fill-opacity:1;fill-rule:nonzero;stroke-width:0.155439"
       d="m 229.47934,86.26901 c -0.0477,-0.192424 -1.73797,-7.403915 -3.75619,-16.025532 l -3.66947,-15.675671 -2.55321,-3.271165 c -1.40426,-1.799141 -2.63084,-3.335817 -2.72572,-3.414837 -0.0949,-0.07902 -4.099,-0.945333 -8.89802,-1.92514 l -8.7255,-1.781469 -4.36094,4.189249 -4.36095,4.189245 -14.16906,2.452291 c -7.79299,1.348758 -14.24531,2.511539 -14.3385,2.583955 -11.49378,8.931341 -15.06401,11.674634 -15.12031,11.618169 -0.0524,-0.05255 18.64595,-23.157444 19.22788,-23.759194 0.0639,-0.06612 4.86831,-1.026888 10.67636,-2.135034 5.80806,-1.108143 10.60841,-2.092714 10.66745,-2.187934 0.059,-0.09522 1.63325,-2.922327 3.49825,-6.28246 2.16605,-3.902514 3.4608,-6.082404 3.58437,-6.034782 0.10639,0.041 6.85014,4.071917 14.98611,8.957585 l 14.79267,8.883034 8.25651,19.643071 c 4.54109,10.803686 8.3259,19.800552 8.41071,19.993031 l 0.15418,0.349959 -5.74495,-0.0083 -5.74495,-0.0083 z"
       id="path12228" />
    <path
       style="opacity:1;fill:#216778;fill-opacity:1;fill-rule:nonzero;stroke-width:0.155439"
       d="m 240.00763,54.334707 c -3.28896,-6.819046 -5.96039,-12.423394 -5.93652,-12.45411 0.0348,-0.04477 3.77589,2.955563 4.52138,3.626117 0.20693,0.186124 7.50881,20.90411 7.43809,21.104429 -0.0237,0.067 -2.73398,-5.457394 -6.02295,-12.276436 z"
       id="path12304" />
    <path
       style="opacity:1;fill:#216778;fill-opacity:1;fill-rule:nonzero;stroke-width:0.155439"
       d="m 210.78858,81.832159 c -0.7898,-2.618992 -1.40841,-4.789305 -1.3747,-4.82292 0.0634,-0.06323 7.40057,9.365538 7.40036,9.509995 -6e-5,0.04472 -1.03276,0.07984 -2.29489,0.07802 l -2.29478,-0.0033 z"
       id="path12417" />
    <path
       style="opacity:1;fill:#216778;fill-opacity:1;fill-rule:nonzero;stroke-width:0.155439"
       d="m 193.18731,86.617593 c 8e-5,-0.05745 1.49256,-4.293804 3.31661,-9.414121 2.13016,-5.979597 3.33048,-9.151451 3.35565,-8.867352 0.10902,1.230487 1.10116,17.272479 1.10041,17.792621 l -7.9e-4,0.604475 -3.88598,-0.0056 c -2.13729,-0.0031 -3.88591,-0.05259 -3.88583,-0.11004 z"
       id="path12456" />
    <path
       style="opacity:1;fill:#216778;fill-opacity:1;fill-rule:nonzero;stroke-width:0.155439"
       d="m 159.14615,86.560075 c 0.29927,-0.03302 5.24505,-0.55858 10.99061,-1.167924 l 10.44648,-1.107895 2.37713,1.205071 2.37714,1.205074 -13.36774,-0.03715 c -7.35226,-0.02043 -13.12288,-0.06416 -12.82362,-0.09718 z"
       id="path12495" />
    <path
       style="fill:none;stroke:#000000;stroke-width:0.264583px;stroke-linecap:butt;stroke-linejoin:miter;stroke-opacity:1"
       d="m 199.22997,44.408683 15.70906,5.847919 3.06474,8.907298 0.77539,-4.175553 4.60604,7.150915"
       id="path12567" />
    <path
       style="opacity:1;fill:#aaeeff;fill-opacity:1;fill-rule:nonzero;stroke-width:0.109912"
       d="m 220.87448,57.872164 c -1.13859,-1.770591 -2.10372,-3.240068 -2.14475,-3.265503 -0.041,-0.02543 -0.21386,0.72988 -0.38408,1.67848 -0.17022,0.9486 -0.34122,1.782707 -0.38,1.853575 -0.0388,0.07087 -0.70193,-1.710666 -1.47367,-3.95896 l -1.40317,-4.087807 -6.24754,-2.317134 c -3.43615,-1.274424 -6.20621,-2.331812 -6.1557,-2.349754 0.0703,-0.02498 10.21332,2.010003 13.21461,2.651236 0.50904,0.10876 0.54897,0.149982 2.25758,2.33063 2.09939,2.679377 3.27083,4.25495 3.42178,4.602255 0.17568,0.40421 1.4336,5.729237 1.39743,5.915621 -0.0178,0.09164 -0.96391,-1.282047 -2.10249,-3.052639 z"
       id="path12639" />
    <path
       style="fill:none;stroke:#000000;stroke-width:0.264583px;stroke-linecap:butt;stroke-linejoin:miter;stroke-opacity:1"
       d="m 194.21888,28.361648 27.80067,5.396975 6.83407,3.662645"
       id="path12711" />
    <path
       style="opacity:1;fill:#aaeeff;fill-opacity:1;fill-rule:nonzero;stroke-width:0.293744"
       d=""
       id="path12783"
       transform="scale(0.26458333)" />
    <path
       style="opacity:1;fill:#aaeeff;fill-opacity:1;fill-rule:nonzero;stroke-width:0.293744"
       d=""
       id="path12861"
       transform="scale(0.26458333)" />
    <path
       style="opacity:1;fill:#afdde9;fill-opacity:1;fill-rule:nonzero;stroke-width:0.293744"
       d=""
       id="path12939"
       transform="scale(0.26458333)" />
    <path
       style="opacity:1;fill:#aaeeff;fill-opacity:1;fill-rule:nonzero;stroke-width:0.0777198"
       d="m 224.62143,34.957361 -2.52393,-1.359887 -9.96609,-1.934533 c -5.48135,-1.063992 -9.93427,-1.945088 -9.89537,-1.957991 0.15694,-0.05206 18.95749,2.599112 20.05969,2.828733 0.491,0.10229 0.55197,0.144953 2.63741,1.845622 2.3495,1.915999 2.39495,1.954652 2.28717,1.944796 -0.0412,-0.0038 -1.21071,-0.618802 -2.59888,-1.36674 z"
       id="path13054" />
    <path
       style="opacity:1;fill:#d5f6ff;fill-opacity:1;fill-rule:nonzero;stroke-width:0.0777198"
       d="m 225.0098,35.120324 c -3.28096,-1.755018 -2.20417,-1.428553 -9.12809,-2.767483 -9.43814,-1.825124 -12.2576,-2.38333 -12.17554,-2.410554 0.15679,-0.05201 17.3426,2.377916 18.42371,2.604956 0.58869,0.123629 0.73574,0.206088 1.59946,0.896938 0.57772,0.4621 3.05541,2.479109 3.1794,2.588251 0.22431,0.197461 -0.25531,-0.03291 -1.89894,-0.912108 z"
       id="path13130" />
    <path
       style="fill:none;stroke:#000000;stroke-width:0.264583px;stroke-linecap:butt;stroke-linejoin:miter;stroke-opacity:1"
       d="m 190.53492,52.749525 -6.26988,3.398271 -25.17555,3.920675"
       id="path13239" />
    <path
       style="opacity:1;fill:#aaeeff;fill-opacity:1;fill-rule:nonzero;stroke-width:0.109912"
       d="m 160.0793,59.653223 c 0.614,-0.579514 2.31377,-1.764152 2.60632,-1.816449 1.8551,-0.33164 26.27457,-4.539602 26.33713,-4.538417 0.0454,7.94e-4 -1.02867,0.603245 -2.38679,1.338631 l -2.46931,1.337064 -11.71392,1.822484 c -6.44265,1.002366 -11.88707,1.853552 -12.0987,1.891525 -0.24374,0.04373 -0.34445,0.03096 -0.27473,-0.03484 z"
       id="path13311" />
    <path
       style="fill:none;stroke:#000000;stroke-width:0.264583px;stroke-linecap:butt;stroke-linejoin:miter;stroke-opacity:1"
       d="m 81.613811,51.384007 10.876555,3.312994 36.750704,21.296884"
       id="path13383" />
    <path
       style="fill:none;stroke:#000000;stroke-width:0.264583px;stroke-linecap:butt;stroke-linejoin:miter;stroke-opacity:1"
       d="m 122.57437,76.942503 12.18287,12.107852 -6.15381,-0.888138 z"
       id="path13387" />
    <path
       style="fill:none;stroke:#000000;stroke-width:0.264583px;stroke-linecap:butt;stroke-linejoin:miter;stroke-opacity:1"
       d="M 115.52421,87.9236 108.28565,77.031887 91.692718,74.370153 84.418783,88.098739 Z"
       id="path13389" />
    <path
       style="fill:none;stroke:#000000;stroke-width:0.264583px;stroke-linecap:butt;stroke-linejoin:miter;stroke-opacity:1"
       d="M 91.692716,74.370153 87.936127,87.993879"
       id="path13391" />
    <path
       style="fill:none;stroke:#000000;stroke-width:0.264583px;stroke-linecap:butt;stroke-linejoin:miter;stroke-opacity:1"
       d="m 84.778521,67.215922 10.650416,7.70916 -3.736221,-0.554929 z"
       id="path13393" />
    <path
       style="fill:none;stroke:#000000;stroke-width:0.264583px;stroke-linecap:butt;stroke-linejoin:miter;stroke-opacity:1"
       d="m 72.931863,50.602148 5.816023,6.493179 -8.893087,-6.827337 z"
       id="path13395" />
    <path
       style="fill:none;stroke:#000000;stroke-width:0.264583px;stroke-linecap:butt;stroke-linejoin:miter;stroke-opacity:1"
       d="M 65.568546,50.042006 83.246385,62.597403 78.747886,57.095327"
       id="path13397" />
    <path
       style="fill:none;stroke:#000000;stroke-width:0.264583px;stroke-linecap:butt;stroke-linejoin:miter;stroke-opacity:1"
       d="M 44.435696,48.112662 58.183909,64.319994 76.635712,73.689049 53.452323,68.050215 43.141116,53.746805 33.682522,58.019794 44.435696,48.112662"
       id="path13399" />
    <path
       style="fill:none;stroke:#000000;stroke-width:0.264583px;stroke-linecap:butt;stroke-linejoin:miter;stroke-opacity:1"
       d="M 61.886022,88.615928 52.559762,77.281564 54.977196,77.724685 46.639514,66.831393 51.555395,87.8317 Z"
       id="path13401" />
    <path
       style="fill:#aaeeff;stroke:#000000;stroke-width:0.264583px;stroke-linecap:butt;stroke-linejoin:miter;stroke-opacity:1"
       d="m 27.739377,63.506872 9.195821,25.622771"
       id="path13403" />
    <path
       style="opacity:1;fill:#d5f6ff;fill-opacity:1;fill-rule:nonzero;stroke-width:0.109912"
       d="M 106.97622,62.87113 92.578877,54.523444 88.230346,53.202658 c -2.39169,-0.726435 -4.304598,-1.336525 -4.250904,-1.35576 0.09789,-0.03507 9.019238,0.733565 9.348795,0.805461 0.157621,0.03438 27.899133,18.242473 28.149873,18.476113 0.0658,0.06137 0.0658,0.09591 -1.4e-4,0.09376 -0.0574,-0.0019 -6.58321,-3.759869 -14.50175,-8.351097 z"
       id="path13555" />
    <path
       style="opacity:1;fill:#d5f6ff;fill-opacity:1;fill-rule:nonzero;stroke-width:0.109912"
       d="m 74.054763,55.843168 c -4.270489,-3.038938 -7.704048,-5.538936 -7.630128,-5.555549 0.07392,-0.01662 0.887269,0.0386 1.807442,0.1227 l 1.673045,0.152906 1.896015,1.445926 c 6.837206,5.214155 6.710188,5.107035 8.183705,6.901506 1.921333,2.339829 2.028415,2.476976 1.926106,2.46689 -0.05041,-0.005 -3.585694,-2.495442 -7.856185,-5.534379 z"
       id="path13594" />
    <path
       style="opacity:1;fill:#80e5ff;fill-opacity:1;fill-rule:nonzero;stroke-width:0.109912"
       d="M 92.966306,74.383672 91.822102,74.203975 89.3735,71.679446 c -1.346732,-1.388491 -2.428743,-2.544334 -2.404467,-2.568538 0.03102,-0.03093 7.086483,5.007144 7.626932,5.446148 0.08319,0.06757 -0.470448,0.0087 -1.629659,-0.173384 z"
       id="path13633" />
    <path
       style="opacity:1;fill:#80e5ff;fill-opacity:1;fill-rule:nonzero;stroke-width:0.109912"
       d="m 32.139487,75.191371 c -2.272157,-6.335585 -4.1296,-11.568705 -4.12765,-11.629154 0.0019,-0.06045 1.29486,-1.292797 2.873134,-2.738554 l 2.869591,-2.628649 3.31833,-1.496279 c 1.82508,-0.822955 3.922213,-1.769994 4.660292,-2.10453 l 1.341964,-0.608251 5.13348,7.136551 c 2.823416,3.925101 5.187849,7.139061 5.254297,7.142135 0.127045,0.0059 22.702972,5.492211 23.035148,5.597933 0.138422,0.04406 0.192344,7.94e-4 0.192569,-0.154247 2.52e-4,-0.175284 -1.693592,-1.072772 -9.088323,-4.815475 -5.869792,-2.970882 -9.211323,-4.721828 -9.435063,-4.943922 -0.710919,-0.705699 -13.209312,-15.5288 -13.118748,-15.558844 0.05187,-0.0172 4.652288,0.37378 10.223143,0.86886 l 10.128824,0.90015 8.834707,6.273985 c 4.859091,3.45069 8.883833,6.274054 8.943869,6.274138 0.06004,8.8e-5 0.138861,-0.04775 0.175165,-0.106301 0.09865,-0.159099 -4.122798,-5.258562 -7.153828,-8.641749 -2.326645,-2.596968 -2.629313,-2.975634 -2.401586,-3.004601 0.143312,-0.01823 1.982579,0.122095 4.087257,0.31183 l 3.826687,0.344972 5.333738,1.623451 5.333738,1.623452 18.371318,10.644603 18.37131,10.6446 4.9821,5.218036 4.9821,5.218038 -3.19555,0.08926 -3.19556,0.08927 -4.95124,-4.964589 c -2.72318,-2.730524 -5.00995,-4.964673 -5.0817,-4.964776 -0.0717,-1.04e-4 -0.15949,0.04665 -0.19499,0.103901 -0.0355,0.05725 1.09601,2.259471 2.51446,4.893829 1.41846,2.634356 2.57897,4.814864 2.57893,4.845574 -5e-5,0.03071 -2.83619,0.05176 -6.30255,0.04678 l -6.30247,-0.009 -3.27241,-4.926463 -3.27242,-4.926462 -6.40802,-1.027514 -6.408022,-1.027518 -5.147202,-3.729879 c -6.020038,-4.362373 -5.570543,-4.057729 -5.739103,-3.889652 -0.09994,0.09966 0.664617,0.945856 3.30741,3.660581 l 3.437406,3.530966 -0.155892,0.315896 c -0.08574,0.173744 -1.544553,2.938859 -3.241808,6.144702 l -3.085917,5.828802 -11.386796,-0.01463 c -6.262738,-0.008 -11.752884,0.01151 -12.200324,0.04345 l -0.813533,0.05808 -3.707862,-4.529506 c -2.039324,-2.491229 -3.6858,-4.551508 -3.658831,-4.5784 0.02697,-0.02689 0.501552,0.03494 1.054629,0.137404 0.553077,0.102465 1.024499,0.167449 1.047605,0.144412 0.04118,-0.04106 -8.137499,-10.776596 -8.449945,-11.091603 -0.490916,-0.494938 -0.352155,0.227137 1.860206,9.679913 1.237149,5.285989 2.277472,9.746943 2.311829,9.913234 l 0.06247,0.30235 -7.409582,-0.01064 -7.409585,-0.01064 z"
       id="path13709" />
    <path
       style="opacity:1;fill:#006680;fill-opacity:1;fill-rule:nonzero;stroke-width:0.155439"
       d="m 3.321682,86.159596 c 2.6709553,-2.558624 24.247136,-22.218644 24.312377,-22.153215 0.104437,0.104738 8.093501,22.330621 8.093237,22.515692 -1.04e-4,0.07106 -7.3958,0.118576 -16.434884,0.10559 l -16.4346975,-0.0236 z"
       id="path13972" />
    <path
       style="opacity:1;fill:#006680;fill-opacity:1;fill-rule:nonzero;stroke-width:0.310877"
       d="m 51.49873,86.129892 c -0.277112,-0.760886 -4.124495,-17.482071 -4.0415,-17.564828 0.04648,-0.04634 1.59122,1.895536 3.432762,4.315291 l 3.348257,4.399555 -1.185738,-0.224211 c -1.11723,-0.211256 -1.16001,-0.191288 -0.740471,0.345612 1.003882,1.284695 6.328931,7.778909 6.911351,8.4288 l 0.627665,0.700381 -4.105364,-0.0059 c -3.001222,-0.0043 -4.143447,-0.110466 -4.246962,-0.3947 z"
       id="path14011" />
    <path
       style="opacity:1;fill:#006680;fill-opacity:1;fill-rule:nonzero;stroke-width:0.155439"
       d="m 85.467731,86.649536 c 2.25e-4,-0.155813 5.198542,-9.864405 5.252675,-9.810115 0.03154,0.03163 -0.542819,2.230239 -1.276358,4.885793 -0.733538,2.655554 -1.333764,4.867212 -1.333833,4.914797 -6.6e-5,0.04759 -0.594677,0.08566 -1.321356,0.08462 -0.726678,-0.0011 -1.321186,-0.03484 -1.321128,-0.07509 z"
       id="path14050" />
    <path
       style="opacity:1;fill:#006680;fill-opacity:1;fill-rule:nonzero;stroke-width:0.155439"
       d="m 127.84901,86.278442 c -0.74762,-1.20976 -3.99041,-7.465848 -3.91093,-7.545094 0.0533,-0.0531 1.89389,1.70248 4.09031,3.9013 l 3.99348,3.997854 -1.97827,-0.0021 c -1.88411,-0.0019 -1.98856,-0.01865 -2.19459,-0.352054 z"
       id="path14089" />
    <path
       style="opacity:1;fill:#37abc8;fill-opacity:1;fill-rule:nonzero;stroke-width:0.155439"
       d="m 73.406097,52.726384 -2.703266,-2.100585 1.074015,0.107402 c 0.590708,0.05907 1.07992,0.115334 1.087133,0.125026 0.0072,0.0097 0.67065,0.754071 1.474298,1.654164 1.965039,2.200865 2.074246,2.333586 1.911744,2.323397 -0.07736,-0.0048 -1.357127,-0.954085 -2.843924,-2.109404 z"
       id="path14128" />
    <path
       style="opacity:1;fill:#2c89a0;fill-opacity:1;fill-rule:nonzero;stroke-width:0.155439"
       d="M 67.381185,71.234012 C 63.791803,70.350626 59.211842,69.225824 57.203493,68.734451 l -3.651544,-0.893408 -5.119248,-7.137829 c -2.815585,-3.925805 -5.181939,-7.140575 -5.258565,-7.143935 -0.07663,-0.0034 -1.848731,0.767702 -3.938013,1.713471 -2.089282,0.945766 -3.832164,1.686009 -3.873074,1.644983 -0.09912,-0.0994 8.903607,-8.374703 9.070774,-8.337854 0.07165,0.0158 3.167856,3.605659 6.880465,7.977481 l 6.750196,7.948763 8.232283,4.180552 c 4.527756,2.299303 8.092397,4.174463 7.921426,4.16702 -0.170974,-0.0074 -3.247628,-0.736298 -6.837008,-1.619683 z"
       id="path14241" />
    <path
       style="opacity:1;fill:#80e5ff;fill-opacity:1;fill-rule:nonzero;stroke-width:0.155439"
       d="m 88.576588,86.602467 c 2.65e-4,-0.201909 3.223046,-11.833104 3.299947,-11.909785 0.03858,-0.03847 3.704137,0.510696 8.145675,1.220372 l 8.07553,1.290325 3.12683,4.677524 3.12683,4.677524 -7.47267,0.09216 C 96.757417,86.77542 88.576371,86.753906 88.576588,86.602467 Z"
       id="path14356" />
    <path
       style="opacity:1;fill:#80e5ff;fill-opacity:1;fill-rule:nonzero;stroke-width:0.109912"
       d="m 92.846873,74.317 -0.934048,-0.144314 -2.116794,-2.171568 c -1.164235,-1.194364 -2.094534,-2.193764 -2.067332,-2.220889 0.05202,-0.05187 6.546995,4.563446 6.546866,4.65219 -1.09e-4,0.0766 -0.389525,0.04514 -1.428692,-0.115419 z"
       id="path14432" />
    <path
       style="opacity:1;fill:#d5f6ff;fill-opacity:1;fill-rule:nonzero;stroke-width:0.109912"
       d="m 92.791922,74.313963 -0.879089,-0.146405 -2.118759,-2.167049 c -1.165318,-1.191876 -2.096776,-2.188966 -2.06991,-2.215755 0.07017,-0.06997 6.55157,4.531185 6.551398,4.65084 -1.14e-4,0.079 -0.54933,0.03397 -1.48364,-0.121631 z"
       id="path14510" />
  </g>
  <g
     inkscape:label="water"
     inkscape:groupmode="layer"
     id="layer1"
     style="display:inline">
    <rect
       style="opacity:1;fill:#33abe0;fill-opacity:1;fill-rule:nonzero;stroke-width:0.264583"
       id="rect9209"
       width="274.74622"
       height="89.452248"
       x="-2.0330057"
       y="86.739761" />
    <rect
       style="opacity:1;fill:url(#linearGradient8947);fill-opacity:1;fill-rule:nonzero;stroke-width:0.264583"
       id="rect8345"
       width="274.74622"
       height="89.452248"
       x="-2.0330057"
       y="86.739761" />
    <rect
       style="opacity:1;fill:#146284;fill-opacity:1;fill-rule:nonzero;stroke-width:0.264583"
       id="rect9951"
       width="274.45575"
       height="3.4851527"
       x="-2.3234348"
       y="117.23486" />
    <rect
       style="opacity:1;fill:#18749c;fill-opacity:1;fill-rule:nonzero;stroke-width:0.264583"
       id="rect10723"
       width="274.74622"
       height="8.1320229"
       x="-2.0330057"
       y="131.75632" />
    <rect
       style="opacity:1;fill:#0f526c;fill-opacity:1;fill-rule:nonzero;stroke-width:0.264583"
       id="rect11607"
       width="275.03662"
       height="5.8085895"
       x="-2.0330057"
       y="86.739761" />
    <path
       style="display:inline;fill:none;stroke:#000000;stroke-width:0.264583px;stroke-linecap:butt;stroke-linejoin:miter;stroke-opacity:1;filter:url(#filter18028)"
       d="m 238.95551,127.74594 9.12354,-26.05127 -14.80033,30.72056 5.67679,-4.66929"
       id="path11955-6" />
    <path
       style="display:inline;fill:#80e5ff;fill-opacity:1;fill-rule:nonzero;stroke-width:0.155439;filter:url(#filter18024)"
       d="m 241.23934,87.287491 c -0.15321,0.36356 -3.96264,9.425716 -8.46539,20.138119 l -8.18682,19.47712 -14.56547,8.75975 c -8.01101,4.81786 -14.54479,8.78036 -14.51952,8.80556 0.12571,0.12535 27.0913,-3.61795 27.29629,-3.78921 0.12808,-0.10701 2.50351,-2.05007 5.27874,-4.3179 l 5.04586,-4.12335 5.76409,-11.9659 c 3.17025,-6.58125 6.50256,-13.50007 7.40513,-15.37517 2.79915,-5.8152 2.47287,-4.51121 -2.23362,8.92662 -2.31282,6.6035 -4.17667,12.03474 -4.14188,12.06943 0.0525,0.0524 28.01221,-38.442359 28.39461,-39.093589 0.10404,-0.17718 -2.04237,-0.20806 -13.33473,-0.19183 l -13.45873,0.0193 z"
       id="path12039-4" />
    <path
       style="display:inline;fill:#87cdde;fill-opacity:1;fill-rule:nonzero;stroke-width:0.155439;filter:url(#filter18020)"
       d="m 137.88165,88.728311 -1.91218,2.09644 0.28363,0.38437 c 0.15601,0.2114 2.17302,2.707967 4.48226,5.547914 l 4.19862,5.163545 8.67444,6.74538 8.67444,6.74538 14.19092,2.45419 14.19093,2.45419 4.34654,4.17541 c 2.3906,2.29648 4.42315,4.146 4.51677,4.11003 0.0936,-0.036 3.93798,-0.83173 8.54303,-1.76839 l 8.37282,-1.703 2.55513,-3.25017 c 1.40533,-1.78759 2.61682,-3.4331 2.69221,-3.65669 0.12182,-0.36133 7.40292,-31.363059 7.4027,-31.519489 -5e-5,-0.0347 -2.6062,-0.0594 -5.79145,-0.0548 l -5.79135,0.008 -4.34202,5.60238 c -2.38811,3.081315 -4.41245,5.577598 -4.49853,5.547301 -0.22366,-0.07873 -0.21361,-0.117563 1.50556,-5.815561 0.85807,-2.84396 1.51837,-5.21245 1.46735,-5.26333 -0.051,-0.0509 -2.37097,-0.12802 -5.15544,-0.17143 -4.34898,-0.0678 -5.06262,-0.0473 -5.06234,0.14552 1.7e-4,0.12345 -0.27287,4.48871 -0.60677,9.700593 -0.33389,5.211876 -0.60733,9.633536 -0.60764,9.825886 -0.002,1.24416 -0.65635,-0.34564 -3.98046,-9.670387 l -3.5722,-10.020712 -3.07659,0.004 -3.07659,0.004 -2.86355,1.43443 -2.86355,1.43444 -13.41978,-1.41506 -13.41979,-1.41507 -7.07246,0.0215 -7.07247,0.0215 z"
       id="path12078-2" />
    <path
       style="display:inline;fill:#2c89a0;fill-opacity:1;fill-rule:nonzero;stroke-width:0.155439;filter:url(#filter18016)"
       d="m 229.47934,86.993511 c -0.0477,0.19242 -1.73797,7.403912 -3.75619,16.025529 l -3.66947,15.67568 -2.55321,3.27117 c -1.40426,1.79914 -2.63084,3.33581 -2.72572,3.41483 -0.0949,0.079 -4.099,0.94533 -8.89802,1.92514 l -8.7255,1.78147 -4.36094,-4.18925 -4.36095,-4.18924 -14.16906,-2.45229 c -7.79299,-1.34876 -14.24531,-2.51155 -14.3385,-2.58396 -11.49378,-8.93135 -15.06401,-11.67464 -15.12031,-11.61818 -0.0524,0.0525 18.64595,23.15746 19.22788,23.75921 0.0639,0.0661 4.86831,1.02688 10.67636,2.13503 5.80806,1.10814 10.60841,2.09271 10.66745,2.18793 0.059,0.0952 1.63325,2.92233 3.49825,6.28246 2.16605,3.90252 3.4608,6.08241 3.58437,6.03479 0.10639,-0.041 6.85014,-4.07192 14.98611,-8.95759 l 14.79267,-8.88303 8.25651,-19.64308 c 4.54109,-10.80369 8.3259,-19.800559 8.41071,-19.993039 l 0.15418,-0.34995 -5.74495,0.008 -5.74495,0.008 z"
       id="path12228-0" />
    <path
       style="display:inline;fill:#216778;fill-opacity:1;fill-rule:nonzero;stroke-width:0.155439;filter:url(#filter18012)"
       d="m 240.00763,118.92782 c -3.28896,6.81905 -5.96039,12.42339 -5.93652,12.45411 0.0348,0.0448 3.77589,-2.95556 4.52138,-3.62612 0.20693,-0.18612 7.50881,-20.90411 7.43809,-21.10443 -0.0237,-0.067 -2.73398,5.45739 -6.02295,12.27644 z"
       id="path12304-1" />
    <path
       style="display:inline;fill:#216778;fill-opacity:1;fill-rule:nonzero;stroke-width:0.155439;filter:url(#filter18008)"
       d="m 210.78858,91.430361 c -0.7898,2.618989 -1.40841,4.789303 -1.3747,4.822918 0.0634,0.06323 7.40057,-9.365538 7.40036,-9.509998 -6e-5,-0.0447 -1.03276,-0.0798 -2.29489,-0.078 l -2.29478,0.003 z"
       id="path12417-1" />
    <path
       style="display:inline;fill:#216778;fill-opacity:1;fill-rule:nonzero;stroke-width:0.155439;filter:url(#filter18004)"
       d="m 193.18731,86.644921 c 8e-5,0.0575 1.49256,4.29381 3.31661,9.414125 2.13016,5.979594 3.33048,9.151454 3.35565,8.867354 0.10902,-1.23049 1.10116,-17.272479 1.10041,-17.792619 l -7.9e-4,-0.60448 -3.88598,0.006 c -2.13729,0.003 -3.88591,0.0526 -3.88583,0.11004 z"
       id="path12456-6" />
    <path
       style="display:inline;fill:#216778;fill-opacity:1;fill-rule:nonzero;stroke-width:0.155439;filter:url(#filter18000)"
       d="m 159.14615,86.702441 c 0.29927,0.033 5.24505,0.55858 10.99061,1.16793 l 10.44648,1.10789 2.37713,-1.20507 2.37714,-1.20507 -13.36774,0.0371 c -7.35226,0.0204 -13.12288,0.0642 -12.82362,0.0972 z"
       id="path12495-1" />
    <path
       style="display:inline;fill:none;stroke:#000000;stroke-width:0.264583px;stroke-linecap:butt;stroke-linejoin:miter;stroke-opacity:1;filter:url(#filter17996)"
       d="m 199.22997,128.85384 15.70906,-5.84791 3.06474,-8.90731 0.77539,4.17556 4.60604,-7.15092"
       id="path12567-9" />
    <path
       style="display:inline;fill:#aaeeff;fill-opacity:1;fill-rule:nonzero;stroke-width:0.109912;filter:url(#filter17992)"
       d="m 220.87448,115.39036 c -1.13859,1.77059 -2.10372,3.24007 -2.14475,3.26551 -0.041,0.0254 -0.21386,-0.72988 -0.38408,-1.67848 -0.17022,-0.9486 -0.34122,-1.78271 -0.38,-1.85358 -0.0388,-0.0709 -0.70193,1.71067 -1.47367,3.95896 l -1.40317,4.08781 -6.24754,2.31713 c -3.43615,1.27443 -6.20621,2.33181 -6.1557,2.34976 0.0703,0.025 10.21332,-2.01001 13.21461,-2.65124 0.50904,-0.10876 0.54897,-0.14998 2.25758,-2.33063 2.09939,-2.67938 3.27083,-4.25495 3.42178,-4.60226 0.17568,-0.4042 1.4336,-5.72924 1.39743,-5.91562 -0.0178,-0.0916 -0.96391,1.28205 -2.10249,3.05264 z"
       id="path12639-3" />
    <path
       style="display:inline;fill:none;stroke:#000000;stroke-width:0.264583px;stroke-linecap:butt;stroke-linejoin:miter;stroke-opacity:1;filter:url(#filter17988)"
       d="m 194.21888,144.90088 27.80067,-5.39698 6.83407,-3.66264"
       id="path12711-2" />
    <path
       style="display:inline;fill:#aaeeff;fill-opacity:1;fill-rule:nonzero;stroke-width:0.0777198;filter:url(#filter17984)"
       d="m 224.62143,138.30517 -2.52393,1.35988 -9.96609,1.93454 c -5.48135,1.06399 -9.93427,1.94508 -9.89537,1.95799 0.15694,0.0521 18.95749,-2.59911 20.05969,-2.82874 0.491,-0.10229 0.55197,-0.14495 2.63741,-1.84562 2.3495,-1.916 2.39495,-1.95465 2.28717,-1.94479 -0.0412,0.004 -1.21071,0.6188 -2.59888,1.36674 z"
       id="path13054-5" />
    <path
       style="display:inline;fill:#d5f6ff;fill-opacity:1;fill-rule:nonzero;stroke-width:0.0777198;filter:url(#filter17980)"
       d="m 225.0098,138.1422 c -3.28096,1.75502 -2.20417,1.42856 -9.12809,2.76749 -9.43814,1.82512 -12.2576,2.38333 -12.17554,2.41055 0.15679,0.052 17.3426,-2.37792 18.42371,-2.60496 0.58869,-0.12362 0.73574,-0.20608 1.59946,-0.89693 0.57772,-0.4621 3.05541,-2.47911 3.1794,-2.58825 0.22431,-0.19747 -0.25531,0.0329 -1.89894,0.9121 z"
       id="path13130-7" />
    <path
       style="display:inline;fill:none;stroke:#000000;stroke-width:0.264583px;stroke-linecap:butt;stroke-linejoin:miter;stroke-opacity:1;filter:url(#filter17976)"
       d="m 190.53492,120.513 -6.26988,-3.39827 -25.17555,-3.92068"
       id="path13239-3" />
    <path
       style="display:inline;fill:#aaeeff;fill-opacity:1;fill-rule:nonzero;stroke-width:0.109912;filter:url(#filter17972)"
       d="m 160.0793,113.6093 c 0.614,0.57951 2.31377,1.76415 2.60632,1.81645 1.8551,0.33164 26.27457,4.53961 26.33713,4.53842 0.0454,-7.9e-4 -1.02867,-0.60324 -2.38679,-1.33863 l -2.46931,-1.33706 -11.71392,-1.82249 c -6.44265,-1.00237 -11.88707,-1.85355 -12.0987,-1.89153 -0.24374,-0.0437 -0.34445,-0.031 -0.27473,0.0348 z"
       id="path13311-6" />
    <path
       style="display:inline;fill:none;stroke:#000000;stroke-width:0.264583px;stroke-linecap:butt;stroke-linejoin:miter;stroke-opacity:1;filter:url(#filter17968)"
       d="m 81.613813,121.87852 10.87656,-3.31299 36.750697,-21.296897"
       id="path13383-7" />
    <path
       style="display:inline;fill:none;stroke:#000000;stroke-width:0.264583px;stroke-linecap:butt;stroke-linejoin:miter;stroke-opacity:1;filter:url(#filter17964)"
       d="m 84.778523,106.0466 10.65042,-7.709164 -3.73622,0.554929 z"
       id="path13393-1" />
    <path
       style="display:inline;fill:none;stroke:#000000;stroke-width:0.264583px;stroke-linecap:butt;stroke-linejoin:miter;stroke-opacity:1;filter:url(#filter17960)"
       d="m 72.931863,122.66038 5.81603,-6.49318 -8.89309,6.82734 z"
       id="path13395-7" />
    <path
       style="display:inline;fill:none;stroke:#000000;stroke-width:0.264583px;stroke-linecap:butt;stroke-linejoin:miter;stroke-opacity:1;filter:url(#filter17956)"
       d="m 65.568553,123.22052 17.67783,-12.5554 -4.49849,5.50208"
       id="path13397-9" />
    <path
       style="display:inline;fill:none;stroke:#000000;stroke-width:0.264583px;stroke-linecap:butt;stroke-linejoin:miter;stroke-opacity:1;filter:url(#filter17952)"
       d="m 44.435703,125.14987 13.74821,-16.20734 18.4518,-9.369061 -23.18339,5.638831 -10.3112,14.30342 -9.4586,-4.27299 10.75318,9.90714"
       id="path13399-6" />
    <path
       style="display:inline;fill:#d5f6ff;fill-opacity:1;fill-rule:nonzero;stroke-width:0.109912;filter:url(#filter17948)"
       d="m 106.97622,110.39139 -14.397337,8.34769 -4.34853,1.32079 c -2.39169,0.72643 -4.3046,1.33652 -4.25091,1.35576 0.0979,0.0351 9.01924,-0.73357 9.3488,-0.80546 0.15762,-0.0344 27.899127,-18.24248 28.149867,-18.47612 0.0659,-0.0614 0.0658,-0.0959 -1.4e-4,-0.0938 -0.0574,0.002 -6.58321,3.75987 -14.50175,8.35109 z"
       id="path13555-2" />
    <path
       style="display:inline;fill:#d5f6ff;fill-opacity:1;fill-rule:nonzero;stroke-width:0.109912;filter:url(#filter17944)"
       d="m 74.054763,117.41936 c -4.27049,3.03894 -7.70404,5.53894 -7.63013,5.55555 0.0739,0.0166 0.88727,-0.0386 1.80745,-0.1227 l 1.67304,-0.15291 1.89602,-1.44592 c 6.8372,-5.21416 6.71018,-5.10704 8.1837,-6.90151 1.92134,-2.33983 2.02842,-2.47698 1.92611,-2.46689 -0.0504,0.005 -3.5857,2.49544 -7.85619,5.53438 z"
       id="path13594-2" />
    <path
       style="display:inline;fill:#80e5ff;fill-opacity:1;fill-rule:nonzero;stroke-width:0.109912;filter:url(#filter17940)"
       d="m 92.966313,98.878845 -1.14421,0.179697 -2.4486,2.524528 c -1.34673,1.38849 -2.42874,2.54434 -2.40447,2.56854 0.031,0.0309 7.08649,-5.007144 7.62693,-5.446149 0.0832,-0.06757 -0.47044,-0.0087 -1.62965,0.173384 z"
       id="path13633-3" />
    <path
       style="display:inline;fill:#80e5ff;fill-opacity:1;fill-rule:nonzero;stroke-width:0.109912;filter:url(#filter17936)"
       d="m 32.139493,98.071146 c -2.27216,6.335584 -4.1296,11.568704 -4.12765,11.629154 0.002,0.0605 1.29486,1.2928 2.87313,2.73856 l 2.86959,2.62865 3.31833,1.49628 c 1.82508,0.82296 3.92221,1.77 4.66029,2.10453 l 1.34197,0.60825 5.13348,-7.13655 c 2.82341,-3.92511 5.18785,-7.13907 5.25429,-7.14214 0.12705,-0.006 22.70298,-5.492213 23.03515,-5.597935 0.13843,-0.04406 0.19235,-7.94e-4 0.19257,0.154247 2.5e-4,0.175283 -1.69359,1.072768 -9.08832,4.815478 -5.86979,2.97088 -9.21132,4.72183 -9.43506,4.94392 -0.71092,0.7057 -13.20932,15.52881 -13.11875,15.55885 0.0519,0.0172 4.65229,-0.37378 10.22314,-0.86886 l 10.12882,-0.90015 8.83471,-6.27398 c 4.85909,-3.4507 8.88383,-6.27406 8.94387,-6.27415 0.06,-9e-5 0.13886,0.0477 0.17517,0.10631 0.0986,0.1591 -4.1228,5.25856 -7.15383,8.64175 -2.32665,2.59697 -2.62931,2.97563 -2.40159,3.0046 0.14331,0.0182 1.98258,-0.12209 4.08726,-0.31183 l 3.82669,-0.34497 5.33373,-1.62345 5.33374,-1.62345 18.371317,-10.64461 18.37131,-10.644607 4.9821,-5.218032 4.9821,-5.21804 -3.19555,-0.0893 -3.19556,-0.0893 -4.95124,4.96459 c -2.72318,2.730527 -5.00995,4.964677 -5.0817,4.96478 -0.0718,1.03e-4 -0.15949,-0.04665 -0.19499,-0.103902 -0.0355,-0.05725 1.09601,-2.25947 2.51446,-4.893828 1.41846,-2.63436 2.57897,-4.81486 2.57893,-4.84557 -5e-5,-0.0307 -2.83619,-0.0518 -6.30255,-0.0468 l -6.30247,0.009 -3.27241,4.92646 -3.27242,4.926465 -6.40802,1.027515 -6.408017,1.027517 -5.1472,3.729882 c -6.02004,4.36237 -5.57055,4.05773 -5.73911,3.88965 -0.0999,-0.0996 0.66462,-0.94586 3.30741,-3.66058 l 3.43741,-3.530967 -0.15589,-0.315896 c -0.0857,-0.173744 -1.54456,-2.93886 -3.24181,-6.144706 l -3.08592,-5.8288 -11.38679,0.0146 c -6.26274,0.008 -11.75289,-0.0115 -12.20033,-0.0434 l -0.81353,-0.0581 -3.70786,4.52951 c -2.03933,2.49123 -3.6858,4.551507 -3.65883,4.5784 0.027,0.02689 0.50155,-0.03494 1.05463,-0.137404 0.55307,-0.102465 1.02449,-0.167449 1.0476,-0.144412 0.0412,0.04106 -8.1375,10.776595 -8.44994,11.091605 -0.49092,0.49494 -0.35216,-0.22714 1.8602,-9.679915 1.23715,-5.285994 2.27747,-9.746944 2.31183,-9.913234 l 0.0625,-0.30235 -7.40958,0.0106 -7.40959,0.0106 z"
       id="path13709-6" />
    <path
       style="display:inline;fill:#006680;fill-opacity:1;fill-rule:nonzero;stroke-width:0.155439;filter:url(#filter17932)"
       d="m 3.3216833,87.102921 c 2.67096,2.55862 24.2471397,22.218649 24.3123797,22.153219 0.10444,-0.10474 8.0935,-22.330629 8.09324,-22.515699 -1.1e-4,-0.0711 -7.3958,-0.11857 -16.43489,-0.10559 l -16.4346997,0.0236 z"
       id="path13972-0" />
    <path
       style="display:inline;fill:#006680;fill-opacity:1;fill-rule:nonzero;stroke-width:0.310877;filter:url(#filter17928)"
       d="m 51.498733,87.132631 c -0.27711,0.76088 -4.12449,17.482069 -4.0415,17.564819 0.0465,0.0463 1.59122,-1.89553 3.43276,-4.31529 l 3.34826,-4.399552 -1.18574,0.22421 c -1.11723,0.211257 -1.16001,0.191289 -0.74047,-0.345612 1.00388,-1.284695 6.32893,-7.778905 6.91135,-8.428795 l 0.62767,-0.70039 -4.10537,0.006 c -3.00122,0.004 -4.14344,0.11047 -4.24696,0.39471 z"
       id="path14011-4" />
    <path
       style="display:inline;fill:#006680;fill-opacity:1;fill-rule:nonzero;stroke-width:0.155439;filter:url(#filter17924)"
       d="m 85.467733,86.612981 c 2.3e-4,0.15581 5.19854,9.864405 5.25268,9.810116 0.0315,-0.03163 -0.54282,-2.230239 -1.27636,-4.885796 -0.73354,-2.65555 -1.33377,-4.86721 -1.33384,-4.91479 -6e-5,-0.0476 -0.59467,-0.0857 -1.32135,-0.0846 -0.72668,0.001 -1.32119,0.0348 -1.32113,0.0751 z"
       id="path14050-9" />
    <path
       style="display:inline;fill:#006680;fill-opacity:1;fill-rule:nonzero;stroke-width:0.155439;filter:url(#filter17920)"
       d="m 127.84901,86.984071 c -0.74762,1.20976 -3.99041,7.465853 -3.91093,7.545098 0.0532,0.05311 1.89389,-1.702478 4.09031,-3.901298 l 3.99348,-3.99786 -1.97827,0.002 c -1.88411,0.002 -1.98856,0.0187 -2.19459,0.35206 z"
       id="path14089-3" />
    <path
       style="display:inline;fill:#37abc8;fill-opacity:1;fill-rule:nonzero;stroke-width:0.155439;filter:url(#filter17916)"
       d="m 73.406103,120.53614 -2.70327,2.10059 1.07402,-0.1074 c 0.5907,-0.0591 1.07992,-0.11534 1.08713,-0.12503 0.007,-0.01 0.67065,-0.75407 1.4743,-1.65416 1.96504,-2.20087 2.07424,-2.33359 1.91174,-2.3234 -0.0774,0.005 -1.35713,0.95408 -2.84392,2.1094 z"
       id="path14128-4" />
    <path
       style="display:inline;fill:#2c89a0;fill-opacity:1;fill-rule:nonzero;stroke-width:0.155439;filter:url(#filter17912)"
       d="m 67.381193,102.02851 c -3.58939,0.88338 -8.16935,2.00818 -10.1777,2.49956 l -3.65154,0.89341 -5.11925,7.13783 c -2.81558,3.92581 -5.18194,7.14058 -5.25856,7.14394 -0.0766,0.003 -1.84873,-0.7677 -3.93802,-1.71347 -2.08928,-0.94577 -3.83216,-1.68601 -3.87307,-1.64499 -0.0991,0.0994 8.90361,8.37471 9.07077,8.33786 0.0717,-0.0158 3.16786,-3.60566 6.88047,-7.97748 l 6.75019,-7.94877 8.23229,-4.18056 c 4.52775,-2.2993 8.09239,-4.17446 7.92142,-4.16702 -0.17097,0.007 -3.24762,0.7363 -6.837,1.61969 z"
       id="path14241-5" />
    <path
       style="display:inline;fill:#80e5ff;fill-opacity:1;fill-rule:nonzero;stroke-width:0.155439;filter:url(#filter17908)"
       d="m 88.576593,86.660051 c 2.6e-4,0.20191 3.22304,11.833103 3.29994,11.909785 0.0386,0.03847 3.70414,-0.510696 8.145677,-1.220372 l 8.07553,-1.290326 3.12683,-4.677527 3.12683,-4.67752 -7.47267,-0.0922 c -10.121307,-0.12484 -18.302357,-0.10332 -18.302137,0.0481 z"
       id="path14356-9" />
    <path
       style="display:inline;fill:#80e5ff;fill-opacity:1;fill-rule:nonzero;stroke-width:0.109912;filter:url(#filter17904)"
       d="m 92.846873,98.945518 -0.93404,0.144314 -2.1168,2.171568 c -1.16423,1.19436 -2.09453,2.19376 -2.06733,2.22089 0.052,0.0519 6.54699,-4.563448 6.54686,-4.652192 -1e-4,-0.0766 -0.38952,-0.04514 -1.42869,0.11542 z"
       id="path14432-1" />
    <path
       style="display:inline;fill:#d5f6ff;fill-opacity:1;fill-rule:nonzero;stroke-width:0.109912;filter:url(#filter17900)"
       d="m 92.791923,98.948555 -0.87909,0.146405 -2.11876,2.16705 c -1.16531,1.19187 -2.09677,2.18896 -2.06991,2.21575 0.0702,0.07 6.55157,-4.531181 6.5514,-4.650837 -1.1e-4,-0.079 -0.54933,-0.03397 -1.48364,0.121632 z"
       id="path14510-8" />
    <path
       style="fill:none;fill-opacity:1;stroke:#000000;stroke-width:0.565;stroke-linecap:butt;stroke-linejoin:miter;stroke-miterlimit:4;stroke-dasharray:none;stroke-opacity:1"
       d="M -2.0330057,86.73977 H 273.00359"
       id="path18090" />
    <path
       style="fill:none;fill-opacity:1;stroke:#ffffff;stroke-width:0.367976px;stroke-linecap:butt;stroke-linejoin:miter;stroke-opacity:1"
       d="m 29.653558,93.042081 c 346.110462,0 0,0 0,0 z"
       id="path18277" />
    <path
       style="display:inline;fill:none;fill-opacity:1;stroke:#ffffff;stroke-width:0.367976px;stroke-linecap:butt;stroke-linejoin:miter;stroke-opacity:1"
       d="m 102.87846,98.801739 c 346.11046,0 0,0 0,0 z"
       id="path18277-3" />
    <path
       style="display:inline;fill:none;fill-opacity:1;stroke:#ffffff;stroke-width:0.367976px;stroke-linecap:butt;stroke-linejoin:miter;stroke-opacity:1"
       d="m 6.3724656,109.32488 c 346.1104544,0 0,0 0,0 z"
       id="path18277-9" />
    <path
       style="display:inline;fill:none;fill-opacity:1;stroke:#ffffff;stroke-width:0.367976px;stroke-linecap:butt;stroke-linejoin:miter;stroke-opacity:1"
       d="m 160.68565,123.22187 c 346.11046,0 0,0 0,0 z"
       id="path18277-4" />
    <path
       style="display:inline;fill:none;fill-opacity:1;stroke:#ffffff;stroke-width:0.273925px;stroke-linecap:butt;stroke-linejoin:miter;stroke-opacity:1"
       d="m -25.28233,123.24256 c 191.79501,0 0,0 0,0 z"
       id="path18277-5" />
    <path
       style="display:inline;fill:none;fill-opacity:1;stroke:#ffffff;stroke-width:0.273925px;stroke-linecap:butt;stroke-linejoin:miter;stroke-opacity:1"
       d="m 15.594778,143.39028 c 191.795012,0 0,0 0,0 z"
       id="path18277-5-5" />
    <path
       style="display:inline;fill:none;fill-opacity:1;stroke:#ffffff;stroke-width:0.273925px;stroke-linecap:butt;stroke-linejoin:miter;stroke-opacity:1"
       d="m 209.69416,162.13252 c 191.795,0 0,0 0,0 z"
       id="path18277-5-0" />
  </g>
  <g
     inkscape:groupmode="layer"
     id="layer3"
     inkscape:label="fg icebergs"
     style="display:none"
     sodipodi:insensitive="true">
    <path
       style="fill:none;stroke:#000000;stroke-width:0.264583px;stroke-linecap:butt;stroke-linejoin:miter;stroke-opacity:1"
       d="m 40.058771,59.718598 26.715878,9.905664 45.061921,2.781437 8.26644,-3.300997"
       id="path15493" />
    <path
       style="fill:none;stroke:#000000;stroke-width:0.264583px;stroke-linecap:butt;stroke-linejoin:miter;stroke-opacity:1"
       d="M 22.927992,58.490402 52.156828,68.953877 17.212725,58.266313"
       id="path15495" />
    <path
       style="fill:none;stroke:#000000;stroke-width:0.264583px;stroke-linecap:butt;stroke-linejoin:miter;stroke-opacity:1"
       d="m 270.89108,56.944365 -16.82475,10.951184 -32.97168,-2.662505 -56.55024,0.562308"
       id="path15497" />
    <path
       style="fill:none;stroke:#000000;stroke-width:0.264583px;stroke-linecap:butt;stroke-linejoin:miter;stroke-opacity:1"
       d="m 0.05491528,82.616039 24.94669172,1.767313 22.82927,-0.55355 24.180017,4.064746 57.987626,3.833238 76.31244,-3.746817 29.65085,0.737018 34.96115,-6.089626 6.01993,-1.490221"
       id="path15638" />
    <path
       style="fill:none;stroke:#000000;stroke-width:0.264583px;stroke-linecap:butt;stroke-linejoin:miter;stroke-opacity:1"
       d="m 47.830877,83.829802 5.20936,-7.230256 6.065433,8.999173"
       id="path15833" />
    <path
       style="fill:none;stroke:#000000;stroke-width:0.264583px;stroke-linecap:butt;stroke-linejoin:miter;stroke-opacity:1"
       d="M 129.99852,91.727786 188.6908,84.8675 235.96181,88.717987"
       id="path15837" />
    <path
       style="fill:none;stroke:#000000;stroke-width:0.264583px;stroke-linecap:butt;stroke-linejoin:miter;stroke-opacity:1"
       d="M 0.05491528,82.616039 -3.2374406,80.991352"
       id="path15839" />
    <path
       style="fill:none;stroke:#000000;stroke-width:0.264583px;stroke-linecap:butt;stroke-linejoin:miter;stroke-opacity:1"
       d="m 53.040237,76.599546 76.958283,15.12824"
       id="path16034" />
    <path
       style="opacity:1;fill:#216778;fill-opacity:1;fill-rule:nonzero;stroke-width:0.587487"
       d="m 346.23013,317.3962 c -78.35154,-15.43852 -143.27987,-28.2386 -144.28518,-28.44461 -1.81387,-0.37171 -1.90307,-0.27006 -11.6776,13.30852 l -9.84977,13.68308 -10.94468,0.36512 c -6.01956,0.20082 -25.54597,0.68347 -43.39201,1.07256 L 93.633563,318.0883 47.025541,314.77795 0.41752453,311.46761 -5.2705325,308.63998 c -4.9799195,-2.4756 -5.6840735,-3.01225 -5.6560565,-4.31062 0.0176,-0.81564 2.608439,-20.91336 5.7574191,-44.6616 l 5.72541864,-43.17861 1.78132006,-0.17523 c 3.0198086,-0.29707 61.5598252,3.98392 62.8084262,4.59313 1.261905,0.6157 129.076975,39.74537 130.936865,40.08539 0.61268,0.112 1.21548,-0.0844 1.33956,-0.43653 0.13343,-0.37866 -20.87827,-8.18476 -51.43432,-19.10848 -28.41295,-10.15757 -51.40327,-18.56143 -51.089589,-18.67525 0.313675,-0.11383 13.046269,0.65784 28.294649,1.71481 l 27.72433,1.92176 50.51837,18.73202 50.51837,18.73203 85.51699,5.29284 85.51698,5.29284 15.53107,-6.22918 15.53106,-6.22919 29.37501,-2.22914 c 16.15625,-1.22602 54.09407,-4.07446 84.30626,-6.32985 l 54.93125,-4.10072 108.39163,-0.92266 108.39164,-0.92266 60.5097,4.97521 60.5097,4.97521 31.7892,-20.68194 31.78918,-20.68194 9.3406,1.46671 c 5.1373,0.80669 9.3983,1.50997 9.469,1.56284 0.1062,0.0794 2.6453,64.99695 3.2063,81.97479 l 0.1645,4.97814 -11.4568,2.77083 c -7.2307,1.74873 -35.72979,6.99795 -77.25874,14.23019 l -65.80193,11.45937 -89.24366,-7.28013 -89.24366,-7.28014 -109.32859,12.79534 c -60.13073,7.03744 -110.65044,12.77539 -112.26602,12.75101 -1.61558,-0.0244 -67.04323,-12.67584 -145.39477,-28.11437 z"
       id="path16229"
       transform="scale(0.26458333)" />
    <path
       style="opacity:1;fill:#87cdde;fill-opacity:1;fill-rule:nonzero;stroke-width:0.587487"
       d="m 390.59909,270.94784 c -13.89381,-0.88952 -50.37609,-3.13226 -81.07175,-4.98387 l -55.81028,-3.36656 -44.17087,-16.27376 c -24.29399,-8.95056 -43.94469,-16.35398 -43.66823,-16.45205 0.27646,-0.0981 26.10224,5.2416 57.39063,11.86592 l 56.88799,12.0442 83.42201,3.90842 c 45.88211,2.14962 84.21512,3.9127 85.18447,3.91794 1.12487,0.006 -3.22812,2.01747 -12.03288,5.56002 -12.43749,5.00415 -14.14351,5.54293 -17.33249,5.47376 -1.94542,-0.0422 -14.90479,-0.8045 -28.7986,-1.69402 z"
       id="path16305"
       transform="scale(0.26458333)" />
    <path
       style="opacity:1;fill:#5fbcd3;fill-opacity:1;fill-rule:nonzero;stroke-width:0.587487"
       d="M 110.82814,233.40919 C 89.105221,226.74385 71.429753,221.19261 71.549327,221.0731 c 0.119573,-0.1195 3.618498,0.0387 7.775388,0.35157 l 7.557981,0.56884 32.308384,11.56858 c 17.76961,6.36272 32.4185,11.67741 32.5531,11.81043 0.74742,0.73866 -4.91487,-0.91692 -40.91604,-11.96333 z"
       id="path16344"
       transform="scale(0.26458333)" />
    <path
       style="opacity:1;fill:#5fbcd3;fill-opacity:1;fill-rule:nonzero;stroke-width:0.587487"
       d="m 897.31263,250.78137 -59.62848,-4.95866 -88.12331,0.85807 c -84.86172,0.82632 -102.5837,0.90294 -97.52298,0.42162 1.29251,-0.12292 43.85446,-4.56412 94.58212,-9.86931 l 92.23211,-9.64581 59.38413,5.0532 59.38414,5.0532 29.61199,-9.685 c 16.28665,-5.32675 29.67685,-9.62009 29.75615,-9.54076 0.079,0.0793 -12.6058,8.44514 -28.18912,18.59069 -19.27326,12.5479 -28.89687,18.48402 -30.09578,18.56394 -0.96938,0.0646 -28.59531,-2.11391 -61.39097,-4.84118 z"
       id="path16383"
       transform="scale(0.26458333)" />
    <path
       style="opacity:1;fill:#2c89a0;fill-opacity:1;fill-rule:nonzero;stroke-width:0.587487"
       d="m 373.24842,338.18611 -100.16459,-6.66584 -23.49832,-3.9234 c -12.92408,-2.15787 -23.93821,-4.04415 -24.47583,-4.19174 -0.9962,-0.27347 -23.06133,-32.53952 -22.25198,-32.53928 0.46912,1.4e-4 271.48009,53.22174 273.49281,53.70899 2.47694,0.59963 -5.7718,0.0885 -103.10209,-6.38873 z"
       id="path16498"
       transform="scale(0.26458333)" />
    <path
       style="opacity:1;fill:#164450;fill-opacity:1;fill-rule:nonzero;stroke-width:0.587487"
       d="m 200.53276,319.35829 c -9.85459,-1.71039 -17.98186,-3.13832 -18.0606,-3.17317 -0.28187,-0.12476 17.6202,-24.73244 17.98745,-24.72504 0.20631,0.004 5.07906,7.01137 10.82833,15.57159 9.94746,14.81103 10.3736,15.56096 8.80774,15.50023 -0.90501,-0.0351 -9.70832,-1.46322 -19.56292,-3.17361 z"
       id="path16574"
       transform="scale(0.26458333)" />
    <path
       style="opacity:1;fill:#164450;fill-opacity:1;fill-rule:nonzero;stroke-width:0.587487"
       d="m 520.99969,344.04761 c 0.64627,-0.1171 44.1365,-5.22831 96.64497,-11.35825 l 95.46993,-11.14534 70.79049,5.75958 c 78.00473,6.34653 79.46228,6.61719 28.19784,5.23617 l -30.25535,-0.81506 -129.83651,6.34589 c -71.41008,3.49024 -130.36524,6.31079 -131.01146,6.26791 l -1.17495,-0.078 z"
       id="path16613"
       transform="scale(0.26458333)" />
    <path
       style="fill:none;stroke:#000000;stroke-width:0.264583px;stroke-linecap:butt;stroke-linejoin:miter;stroke-opacity:1"
       d="m 0.14717414,57.27942 17.06555086,0.986893 5.715267,0.224089 17.130779,1.228196 34.06599,7.427815 45.978249,1.958289 44.6432,-3.133389 57.20007,-5.755513 31.4241,2.673985 17.57457,-5.71819"
       id="path16864" />
  </g>
</svg>
