<?xml version="1.0" encoding="UTF-8" standalone="no"?>
<!-- Created with Inkscape (http://www.inkscape.org/) -->

<svg
   width="1024"
   height="600"
   viewBox="0 0 270.93333 158.75"
   version="1.1"
   id="svg5"
   inkscape:export-filename="D:\Art\kajamGame\ice-bg2.png"
   inkscape:export-xdpi="96"
   inkscape:export-ydpi="96"
   inkscape:version="1.1.1 (3bf5ae0d25, 2021-09-20)"
   sodipodi:docname="ice-bg2.svg"
   xmlns:inkscape="http://www.inkscape.org/namespaces/inkscape"
   xmlns:sodipodi="http://sodipodi.sourceforge.net/DTD/sodipodi-0.dtd"
   xmlns:xlink="http://www.w3.org/1999/xlink"
   xmlns="http://www.w3.org/2000/svg"
   xmlns:svg="http://www.w3.org/2000/svg">
  <sodipodi:namedview
     id="namedview7"
     pagecolor="#505050"
     bordercolor="#ffffff"
     borderopacity="1"
     inkscape:pageshadow="0"
     inkscape:pageopacity="0"
     inkscape:pagecheckerboard="1"
     inkscape:document-units="mm"
     showgrid="false"
     units="px"
     inkscape:zoom="1.2036126"
     inkscape:cx="298.59078"
     inkscape:cy="317.05043"
     inkscape:window-width="1920"
     inkscape:window-height="1017"
     inkscape:window-x="1912"
     inkscape:window-y="-8"
     inkscape:window-maximized="1"
     inkscape:current-layer="layer1" />
  <defs
     id="defs2">
    <linearGradient
       inkscape:collect="always"
       id="linearGradient8945">
      <stop
         style="stop-color:#115675;stop-opacity:1;"
         offset="0"
         id="stop8941" />
      <stop
         style="stop-color:#115675;stop-opacity:0;"
         offset="1"
         id="stop8943" />
    </linearGradient>
    <linearGradient
       inkscape:collect="always"
       xlink:href="#linearGradient8945"
       id="linearGradient8947"
       x1="137.37309"
       y1="71.15519"
       x2="137.37311"
       y2="159.44572"
       gradientUnits="userSpaceOnUse" />
    <filter
       inkscape:collect="always"
       style="color-interpolation-filters:sRGB"
       id="filter17900"
       x="-1.7798965"
       y="-2.4866268"
       width="4.559793"
       height="5.9732536">
      <feGaussianBlur
         inkscape:collect="always"
         stdDeviation="4.8590926"
         id="feGaussianBlur17902" />
    </filter>
    <filter
       inkscape:collect="always"
       style="color-interpolation-filters:sRGB"
       id="filter17904"
       x="-1.7811266"
       y="-2.4852274"
       width="4.5622532"
       height="5.9704549">
      <feGaussianBlur
         inkscape:collect="always"
         stdDeviation="4.8590926"
         id="feGaussianBlur17906" />
    </filter>
    <filter
       inkscape:collect="always"
       style="color-interpolation-filters:sRGB"
       id="filter17908"
       x="-0.45245043"
       y="-0.96850647"
       width="1.9049009"
       height="2.9370129">
      <feGaussianBlur
         inkscape:collect="always"
         stdDeviation="4.8590926"
         id="feGaussianBlur17910" />
    </filter>
    <filter
       inkscape:collect="always"
       style="color-interpolation-filters:sRGB"
       id="filter17912"
       x="-0.30008405"
       y="-0.48042514"
       width="1.6001681"
       height="1.9608503">
      <feGaussianBlur
         inkscape:collect="always"
         stdDeviation="4.8590926"
         id="feGaussianBlur17914" />
    </filter>
    <filter
       inkscape:collect="always"
       style="color-interpolation-filters:sRGB"
       id="filter17916"
       x="-2.0826432"
       y="-2.7697203"
       width="5.1652863"
       height="6.5394407">
      <feGaussianBlur
         inkscape:collect="always"
         stdDeviation="4.8590926"
         id="feGaussianBlur17918" />
    </filter>
    <filter
       inkscape:collect="always"
       style="color-interpolation-filters:sRGB"
       id="filter17920"
       x="-1.4423619"
       y="-1.476118"
       width="3.8847239"
       height="3.9522361">
      <feGaussianBlur
         inkscape:collect="always"
         stdDeviation="4.8590926"
         id="feGaussianBlur17922" />
    </filter>
    <filter
       inkscape:collect="always"
       style="color-interpolation-filters:sRGB"
       id="filter17924"
       x="-2.2196437"
       y="-1.1796973"
       width="5.4392875"
       height="3.3593947">
      <feGaussianBlur
         inkscape:collect="always"
         stdDeviation="4.8590926"
         id="feGaussianBlur17926" />
    </filter>
    <filter
       inkscape:collect="always"
       style="color-interpolation-filters:sRGB"
       id="filter17928"
       x="-0.9408373"
       y="-0.64909627"
       width="2.8816746"
       height="2.2981925">
      <feGaussianBlur
         inkscape:collect="always"
         stdDeviation="4.8590926"
         id="feGaussianBlur17930" />
    </filter>
    <filter
       inkscape:collect="always"
       style="color-interpolation-filters:sRGB"
       id="filter17932"
       x="-0.35479063"
       y="-0.51547186"
       width="1.7095813"
       height="2.0309437">
      <feGaussianBlur
         inkscape:collect="always"
         stdDeviation="4.8590926"
         id="feGaussianBlur17934" />
    </filter>
    <filter
       inkscape:collect="always"
       style="color-interpolation-filters:sRGB"
       id="filter17936"
       x="-0.10499033"
       y="-0.3039101"
       width="1.2099807"
       height="1.6078202">
      <feGaussianBlur
         inkscape:collect="always"
         stdDeviation="4.8590926"
         id="feGaussianBlur17938" />
    </filter>
    <filter
       inkscape:collect="always"
       style="color-interpolation-filters:sRGB"
       id="filter17940"
       x="-1.5273179"
       y="-2.1306223"
       width="4.0546357"
       height="5.2612446">
      <feGaussianBlur
         inkscape:collect="always"
         stdDeviation="4.8590926"
         id="feGaussianBlur17942" />
    </filter>
    <filter
       inkscape:collect="always"
       style="color-interpolation-filters:sRGB"
       id="filter17944"
       x="-0.75169672"
       y="-1.0512459"
       width="2.5033934"
       height="3.1024918">
      <feGaussianBlur
         inkscape:collect="always"
         stdDeviation="4.8590926"
         id="feGaussianBlur17946" />
    </filter>
    <filter
       inkscape:collect="always"
       style="color-interpolation-filters:sRGB"
       id="filter17948"
       x="-0.31057495"
       y="-0.60185096"
       width="1.6211499"
       height="2.2037019">
      <feGaussianBlur
         inkscape:collect="always"
         stdDeviation="4.8590926"
         id="feGaussianBlur17950" />
    </filter>
    <filter
       inkscape:collect="always"
       style="color-interpolation-filters:sRGB"
       id="filter17952"
       x="-0.27358762"
       y="-0.4609863"
       width="1.5464827"
       height="1.9207508">
      <feGaussianBlur
         inkscape:collect="always"
         stdDeviation="4.8590926"
         id="feGaussianBlur17954" />
    </filter>
    <filter
       inkscape:collect="always"
       style="color-interpolation-filters:sRGB"
       id="filter17956"
       x="-0.66401961"
       y="-0.93741996"
       width="2.3294995"
       height="2.8748399">
      <feGaussianBlur
         inkscape:collect="always"
         stdDeviation="4.8590926"
         id="feGaussianBlur17958" />
    </filter>
    <filter
       inkscape:collect="always"
       style="color-interpolation-filters:sRGB"
       id="filter17960"
       x="-1.3624905"
       y="-1.723476"
       width="3.6849064"
       height="4.4583092">
      <feGaussianBlur
         inkscape:collect="always"
         stdDeviation="4.8590926"
         id="feGaussianBlur17962" />
    </filter>
    <filter
       inkscape:collect="always"
       style="color-interpolation-filters:sRGB"
       id="filter17964"
       x="-1.1038953"
       y="-1.5296969"
       width="3.2061421"
       height="4.0563206">
      <feGaussianBlur
         inkscape:collect="always"
         stdDeviation="4.8590926"
         id="feGaussianBlur17966" />
    </filter>
    <filter
       inkscape:collect="always"
       style="color-interpolation-filters:sRGB"
       id="filter17968"
       x="-0.24566541"
       y="-0.47851858"
       width="1.4919142"
       height="1.9575284">
      <feGaussianBlur
         inkscape:collect="always"
         stdDeviation="4.8590926"
         id="feGaussianBlur17970" />
    </filter>
    <filter
       inkscape:collect="always"
       style="color-interpolation-filters:sRGB"
       id="filter17972"
       x="-0.40259731"
       y="-1.8178158"
       width="1.8051946"
       height="4.6356317">
      <feGaussianBlur
         inkscape:collect="always"
         stdDeviation="4.8590926"
         id="feGaussianBlur17974" />
    </filter>
    <filter
       inkscape:collect="always"
       style="color-interpolation-filters:sRGB"
       id="filter17976"
       x="-0.37150643"
       y="-1.611235"
       width="1.7443702"
       height="4.2205011">
      <feGaussianBlur
         inkscape:collect="always"
         stdDeviation="4.8590926"
         id="feGaussianBlur17978" />
    </filter>
    <filter
       inkscape:collect="always"
       style="color-interpolation-filters:sRGB"
       id="filter17980"
       x="-0.50145049"
       y="-1.8941306"
       width="2.002901"
       height="4.7882612">
      <feGaussianBlur
         inkscape:collect="always"
         stdDeviation="4.8590926"
         id="feGaussianBlur17982" />
    </filter>
    <filter
       inkscape:collect="always"
       style="color-interpolation-filters:sRGB"
       id="filter17984"
       x="-0.46618014"
       y="-1.761393"
       width="1.9323603"
       height="4.522786">
      <feGaussianBlur
         inkscape:collect="always"
         stdDeviation="4.8590926"
         id="feGaussianBlur17986" />
    </filter>
    <filter
       inkscape:collect="always"
       style="color-interpolation-filters:sRGB"
       id="filter17988"
       x="-0.33743674"
       y="-1.3001013"
       width="1.6759499"
       height="3.6016669">
      <feGaussianBlur
         inkscape:collect="always"
         stdDeviation="4.8590926"
         id="feGaussianBlur17990" />
    </filter>
    <filter
       inkscape:collect="always"
       style="color-interpolation-filters:sRGB"
       id="filter17992"
       x="-0.57467657"
       y="-0.7521667"
       width="2.1493531"
       height="2.5043334">
      <feGaussianBlur
         inkscape:collect="always"
         stdDeviation="4.8590926"
         id="feGaussianBlur17994" />
    </filter>
    <filter
       inkscape:collect="always"
       style="color-interpolation-filters:sRGB"
       id="filter17996"
       x="-0.48469733"
       y="-0.66176418"
       width="1.9720882"
       height="2.3264805">
      <feGaussianBlur
         inkscape:collect="always"
         stdDeviation="4.8590926"
         id="feGaussianBlur17998" />
    </filter>
    <filter
       inkscape:collect="always"
       style="color-interpolation-filters:sRGB"
       id="filter18000"
       x="-0.44506537"
       y="-4.8386494"
       width="1.8901307"
       height="10.677299">
      <feGaussianBlur
         inkscape:collect="always"
         stdDeviation="4.8590926"
         id="feGaussianBlur18002" />
    </filter>
    <filter
       inkscape:collect="always"
       style="color-interpolation-filters:sRGB"
       id="filter18004"
       x="-1.5003624"
       y="-0.63329023"
       width="4.0007248"
       height="2.2665805">
      <feGaussianBlur
         inkscape:collect="always"
         stdDeviation="4.8590926"
         id="feGaussianBlur18006" />
    </filter>
    <filter
       inkscape:collect="always"
       style="color-interpolation-filters:sRGB"
       id="filter18008"
       x="-1.5755653"
       y="-1.2162452"
       width="4.1511307"
       height="3.4324905">
      <feGaussianBlur
         inkscape:collect="always"
         stdDeviation="4.8590926"
         id="feGaussianBlur18010" />
    </filter>
    <filter
       inkscape:collect="always"
       style="color-interpolation-filters:sRGB"
       id="filter18012"
       x="-0.97505743"
       y="-0.47153444"
       width="2.9501149"
       height="1.9430689">
      <feGaussianBlur
         inkscape:collect="always"
         stdDeviation="4.8590926"
         id="feGaussianBlur18014" />
    </filter>
    <filter
       inkscape:collect="always"
       style="color-interpolation-filters:sRGB"
       id="filter18016"
       x="-0.12372683"
       y="-0.20166588"
       width="1.2474537"
       height="1.4033318">
      <feGaussianBlur
         inkscape:collect="always"
         stdDeviation="4.8590926"
         id="feGaussianBlur18018" />
    </filter>
    <filter
       inkscape:collect="always"
       style="color-interpolation-filters:sRGB"
       id="filter18020"
       x="-0.12522838"
       y="-0.27712836"
       width="1.2504568"
       height="1.5542567">
      <feGaussianBlur
         inkscape:collect="always"
         stdDeviation="4.8590926"
         id="feGaussianBlur18022" />
    </filter>
    <filter
       inkscape:collect="always"
       style="color-interpolation-filters:sRGB"
       id="filter18024"
       x="-0.16016167"
       y="-0.20152539"
       width="1.3203233"
       height="1.4030508">
      <feGaussianBlur
         inkscape:collect="always"
         stdDeviation="4.8590926"
         id="feGaussianBlur18026" />
    </filter>
    <filter
       inkscape:collect="always"
       style="color-interpolation-filters:sRGB"
       id="filter18028"
       x="-0.79599602"
       y="-0.3814789"
       width="2.5923755"
       height="1.7644145">
      <feGaussianBlur
         inkscape:collect="always"
         stdDeviation="4.8590926"
         id="feGaussianBlur18030" />
    </filter>
  </defs>
  <g
     inkscape:groupmode="layer"
     id="layer2"
     inkscape:label="bg mountains"
     style="display:inline"
     sodipodi:insensitive="true">
    <path
       style="fill:none;stroke:#000000;stroke-width:0.264583px;stroke-linecap:butt;stroke-linejoin:miter;stroke-opacity:1"
       d="m 0,73.042991 44.435696,-40.80533 49.082565,4.356441 35.722809,23.524782 12.48847,13.069321 z"
       id="path11947" />
    <path
       style="fill:none;stroke:#000000;stroke-width:0.264583px;stroke-linecap:butt;stroke-linejoin:miter;stroke-opacity:1"
       d="m 135.65055,66.527714 30.33106,-37.262244 21.16567,-4.0388 7.0716,-12.740023 28.47894,3.838841 16.25769,13.3161 34.04808,47.031766 -131.27405,-3.485149 z"
       id="path11949" />
    <path
       style="fill:none;stroke:#000000;stroke-width:0.264583px;stroke-linecap:butt;stroke-linejoin:miter;stroke-opacity:1"
       d="m 144.67491,55.383813 17.49559,-13.603989 28.36442,-4.9053 8.69505,-8.340842 17.36105,3.542133 5.26615,6.712215 8.08391,34.524071 -88.21154,-0.123896 -6.07899,-6.660491 z"
       id="path11951" />
    <path
       style="fill:none;stroke:#000000;stroke-width:0.264583px;stroke-linecap:butt;stroke-linejoin:miter;stroke-opacity:1"
       d="m 238.95551,29.641588 9.12354,26.051256 -14.80033,-30.720552 5.67679,4.669296"
       id="path11955" />
    <path
       style="fill:none;stroke:#000000;stroke-width:0.264583px;stroke-linecap:butt;stroke-linejoin:miter;stroke-opacity:1"
       d="m 199.97734,50.960556 1.36792,21.608047 -9.01525,-0.168391 z"
       id="path11957" />
    <path
       style="fill:none;stroke:#000000;stroke-width:0.264583px;stroke-linecap:butt;stroke-linejoin:miter;stroke-opacity:1"
       d="m 208.66943,59.677651 10.24,13.227063 -6.5271,-0.942012 z"
       id="path11959" />
    <path
       style="fill:none;stroke:#000000;stroke-width:0.264583px;stroke-linecap:butt;stroke-linejoin:miter;stroke-opacity:1"
       d="m 148.80817,71.560488 31.86994,-3.373882 7.45571,3.741259 z"
       id="path11961" />
    <path
       style="fill:none;stroke:#000000;stroke-width:0.264583px;stroke-linecap:butt;stroke-linejoin:miter;stroke-opacity:1"
       d="M 194.21888,12.486647 224.41054,30.63309 242.0703,72.627111"
       id="path11963" />
    <path
       style="opacity:1;fill:#80e5ff;fill-opacity:1;fill-rule:nonzero;stroke-width:0.587487"
       d="M 911.77073,264.94498 C 911.19167,263.5709 896.79385,229.32023 879.77558,188.8324 L 848.83326,115.21814 793.78266,82.110431 C 763.50483,63.901189 738.81021,48.924797 738.90572,48.829559 c 0.47513,-0.473771 102.39235,13.674134 103.1671,14.32141 0.48409,0.404448 9.4621,7.74829 19.95113,16.319648 l 19.07096,15.584288 21.78554,45.225455 c 11.98205,24.87399 24.57662,51.02387 27.98792,58.11084 10.57946,21.97872 9.34625,17.05026 -8.44204,-33.73837 -8.74137,-24.9581 -15.78583,-45.48563 -15.65436,-45.61673 0.1986,-0.19803 105.87293,145.2939 107.31823,147.75525 0.3932,0.66966 -7.7192,0.78636 -50.39899,0.72505 l -50.86764,-0.0731 z"
       id="path12039"
       transform="scale(0.26458333)" />
    <path
       style="opacity:1;fill:#87cdde;fill-opacity:1;fill-rule:nonzero;stroke-width:0.587487"
       d="m 521.12752,259.49938 -7.22716,-7.92355 1.07201,-1.45275 c 0.58961,-0.79901 8.21297,-10.23484 16.94081,-20.9685 l 15.86879,-19.51575 32.78529,-25.49435 32.78529,-25.49435 53.63498,-9.27566 53.63499,-9.27566 16.4279,-15.7811 c 9.03534,-8.67961 16.7174,-15.6699 17.07124,-15.53397 0.35383,0.13592 14.88371,3.14357 32.28862,6.68368 l 31.64529,6.43656 9.65721,12.28409 c 5.31148,6.75625 9.89034,12.97551 10.17527,13.82058 0.46043,1.36562 27.97955,118.53751 27.9787,119.12871 -1.9e-4,0.13117 -9.8502,0.22435 -21.88892,0.20705 l -21.88858,-0.0315 -16.41078,-21.17437 c -9.02594,-11.64591 -16.67698,-21.08068 -17.00232,-20.96617 -0.84535,0.29757 -0.80736,0.44433 5.6903,21.98009 3.24308,10.74879 5.73872,19.70059 5.54588,19.89288 -0.19284,0.19228 -8.96114,0.48384 -19.48511,0.64791 -16.4371,0.25626 -19.13433,0.17873 -19.13328,-0.54999 6.7e-4,-0.46657 -1.03131,-16.96521 -2.29327,-36.66365 -1.26198,-19.69844 -2.29545,-36.41019 -2.2966,-37.1372 -0.007,-4.70232 -2.48072,1.30635 -15.04427,36.54949 l -13.50124,37.87356 -11.62805,-0.0167 -11.62804,-0.0167 -10.82287,-5.42149 -10.82287,-5.4215 -50.72045,5.34827 -50.72045,5.34828 -26.73057,-0.0814 -26.73057,-0.0814 z"
       id="path12078"
       transform="scale(0.26458333)" />
    <path
       style="opacity:1;fill:#2c89a0;fill-opacity:1;fill-rule:nonzero;stroke-width:0.587487"
       d="m 867.32351,266.0561 c -0.18026,-0.72727 -6.56873,-27.9833 -14.19662,-60.56894 l -13.86887,-59.24663 -9.64992,-12.36346 c -5.30745,-6.7999 -9.94334,-12.60781 -10.30196,-12.90647 -0.35863,-0.29866 -15.49226,-3.57291 -33.6303,-7.27612 l -32.97825,-6.73311 -16.48232,15.83338 -16.48231,15.83337 -53.55236,9.2685 c -29.45381,5.09767 -53.84055,9.49243 -54.19278,9.76613 -43.44106,33.75625 -56.93482,44.1246 -57.14762,43.91119 -0.19807,-0.19863 70.47291,-87.5242 72.67231,-89.79853 0.24168,-0.24992 18.3999,-3.88115 40.35161,-8.06942 21.95171,-4.188257 40.09476,-7.90947 40.3179,-8.269357 0.22314,-0.359886 6.17293,-11.045016 13.22176,-23.744732 8.18663,-14.749659 13.08016,-22.988612 13.54719,-22.808623 0.40213,0.154974 25.89033,15.389922 56.64044,33.85544 l 55.9093,33.573672 31.20572,74.24153 c 17.16315,40.83283 31.46797,74.83673 31.78849,75.56421 l 0.58275,1.32268 -21.71321,-0.0312 -21.71321,-0.0312 z"
       id="path12228"
       transform="scale(0.26458333)" />
    <path
       style="opacity:1;fill:#216778;fill-opacity:1;fill-rule:nonzero;stroke-width:0.587487"
       d="m 907.11548,145.35952 c -12.43072,-25.77277 -22.52749,-46.954558 -22.43725,-47.070652 0.13151,-0.169197 14.27108,11.170632 17.08869,13.705012 0.78208,0.70346 28.37975,79.00766 28.11244,79.76477 -0.0894,0.25324 -10.33316,-20.62637 -22.76388,-46.39913 z"
       id="path12304"
       transform="scale(0.26458333)" />
    <path
       style="opacity:1;fill:#216778;fill-opacity:1;fill-rule:nonzero;stroke-width:0.587487"
       d="m 796.68125,249.2869 c -2.98506,-9.89855 -5.32313,-18.10131 -5.19572,-18.22836 0.23968,-0.23899 27.97068,35.39731 27.96989,35.94329 -2.4e-4,0.16904 -3.90337,0.30174 -8.67362,0.29489 l -8.67318,-0.0125 z"
       id="path12417"
       transform="scale(0.26458333)" />
    <path
       style="opacity:1;fill:#216778;fill-opacity:1;fill-rule:nonzero;stroke-width:0.587487"
       d="m 730.15677,267.37358 c 3.1e-4,-0.21714 5.64116,-16.22855 12.53523,-35.58093 8.051,-22.60005 12.58764,-34.58816 12.68277,-33.5144 0.41203,4.65066 4.16186,65.28181 4.15903,67.2477 l -0.003,2.28463 -14.68716,-0.0211 c -8.07794,-0.0116 -14.68691,-0.19876 -14.68659,-0.4159 z"
       id="path12456"
       transform="scale(0.26458333)" />
    <path
       style="opacity:1;fill:#216778;fill-opacity:1;fill-rule:nonzero;stroke-width:0.587487"
       d="m 601.49728,267.15619 c 1.1311,-0.12478 19.82378,-2.11117 41.53929,-4.4142 l 39.48276,-4.18732 8.98445,4.5546 8.98444,4.55461 -50.52373,-0.14041 c -27.78806,-0.0772 -49.5983,-0.2425 -48.46721,-0.36728 z"
       id="path12495"
       transform="scale(0.26458333)" />
    <path
       style="fill:none;stroke:#000000;stroke-width:0.264583px;stroke-linecap:butt;stroke-linejoin:miter;stroke-opacity:1"
       d="m 199.22997,28.533682 15.70906,5.847919 3.06474,8.907298 0.77539,-4.175553 4.60604,7.150915"
       id="path12567" />
    <path
       style="opacity:1;fill:#aaeeff;fill-opacity:1;fill-rule:nonzero;stroke-width:0.415416"
       d="m 834.80118,158.72944 c -4.30332,-6.692 -7.95107,-12.24593 -8.10612,-12.34206 -0.15505,-0.0961 -0.8083,2.7586 -1.45165,6.34386 -0.64335,3.58526 -1.28964,6.73779 -1.4362,7.00564 -0.14656,0.26784 -2.65297,-6.46551 -5.5698,-14.963 l -5.30332,-15.44998 -23.61275,-8.75767 c -12.98701,-4.81672 -23.45655,-8.81315 -23.26565,-8.88096 0.26579,-0.0944 38.60153,7.59686 49.94499,10.02042 1.92395,0.41106 2.07487,0.56686 8.53261,8.80868 7.93468,10.12678 12.36216,16.0817 12.93269,17.39435 0.66401,1.52772 5.41834,21.65381 5.28163,22.35825 -0.0672,0.34636 -3.64311,-4.84553 -7.94643,-11.53753 z"
       id="path12639"
       transform="scale(0.26458333)" />
    <path
       style="fill:none;stroke:#000000;stroke-width:0.264583px;stroke-linecap:butt;stroke-linejoin:miter;stroke-opacity:1"
       d="m 194.21888,12.486647 27.80067,5.396975 6.83407,3.662645"
       id="path12711" />
    <path
       style="opacity:1;fill:#aaeeff;fill-opacity:1;fill-rule:nonzero;stroke-width:0.293744"
       d=""
       id="path12783"
       transform="scale(0.26458333)" />
    <path
       style="opacity:1;fill:#aaeeff;fill-opacity:1;fill-rule:nonzero;stroke-width:0.293744"
       d=""
       id="path12861"
       transform="scale(0.26458333)" />
    <path
       style="opacity:1;fill:#afdde9;fill-opacity:1;fill-rule:nonzero;stroke-width:0.293744"
       d=""
       id="path12939"
       transform="scale(0.26458333)" />
    <path
       style="opacity:1;fill:#aaeeff;fill-opacity:1;fill-rule:nonzero;stroke-width:0.293744"
       d="m 848.96291,72.122308 -9.53929,-5.139732 -37.66711,-7.311618 c -20.71691,-4.021389 -37.54683,-7.351517 -37.39982,-7.400284 0.59315,-0.19677 71.65035,9.823416 75.81616,10.691275 1.85576,0.386608 2.08618,0.547855 9.96817,6.975579 8.87998,7.241574 9.05178,7.387663 8.6444,7.35041 -0.15577,-0.01424 -4.5759,-2.338777 -9.82251,-5.16563 z"
       id="path13054"
       transform="scale(0.26458333)" />
    <path
       style="opacity:1;fill:#d5f6ff;fill-opacity:1;fill-rule:nonzero;stroke-width:0.293744"
       d="m 850.43074,72.738232 c -12.40048,-6.633139 -8.33071,-5.399255 -34.49987,-10.459781 -35.67171,-6.898104 -46.32793,-9.00786 -46.01777,-9.110753 0.59257,-0.196579 65.54682,8.987399 69.63292,9.845503 2.22498,0.467259 2.78074,0.778914 6.04518,3.390002 2.18353,1.74652 11.54802,9.369861 12.01663,9.782365 0.8478,0.746309 -0.96495,-0.124402 -7.17709,-3.447336 z"
       id="path13130"
       transform="scale(0.26458333)" />
    <path
       style="fill:none;stroke:#000000;stroke-width:0.264583px;stroke-linecap:butt;stroke-linejoin:miter;stroke-opacity:1"
       d="m 190.53492,36.874524 -6.26988,3.398271 -25.17555,3.920675"
       id="path13239" />
    <path
       style="opacity:1;fill:#aaeeff;fill-opacity:1;fill-rule:nonzero;stroke-width:0.415416"
       d="m 605.02413,165.461 c 2.32064,-2.19029 8.74496,-6.66766 9.85067,-6.86532 7.01141,-1.25344 99.30544,-17.15755 99.5419,-17.15307 0.17153,0.003 -3.88789,2.27998 -9.02094,5.05939 l -9.33283,5.05347 -44.27306,6.88813 c -24.35018,3.78847 -44.92751,7.00555 -45.72739,7.14907 -0.92121,0.16529 -1.30184,0.11702 -1.03835,-0.13167 z"
       id="path13311"
       transform="scale(0.26458333)" />
    <path
       style="fill:none;stroke:#000000;stroke-width:0.264583px;stroke-linecap:butt;stroke-linejoin:miter;stroke-opacity:1"
       d="M 81.613811,35.509006 92.490366,38.822 129.24107,60.118884"
       id="path13383" />
    <path
       style="fill:none;stroke:#000000;stroke-width:0.264583px;stroke-linecap:butt;stroke-linejoin:miter;stroke-opacity:1"
       d="m 122.57437,61.067502 12.18287,12.107852 -6.15381,-0.888138 z"
       id="path13387" />
    <path
       style="fill:none;stroke:#000000;stroke-width:0.264583px;stroke-linecap:butt;stroke-linejoin:miter;stroke-opacity:1"
       d="M 115.52421,72.048599 108.28565,61.156886 91.692718,58.495152 84.418783,72.223738 Z"
       id="path13389" />
    <path
       style="fill:none;stroke:#000000;stroke-width:0.264583px;stroke-linecap:butt;stroke-linejoin:miter;stroke-opacity:1"
       d="M 91.692716,58.495152 87.936127,72.118878"
       id="path13391" />
    <path
       style="fill:none;stroke:#000000;stroke-width:0.264583px;stroke-linecap:butt;stroke-linejoin:miter;stroke-opacity:1"
       d="m 84.778521,51.340921 10.650416,7.70916 -3.736221,-0.554929 z"
       id="path13393" />
    <path
       style="fill:none;stroke:#000000;stroke-width:0.264583px;stroke-linecap:butt;stroke-linejoin:miter;stroke-opacity:1"
       d="m 72.931863,34.727147 5.816023,6.493179 -8.893087,-6.827337 z"
       id="path13395" />
    <path
       style="fill:none;stroke:#000000;stroke-width:0.264583px;stroke-linecap:butt;stroke-linejoin:miter;stroke-opacity:1"
       d="M 65.568546,34.167005 83.246385,46.722402 78.747886,41.220326"
       id="path13397" />
    <path
       style="fill:none;stroke:#000000;stroke-width:0.264583px;stroke-linecap:butt;stroke-linejoin:miter;stroke-opacity:1"
       d="M 44.435696,32.237661 58.183909,48.444993 76.635712,57.814048 53.452323,52.175214 43.141116,37.871804 33.682522,42.144793 44.435696,32.237661"
       id="path13399" />
    <path
       style="fill:none;stroke:#000000;stroke-width:0.264583px;stroke-linecap:butt;stroke-linejoin:miter;stroke-opacity:1"
       d="m 61.886022,72.740927 -9.32626,-11.334364 2.417434,0.443121 -8.337682,-10.893292 4.915881,21.000307 z"
       id="path13401" />
    <path
       style="fill:#aaeeff;stroke:#000000;stroke-width:0.264583px;stroke-linecap:butt;stroke-linejoin:miter;stroke-opacity:1"
       d="m 27.739377,47.631871 9.195821,25.622771"
       id="path13403" />
    <path
       style="opacity:1;fill:#d5f6ff;fill-opacity:1;fill-rule:nonzero;stroke-width:0.415416"
       d="m 404.31957,177.62317 -54.41515,-31.55031 -16.43539,-4.99195 c -9.03946,-2.74558 -16.26935,-5.05143 -16.06641,-5.12413 0.36998,-0.13253 34.08846,2.77253 35.33403,3.04426 0.59573,0.12996 105.44554,68.94793 106.39321,69.83098 0.24891,0.23194 0.24873,0.36249 -5.1e-4,0.35435 -0.21705,-0.007 -24.88145,-14.21053 -54.80978,-31.5632 z"
       id="path13555"
       transform="scale(0.26458333)" />
    <path
       style="opacity:1;fill:#d5f6ff;fill-opacity:1;fill-rule:nonzero;stroke-width:0.415416"
       d="m 279.89202,151.06079 c -16.14043,-11.48575 -29.11766,-20.93456 -28.83828,-20.99735 0.27938,-0.0628 3.35346,0.1459 6.83128,0.46375 l 6.32332,0.57791 7.16604,5.46492 c 25.84141,19.70704 25.36134,19.30218 30.93054,26.08443 7.26173,8.84345 7.66645,9.3618 7.27977,9.32368 -0.19053,-0.0188 -13.55223,-9.43159 -29.69267,-20.91734 z"
       id="path13594"
       transform="scale(0.26458333)" />
    <path
       style="opacity:1;fill:#80e5ff;fill-opacity:1;fill-rule:nonzero;stroke-width:0.415416"
       d="m 351.36872,221.13514 -4.32455,-0.67917 -9.25456,-9.54153 c -5.09001,-5.24784 -9.1795,-9.61638 -9.08775,-9.70786 0.11726,-0.11692 26.78356,18.92464 28.8262,20.58387 0.31441,0.25539 -1.77807,0.0328 -6.15934,-0.65531 z"
       id="path13633"
       transform="scale(0.26458333)" />
    <path
       style="opacity:1;fill:#80e5ff;fill-opacity:1;fill-rule:nonzero;stroke-width:0.415416"
       d="m 121.47208,224.18786 c -8.58768,-23.94552 -15.60794,-43.72424 -15.60057,-43.95271 0.007,-0.22847 4.89396,-4.88616 10.85909,-10.35044 l 10.8457,-9.93505 12.54172,-5.65523 c 6.89794,-3.11038 14.82411,-6.68974 17.6137,-7.95413 l 5.07199,-2.2989 19.40213,26.97279 c 10.67118,14.83503 19.60762,26.98228 19.85876,26.9939 0.48017,0.0222 85.80651,20.75796 87.06198,21.15754 0.52317,0.16651 0.72697,0.003 0.72782,-0.58298 9.5e-4,-0.66249 -6.40098,-4.05457 -34.34957,-18.20022 -22.18504,-11.22853 -34.81445,-17.84628 -35.66008,-18.68569 -2.68694,-2.66721 -49.92496,-58.69153 -49.58267,-58.80508 0.19606,-0.065 17.58345,1.41271 38.63865,3.28388 l 38.28217,3.40214 33.39102,23.7127 c 18.36507,13.04198 33.57669,23.71296 33.8036,23.71328 0.22691,3.3e-4 0.52483,-0.18047 0.66204,-0.40177 0.37284,-0.60132 -15.58223,-19.87488 -27.03809,-32.66173 -8.79362,-9.81531 -9.93756,-11.24649 -9.07686,-11.35597 0.54165,-0.0689 7.49321,0.46146 15.4479,1.17857 l 14.46307,1.30383 20.15901,6.13588 20.15901,6.13588 69.43489,40.23157 69.43488,40.23156 18.82999,19.72171 18.83,19.72172 -12.0777,0.33738 -12.07769,0.33739 -18.71335,-18.7638 c -10.29235,-10.32009 -18.93523,-18.76412 -19.20641,-18.76451 -0.27119,-3.9e-4 -0.60283,0.17633 -0.73699,0.3927 -0.13415,0.21637 4.14242,8.53973 9.50349,18.49636 5.36108,9.95662 9.74728,18.19791 9.74711,18.31398 -1.6e-4,0.11607 -10.71946,0.19564 -23.82065,0.17682 l -23.82036,-0.0342 -12.36817,-18.6197 -12.36818,-18.6197 -24.2193,-3.88352 -24.2193,-3.88353 -19.45399,-14.09718 c -22.7529,-16.48771 -21.05402,-15.3363 -21.6911,-14.70105 -0.37773,0.37665 2.51194,3.57489 12.50045,13.83527 l 12.99177,13.34538 -0.5892,1.19394 c -0.32405,0.65667 -5.83768,11.1075 -12.2525,23.22407 l -11.66331,22.03012 -43.03671,-0.0553 c -23.67019,-0.0303 -44.42035,0.0435 -46.11146,0.16421 l -3.07477,0.21952 -14.01397,-17.11939 c -7.70768,-9.41567 -13.93058,-17.20255 -13.82865,-17.30419 0.10193,-0.10163 1.89563,0.13207 3.986,0.51932 2.09037,0.38727 3.87212,0.63288 3.95945,0.54581 0.15564,-0.1552 -30.7559,-40.73044 -31.9368,-41.92102 -1.85543,-1.87063 -1.33098,0.85847 7.0307,36.5855 4.67584,19.97854 8.60777,36.83884 8.73762,37.46734 l 0.2361,1.14274 -28.00472,-0.0402 -28.00473,-0.0402 z"
       id="path13709"
       transform="scale(0.26458333)" />
    <path
       style="opacity:1;fill:#006680;fill-opacity:1;fill-rule:nonzero;stroke-width:0.587487"
       d="m 12.554389,265.64257 c 10.094949,-9.67039 91.642721,-83.97598 91.889301,-83.72869 0.39472,0.39586 30.58961,84.3992 30.58861,85.09868 -3.9e-4,0.26858 -27.95263,0.44816 -62.116097,0.39908 l -62.115392,-0.0892 z"
       id="path13972"
       transform="scale(0.26458333)" />
    <path
       style="opacity:1;fill:#006680;fill-opacity:1;fill-rule:nonzero;stroke-width:1.17497"
       d="m 194.64087,265.5303 c -1.04735,-2.87579 -15.58864,-66.07397 -15.27496,-66.38675 0.17567,-0.17516 6.01406,7.16423 12.97422,16.30976 l 12.65483,16.62824 -4.48153,-0.84741 c -4.2226,-0.79845 -4.38429,-0.72298 -2.79863,1.30625 3.7942,4.85554 23.92037,29.4006 26.12164,31.85688 l 2.37228,2.64711 -15.51634,-0.0223 c -11.3432,-0.0163 -15.66027,-0.41751 -16.05151,-1.49178 z"
       id="path14011"
       transform="scale(0.26458333)" />
    <path
       style="opacity:1;fill:#006680;fill-opacity:1;fill-rule:nonzero;stroke-width:0.587487"
       d="m 323.02765,267.49431 c 8.5e-4,-0.5889 19.64803,-37.28279 19.85263,-37.0776 0.11921,0.11956 -2.0516,8.42925 -4.82403,18.46599 -2.77243,10.03674 -5.041,18.39576 -5.04126,18.57561 -2.5e-4,0.17985 -2.2476,0.32377 -4.9941,0.31982 -2.7465,-0.004 -4.99346,-0.13166 -4.99324,-0.28382 z"
       id="path14050"
       transform="scale(0.26458333)" />
    <path
       style="opacity:1;fill:#006680;fill-opacity:1;fill-rule:nonzero;stroke-width:0.587487"
       d="m 483.20885,266.09175 c -2.82565,-4.57232 -15.08185,-28.21738 -14.78147,-28.51689 0.20129,-0.20071 7.15804,6.43457 15.45945,14.74507 l 15.09347,15.11 -7.47692,-0.008 c -7.12104,-0.007 -7.51583,-0.0705 -8.29453,-1.3306 z"
       id="path14089"
       transform="scale(0.26458333)" />
    <path
       style="opacity:1;fill:#37abc8;fill-opacity:1;fill-rule:nonzero;stroke-width:0.587487"
       d="m 277.44037,139.28082 -10.21707,-7.93922 4.05927,0.40593 c 2.2326,0.22326 4.08159,0.43591 4.10885,0.47254 0.0273,0.0366 2.53474,2.85003 5.57215,6.25196 7.42692,8.31823 7.83967,8.81985 7.22549,8.78134 -0.29239,-0.0183 -5.1293,-3.60599 -10.74869,-7.97255 z"
       id="path14128"
       transform="scale(0.26458333)" />
    <path
       style="opacity:1;fill:#2c89a0;fill-opacity:1;fill-rule:nonzero;stroke-width:0.587487"
       d="m 254.66905,209.23091 c -13.56617,-3.33878 -30.87626,-7.59 -38.46687,-9.44716 l -13.80111,-3.37666 -19.34834,-26.97762 c -10.64158,-14.83769 -19.58528,-26.988 -19.87489,-27.0007 -0.28961,-0.0127 -6.98733,2.90155 -14.88383,6.47611 -7.8965,3.57455 -14.48377,6.37232 -14.63839,6.21726 -0.37461,-0.37569 33.65143,-31.65242 34.28324,-31.51315 0.2708,0.0597 11.973,13.62769 26.00491,30.15111 l 25.51255,30.04257 31.11414,15.80051 c 17.11278,8.69028 30.58544,15.7775 29.93925,15.74937 -0.6462,-0.0281 -12.2745,-2.78286 -25.84066,-6.12164 z"
       id="path14241"
       transform="scale(0.26458333)" />
    <path
       style="opacity:1;fill:#80e5ff;fill-opacity:1;fill-rule:nonzero;stroke-width:0.587487"
       d="m 334.77766,267.31641 c 10e-4,-0.76312 12.18159,-44.72354 12.47224,-45.01336 0.14582,-0.1454 13.99989,1.93019 30.78682,4.61243 l 30.52168,4.87682 11.81793,17.67883 11.81794,17.67883 -28.24315,0.34834 c -38.25379,0.47181 -69.17428,0.3905 -69.17346,-0.18189 z"
       id="path14356"
       transform="scale(0.26458333)" />
    <path
       style="opacity:1;fill:#80e5ff;fill-opacity:1;fill-rule:nonzero;stroke-width:0.415416"
       d="m 350.91732,220.88315 -3.53026,-0.54544 -8.00048,-8.2075 c -4.40026,-4.51413 -7.91635,-8.29139 -7.81354,-8.39391 0.19661,-0.19604 24.74455,17.24767 24.74406,17.58308 -4.1e-4,0.2895 -1.47222,0.1706 -5.39978,-0.43623 z"
       id="path14432"
       transform="scale(0.26458333)" />
    <path
       style="opacity:1;fill:#d5f6ff;fill-opacity:1;fill-rule:nonzero;stroke-width:0.415416"
       d="m 350.70963,220.87167 -3.32254,-0.55334 -8.00791,-8.19042 c -4.40435,-4.50473 -7.92482,-8.27326 -7.82328,-8.37451 0.2652,-0.26444 24.76184,17.12574 24.76119,17.57798 -4.3e-4,0.29858 -2.07621,0.1284 -5.60746,-0.45971 z"
       id="path14510"
       transform="scale(0.26458333)" />
  </g>
  <g
     inkscape:label="water"
     inkscape:groupmode="layer"
     id="layer1"
     style="display:inline">
    <rect
       style="opacity:1;fill:#33abe0;fill-opacity:1;fill-rule:nonzero;stroke-width:0.264583"
       id="rect9209"
       width="274.74622"
       height="89.452248"
       x="-2.0330057"
       y="70.864769" />
    <rect
       style="opacity:1;fill:url(#linearGradient8947);fill-opacity:1;fill-rule:nonzero;stroke-width:0.264583"
       id="rect8345"
       width="274.74622"
       height="89.452248"
       x="-2.0330057"
       y="70.864769" />
    <rect
       style="opacity:1;fill:#146284;fill-opacity:1;fill-rule:nonzero;stroke-width:0.264583"
       id="rect9951"
       width="274.45575"
       height="3.4851527"
       x="-2.3234348"
       y="101.35986" />
    <rect
       style="opacity:1;fill:#18749c;fill-opacity:1;fill-rule:nonzero;stroke-width:0.264583"
       id="rect10723"
       width="274.74622"
       height="8.1320229"
       x="-2.0330057"
       y="115.88132" />
    <rect
       style="opacity:1;fill:#0f526c;fill-opacity:1;fill-rule:nonzero;stroke-width:0.264583"
       id="rect11607"
       width="275.03662"
       height="5.8085895"
       x="-2.0330057"
       y="70.864769" />
    <path
       style="display:inline;fill:none;stroke:#000000;stroke-width:0.264583px;stroke-linecap:butt;stroke-linejoin:miter;stroke-opacity:1;filter:url(#filter18028)"
       d="m 238.95551,111.87093 9.12354,-26.051258 -14.80033,30.720548 5.67679,-4.66929"
       id="path11955-6" />
    <path
       style="display:inline;fill:#80e5ff;fill-opacity:1;fill-rule:nonzero;stroke-width:0.155439;filter:url(#filter18024)"
       d="m 241.23934,71.41249 c -0.15321,0.36356 -3.96264,9.425716 -8.46539,20.138121 l -8.18682,19.477109 -14.56547,8.75975 c -8.01101,4.81786 -14.54479,8.78036 -14.51952,8.80556 0.12571,0.12535 27.0913,-3.61795 27.29629,-3.78921 0.12808,-0.10701 2.50351,-2.05007 5.27874,-4.3179 l 5.04586,-4.12335 5.76409,-11.9659 c 3.17025,-6.581242 6.50256,-13.500064 7.40513,-15.375158 2.79915,-5.815203 2.47287,-4.511215 -2.23362,8.92661 -2.31282,6.603498 -4.17667,12.034738 -4.14188,12.069428 0.0525,0.0524 28.01221,-38.44235 28.39461,-39.09358 0.10404,-0.17718 -2.04237,-0.20806 -13.33473,-0.19183 l -13.45873,0.0193 z"
       id="path12039-4" />
    <path
       style="display:inline;fill:#87cdde;fill-opacity:1;fill-rule:nonzero;stroke-width:0.155439;filter:url(#filter18020)"
       d="m 137.88165,72.85331 -1.91218,2.09644 0.28363,0.38437 c 0.15601,0.2114 2.17302,2.707967 4.48226,5.547914 l 4.19862,5.163542 8.67444,6.74538 8.67444,6.74538 14.19092,2.454184 14.19093,2.45419 4.34654,4.17541 c 2.3906,2.29648 4.42315,4.146 4.51677,4.11003 0.0936,-0.036 3.93798,-0.83173 8.54303,-1.76839 l 8.37282,-1.703 2.55513,-3.25017 c 1.40533,-1.78759 2.61682,-3.4331 2.69221,-3.65669 0.12182,-0.36133 7.40292,-31.36305 7.4027,-31.51948 -5e-5,-0.0347 -2.6062,-0.0594 -5.79145,-0.0548 l -5.79135,0.008 -4.34202,5.60238 c -2.38811,3.081315 -4.41245,5.577598 -4.49853,5.547301 -0.22366,-0.07873 -0.21361,-0.117563 1.50556,-5.815561 0.85807,-2.84396 1.51837,-5.21245 1.46735,-5.26333 -0.051,-0.0509 -2.37097,-0.12802 -5.15544,-0.17143 -4.34898,-0.0678 -5.06262,-0.0473 -5.06234,0.14552 1.7e-4,0.12345 -0.27287,4.48871 -0.60677,9.700593 -0.33389,5.211879 -0.60733,9.63353 -0.60764,9.825884 -0.002,1.244156 -0.65635,-0.345638 -3.98046,-9.670385 l -3.5722,-10.020712 -3.07659,0.004 -3.07659,0.004 -2.86355,1.43443 -2.86355,1.43444 -13.41978,-1.41506 -13.41979,-1.41507 -7.07246,0.0215 -7.07247,0.0215 z"
       id="path12078-2" />
    <path
       style="display:inline;fill:#2c89a0;fill-opacity:1;fill-rule:nonzero;stroke-width:0.155439;filter:url(#filter18016)"
       d="m 229.47934,71.11851 c -0.0477,0.19242 -1.73797,7.403912 -3.75619,16.025529 l -3.66947,15.675671 -2.55321,3.27117 c -1.40426,1.79914 -2.63084,3.33581 -2.72572,3.41483 -0.0949,0.079 -4.099,0.94533 -8.89802,1.92514 l -8.7255,1.78147 -4.36094,-4.18925 -4.36095,-4.18924 -14.16906,-2.45229 c -7.79299,-1.34876 -14.24531,-2.511543 -14.3385,-2.583959 C 150.428,90.86624 146.85777,88.122947 146.80147,88.179412 c -0.0524,0.05255 18.64595,23.157448 19.22788,23.759198 0.0639,0.0661 4.86831,1.02688 10.67636,2.13503 5.80806,1.10814 10.60841,2.09271 10.66745,2.18793 0.059,0.0952 1.63325,2.92233 3.49825,6.28246 2.16605,3.90252 3.4608,6.08241 3.58437,6.03479 0.10639,-0.041 6.85014,-4.07192 14.98611,-8.95759 l 14.79267,-8.88303 8.25651,-19.643075 c 4.54109,-10.803686 8.3259,-19.800555 8.41071,-19.993035 l 0.15418,-0.34995 -5.74495,0.008 -5.74495,0.008 z"
       id="path12228-0" />
    <path
       style="display:inline;fill:#216778;fill-opacity:1;fill-rule:nonzero;stroke-width:0.155439;filter:url(#filter18012)"
       d="m 240.00763,103.05281 c -3.28896,6.81905 -5.96039,12.42339 -5.93652,12.45411 0.0348,0.0448 3.77589,-2.95556 4.52138,-3.62612 0.20693,-0.18612 7.50881,-20.904107 7.43809,-21.104426 -0.0237,-0.067 -2.73398,5.457393 -6.02295,12.276436 z"
       id="path12304-1" />
    <path
       style="display:inline;fill:#216778;fill-opacity:1;fill-rule:nonzero;stroke-width:0.155439;filter:url(#filter18008)"
       d="m 210.78858,75.55536 c -0.7898,2.618989 -1.40841,4.789303 -1.3747,4.822918 0.0634,0.06323 7.40057,-9.365538 7.40036,-9.509998 -6e-5,-0.0447 -1.03276,-0.0798 -2.29489,-0.078 l -2.29478,0.003 z"
       id="path12417-1" />
    <path
       style="display:inline;fill:#216778;fill-opacity:1;fill-rule:nonzero;stroke-width:0.155439;filter:url(#filter18004)"
       d="m 193.18731,70.76992 c 8e-5,0.0575 1.49256,4.29381 3.31661,9.414125 2.13016,5.979596 3.33048,9.15145 3.35565,8.867351 0.10902,-1.230487 1.10116,-17.272476 1.10041,-17.792616 l -7.9e-4,-0.60448 -3.88598,0.006 c -2.13729,0.003 -3.88591,0.0526 -3.88583,0.11004 z"
       id="path12456-6" />
    <path
       style="display:inline;fill:#216778;fill-opacity:1;fill-rule:nonzero;stroke-width:0.155439;filter:url(#filter18000)"
       d="m 159.14615,70.82744 c 0.29927,0.033 5.24505,0.55858 10.99061,1.16793 l 10.44648,1.10789 2.37713,-1.20507 2.37714,-1.20507 -13.36774,0.0371 c -7.35226,0.0204 -13.12288,0.0642 -12.82362,0.0972 z"
       id="path12495-1" />
    <path
       style="display:inline;fill:none;stroke:#000000;stroke-width:0.264583px;stroke-linecap:butt;stroke-linejoin:miter;stroke-opacity:1;filter:url(#filter17996)"
       d="m 199.22997,112.97883 15.70906,-5.84791 3.06474,-8.907303 0.77539,4.175553 4.60604,-7.150915"
       id="path12567-9" />
    <path
       style="display:inline;fill:#aaeeff;fill-opacity:1;fill-rule:nonzero;stroke-width:0.109912;filter:url(#filter17992)"
       d="m 220.87448,99.515352 c -1.13859,1.770588 -2.10372,3.240068 -2.14475,3.265508 -0.041,0.0254 -0.21386,-0.72988 -0.38408,-1.67848 -0.17022,-0.9486 -0.34122,-1.782711 -0.38,-1.85358 -0.0388,-0.07087 -0.70193,1.71067 -1.47367,3.95896 l -1.40317,4.08781 -6.24754,2.31713 c -3.43615,1.27443 -6.20621,2.33181 -6.1557,2.34976 0.0703,0.025 10.21332,-2.01001 13.21461,-2.65124 0.50904,-0.10876 0.54897,-0.14998 2.25758,-2.33063 2.09939,-2.67938 3.27083,-4.25495 3.42178,-4.60226 0.17568,-0.4042 1.4336,-5.729233 1.39743,-5.915616 -0.0178,-0.09164 -0.96391,1.282047 -2.10249,3.052638 z"
       id="path12639-3" />
    <path
       style="display:inline;fill:none;stroke:#000000;stroke-width:0.264583px;stroke-linecap:butt;stroke-linejoin:miter;stroke-opacity:1;filter:url(#filter17988)"
       d="m 194.21888,129.02587 27.80067,-5.39698 6.83407,-3.66264"
       id="path12711-2" />
    <path
       style="display:inline;fill:#aaeeff;fill-opacity:1;fill-rule:nonzero;stroke-width:0.0777198;filter:url(#filter17984)"
       d="m 224.62143,122.43016 -2.52393,1.35988 -9.96609,1.93454 c -5.48135,1.06399 -9.93427,1.94508 -9.89537,1.95799 0.15694,0.0521 18.95749,-2.59911 20.05969,-2.82874 0.491,-0.10229 0.55197,-0.14495 2.63741,-1.84562 2.3495,-1.916 2.39495,-1.95465 2.28717,-1.94479 -0.0412,0.004 -1.21071,0.6188 -2.59888,1.36674 z"
       id="path13054-5" />
    <path
       style="display:inline;fill:#d5f6ff;fill-opacity:1;fill-rule:nonzero;stroke-width:0.0777198;filter:url(#filter17980)"
       d="m 225.0098,122.26719 c -3.28096,1.75502 -2.20417,1.42856 -9.12809,2.76749 -9.43814,1.82512 -12.2576,2.38333 -12.17554,2.41055 0.15679,0.052 17.3426,-2.37792 18.42371,-2.60496 0.58869,-0.12362 0.73574,-0.20608 1.59946,-0.89693 0.57772,-0.4621 3.05541,-2.47911 3.1794,-2.58825 0.22431,-0.19747 -0.25531,0.0329 -1.89894,0.9121 z"
       id="path13130-7" />
    <path
       style="display:inline;fill:none;stroke:#000000;stroke-width:0.264583px;stroke-linecap:butt;stroke-linejoin:miter;stroke-opacity:1;filter:url(#filter17976)"
       d="m 190.53492,104.63799 -6.26988,-3.39827 -25.17555,-3.920674"
       id="path13239-3" />
    <path
       style="display:inline;fill:#aaeeff;fill-opacity:1;fill-rule:nonzero;stroke-width:0.109912;filter:url(#filter17972)"
       d="m 160.0793,97.734294 c 0.614,0.579514 2.31377,1.764151 2.60632,1.816449 1.8551,0.331639 26.27457,4.539607 26.33713,4.538417 0.0454,-7.9e-4 -1.02867,-0.60324 -2.38679,-1.33863 l -2.46931,-1.33706 -11.71392,-1.822489 c -6.44265,-1.002366 -11.88707,-1.853552 -12.0987,-1.891525 -0.24374,-0.04373 -0.34445,-0.03096 -0.27473,0.03484 z"
       id="path13311-6" />
    <path
       style="display:inline;fill:none;stroke:#000000;stroke-width:0.264583px;stroke-linecap:butt;stroke-linejoin:miter;stroke-opacity:1;filter:url(#filter17968)"
       d="m 81.613813,106.00351 10.87656,-3.31299 36.750697,-21.296888"
       id="path13383-7" />
    <path
       style="display:inline;fill:none;stroke:#000000;stroke-width:0.264583px;stroke-linecap:butt;stroke-linejoin:miter;stroke-opacity:1;filter:url(#filter17964)"
       d="m 84.778523,90.171595 10.65042,-7.70916 -3.73622,0.554929 z"
       id="path13393-1" />
    <path
       style="display:inline;fill:none;stroke:#000000;stroke-width:0.264583px;stroke-linecap:butt;stroke-linejoin:miter;stroke-opacity:1;filter:url(#filter17960)"
       d="m 72.931863,106.78537 5.81603,-6.49318 -8.89309,6.82734 z"
       id="path13395-7" />
    <path
       style="display:inline;fill:none;stroke:#000000;stroke-width:0.264583px;stroke-linecap:butt;stroke-linejoin:miter;stroke-opacity:1;filter:url(#filter17956)"
       d="m 65.568553,107.34551 17.67783,-12.555396 -4.49849,5.502076"
       id="path13397-9" />
    <path
       style="display:inline;fill:none;stroke:#000000;stroke-width:0.264583px;stroke-linecap:butt;stroke-linejoin:miter;stroke-opacity:1;filter:url(#filter17952)"
       d="m 44.435703,109.27486 13.74821,-16.207337 18.4518,-9.369055 -23.18339,5.638834 -10.3112,14.303408 -9.4586,-4.272987 10.75318,9.907137"
       id="path13399-6" />
    <path
       style="display:inline;fill:#d5f6ff;fill-opacity:1;fill-rule:nonzero;stroke-width:0.109912;filter:url(#filter17948)"
       d="m 106.97622,94.516386 -14.397337,8.347684 -4.34853,1.32079 c -2.39169,0.72643 -4.3046,1.33652 -4.25091,1.35576 0.0979,0.0351 9.01924,-0.73357 9.3488,-0.80546 0.15762,-0.0344 27.899127,-18.242475 28.149867,-18.476115 0.0659,-0.06137 0.0658,-0.09591 -1.4e-4,-0.09376 -0.0574,0.0019 -6.58321,3.759869 -14.50175,8.351096 z"
       id="path13555-2" />
    <path
       style="display:inline;fill:#d5f6ff;fill-opacity:1;fill-rule:nonzero;stroke-width:0.109912;filter:url(#filter17944)"
       d="m 74.054763,101.54435 c -4.27049,3.03894 -7.70404,5.53894 -7.63013,5.55555 0.0739,0.0166 0.88727,-0.0386 1.80745,-0.1227 l 1.67304,-0.15291 1.89602,-1.44592 c 6.8372,-5.21416 6.71018,-5.10704 8.1837,-6.90151 1.92134,-2.339829 2.02842,-2.476976 1.92611,-2.46689 -0.0504,0.005 -3.5857,2.495441 -7.85619,5.53438 z"
       id="path13594-2" />
    <path
       style="display:inline;fill:#80e5ff;fill-opacity:1;fill-rule:nonzero;stroke-width:0.109912;filter:url(#filter17940)"
       d="m 92.966313,83.003844 -1.14421,0.179697 -2.4486,2.52453 c -1.34673,1.388491 -2.42874,2.544334 -2.40447,2.568538 0.031,0.03093 7.08649,-5.007144 7.62693,-5.446149 0.0832,-0.06757 -0.47044,-0.0087 -1.62965,0.173384 z"
       id="path13633-3" />
    <path
       style="display:inline;fill:#80e5ff;fill-opacity:1;fill-rule:nonzero;stroke-width:0.109912;filter:url(#filter17936)"
       d="m 32.139493,82.196145 c -2.27216,6.335586 -4.1296,11.568705 -4.12765,11.629155 0.002,0.06045 1.29486,1.292796 2.87313,2.738554 l 2.86959,2.628648 3.31833,1.496278 c 1.82508,0.82296 3.92221,1.77 4.66029,2.10453 l 1.34197,0.60825 5.13348,-7.136548 c 2.82341,-3.925102 5.18785,-7.139061 5.25429,-7.142136 0.12705,-0.0059 22.70298,-5.49221 23.03515,-5.597932 0.13843,-0.04406 0.19235,-7.94e-4 0.19257,0.154247 2.5e-4,0.175283 -1.69359,1.072771 -9.08832,4.815474 -5.86979,2.970882 -9.21132,4.721829 -9.43506,4.943922 -0.71092,0.7057 -13.20932,15.528803 -13.11875,15.558843 0.0519,0.0172 4.65229,-0.37378 10.22314,-0.86886 l 10.12882,-0.90015 8.83471,-6.27398 c 4.85909,-3.450694 8.88383,-6.274057 8.94387,-6.274142 0.06,-8.7e-5 0.13886,0.04775 0.17517,0.106302 0.0986,0.159099 -4.1228,5.25856 -7.15383,8.64175 -2.32665,2.59697 -2.62931,2.97563 -2.40159,3.0046 0.14331,0.0182 1.98258,-0.12209 4.08726,-0.31183 l 3.82669,-0.34497 5.33373,-1.62345 5.33374,-1.62345 18.371317,-10.644608 18.37131,-10.6446 4.9821,-5.218032 4.9821,-5.21804 -3.19555,-0.0893 -3.19556,-0.0893 -4.95124,4.96459 c -2.72318,2.730527 -5.00995,4.964677 -5.0817,4.96478 -0.0718,1.03e-4 -0.15949,-0.04665 -0.19499,-0.103902 -0.0355,-0.05725 1.09601,-2.25947 2.51446,-4.893828 1.41846,-2.63436 2.57897,-4.81486 2.57893,-4.84557 -5e-5,-0.0307 -2.83619,-0.0518 -6.30255,-0.0468 l -6.30247,0.009 -3.27241,4.92646 -3.27242,4.926465 -6.40802,1.027515 -6.408017,1.027517 -5.1472,3.729879 c -6.02004,4.362373 -5.57055,4.05773 -5.73911,3.889653 -0.0999,-0.09965 0.66462,-0.945856 3.30741,-3.660582 l 3.43741,-3.530965 -0.15589,-0.315896 c -0.0857,-0.173744 -1.54456,-2.93886 -3.24181,-6.144706 l -3.08592,-5.8288 -11.38679,0.0146 c -6.26274,0.008 -11.75289,-0.0115 -12.20033,-0.0434 l -0.81353,-0.0581 -3.70786,4.52951 c -2.03933,2.49123 -3.6858,4.551507 -3.65883,4.5784 0.027,0.02689 0.50155,-0.03494 1.05463,-0.137404 0.55307,-0.102465 1.02449,-0.167449 1.0476,-0.144412 0.0412,0.04106 -8.1375,10.776595 -8.44994,11.091603 -0.49092,0.494938 -0.35216,-0.227137 1.8602,-9.679913 1.23715,-5.285994 2.27747,-9.746944 2.31183,-9.913234 l 0.0625,-0.30235 -7.40958,0.0106 -7.40959,0.0106 z"
       id="path13709-6" />
    <path
       style="display:inline;fill:#006680;fill-opacity:1;fill-rule:nonzero;stroke-width:0.155439;filter:url(#filter17932)"
       d="m 3.3216833,71.22792 c 2.67096,2.55862 24.2471397,22.218645 24.3123797,22.153216 0.10444,-0.104738 8.0935,-22.330626 8.09324,-22.515696 -1.1e-4,-0.0711 -7.3958,-0.11857 -16.43489,-0.10559 l -16.4346997,0.0236 z"
       id="path13972-0" />
    <path
       style="display:inline;fill:#006680;fill-opacity:1;fill-rule:nonzero;stroke-width:0.310877;filter:url(#filter17928)"
       d="m 51.498733,71.25763 c -0.27711,0.76088 -4.12449,17.482066 -4.0415,17.564822 0.0465,0.04635 1.59122,-1.895535 3.43276,-4.31529 l 3.34826,-4.399555 -1.18574,0.22421 c -1.11723,0.211257 -1.16001,0.191289 -0.74047,-0.345612 1.00388,-1.284695 6.32893,-7.778905 6.91135,-8.428795 l 0.62767,-0.70039 -4.10537,0.006 c -3.00122,0.004 -4.14344,0.11047 -4.24696,0.39471 z"
       id="path14011-4" />
    <path
       style="display:inline;fill:#006680;fill-opacity:1;fill-rule:nonzero;stroke-width:0.155439;filter:url(#filter17924)"
       d="m 85.467733,70.73798 c 2.3e-4,0.15581 5.19854,9.864405 5.25268,9.810116 0.0315,-0.03163 -0.54282,-2.230239 -1.27636,-4.885796 -0.73354,-2.65555 -1.33377,-4.86721 -1.33384,-4.91479 -6e-5,-0.0476 -0.59467,-0.0857 -1.32135,-0.0846 -0.72668,0.001 -1.32119,0.0348 -1.32113,0.0751 z"
       id="path14050-9" />
    <path
       style="display:inline;fill:#006680;fill-opacity:1;fill-rule:nonzero;stroke-width:0.155439;filter:url(#filter17920)"
       d="m 127.84901,71.10907 c -0.74762,1.20976 -3.99041,7.465853 -3.91093,7.545098 0.0532,0.05311 1.89389,-1.702478 4.09031,-3.901298 l 3.99348,-3.99786 -1.97827,0.002 c -1.88411,0.002 -1.98856,0.0187 -2.19459,0.35206 z"
       id="path14089-3" />
    <path
       style="display:inline;fill:#37abc8;fill-opacity:1;fill-rule:nonzero;stroke-width:0.155439;filter:url(#filter17916)"
       d="m 73.406103,104.66113 -2.70327,2.10059 1.07402,-0.1074 c 0.5907,-0.0591 1.07992,-0.11534 1.08713,-0.12503 0.007,-0.01 0.67065,-0.75407 1.4743,-1.65416 1.96504,-2.20087 2.07424,-2.33359 1.91174,-2.3234 -0.0774,0.005 -1.35713,0.95408 -2.84392,2.1094 z"
       id="path14128-4" />
    <path
       style="display:inline;fill:#2c89a0;fill-opacity:1;fill-rule:nonzero;stroke-width:0.155439;filter:url(#filter17912)"
       d="m 67.381193,86.153505 c -3.58939,0.883386 -8.16935,2.008188 -10.1777,2.499561 l -3.65154,0.893408 -5.11925,7.137829 c -2.81558,3.925807 -5.18194,7.140577 -5.25856,7.143937 -0.0766,0.003 -1.84873,-0.7677 -3.93802,-1.71347 -2.08928,-0.94577 -3.83216,-1.68601 -3.87307,-1.64499 -0.0991,0.0994 8.90361,8.37471 9.07077,8.33786 0.0717,-0.0158 3.16786,-3.60566 6.88047,-7.97748 l 6.75019,-7.948766 8.23229,-4.180552 c 4.52775,-2.299303 8.09239,-4.174464 7.92142,-4.167021 -0.17097,0.0074 -3.24762,0.736299 -6.837,1.619684 z"
       id="path14241-5" />
    <path
       style="display:inline;fill:#80e5ff;fill-opacity:1;fill-rule:nonzero;stroke-width:0.155439;filter:url(#filter17908)"
       d="m 88.576593,70.78505 c 2.6e-4,0.20191 3.22304,11.833103 3.29994,11.909785 0.0386,0.03847 3.70414,-0.510696 8.145677,-1.220372 l 8.07553,-1.290326 3.12683,-4.677527 3.12683,-4.67752 -7.47267,-0.0922 C 96.757423,70.61205 88.576373,70.63357 88.576593,70.78499 Z"
       id="path14356-9" />
    <path
       style="display:inline;fill:#80e5ff;fill-opacity:1;fill-rule:nonzero;stroke-width:0.109912;filter:url(#filter17904)"
       d="m 92.846873,83.070517 -0.93404,0.144314 -2.1168,2.171568 c -1.16423,1.194363 -2.09453,2.193763 -2.06733,2.220888 0.052,0.05187 6.54699,-4.563446 6.54686,-4.65219 -1e-4,-0.0766 -0.38952,-0.04514 -1.42869,0.11542 z"
       id="path14432-1" />
    <path
       style="display:inline;fill:#d5f6ff;fill-opacity:1;fill-rule:nonzero;stroke-width:0.109912;filter:url(#filter17900)"
       d="m 92.791923,83.073554 -0.87909,0.146405 -2.11876,2.167048 c -1.16531,1.191877 -2.09677,2.188967 -2.06991,2.215756 0.0702,0.06997 6.55157,-4.531185 6.5514,-4.650841 -1.1e-4,-0.079 -0.54933,-0.03397 -1.48364,0.121632 z"
       id="path14510-8" />
    <path
       style="fill:none;stroke:#000000;stroke-width:0.565;stroke-linecap:butt;stroke-linejoin:miter;stroke-opacity:1;fill-opacity:1;stroke-miterlimit:4;stroke-dasharray:none"
       d="M -2.0330057,70.864769 H 273.00359"
       id="path18090" />
    <path
       style="fill:none;stroke:#ffffff;stroke-width:0.367976px;stroke-linecap:butt;stroke-linejoin:miter;stroke-opacity:1;fill-opacity:1"
       d="m 29.653558,77.16708 c 346.110462,0 0,0 0,0 z"
       id="path18277" />
    <path
       style="display:inline;fill:none;fill-opacity:1;stroke:#ffffff;stroke-width:0.367976px;stroke-linecap:butt;stroke-linejoin:miter;stroke-opacity:1"
       d="m 102.87846,82.926738 c 346.11046,0 0,0 0,0 z"
       id="path18277-3" />
    <path
       style="display:inline;fill:none;fill-opacity:1;stroke:#ffffff;stroke-width:0.367976px;stroke-linecap:butt;stroke-linejoin:miter;stroke-opacity:1"
       d="m 6.3724656,93.449879 c 346.1104544,0 0,0 0,0 z"
       id="path18277-9" />
    <path
       style="display:inline;fill:none;fill-opacity:1;stroke:#ffffff;stroke-width:0.367976px;stroke-linecap:butt;stroke-linejoin:miter;stroke-opacity:1"
       d="m 160.68565,107.34686 c 346.11046,0 0,0 0,0 z"
       id="path18277-4" />
    <path
       style="display:inline;fill:none;fill-opacity:1;stroke:#ffffff;stroke-width:0.273925px;stroke-linecap:butt;stroke-linejoin:miter;stroke-opacity:1"
       d="m -25.28233,107.36755 c 191.79501,0 0,0 0,0 z"
       id="path18277-5" />
    <path
       style="display:inline;fill:none;fill-opacity:1;stroke:#ffffff;stroke-width:0.273925px;stroke-linecap:butt;stroke-linejoin:miter;stroke-opacity:1"
       d="m 15.594778,127.51527 c 191.795012,0 0,0 0,0 z"
       id="path18277-5-5" />
    <path
       style="display:inline;fill:none;fill-opacity:1;stroke:#ffffff;stroke-width:0.273925px;stroke-linecap:butt;stroke-linejoin:miter;stroke-opacity:1"
       d="m 209.69416,146.25751 c 191.795,0 0,0 0,0 z"
       id="path18277-5-0" />
  </g>
  <g
     inkscape:groupmode="layer"
     id="layer3"
     inkscape:label="fg icebergs"
     style="display:none"
     sodipodi:insensitive="true">
    <path
       style="fill:none;stroke:#000000;stroke-width:0.264583px;stroke-linecap:butt;stroke-linejoin:miter;stroke-opacity:1"
       d="m 40.058771,59.718598 26.715878,9.905664 45.061921,2.781437 8.26644,-3.300997"
       id="path15493" />
    <path
       style="fill:none;stroke:#000000;stroke-width:0.264583px;stroke-linecap:butt;stroke-linejoin:miter;stroke-opacity:1"
       d="M 22.927992,58.490402 52.156828,68.953877 17.212725,58.266313"
       id="path15495" />
    <path
       style="fill:none;stroke:#000000;stroke-width:0.264583px;stroke-linecap:butt;stroke-linejoin:miter;stroke-opacity:1"
       d="m 270.89108,56.944365 -16.82475,10.951184 -32.97168,-2.662505 -56.55024,0.562308"
       id="path15497" />
    <path
       style="fill:none;stroke:#000000;stroke-width:0.264583px;stroke-linecap:butt;stroke-linejoin:miter;stroke-opacity:1"
       d="m 0.05491528,82.616039 24.94669172,1.767313 22.82927,-0.55355 24.180017,4.064746 57.987626,3.833238 76.31244,-3.746817 29.65085,0.737018 34.96115,-6.089626 6.01993,-1.490221"
       id="path15638" />
    <path
       style="fill:none;stroke:#000000;stroke-width:0.264583px;stroke-linecap:butt;stroke-linejoin:miter;stroke-opacity:1"
       d="m 47.830877,83.829802 5.20936,-7.230256 6.065433,8.999173"
       id="path15833" />
    <path
       style="fill:none;stroke:#000000;stroke-width:0.264583px;stroke-linecap:butt;stroke-linejoin:miter;stroke-opacity:1"
       d="M 129.99852,91.727786 188.6908,84.8675 235.96181,88.717987"
       id="path15837" />
    <path
       style="fill:none;stroke:#000000;stroke-width:0.264583px;stroke-linecap:butt;stroke-linejoin:miter;stroke-opacity:1"
       d="M 0.05491528,82.616039 -3.2374406,80.991352"
       id="path15839" />
    <path
       style="fill:none;stroke:#000000;stroke-width:0.264583px;stroke-linecap:butt;stroke-linejoin:miter;stroke-opacity:1"
       d="m 53.040237,76.599546 76.958283,15.12824"
       id="path16034" />
    <path
       style="opacity:1;fill:#216778;fill-opacity:1;fill-rule:nonzero;stroke-width:0.587487"
       d="m 346.23013,317.3962 c -78.35154,-15.43852 -143.27987,-28.2386 -144.28518,-28.44461 -1.81387,-0.37171 -1.90307,-0.27006 -11.6776,13.30852 l -9.84977,13.68308 -10.94468,0.36512 c -6.01956,0.20082 -25.54597,0.68347 -43.39201,1.07256 L 93.633563,318.0883 47.025541,314.77795 0.41752453,311.46761 -5.2705325,308.63998 c -4.9799195,-2.4756 -5.6840735,-3.01225 -5.6560565,-4.31062 0.0176,-0.81564 2.608439,-20.91336 5.7574191,-44.6616 l 5.72541864,-43.17861 1.78132006,-0.17523 c 3.0198086,-0.29707 61.5598252,3.98392 62.8084262,4.59313 1.261905,0.6157 129.076975,39.74537 130.936865,40.08539 0.61268,0.112 1.21548,-0.0844 1.33956,-0.43653 0.13343,-0.37866 -20.87827,-8.18476 -51.43432,-19.10848 -28.41295,-10.15757 -51.40327,-18.56143 -51.089589,-18.67525 0.313675,-0.11383 13.046269,0.65784 28.294649,1.71481 l 27.72433,1.92176 50.51837,18.73202 50.51837,18.73203 85.51699,5.29284 85.51698,5.29284 15.53107,-6.22918 15.53106,-6.22919 29.37501,-2.22914 c 16.15625,-1.22602 54.09407,-4.07446 84.30626,-6.32985 l 54.93125,-4.10072 108.39163,-0.92266 108.39164,-0.92266 60.5097,4.97521 60.5097,4.97521 31.7892,-20.68194 31.78918,-20.68194 9.3406,1.46671 c 5.1373,0.80669 9.3983,1.50997 9.469,1.56284 0.1062,0.0794 2.6453,64.99695 3.2063,81.97479 l 0.1645,4.97814 -11.4568,2.77083 c -7.2307,1.74873 -35.72979,6.99795 -77.25874,14.23019 l -65.80193,11.45937 -89.24366,-7.28013 -89.24366,-7.28014 -109.32859,12.79534 c -60.13073,7.03744 -110.65044,12.77539 -112.26602,12.75101 -1.61558,-0.0244 -67.04323,-12.67584 -145.39477,-28.11437 z"
       id="path16229"
       transform="scale(0.26458333)" />
    <path
       style="opacity:1;fill:#87cdde;fill-opacity:1;fill-rule:nonzero;stroke-width:0.587487"
       d="m 390.59909,270.94784 c -13.89381,-0.88952 -50.37609,-3.13226 -81.07175,-4.98387 l -55.81028,-3.36656 -44.17087,-16.27376 c -24.29399,-8.95056 -43.94469,-16.35398 -43.66823,-16.45205 0.27646,-0.0981 26.10224,5.2416 57.39063,11.86592 l 56.88799,12.0442 83.42201,3.90842 c 45.88211,2.14962 84.21512,3.9127 85.18447,3.91794 1.12487,0.006 -3.22812,2.01747 -12.03288,5.56002 -12.43749,5.00415 -14.14351,5.54293 -17.33249,5.47376 -1.94542,-0.0422 -14.90479,-0.8045 -28.7986,-1.69402 z"
       id="path16305"
       transform="scale(0.26458333)" />
    <path
       style="opacity:1;fill:#5fbcd3;fill-opacity:1;fill-rule:nonzero;stroke-width:0.587487"
       d="M 110.82814,233.40919 C 89.105221,226.74385 71.429753,221.19261 71.549327,221.0731 c 0.119573,-0.1195 3.618498,0.0387 7.775388,0.35157 l 7.557981,0.56884 32.308384,11.56858 c 17.76961,6.36272 32.4185,11.67741 32.5531,11.81043 0.74742,0.73866 -4.91487,-0.91692 -40.91604,-11.96333 z"
       id="path16344"
       transform="scale(0.26458333)" />
    <path
       style="opacity:1;fill:#5fbcd3;fill-opacity:1;fill-rule:nonzero;stroke-width:0.587487"
       d="m 897.31263,250.78137 -59.62848,-4.95866 -88.12331,0.85807 c -84.86172,0.82632 -102.5837,0.90294 -97.52298,0.42162 1.29251,-0.12292 43.85446,-4.56412 94.58212,-9.86931 l 92.23211,-9.64581 59.38413,5.0532 59.38414,5.0532 29.61199,-9.685 c 16.28665,-5.32675 29.67685,-9.62009 29.75615,-9.54076 0.079,0.0793 -12.6058,8.44514 -28.18912,18.59069 -19.27326,12.5479 -28.89687,18.48402 -30.09578,18.56394 -0.96938,0.0646 -28.59531,-2.11391 -61.39097,-4.84118 z"
       id="path16383"
       transform="scale(0.26458333)" />
    <path
       style="opacity:1;fill:#2c89a0;fill-opacity:1;fill-rule:nonzero;stroke-width:0.587487"
       d="m 373.24842,338.18611 -100.16459,-6.66584 -23.49832,-3.9234 c -12.92408,-2.15787 -23.93821,-4.04415 -24.47583,-4.19174 -0.9962,-0.27347 -23.06133,-32.53952 -22.25198,-32.53928 0.46912,1.4e-4 271.48009,53.22174 273.49281,53.70899 2.47694,0.59963 -5.7718,0.0885 -103.10209,-6.38873 z"
       id="path16498"
       transform="scale(0.26458333)" />
    <path
       style="opacity:1;fill:#164450;fill-opacity:1;fill-rule:nonzero;stroke-width:0.587487"
       d="m 200.53276,319.35829 c -9.85459,-1.71039 -17.98186,-3.13832 -18.0606,-3.17317 -0.28187,-0.12476 17.6202,-24.73244 17.98745,-24.72504 0.20631,0.004 5.07906,7.01137 10.82833,15.57159 9.94746,14.81103 10.3736,15.56096 8.80774,15.50023 -0.90501,-0.0351 -9.70832,-1.46322 -19.56292,-3.17361 z"
       id="path16574"
       transform="scale(0.26458333)" />
    <path
       style="opacity:1;fill:#164450;fill-opacity:1;fill-rule:nonzero;stroke-width:0.587487"
       d="m 520.99969,344.04761 c 0.64627,-0.1171 44.1365,-5.22831 96.64497,-11.35825 l 95.46993,-11.14534 70.79049,5.75958 c 78.00473,6.34653 79.46228,6.61719 28.19784,5.23617 l -30.25535,-0.81506 -129.83651,6.34589 c -71.41008,3.49024 -130.36524,6.31079 -131.01146,6.26791 l -1.17495,-0.078 z"
       id="path16613"
       transform="scale(0.26458333)" />
    <path
       style="fill:none;stroke:#000000;stroke-width:0.264583px;stroke-linecap:butt;stroke-linejoin:miter;stroke-opacity:1"
       d="m 0.14717414,57.27942 17.06555086,0.986893 5.715267,0.224089 17.130779,1.228196 34.06599,7.427815 45.978249,1.958289 44.6432,-3.133389 57.20007,-5.755513 31.4241,2.673985 17.57457,-5.71819"
       id="path16864" />
  </g>
</svg>
