<?xml version="1.0" encoding="UTF-8" standalone="no"?>
<!-- Created with Inkscape (http://www.inkscape.org/) -->

<svg
   width="1024"
   height="600"
   viewBox="0 0 270.93333 158.75"
   version="1.1"
   id="svg4126"
   inkscape:version="1.1.1 (3bf5ae0d25, 2021-09-20)"
   sodipodi:docname="icicles.svg"
   xmlns:inkscape="http://www.inkscape.org/namespaces/inkscape"
   xmlns:sodipodi="http://sodipodi.sourceforge.net/DTD/sodipodi-0.dtd"
   xmlns="http://www.w3.org/2000/svg"
   xmlns:svg="http://www.w3.org/2000/svg">
  <sodipodi:namedview
     id="namedview4128"
     pagecolor="#505050"
     bordercolor="#ffffff"
     borderopacity="1"
     inkscape:pageshadow="0"
     inkscape:pageopacity="0"
     inkscape:pagecheckerboard="1"
     inkscape:document-units="mm"
     showgrid="false"
     units="px"
     inkscape:zoom="2.096401"
     inkscape:cx="518.74618"
     inkscape:cy="486.78665"
     inkscape:window-width="1920"
     inkscape:window-height="1017"
     inkscape:window-x="1912"
     inkscape:window-y="-8"
     inkscape:window-maximized="1"
     inkscape:current-layer="layer1" />
  <defs
     id="defs4123" />
  <g
     inkscape:label="Layer 1"
     inkscape:groupmode="layer"
     id="layer1">
    <path
       style="fill:none;stroke:#000000;stroke-width:0.264583px;stroke-linecap:butt;stroke-linejoin:miter;stroke-opacity:1"
       d="m 97.096157,119.40685 7.853363,-31.413461 11.78005,37.481971"
       id="path4222"
       inkscape:export-filename="D:\Art\kajamGame\icicles1.png"
       inkscape:export-xdpi="96"
       inkscape:export-ydpi="96" />
    <path
       style="fill:none;stroke:#000000;stroke-width:0.264583px;stroke-linecap:butt;stroke-linejoin:miter;stroke-opacity:1"
       d="m 84.334437,142.96695 9.37049,-38.55289 8.924283,38.55289 c 0,0 -9.727473,4.46214 -18.294773,0 z"
       id="path4516"
       inkscape:export-filename="D:\Art\kajamGame\icicles1.png"
       inkscape:export-xdpi="96"
       inkscape:export-ydpi="96" />
    <path
       style="fill:none;stroke:#000000;stroke-width:0.264583px;stroke-linecap:butt;stroke-linejoin:miter;stroke-opacity:1"
       d="m 110.7503,146.71514 11.78005,-41.67638 12.94021,41.05168 c 0,0 -8.56731,6.78246 -24.72026,0.6247 z"
       id="path4518"
       inkscape:export-filename="D:\Art\kajamGame\icicles1.png"
       inkscape:export-xdpi="96"
       inkscape:export-ydpi="96" />
    <path
       style="fill:none;stroke:#000000;stroke-width:0.264583px;stroke-linecap:butt;stroke-linejoin:miter;stroke-opacity:1"
       d="m 102.09375,140.64663 c 0,0 4.28366,1.16016 10.44141,-0.17848"
       id="path4520"
       inkscape:export-filename="D:\Art\kajamGame\icicles1.png"
       inkscape:export-xdpi="96"
       inkscape:export-ydpi="96" />
    <path
       style="fill:none;stroke:#000000;stroke-width:0.264583px;stroke-linecap:butt;stroke-linejoin:miter;stroke-opacity:1"
       d="m 157.2458,143.59165 2.94501,-15.61749 4.81911,15.439 c 0,0 -3.30199,1.8741 -7.76412,0.17849 z"
       id="path4522"
       inkscape:export-filename="D:\Art\kajamGame\icicles2.png"
       inkscape:export-xdpi="96"
       inkscape:export-ydpi="96" />
    <path
       style="fill:none;stroke:#000000;stroke-width:0.264583px;stroke-linecap:butt;stroke-linejoin:miter;stroke-opacity:1"
       d="m 162.68961,135.5598 7.3179,-24.8095 5.44381,15.439"
       id="path4524"
       inkscape:export-filename="D:\Art\kajamGame\icicles2.png"
       inkscape:export-xdpi="96"
       inkscape:export-ydpi="96" />
    <path
       style="fill:none;stroke:#000000;stroke-width:0.264583px;stroke-linecap:butt;stroke-linejoin:miter;stroke-opacity:1"
       d="m 171.25691,146.26893 8.29958,-40.42698 10.88762,39.89152 c 0,0 -8.03185,4.9976 -19.1872,0.53546 z"
       id="path4526"
       inkscape:export-filename="D:\Art\kajamGame\icicles2.png"
       inkscape:export-xdpi="96"
       inkscape:export-ydpi="96" />
    <path
       style="fill:none;stroke:#000000;stroke-width:0.264583px;stroke-linecap:butt;stroke-linejoin:miter;stroke-opacity:1"
       d="m 164.20673,140.82512 c 0,0 2.76653,1.60637 8.03185,0.89243"
       id="path4528"
       inkscape:export-filename="D:\Art\kajamGame\icicles2.png"
       inkscape:export-xdpi="96"
       inkscape:export-ydpi="96" />
    <path
       style="fill:none;stroke:#000000;stroke-width:0.264583px;stroke-linecap:butt;stroke-linejoin:miter;stroke-opacity:1"
       d="m 191.69351,141.36058 5.35457,-19.54417 6.06851,19.45492 c 0,0 -4.10517,1.96335 -11.42308,0.0892 z"
       id="path4532"
       inkscape:export-filename="D:\Art\kajamGame\icicles2.png"
       inkscape:export-xdpi="96"
       inkscape:export-ydpi="96" />
    <path
       style="fill:none;stroke:#000000;stroke-width:0.264583px;stroke-linecap:butt;stroke-linejoin:miter;stroke-opacity:1"
       d="m 187.76683,135.47055 3.21274,-10.08443 3.1235,6.96094"
       id="path4534"
       inkscape:export-filename="D:\Art\kajamGame\icicles2.png"
       inkscape:export-xdpi="96"
       inkscape:export-ydpi="96" />
    <path
       style="fill:none;stroke:#000000;stroke-width:0.264583px;stroke-linecap:butt;stroke-linejoin:miter;stroke-opacity:1"
       d="m 188.39153,138.23708 c 0,0 1.33864,1.07091 3.92668,0.53546"
       id="path4536"
       inkscape:export-filename="D:\Art\kajamGame\icicles2.png"
       inkscape:export-xdpi="96"
       inkscape:export-ydpi="96" />
    <path
       style="fill:none;stroke:#000000;stroke-width:0.264583px;stroke-linecap:butt;stroke-linejoin:miter;stroke-opacity:1"
       d="m 93.704925,104.41406 1.427887,16.6884 3.83744,6.06851"
       id="path5294"
       inkscape:export-filename="D:\Art\kajamGame\icicles1.png"
       inkscape:export-xdpi="96"
       inkscape:export-ydpi="96" />
    <path
       style="fill:none;stroke:#000000;stroke-width:0.264583px;stroke-linecap:butt;stroke-linejoin:miter;stroke-opacity:1"
       d="m 97.274638,124.49369 -0.803185,20.16887"
       id="path5296"
       inkscape:export-filename="D:\Art\kajamGame\icicles1.png"
       inkscape:export-xdpi="96"
       inkscape:export-ydpi="96" />
    <path
       style="fill:none;stroke:#000000;stroke-width:0.264583px;stroke-linecap:butt;stroke-linejoin:miter;stroke-opacity:1"
       d="m 93.883413,144.93029 -0.6247,-9.72747 -2.85577,-8.03185 -0.535455,-6.51472"
       id="path5298"
       inkscape:export-filename="D:\Art\kajamGame\icicles1.png"
       inkscape:export-xdpi="96"
       inkscape:export-ydpi="96" />
    <path
       style="fill:none;stroke:#000000;stroke-width:0.264583px;stroke-linecap:butt;stroke-linejoin:miter;stroke-opacity:1"
       d="m 90.402941,127.17097 2.498801,-14.8143 0.267727,-5.53305"
       id="path5300"
       inkscape:export-filename="D:\Art\kajamGame\icicles1.png"
       inkscape:export-xdpi="96"
       inkscape:export-ydpi="96" />
    <path
       style="fill:#afdde9;fill-rule:evenodd;stroke:#2f210e;stroke-width:0.127482"
       d="m 370.20518,473.27126 c -1.00751,-1.60192 -3.68563,-5.87234 -5.95136,-9.48984 l -4.11952,-6.57726 -2.08686,-24.67646 c -1.14777,-13.57206 -2.03656,-25.02713 -1.97508,-25.45572 0.0615,-0.4286 3.73543,14.89427 8.16435,34.05082 4.42892,19.15654 7.99582,34.88204 7.92645,34.94556 -0.0694,0.0635 -0.95047,-1.19518 -1.95798,-2.7971 z"
       id="path5376"
       transform="scale(0.26458333)"
       inkscape:export-filename="D:\Art\kajamGame\icicles1.png"
       inkscape:export-xdpi="96"
       inkscape:export-ydpi="96" />
    <path
       style="fill:#87cdde;fill-rule:evenodd;stroke:#2f210e;stroke-width:0.127482"
       d="m 365.45976,544.03307 c 0,-2.28021 2.65508,-69.65111 2.78212,-70.59454 0.0674,-0.50082 3.18623,4.0469 5.06508,7.38572 0.16222,0.28828 13.73972,58.59563 13.73972,59.00399 0,0.0731 -1.17632,0.58469 -2.61404,1.13681 -4.55476,1.74914 -11.10344,3.57004 -16.35884,4.54868 l -2.61404,0.48677 z"
       id="path5452"
       transform="scale(0.26458333)"
       inkscape:export-filename="D:\Art\kajamGame\icicles1.png"
       inkscape:export-xdpi="96"
       inkscape:export-ydpi="96" />
    <path
       style="fill:#5fbcd3;fill-rule:evenodd;stroke:#2f210e;stroke-width:0.127482"
       d="m 355.32418,545.65992 c -0.009,-0.78843 -0.52166,-9.02265 -1.13881,-18.29828 l -1.12209,-16.86478 -5.26981,-14.76767 c -2.8984,-8.12221 -5.26981,-15.07393 -5.26981,-15.44827 0,-0.37433 2.06718,-12.85354 4.59373,-27.73158 l 4.59373,-27.05097 0.60958,-11.63669 c 0.40033,-7.64205 0.78142,-12.21564 1.11014,-13.32318 0.49053,-1.65271 0.5015,-1.66284 0.54776,-0.50594 0.026,0.64929 1.14577,13.94655 2.48846,29.54946 l 2.44124,28.36893 3.49784,5.52928 c 1.92382,3.0411 3.73557,5.93517 4.02613,6.43126 0.4832,0.825 0.40457,4.0926 -0.92121,38.28305 -0.79723,20.55958 -1.50053,37.54715 -1.5629,37.75015 -0.0893,0.2907 -6.21824,1.14874 -8.20541,1.14874 -0.24529,0 -0.40837,-0.55852 -0.41857,-1.43351 z"
       id="path5565"
       transform="scale(0.26458333)"
       inkscape:export-filename="D:\Art\kajamGame\icicles1.png"
       inkscape:export-xdpi="96"
       inkscape:export-ydpi="96" />
    <path
       style="fill:#2c89a0;fill-rule:evenodd;stroke:#2f210e;stroke-width:0.127482"
       d="m 341.87847,474.40623 c -0.0269,-0.18551 -0.4107,-4.66311 -0.85296,-9.95022 l -0.80411,-9.61292 5.20362,-21.41827 c 2.86199,-11.78005 5.27629,-21.57005 5.36511,-21.75557 0.0888,-0.18551 0.0761,2.47069 -0.0284,5.90268 -0.18229,5.99068 -0.35746,7.23711 -4.38465,31.19984 -4.27298,25.42524 -4.41321,26.22427 -4.49863,25.63446 z"
       id="path5641"
       transform="scale(0.26458333)"
       inkscape:export-filename="D:\Art\kajamGame\icicles1.png"
       inkscape:export-xdpi="96"
       inkscape:export-ydpi="96" />
    <path
       style="fill:#164450;fill-rule:evenodd;stroke:#2f210e;stroke-width:0.127482"
       d="m 343.87284,546.86446 c -7.93574,-0.81342 -15.37144,-2.7702 -22.07246,-5.80859 -1.77714,-0.8058 -2.2586,-1.17319 -2.13992,-1.63295 0.0842,-0.32628 4.45846,-18.3139 9.72053,-39.97249 5.26206,-21.65859 9.65959,-39.37926 9.7723,-39.37926 0.1127,0 0.56182,4.59144 0.99805,10.20319 l 0.79315,10.20319 5.46921,15.5156 5.46921,15.5156 1.06487,17.03342 c 0.58567,9.36839 1.06015,17.37494 1.0544,17.79234 -0.0104,0.75108 -0.0567,0.75836 -4.47964,0.70494 -2.45804,-0.0297 -5.0004,-0.10843 -5.6497,-0.17499 z"
       id="path5717"
       transform="scale(0.26458333)"
       inkscape:export-filename="D:\Art\kajamGame\icicles1.png"
       inkscape:export-xdpi="96"
       inkscape:export-ydpi="96" />
    <path
       style="fill:#216778;fill-rule:evenodd;stroke:#2f210e;stroke-width:0.127482"
       d="m 341.8757,472.21512 c -0.0147,-0.46306 -0.34074,-4.56121 -0.72465,-9.10698 l -0.69803,-8.26505 3.94381,-16.19019 c 2.16909,-8.9046 4.45348,-18.16337 5.07643,-20.57503 l 1.13262,-4.38484 -0.15996,4.64421 c -0.088,2.55432 -0.54365,7.1837 -1.01261,10.28751 -1.00419,6.6462 -7.20492,43.60396 -7.39821,44.095 -0.073,0.18552 -0.14476,-0.0416 -0.1594,-0.50463 z"
       id="path5978"
       transform="scale(0.26458333)"
       inkscape:export-filename="D:\Art\kajamGame\icicles1.png"
       inkscape:export-xdpi="96"
       inkscape:export-ydpi="96" />
    <path
       style="fill:none;stroke:#000000;stroke-width:0.264583px;stroke-linecap:butt;stroke-linejoin:miter;stroke-opacity:1"
       d="m 104.94952,87.993388 3.1235,16.866892 -0.53546,8.47806 7.76412,7.94261"
       id="path6167"
       inkscape:export-filename="D:\Art\kajamGame\icicles1.png"
       inkscape:export-xdpi="96"
       inkscape:export-ydpi="96" />
    <path
       style="fill:none;stroke:#000000;stroke-width:0.264583px;stroke-linecap:butt;stroke-linejoin:miter;stroke-opacity:1"
       d="m 111.82121,117.62199 -3.1235,11.69081 1.60638,11.42308"
       id="path6169"
       inkscape:export-filename="D:\Art\kajamGame\icicles1.png"
       inkscape:export-xdpi="96"
       inkscape:export-ydpi="96" />
    <path
       style="fill:none;stroke:#000000;stroke-width:0.264583px;stroke-linecap:butt;stroke-linejoin:miter;stroke-opacity:1"
       d="m 107.09134,99.505708 -3.12349,7.764122 -4.194413,1.78486"
       id="path6171"
       inkscape:export-filename="D:\Art\kajamGame\icicles1.png"
       inkscape:export-xdpi="96"
       inkscape:export-ydpi="96" />
    <path
       style="fill:none;stroke:#000000;stroke-width:0.264583px;stroke-linecap:butt;stroke-linejoin:miter;stroke-opacity:1"
       d="m 101.91526,108.2515 3.1235,18.74099 -3.83744,10.4414"
       id="path6173"
       inkscape:export-filename="D:\Art\kajamGame\icicles1.png"
       inkscape:export-xdpi="96"
       inkscape:export-ydpi="96" />
    <path
       style="fill:#afdde9;fill-rule:evenodd;stroke:#2f210e;stroke-width:0.127482"
       d="m 424.28421,445.63931 c -5.56668,-5.69765 -11.69594,-11.99912 -13.62059,-14.00326 l -3.49934,-3.6439 0.97059,-15.95876 0.9706,-15.95875 -4.63718,-25.04451 c -2.55045,-13.77447 -4.58036,-25.10132 -4.51092,-25.17076 0.0694,-0.0695 7.90525,24.62691 17.41289,54.8808 9.50764,30.25389 17.23004,55.06364 17.1609,55.13278 -0.0691,0.0691 -4.68027,-4.536 -10.24695,-10.23364 z"
       id="path6249"
       transform="scale(0.26458333)"
       inkscape:export-filename="D:\Art\kajamGame\icicles1.png"
       inkscape:export-xdpi="96"
       inkscape:export-ydpi="96" />
    <path
       style="fill:#87cdde;fill-rule:evenodd;stroke:#2f210e;stroke-width:0.127482"
       d="m 415.26441,515.49782 c -1.2449,-8.87244 -2.594,-18.51338 -2.998,-21.4243 l -0.73455,-5.29258 3.97684,-14.94515 c 2.18726,-8.21984 4.7513,-17.81526 5.69786,-21.32316 l 1.72103,-6.37801 6.37767,6.54666 6.37768,6.54665 2.4253,7.58915 2.42531,7.58915 -7.7803,27.48959 c -4.27916,15.11928 -7.87462,27.7282 -7.98991,28.01983 -0.19524,0.49388 -0.83695,0.65349 -6.20156,1.54254 l -1.03392,0.17135 z"
       id="path6364"
       transform="scale(0.26458333)"
       inkscape:export-filename="D:\Art\kajamGame\icicles1.png"
       inkscape:export-xdpi="96"
       inkscape:export-ydpi="96" />
    <path
       style="fill:#5fbcd3;fill-rule:evenodd;stroke:#2f210e;stroke-width:0.127482"
       d="m 393.96124,532.23453 c -5.3749,-0.60676 -7.29984,-1.06394 -7.60412,-1.806 -0.35372,-0.86263 -2.6834,-11.05936 -2.6834,-11.7449 0,-0.2703 3.11155,-8.95396 6.91456,-19.29702 3.80301,-10.34307 6.91456,-19.17313 6.91456,-19.62236 0,-0.44923 -2.58572,-16.32559 -5.74605,-35.28079 -3.16033,-18.95521 -5.70269,-34.68532 -5.6497,-34.95581 0.053,-0.27049 1.61418,-1.13662 3.4693,-1.92475 1.85513,-0.78812 3.53724,-1.58181 3.73804,-1.76376 0.20079,-0.18195 2.77591,-6.349 5.72249,-13.70455 3.44873,-8.60906 5.43088,-13.1595 5.56361,-12.77243 0.1134,0.33072 0.87078,4.2764 1.68307,8.76818 l 1.47688,8.16687 -0.98188,16.21314 -0.98188,16.21314 4.37048,4.45876 c 2.40377,2.45232 6.00308,6.13211 7.99848,8.17731 l 3.628,3.71854 -5.73681,21.48091 c -3.15524,11.8145 -5.74151,21.82844 -5.74728,22.25321 -0.006,0.42477 1.30955,10.22095 2.92291,21.76928 1.61336,11.54834 2.87029,21.05845 2.79317,21.13359 -0.74315,0.72407 -16.88539,1.10408 -22.06443,0.51944 z"
       id="path6403"
       transform="scale(0.26458333)"
       inkscape:export-filename="D:\Art\kajamGame\icicles1.png"
       inkscape:export-xdpi="96"
       inkscape:export-ydpi="96" />
    <path
       style="fill:#216778;fill-rule:evenodd;stroke:#2f210e;stroke-width:0.127482"
       d="m 386.96319,373.99191 c 5.10661,-20.46125 9.38185,-37.313 9.50053,-37.44834 0.28174,-0.32126 7.56758,39.04917 7.36645,39.80603 -0.0845,0.31802 -2.68436,6.87741 -5.77745,14.57642 l -5.6238,13.99822 -7.12923,3.03521 c -3.92108,1.66937 -7.23994,3.0801 -7.37524,3.13497 -0.13531,0.0549 3.93212,-16.64126 9.03874,-37.10251 z"
       id="path6479"
       transform="scale(0.26458333)"
       inkscape:export-filename="D:\Art\kajamGame\icicles1.png"
       inkscape:export-xdpi="96"
       inkscape:export-ydpi="96" />
    <path
       style="fill:#164450;fill-rule:evenodd;stroke:#2f210e;stroke-width:0.127482"
       d="m 382.87274,515.38764 c -0.10939,-0.27826 -3.54207,-14.96039 -7.62818,-32.62695 l -7.4293,-32.12101 4.56155,-18.30468 c 2.50885,-10.06757 4.67742,-18.58371 4.81904,-18.92476 0.22674,-0.546 7.06075,-3.80025 7.35749,-3.50352 0.15863,0.15864 11.60032,68.9242 11.60032,69.71897 0,0.37302 -2.75019,8.15466 -6.11153,17.29252 -3.36135,9.13787 -6.3048,17.14555 -6.54102,17.79484 -0.2943,0.80897 -0.49208,1.02129 -0.62837,0.67459 z"
       id="path6555"
       transform="scale(0.26458333)"
       inkscape:export-filename="D:\Art\kajamGame\icicles1.png"
       inkscape:export-xdpi="96"
       inkscape:export-ydpi="96" />
    <path
       style="fill:none;stroke:#000000;stroke-width:0.264583px;stroke-linecap:butt;stroke-linejoin:miter;stroke-opacity:1"
       d="m 124.3152,111.10727 0.44622,12.22626 5.35456,8.83504 4.3729,11.24459"
       id="path6744"
       inkscape:export-filename="D:\Art\kajamGame\icicles1.png"
       inkscape:export-xdpi="96"
       inkscape:export-ydpi="96" />
    <path
       style="fill:none;stroke:#000000;stroke-width:0.264583px;stroke-linecap:butt;stroke-linejoin:miter;stroke-opacity:1"
       d="m 122.53035,105.03876 -0.98167,21.41827 -6.15776,3.21274"
       id="path6746"
       inkscape:export-filename="D:\Art\kajamGame\icicles1.png"
       inkscape:export-xdpi="96"
       inkscape:export-ydpi="96" />
    <path
       style="fill:none;stroke:#000000;stroke-width:0.264583px;stroke-linecap:butt;stroke-linejoin:miter;stroke-opacity:1"
       d="m 118.69291,128.0634 1.96334,14.01112 -2.14183,6.78245"
       id="path6748"
       inkscape:export-filename="D:\Art\kajamGame\icicles1.png"
       inkscape:export-xdpi="96"
       inkscape:export-ydpi="96" />
    <path
       style="fill:none;stroke:#000000;stroke-width:0.264583px;stroke-linecap:butt;stroke-linejoin:miter;stroke-opacity:1"
       d="m 126.72476,149.03546 3.65895,-6.33624 -2.76652,-14.72506"
       id="path6750"
       inkscape:export-filename="D:\Art\kajamGame\icicles1.png"
       inkscape:export-xdpi="96"
       inkscape:export-ydpi="96" />
    <path
       style="fill:#afdde9;fill-rule:evenodd;stroke:#2f210e;stroke-width:0.127482"
       d="m 497.32796,511.92057 -4.86853,-12.55447 -5.09524,-8.43239 c -2.80239,-4.63781 -7.37858,-12.22696 -10.16932,-16.86477 l -5.07406,-8.43239 -0.72474,-20.70325 c -0.3986,-11.38679 -0.67192,-20.75606 -0.60738,-20.8206 0.0645,-0.0645 7.223,22.42528 15.9077,49.97737 8.68469,27.55209 15.72504,50.16002 15.64522,50.23984 -0.0798,0.0798 -2.33596,-5.50438 -5.01365,-12.40934 z"
       id="path6826"
       transform="scale(0.26458333)"
       inkscape:export-filename="D:\Art\kajamGame\icicles1.png"
       inkscape:export-xdpi="96"
       inkscape:export-ydpi="96" />
    <path
       style="fill:#87cdde;fill-rule:evenodd;stroke:#2f210e;stroke-width:0.127482"
       d="m 480.33264,562.24001 c 2.76845,-4.41729 12.95971,-22.58737 12.96074,-23.1078 7.7e-4,-0.39015 -2.11631,-11.99615 -4.70464,-25.7911 -2.58832,-13.79496 -4.67006,-25.11772 -4.62609,-25.16169 0.044,-0.044 1.70315,2.60682 3.68705,5.89066 l 3.6071,5.97062 8.1263,20.91232 c 4.46946,11.50178 8.32755,21.14 8.57352,21.41827 0.24598,0.27827 1.08067,2.53044 1.85487,5.00482 1.62527,5.19442 1.8945,4.45628 -2.51894,6.9062 -5.54265,3.07675 -12.12058,5.48634 -19.3945,7.10449 -5.32252,1.18405 -7.95912,1.48139 -7.56541,0.85321 z"
       id="path6902"
       transform="scale(0.26458333)"
       inkscape:export-filename="D:\Art\kajamGame\icicles1.png"
       inkscape:export-xdpi="96"
       inkscape:export-ydpi="96" />
    <path
       style="fill:#5fbcd3;fill-rule:evenodd;stroke:#2f210e;stroke-width:0.127482"
       d="m 458.21604,563.25445 c -5.30456,-0.48255 -9.28151,-1.12783 -9.22832,-1.49735 0.026,-0.18074 1.73358,-5.67207 3.79458,-12.20297 2.061,-6.5309 3.74727,-12.30721 3.74727,-12.83625 0,-0.52904 -1.59373,-12.33211 -3.54161,-26.22904 -1.94788,-13.89694 -3.53861,-25.57568 -3.53495,-25.95275 0.005,-0.54169 1.10235,-1.25025 5.2271,-3.37591 4.79127,-2.46915 5.23298,-2.77418 5.37267,-3.71025 0.0837,-0.56096 0.848,-16.88125 1.69843,-36.26731 0.85043,-19.38607 1.65513,-36.28666 1.78822,-37.55688 l 0.24199,-2.3095 2.83835,9.05541 c 2.21658,7.07176 2.82118,9.42484 2.75999,10.74188 -0.0949,2.04305 1.29172,43.09205 1.50399,44.52302 0.0825,0.55653 2.56678,4.99221 5.5205,9.85704 l 5.3704,8.84517 5.08761,27.07681 c 2.79819,14.89225 5.08666,27.28763 5.08548,27.5453 -0.001,0.25766 -3.0497,5.74437 -6.7745,12.1927 -5.78496,10.01486 -6.90374,11.75364 -7.67347,11.926 -1.66555,0.37295 -15.70659,0.50028 -19.28373,0.17488 z"
       id="path6941"
       transform="scale(0.26458333)"
       inkscape:export-filename="D:\Art\kajamGame\icicles1.png"
       inkscape:export-xdpi="96"
       inkscape:export-ydpi="96" />
    <path
       style="fill:#216778;fill-rule:evenodd;stroke:#2f210e;stroke-width:0.127482"
       d="m 438.0736,487.95674 c 0.0813,-0.21779 5.51684,-19.39665 12.07901,-42.6197 6.56218,-23.22304 11.95182,-42.19592 11.97699,-42.16194 0.0252,0.034 -0.68634,15.77131 -1.58112,34.97186 -0.89478,19.20055 -1.63384,35.89773 -1.64236,37.10484 l -0.0155,2.19475 -6.14732,3.20198 c -3.38103,1.76109 -8.09811,4.21498 -10.48241,5.45309 -2.3843,1.23811 -4.26859,2.07292 -4.1873,1.85512 z"
       id="path7054"
       transform="scale(0.26458333)"
       inkscape:export-filename="D:\Art\kajamGame\icicles1.png"
       inkscape:export-xdpi="96"
       inkscape:export-ydpi="96" />
    <path
       style="fill:#164450;fill-rule:evenodd;stroke:#2f210e;stroke-width:0.127482"
       d="m 444.21828,561.24596 c -3.92791,-0.75841 -6.71543,-1.44424 -12.31129,-3.02901 -4.13102,-1.16993 -12.01874,-3.80398 -12.33343,-4.11867 -0.0703,-0.0704 3.9272,-14.48491 8.88345,-32.03235 l 9.01136,-31.90444 5.3144,-2.75984 c 2.92293,-1.51791 5.31481,-2.63432 5.31531,-2.4809 5.1e-4,0.15342 1.59422,11.65771 3.54161,25.5651 1.94738,13.90739 3.54069,25.64842 3.54069,26.09116 0,0.74646 -7.22112,24.05958 -7.70788,24.88463 -0.15528,0.26319 -1.09752,0.20075 -3.25422,-0.21568 z"
       id="path7130"
       transform="scale(0.26458333)"
       inkscape:export-filename="D:\Art\kajamGame\icicles1.png"
       inkscape:export-xdpi="96"
       inkscape:export-ydpi="96" />
    <path
       style="fill:none;stroke:#000000;stroke-width:0.264583px;stroke-linecap:butt;stroke-linejoin:miter;stroke-opacity:1"
       d="m 197.04808,121.81641 1.28836,11.39652 2.96589,2.33485"
       id="path7276"
       inkscape:export-filename="D:\Art\kajamGame\icicles2.png"
       inkscape:export-xdpi="96"
       inkscape:export-ydpi="96" />
    <path
       style="fill:none;stroke:#000000;stroke-width:0.264583px;stroke-linecap:butt;stroke-linejoin:miter;stroke-opacity:1"
       d="m 194.86571,129.8053 2.58727,8.64527 -0.63104,3.59694"
       id="path7278"
       inkscape:export-filename="D:\Art\kajamGame\icicles2.png"
       inkscape:export-xdpi="96"
       inkscape:export-ydpi="96" />
    <path
       style="fill:none;stroke:#000000;stroke-width:0.264583px;stroke-linecap:butt;stroke-linejoin:miter;stroke-opacity:1"
       d="m 200.10336,134.60122 -0.12621,7.50939"
       id="path7280"
       inkscape:export-filename="D:\Art\kajamGame\icicles2.png"
       inkscape:export-xdpi="96"
       inkscape:export-ydpi="96" />
    <path
       style="fill:none;stroke:#000000;stroke-width:0.264583px;stroke-linecap:butt;stroke-linejoin:miter;stroke-opacity:1"
       d="m 191.7105,127.28113 -0.31552,3.53383 2.27175,3.34453"
       id="path7282"
       inkscape:export-filename="D:\Art\kajamGame\icicles2.png"
       inkscape:export-xdpi="96"
       inkscape:export-ydpi="96" />
    <path
       style="fill:none;stroke:#000000;stroke-width:0.264583px;stroke-linecap:butt;stroke-linejoin:miter;stroke-opacity:1"
       d="m 189.12323,131.25669 1.5145,5.42696 v 2.14555"
       id="path7284"
       inkscape:export-filename="D:\Art\kajamGame\icicles2.png"
       inkscape:export-xdpi="96"
       inkscape:export-ydpi="96" />
    <path
       style="fill:none;stroke:#000000;stroke-width:0.264583px;stroke-linecap:butt;stroke-linejoin:miter;stroke-opacity:1"
       d="m 180.22554,108.28677 0.44173,16.65951 3.72314,4.79592 0.63105,8.96079 3.84935,1.5776"
       id="path7286"
       inkscape:export-filename="D:\Art\kajamGame\icicles2.png"
       inkscape:export-xdpi="96"
       inkscape:export-ydpi="96" />
    <path
       style="fill:none;stroke:#000000;stroke-width:0.264583px;stroke-linecap:butt;stroke-linejoin:miter;stroke-opacity:1"
       d="m 185.02146,138.70299 -3.59694,4.41729 -0.56794,4.92213"
       id="path7288"
       inkscape:export-filename="D:\Art\kajamGame\icicles2.png"
       inkscape:export-xdpi="96"
       inkscape:export-ydpi="96" />
    <path
       style="fill:none;stroke:#000000;stroke-width:0.264583px;stroke-linecap:butt;stroke-linejoin:miter;stroke-opacity:1"
       d="m 178.83725,109.35955 0.44173,8.45595 -3.40763,6.37353"
       id="path7290"
       inkscape:export-filename="D:\Art\kajamGame\icicles2.png"
       inkscape:export-xdpi="96"
       inkscape:export-ydpi="96" />
    <path
       style="fill:none;stroke:#000000;stroke-width:0.264583px;stroke-linecap:butt;stroke-linejoin:miter;stroke-opacity:1"
       d="m 177.19654,121.79107 -0.69415,15.2081 2.08244,4.98524 0.88346,6.058"
       id="path7292"
       inkscape:export-filename="D:\Art\kajamGame\icicles2.png"
       inkscape:export-xdpi="96"
       inkscape:export-ydpi="96" />
    <path
       style="fill:none;stroke:#000000;stroke-width:0.264583px;stroke-linecap:butt;stroke-linejoin:miter;stroke-opacity:1"
       d="m 170.00751,110.7503 1.63586,9.58937 -0.31552,4.60661 3.40762,3.78625"
       id="path7294"
       inkscape:export-filename="D:\Art\kajamGame\icicles2.png"
       inkscape:export-xdpi="96"
       inkscape:export-ydpi="96" />
    <path
       style="fill:none;stroke:#000000;stroke-width:0.264583px;stroke-linecap:butt;stroke-linejoin:miter;stroke-opacity:1"
       d="m 167.6047,118.76207 1.07277,10.5384 -1.26208,12.49462"
       id="path7296"
       inkscape:export-filename="D:\Art\kajamGame\icicles2.png"
       inkscape:export-xdpi="96"
       inkscape:export-ydpi="96" />
    <path
       style="fill:none;stroke:#000000;stroke-width:0.264583px;stroke-linecap:butt;stroke-linejoin:miter;stroke-opacity:1"
       d="m 167.92022,122.10659 2.08729,-11.35629"
       id="path7298"
       inkscape:export-filename="D:\Art\kajamGame\icicles2.png"
       inkscape:export-xdpi="96"
       inkscape:export-ydpi="96" />
    <path
       style="fill:none;stroke:#000000;stroke-width:0.264583px;stroke-linecap:butt;stroke-linejoin:miter;stroke-opacity:1"
       d="m 174.29374,131.06738 -3.1552,2.90279 -0.18932,7.76182"
       id="path7300"
       inkscape:export-filename="D:\Art\kajamGame\icicles2.png"
       inkscape:export-xdpi="96"
       inkscape:export-ydpi="96" />
    <path
       style="fill:none;stroke:#000000;stroke-width:0.264583px;stroke-linecap:butt;stroke-linejoin:miter;stroke-opacity:1"
       d="m 161.10497,131.00428 0.50484,5.74248 2.01933,2.14554"
       id="path7304"
       inkscape:export-filename="D:\Art\kajamGame\icicles2.png"
       inkscape:export-xdpi="96"
       inkscape:export-ydpi="96" />
    <path
       style="fill:none;stroke:#000000;stroke-width:0.264583px;stroke-linecap:butt;stroke-linejoin:miter;stroke-opacity:1"
       d="m 160.19081,127.97416 -0.60034,8.26777 -1.26208,1.89312"
       id="path7306"
       inkscape:export-filename="D:\Art\kajamGame\icicles2.png"
       inkscape:export-xdpi="96"
       inkscape:export-ydpi="96" />
    <path
       style="fill:none;stroke:#000000;stroke-width:0.264583px;stroke-linecap:butt;stroke-linejoin:miter;stroke-opacity:1"
       d="m 159.1803,136.99917 1.98778,4.38575 0.47328,2.83968"
       id="path7308"
       inkscape:export-filename="D:\Art\kajamGame\icicles2.png"
       inkscape:export-xdpi="96"
       inkscape:export-ydpi="96" />
    <path
       style="fill:#afdde9;fill-rule:evenodd;stroke:#2f210e;stroke-width:0.0637409"
       d="m 754.86751,506.8722 c -2.7319,-2.16112 -4.60404,-3.75894 -4.67985,-3.99412 -0.16362,-0.50759 -4.03764,-35.01071 -3.97029,-35.36046 0.0434,-0.2252 13.45815,42.49309 13.457,42.85275 -2.2e-4,0.0696 -0.0573,0.12142 -0.12689,0.11523 -0.0696,-0.006 -2.17555,-1.63222 -4.67997,-3.6134 z"
       id="path7464"
       transform="scale(0.26458333)"
       inkscape:export-filename="D:\Art\kajamGame\icicles2.png"
       inkscape:export-xdpi="96"
       inkscape:export-ydpi="96" />
    <path
       style="fill:#afdde9;fill-rule:evenodd;stroke:#2f210e;stroke-width:0.0637409"
       d="m 727.86258,499.94358 -3.8806,-5.72123 0.52919,-5.81835 c 0.44522,-4.89526 0.56128,-5.75146 0.73153,-5.39673 0.1113,0.23189 1.93352,4.28205 4.04938,9.00035 l 3.84702,8.57873 -0.652,2.38338 c -0.3586,1.31085 -0.67269,2.45351 -0.69796,2.53923 -0.0253,0.0857 -1.79223,-2.4187 -3.92656,-5.56538 z"
       id="path7503"
       transform="scale(0.26458333)"
       inkscape:export-filename="D:\Art\kajamGame\icicles2.png"
       inkscape:export-xdpi="96"
       inkscape:export-ydpi="96" />
    <path
       style="fill:#afdde9;fill-rule:evenodd;stroke:#2f210e;stroke-width:0.0901432"
       d="m 706.6843,526.5803 c -3.54012,-1.44449 -6.52108,-2.70736 -6.62435,-2.80638 -0.10327,-0.099 -0.7214,-7.72322 -1.37362,-16.94266 l -1.18586,-16.76263 -7.02328,-9.02768 -7.02328,-9.02769 -0.73949,-27.56727 c -0.40672,-15.16201 -0.70653,-27.95982 -0.66625,-28.43959 0.0506,-0.6022 4.88894,16.77294 15.62518,56.11176 8.55357,31.34125 15.52845,57.00758 15.49974,57.03629 -0.0287,0.0287 -2.94866,-1.12966 -6.48879,-2.57415 z"
       id="path7542"
       transform="scale(0.26458333)"
       inkscape:export-filename="D:\Art\kajamGame\icicles2.png"
       inkscape:export-xdpi="96"
       inkscape:export-ydpi="96" />
    <path
       style="fill:#afdde9;fill-rule:evenodd;stroke:#2f210e;stroke-width:0.0901432"
       d="m 654.25973,478.75477 -6.14897,-6.83935 0.13122,-1.21016 c 0.0722,-0.66558 0.35095,-4.53728 0.61951,-8.60378 l 0.48828,-7.39362 -2.40315,-14.04507 c -1.32174,-7.72479 -2.37328,-14.0747 -2.33675,-14.11091 0.0365,-0.0362 4.02729,11.16743 8.86836,24.897 l 8.80195,24.96284 -0.90229,4.5912 c -0.49625,2.52517 -0.91734,4.59121 -0.93574,4.59121 -0.0184,0 -2.80049,-3.07771 -6.18242,-6.83936 z"
       id="path7581"
       transform="scale(0.26458333)"
       inkscape:export-filename="D:\Art\kajamGame\icicles2.png"
       inkscape:export-xdpi="96"
       inkscape:export-ydpi="96" />
    <path
       style="fill:#afdde9;fill-rule:evenodd;stroke:#2f210e;stroke-width:0.0901432"
       d="m 614.59443,519.95332 c -3.54034,-3.7294 -3.09324,-2.42172 -3.88993,-11.37734 -0.38315,-4.30705 -0.67681,-7.85084 -0.65256,-7.87508 0.0242,-0.0242 1.533,4.72772 3.35281,10.55992 1.8198,5.83221 3.26808,10.63335 3.2184,10.66921 -0.0497,0.0359 -0.96261,-0.85366 -2.02872,-1.97671 z"
       id="path7620"
       transform="scale(0.26458333)"
       inkscape:export-filename="D:\Art\kajamGame\icicles2.png"
       inkscape:export-xdpi="96"
       inkscape:export-ydpi="96" />
    <path
       style="fill:#87cdde;fill-rule:evenodd;stroke:#2f210e;stroke-width:0.0901432"
       d="m 756.5727,527.63943 c 0.0758,-4.69452 0.20552,-10.56063 0.28836,-13.0358 l 0.15061,-4.5003 1.71565,1.34319 c 1.68852,1.32193 1.72518,1.37426 2.31775,3.30778 0.33116,1.08053 1.77803,5.71758 3.21527,10.30456 1.43725,4.58698 2.56291,8.42131 2.50147,8.52072 -0.26632,0.43092 -5.33987,1.74434 -9.44224,2.44439 l -0.88462,0.15095 z"
       id="path7696"
       transform="scale(0.26458333)"
       inkscape:export-filename="D:\Art\kajamGame\icicles2.png"
       inkscape:export-xdpi="96"
       inkscape:export-ydpi="96" />
    <path
       style="fill:#87cdde;fill-rule:evenodd;stroke:#2f210e;stroke-width:0.0901432"
       d="m 684.27919,558.60323 c 0.058,-0.34273 0.48377,-4.00394 0.94614,-8.13602 0.46237,-4.13208 0.90242,-7.91971 0.97789,-8.41696 0.11222,-0.73938 1.33133,-2.36888 6.6914,-8.9439 3.6048,-4.4219 6.68027,-8.00694 6.83439,-7.96676 0.15411,0.0402 3.35504,1.32809 7.11317,2.86204 l 6.83296,2.789 2.64757,9.69586 c 1.45617,5.33272 2.64757,9.79683 2.64757,9.92023 0,0.12341 -1.15376,0.7702 -2.56392,1.43731 -9.17918,4.34244 -18.76212,6.63064 -30.516,7.28655 l -1.71664,0.0958 z"
       id="path7735"
       transform="scale(0.26458333)"
       inkscape:export-filename="D:\Art\kajamGame\icicles2.png"
       inkscape:export-xdpi="96"
       inkscape:export-ydpi="96" />
    <path
       style="fill:#87cdde;fill-rule:evenodd;stroke:#2f210e;stroke-width:0.0901432"
       d="m 646.70959,535.15777 c 0.003,-0.17191 0.1616,-6.16188 0.35174,-13.31104 0.19014,-7.14915 0.34842,-13.49017 0.35173,-14.09113 l 0.006,-1.09267 5.37593,-4.94965 c 3.63967,-3.35106 5.33296,-4.76984 5.2429,-4.39292 -0.0732,0.3062 -1.84741,8.9183 -3.94276,19.13802 -2.09536,10.21971 -3.83753,18.60406 -3.87151,18.63189 -0.034,0.0278 -0.83988,0.12472 -1.79091,0.21533 -1.35205,0.12881 -1.72784,0.0966 -1.72314,-0.14783 z"
       id="path7774"
       transform="scale(0.26458333)"
       inkscape:export-filename="D:\Art\kajamGame\icicles2.png"
       inkscape:export-xdpi="96"
       inkscape:export-ydpi="96" />
    <path
       style="fill:#5fbcd3;fill-rule:evenodd;stroke:#2f210e;stroke-width:0.0901432"
       d="m 744.60291,536.33585 c 0.0538,-0.16397 0.5957,-3.19595 1.20432,-6.73774 l 1.10657,-6.43961 -4.88791,-16.29626 -4.88791,-16.29626 3.61649,-13.22066 c 2.20187,-8.0493 3.67925,-13.0566 3.77695,-12.80123 0.0883,0.23069 1.03182,8.2543 2.09681,17.83023 1.06498,9.57594 2.05113,18.33336 2.19143,19.46093 l 0.2551,2.05014 3.33642,2.60009 3.33642,2.60009 -0.14202,5.84395 c -0.0781,3.21417 -0.20823,9.34417 -0.28915,13.62222 l -0.14714,7.77827 -1.79797,0.15199 c -0.98888,0.0836 -3.3883,0.15198 -5.33205,0.15198 -2.7204,0 -3.51159,-0.0686 -3.43636,-0.29813 z"
       id="path7850"
       transform="scale(0.26458333)"
       inkscape:export-filename="D:\Art\kajamGame\icicles2.png"
       inkscape:export-xdpi="96"
       inkscape:export-ydpi="96" />
    <path
       style="fill:#5fbcd3;fill-rule:evenodd;stroke:#2f210e;stroke-width:0.0901432"
       d="m 721.11682,520.4565 v -4.07937 L 718.27005,506.2 l -2.84676,-10.17712 3.11373,-9.80558 c 1.71255,-5.39307 3.18973,-9.94697 3.28262,-10.11979 0.16004,-0.29773 2.25643,4.0552 2.21889,4.60728 -0.009,0.13118 -0.30644,3.31376 -0.66116,7.0724 l -0.64494,6.83389 2.57251,3.77953 c 1.41488,2.07875 3.34351,4.90647 4.28586,6.28384 l 1.71335,2.50429 -2.29527,8.33868 -2.29528,8.33869 -0.83073,0.17515 c -0.45691,0.0963 -1.71618,0.24929 -2.7984,0.33989 l -1.96765,0.16472 z"
       id="path7889"
       transform="scale(0.26458333)"
       inkscape:export-filename="D:\Art\kajamGame\icicles2.png"
       inkscape:export-xdpi="96"
       inkscape:export-ydpi="96" />
    <path
       style="fill:#5fbcd3;fill-rule:evenodd;stroke:#2f210e;stroke-width:0.0901432"
       d="m 679.31916,559.12748 c -0.22948,-0.06 -0.46811,-0.34267 -0.5303,-0.62821 -0.0622,-0.28555 -0.81356,-5.36447 -1.66971,-11.28649 l -1.55663,-10.76731 -3.92421,-9.41922 -3.92422,-9.41921 1.31431,-28.7068 1.3143,-28.70679 3.93784,-7.36188 3.93784,-7.36188 -0.84275,-16.06534 -0.84275,-16.06535 1.07398,-5.18225 c 0.59069,-2.85023 1.09826,-5.20652 1.12792,-5.23618 0.0297,-0.0297 0.4563,1.46795 0.94806,3.32805 l 0.89413,3.38198 0.83083,31.44067 0.83083,31.44066 7.03474,9.05163 7.03474,9.05162 1.06684,15.31765 c 0.58677,8.4247 1.1282,15.92158 1.20319,16.65972 l 0.13635,1.34207 -6.80161,8.35734 -6.80161,8.35733 -0.95203,8.30764 c -0.52361,4.5692 -1.01509,8.76378 -1.09216,9.32129 l -0.14013,1.01364 -1.59529,-0.0277 c -0.87741,-0.0152 -1.78303,-0.0767 -2.0125,-0.13671 z"
       id="path7928"
       transform="scale(0.26458333)"
       inkscape:export-filename="D:\Art\kajamGame\icicles2.png"
       inkscape:export-xdpi="96"
       inkscape:export-ydpi="96" />
    <path
       style="fill:#5fbcd3;fill-rule:evenodd;stroke:#2f210e;stroke-width:0.0901432"
       d="m 635.42229,535.43588 c -1.02321,-0.0975 -1.88999,-0.2167 -1.92618,-0.26477 -0.0362,-0.0481 0.9948,-10.49811 2.29109,-23.22229 l 2.35688,-23.13489 -1.40129,-13.79345 -1.40129,-13.79345 3.53198,-19.23935 c 1.94259,-10.58165 3.55994,-19.38667 3.59413,-19.56672 0.0342,-0.18004 1.3226,7.11818 2.86315,16.21828 l 2.80101,16.54563 -0.60206,8.34764 c -0.33113,4.5912 -0.57198,8.52511 -0.53522,8.74202 0.0368,0.21692 2.80367,3.43139 6.14869,7.14329 3.34502,3.71189 6.27631,6.99424 6.51398,7.29411 0.41998,0.52988 0.41117,0.6494 -0.31312,4.24975 l -0.74526,3.70453 -1.11789,1.02908 c -0.61485,0.56598 -3.26444,2.99378 -5.88799,5.3951 -2.62354,2.40131 -4.90234,4.48717 -5.06401,4.63524 -0.21825,0.19991 -0.38689,3.86047 -0.65498,14.21739 -0.19858,7.67149 -0.36146,14.35064 -0.36196,14.84255 l -9e-4,0.89439 -4.11419,-0.0334 c -2.26281,-0.0183 -4.95137,-0.11317 -5.97457,-0.21072 z"
       id="path7967"
       transform="scale(0.26458333)"
       inkscape:export-filename="D:\Art\kajamGame\icicles2.png"
       inkscape:export-xdpi="96"
       inkscape:export-ydpi="96" />
    <path
       style="fill:#5fbcd3;fill-rule:evenodd;stroke:#2f210e;stroke-width:0.0901432"
       d="m 610.5823,539.33895 -0.88245,-5.3108 -3.5678,-7.81986 c -1.9623,-4.30093 -3.62775,-8.05445 -3.70102,-8.34117 -0.0894,-0.34972 0.11001,-0.87481 0.60578,-1.59539 l 0.739,-1.0741 1.00816,-13.95719 c 0.55449,-7.67646 1.07875,-13.82745 1.16502,-13.66886 0.0863,0.15858 0.64882,1.89824 1.25012,3.86589 l 1.09327,3.57756 0.96718,11.06969 0.96718,11.06968 3.03379,3.19914 c 4.83954,5.10331 4.19934,3.91696 7.05737,13.07803 1.3944,4.4696 2.53527,8.18905 2.53527,8.26546 0,0.22562 -4.01679,1.61371 -6.08185,2.10171 -1.04942,0.248 -2.6727,0.54093 -3.6073,0.65096 l -1.69927,0.20006 z"
       id="path8006"
       transform="scale(0.26458333)"
       inkscape:export-filename="D:\Art\kajamGame\icicles2.png"
       inkscape:export-xdpi="96"
       inkscape:export-ydpi="96" />
    <path
       style="fill:#216778;fill-rule:evenodd;stroke:#2f210e;stroke-width:0.0901432"
       d="m 665.90865,465.08278 c 0.0993,-0.45912 2.30377,-11.13813 4.8989,-23.73114 2.59514,-12.59302 4.72849,-22.84272 4.74079,-22.77714 0.0123,0.0656 0.33721,6.06334 0.72202,13.32833 l 0.69965,13.20907 -5.49914,10.28357 c -3.02452,5.65597 -5.55394,10.33724 -5.62092,10.40282 -0.067,0.0656 -0.0406,-0.25639 0.0587,-0.71551 z"
       id="path8082"
       transform="scale(0.26458333)"
       inkscape:export-filename="D:\Art\kajamGame\icicles2.png"
       inkscape:export-xdpi="96"
       inkscape:export-ydpi="96" />
    <path
       style="fill:#216778;fill-rule:evenodd;stroke:#2f210e;stroke-width:0.0901432"
       d="m 634.4963,453.14754 -0.36827,-3.68677 2.53081,-8.64733 c 1.39195,-4.75603 2.56463,-8.54589 2.60596,-8.4219 0.0593,0.17775 -4.08436,23.31695 -4.33613,24.21431 -0.0353,0.12566 -0.22982,-1.43058 -0.43237,-3.45831 z"
       id="path8121"
       transform="scale(0.26458333)"
       inkscape:export-filename="D:\Art\kajamGame\icicles2.png"
       inkscape:export-xdpi="96"
       inkscape:export-ydpi="96" />
    <path
       style="fill:#216778;fill-rule:evenodd;stroke:#2f210e;stroke-width:0.0901432"
       d="m 599.47123,519.10212 c -0.0286,-0.79129 4.19626,-22.5122 4.2568,-21.88512 0.0409,0.42402 -0.20468,4.53783 -0.54579,9.14179 l -0.62022,8.37084 -1.54112,2.30458 c -0.84761,1.26753 -1.54497,2.19808 -1.54967,2.06791 z"
       id="path8160"
       transform="scale(0.26458333)"
       inkscape:export-filename="D:\Art\kajamGame\icicles2.png"
       inkscape:export-xdpi="96"
       inkscape:export-ydpi="96" />
    <path
       style="fill:#164450;fill-rule:evenodd;stroke:#2f210e;stroke-width:0.0901432"
       d="m 739.83938,536.37018 c -4.47,-0.41508 -13.75162,-2.1066 -14.27807,-2.60207 -0.11416,-0.10744 2.27605,-9.2588 5.35005,-20.48369 3.05601,-11.15923 5.58662,-20.25927 5.62357,-20.22232 0.0369,0.0369 2.1024,6.87742 4.58988,15.20105 l 4.5227,15.13386 -1.16846,6.55886 c -0.64266,3.60737 -1.17137,6.58569 -1.17491,6.61848 -0.009,0.0838 -0.97919,0.0267 -3.46476,-0.20417 z"
       id="path8236"
       transform="scale(0.26458333)"
       inkscape:export-filename="D:\Art\kajamGame\icicles2.png"
       inkscape:export-xdpi="96"
       inkscape:export-ydpi="96" />
    <path
       style="fill:#164450;fill-rule:evenodd;stroke:#2f210e;stroke-width:0.0901432"
       d="m 718.01838,524.08216 c -1.87053,-0.31543 -4.187,-1.12898 -4.98531,-1.75084 -0.33346,-0.25975 -0.84389,-1.74396 -1.76614,-5.13542 -0.71343,-2.62354 -1.22664,-4.82374 -1.14047,-4.88933 0.0862,-0.0656 1.10507,-3.1244 2.26421,-6.79736 1.15913,-3.67296 2.1807,-6.75931 2.27014,-6.85855 0.0894,-0.0992 1.31679,3.97917 2.72743,9.06315 l 2.5648,9.24359 -0.074,3.71302 -0.074,3.71303 z"
       id="path8275"
       transform="scale(0.26458333)"
       inkscape:export-filename="D:\Art\kajamGame\icicles2.png"
       inkscape:export-xdpi="96"
       inkscape:export-ydpi="96" />
    <path
       style="fill:#164450;fill-rule:evenodd;stroke:#2f210e;stroke-width:0.0901432"
       d="m 673.77377,558.79299 c -7.46303,-0.77023 -15.77944,-2.6902 -22.956,-5.29974 -1.99148,-0.72414 -2.68317,-1.08074 -2.68317,-1.38331 0,-0.22421 3.43565,-17.13338 7.63479,-37.57593 4.19914,-20.44255 7.97327,-38.82632 8.38697,-40.85282 0.47291,-2.31658 0.9368,-3.95751 1.24948,-4.41976 0.27351,-0.40438 1.14126,-1.95498 1.92833,-3.44578 1.28761,-2.43891 1.43849,-2.63563 1.50556,-1.96286 0.041,0.41124 -0.47574,12.74444 -1.14832,27.40711 l -1.22285,26.65941 3.95008,9.45439 3.95009,9.4544 1.61952,11.11262 1.61953,11.11264 -0.96298,-0.0317 c -0.52965,-0.0174 -1.82161,-0.12034 -2.87103,-0.22864 z"
       id="path8314"
       transform="scale(0.26458333)"
       inkscape:export-filename="D:\Art\kajamGame\icicles2.png"
       inkscape:export-xdpi="96"
       inkscape:export-ydpi="96" />
    <path
       style="fill:#164450;fill-rule:evenodd;stroke:#2f210e;stroke-width:0.0901432"
       d="m 629.05428,534.46711 c -2.2159,-0.49966 -5.84439,-1.67688 -7.14189,-2.3171 l -0.82152,-0.40536 -2.93738,-9.42091 c -2.28833,-7.33925 -2.88547,-9.52631 -2.70244,-9.89792 0.12921,-0.26235 4.10269,-13.62454 8.82995,-29.69374 4.72725,-16.06921 8.67695,-29.41315 8.77709,-29.65322 0.10373,-0.24863 0.97037,7.32709 2.01372,17.6028 l 1.83163,18.03928 -2.26574,22.58512 c -1.24615,12.42182 -2.31664,22.82661 -2.37885,23.12176 -0.13766,0.65312 -0.46456,0.65713 -3.20457,0.0393 z"
       id="path8353"
       transform="scale(0.26458333)"
       inkscape:export-filename="D:\Art\kajamGame\icicles2.png"
       inkscape:export-xdpi="96"
       inkscape:export-ydpi="96" />
    <path
       style="fill:#164450;fill-rule:evenodd;stroke:#2f210e;stroke-width:0.0901432"
       d="m 603.05734,544.35553 c -2.14256,-0.32224 -7.1311,-1.57476 -7.74844,-1.94547 -0.2121,-0.12736 0.18601,-2.66106 1.55371,-9.88825 l 1.83887,-9.71702 1.25398,-1.91005 c 0.6897,-1.05053 1.32095,-1.90812 1.4028,-1.90575 0.0818,0.002 1.7347,3.51731 3.67301,7.811 l 3.5242,7.80671 0.82542,4.88933 c 0.45398,2.68913 0.82681,4.96982 0.8285,5.06821 0.005,0.29481 -4.72127,0.15689 -7.15205,-0.20871 z"
       id="path8392"
       transform="scale(0.26458333)"
       inkscape:export-filename="D:\Art\kajamGame\icicles2.png"
       inkscape:export-xdpi="96"
       inkscape:export-ydpi="96" />
  </g>
</svg>
